<?xml version="1.0" standalone="no"?><!DOCTYPE svg PUBLIC "-//W3C//DTD SVG 1.1//EN" 	"http://www.w3.org/Graphics/SVG/1.1/DTD/svg11.dtd"><svg width="1536" height="722" version="1.1"	xmlns="http://www.w3.org/2000/svg"><title>Krona (snapshot) - Root</title><defs>	<style type="text/css">	text {font-size: 11px; font-family: sans-serif; dominant-baseline:central}	path {stroke-width:0.27499999999999997;}	path.wedge {stroke:none}	path.line {fill:none;stroke:black;}	line {stroke:black;stroke-width:0.27499999999999997;}	line.tick {stroke-width:0.5499999999999999;}	line.pattern {stroke-width:0.18333333333333332;}	circle {fill:none;stroke:black;stroke-width:0.27499999999999997;}	rect {stroke:black;stroke-width:0.27499999999999997;}	.highlight {stroke:black;stroke-width:1.375;}	.searchHighlight {fill:rgb(255, 255, 100);stroke:none;}	</style><pattern id="hiddenPattern" patternUnits="userSpaceOnUse" x="0" y="0" width="6.6" height="6.6"><line class="pattern" x1="0" y1="0" x2="3.3" y2="3.3"/><line class="pattern" x1="3.3" y1="6.6" x2="6.6" y2="3.3"/></pattern></defs><path class="wedge" fill="rgb(220,220,220)" d=" M 693.1678983177193,433.19980477920217 L 693.671593270877,649.7992191168088 A 288.8,288.8 0 0,1 693.0000000000001,649.8 L 693,433.2 A 72.2,72.2 0 0 0 693.1678983177193,433.19980477920217 Z "/><path class="wedge" fill="rgb(207,111,111)" d=" M 693,433.2 L 693,649.8 A 288.8,288.8 0 1,1 961.7384973758641,255.2405558441106 L 760.184624343966,334.56013896102763 A 72.2,72.2 0 1 0 693,433.2 Z "/><path class="wedge" fill="rgb(207,111,111)" d=" M 802.951942833735,316.74564593465215 L 960.9135872997432,253.16795587496787 A 288.8,288.8 0 0,1 961.7384973758641,255.2405558441106 L 803.2904865651178,317.5962425603075 A 118.52374271281718,118.52374271281718 0 0 0 802.951942833735,316.74564593465215 Z "/><path class="wedge" fill="rgb(210,121,121)" d=" M 693,479.5237427128172 L 693,649.8 A 288.8,288.8 0 1,1 925.813403081803,190.1100958351549 L 788.5468001626143,290.8666515462186 A 118.52374271281718,118.52374271281718 0 1 0 693,479.5237427128172 Z "/><path class="wedge" fill="rgb(210,121,121)" d=" M 815.2054446501922,270.73824967142207 L 925.3042209462728,189.41856472640967 A 288.8,288.8 0 0,1 925.813403081803,190.1100958351549 L 815.4733038781776,271.1020349969293 A 151.92548921932007,151.92548921932007 0 0 0 815.2054446501922,270.73824967142207 Z "/><path class="wedge" fill="rgb(213,130,130)" d=" M 693,512.9254892193201 L 693,649.8 A 288.8,288.8 0 1,1 910.9438472503335,171.5114266090874 L 807.6510582266194,261.31806020122775 A 151.92548921932007,151.92548921932007 0 1 0 693,512.9254892193201 Z "/><path class="wedge" fill="rgb(213,130,130)" d=" M 826.4211629624058,244.50043284554062 L 910.5411514071475,171.04924995027642 A 288.8,288.8 0 0,1 910.9438472503335,171.5114266090874 L 826.6681421999914,244.78389253541434 A 177.12525475893392,177.12525475893392 0 0 0 826.4211629624058,244.50043284554062 Z "/><path class="wedge" fill="rgb(216,140,140)" d=" M 693,538.1252547589339 L 693,649.8 A 288.8,288.8 0 1,1 886.3312635573853,146.45755074739915 L 811.5728854240598,229.41798483215865 A 177.12525475893392,177.12525475893392 0 1 0 693,538.1252547589339 Z "/><path class="wedge" fill="rgb(216,140,140)" d=" M 822.9684193991749,213.21819385188547 L 883.7235214357441,144.13603717733722 A 288.8,288.8 0 0,1 886.3312635573853,146.45755074739915 L 824.7454635686563,214.8001877614114 A 196.80257180615988,196.80257180615988 0 0 0 822.9684193991749,213.21819385188547 Z "/><path class="wedge" fill="rgb(219,149,149)" d=" M 693,557.8025718061599 L 693,649.8 A 288.8,288.8 0 1,1 877.0883218726854,138.47600185575808 L 818.4468669806947,209.36116647030485 A 196.80257180615988,196.80257180615988 0 1 0 693,557.8025718061599 Z "/><path class="wedge" fill="rgb(219,149,149)" d=" M 826.2633892772758,195.36625608413482 L 874.0377934646167,135.987206280481 A 288.8,288.8 0 0,1 877.0883218726854,138.47600185575808 L 828.5089080000021,197.19827870898268 A 212.58802422820796,212.58802422820796 0 0 0 826.2633892772758,195.36625608413482 Z "/><path class="wedge" fill="rgb(223,159,159)" d=" M 693,573.5880242282079 L 693,649.8 A 288.8,288.8 0 1,1 870.0273542363877,132.8185900383984 L 823.3112724081051,193.03381194825621 A 212.58802422820796,212.58802422820796 0 1 0 693,573.5880242282079 Z "/><path class="wedge" fill="rgb(223,159,159)" d=" M 471.9505299641301,316.2713527333779 L 409.9367684186535,303.72306811005836 A 288.8,288.8 0 0,1 870.0273542363877,132.8185900383984 L 831.2440333814957,182.80878999272514 A 225.52942178226067,225.52942178226067 0 0 0 471.9505299641301,316.2713527333779 Z "/><path class="wedge" fill="rgb(226,168,168)" d=" M 693,586.5294217822607 L 693,649.8 A 288.8,288.8 0 0,1 552.3622666387053,613.2428749340551 L 583.1733148000673,557.981266387024 A 225.52942178226067,225.52942178226067 0 0 0 693,586.5294217822607 Z "/><path class="wedge" fill="rgb(226,168,168)" d=" M 691.0578659197326,597.3222454530571 L 690.6266754677142,649.7902479840074 A 288.8,288.8 0 0,1 552.3622666387053,613.2428749340551 L 577.9136174944174,567.4148738403787 A 236.3302257028515,236.3302257028515 0 0 0 691.0578659197326,597.3222454530571 Z "/><path class="wedge" fill="rgb(229,178,178)" d=" M 693,597.3302257028515 L 693,649.8 A 288.8,288.8 0 0,1 690.6266754677142,649.7902479840074 L 691.0578659197326,597.3222454530571 A 236.3302257028515,236.3302257028515 0 0 0 693,597.3302257028515 Z "/><path class="wedge" fill="url(#hiddenPattern)" d=" M 693,597.3302257028515 L 693,649.8 A 288.8,288.8 0 0,1 690.6266754677142,649.7902479840074 L 691.0578659197326,597.3222454530571 A 236.3302257028515,236.3302257028515 0 0 0 693,597.3302257028515 Z "/><path class="wedge" fill="rgb(226,172,168)" d=" M 583.1733148000673,557.981266387024 L 552.3622666387053,613.2428749340551 A 288.8,288.8 0 0,1 448.00427253226087,513.9134837826714 L 501.6781691311512,480.41305256307817 A 225.52942178226067,225.52942178226067 0 0 0 583.1733148000673,557.981266387024 Z "/><path class="wedge" fill="rgb(226,172,168)" d=" M 492.6592339241038,486.3616888402663 L 448.1797994918061,514.1943517990389 A 288.8,288.8 0 0,1 448.00427253226087,513.9134837826714 L 492.51559706133975,486.13184949919685 A 236.3302257028515,236.3302257028515 0 0 0 492.6592339241038,486.3616888402663 Z "/><path class="wedge" fill="rgb(229,181,178)" d=" M 577.9136174944174,567.4148738403787 L 552.3622666387053,613.2428749340551 A 288.8,288.8 0 0,1 449.8434830333931,516.8215269360053 L 494.020656039344,488.51155342849404 A 236.3302257028515,236.3302257028515 0 0 0 577.9136174944174,567.4148738403787 Z "/><path class="wedge" fill="rgb(229,184,178)" d=" M 494.020656039344,488.51155342849404 L 449.8434830333931,516.8215269360053 A 288.8,288.8 0 0,1 448.1797994918061,514.1943517990389 L 492.6592339241038,486.3616888402663 A 236.3302257028515,236.3302257028515 0 0 0 494.020656039344,488.51155342849404 Z "/><path class="wedge" fill="url(#hiddenPattern)" d=" M 494.020656039344,488.51155342849404 L 449.8434830333931,516.8215269360053 A 288.8,288.8 0 0,1 448.1797994918061,514.1943517990389 L 492.6592339241038,486.3616888402663 A 236.3302257028515,236.3302257028515 0 0 0 494.020656039344,488.51155342849404 Z "/><path class="wedge" fill="rgb(226,175,168)" d=" M 501.6781691311512,480.41305256307817 L 448.00427253226087,513.9134837826714 A 288.8,288.8 0 0,1 404.9153447495633,381.3143153770202 L 468.02920456034315,376.86383587562966 A 225.52942178226067,225.52942178226067 0 0 0 501.6781691311512,480.41305256307817 Z "/><path class="wedge" fill="rgb(226,178,168)" d=" M 468.02920456034315,376.86383587562966 L 404.9153447495633,381.3143153770202 A 288.8,288.8 0 0,1 408.1180338563438,313.59002883227265 L 470.53024549663314,323.9766503318172 A 225.52942178226067,225.52942178226067 0 0 0 468.02920456034315,376.86383587562966 Z "/><path class="wedge" fill="rgb(226,178,168)" d=" M 468.02920456034315,376.86383587562966 L 404.9153447495633,381.3143153770202 A 288.8,288.8 0 0,1 408.1180338563438,313.59002883227265 L 470.53024549663314,323.9766503318172 A 225.52942178226067,225.52942178226067 0 0 0 468.02920456034315,376.86383587562966 Z "/><path class="wedge" fill="rgb(226,180,168)" d=" M 470.53024549663314,323.9766503318172 L 408.1180338563438,313.59002883227265 A 288.8,288.8 0 0,1 409.9367684186535,303.72306811005836 L 471.9505299641301,316.2713527333779 A 225.52942178226067,225.52942178226067 0 0 0 470.53024549663314,323.9766503318172 Z "/><path class="wedge" fill="url(#hiddenPattern)" d=" M 470.53024549663314,323.9766503318172 L 408.1180338563438,313.59002883227265 A 288.8,288.8 0 0,1 409.9367684186535,303.72306811005836 L 471.9505299641301,316.2713527333779 A 225.52942178226067,225.52942178226067 0 0 0 470.53024549663314,323.9766503318172 Z "/><path class="wedge" fill="rgb(219,179,149)" d=" M 823.3112724081051,193.03381194825621 L 870.0273542363877,132.8185900383984 A 288.8,288.8 0 0,1 874.0377934646167,135.987206280481 L 826.2633892772758,195.36625608413482 A 212.58802422820796,212.58802422820796 0 0 0 823.3112724081051,193.03381194825621 Z "/><path class="wedge" fill="url(#hiddenPattern)" d=" M 823.3112724081051,193.03381194825621 L 870.0273542363877,132.8185900383984 A 288.8,288.8 0 0,1 874.0377934646167,135.987206280481 L 826.2633892772758,195.36625608413482 A 212.58802422820796,212.58802422820796 0 0 0 823.3112724081051,193.03381194825621 Z "/><path class="wedge" fill="rgb(216,173,140)" d=" M 818.4468669806947,209.36116647030485 L 877.0883218726854,138.47600185575808 A 288.8,288.8 0 0,1 883.7235214357441,144.13603717733722 L 822.9684193991749,213.21819385188547 A 196.80257180615988,196.80257180615988 0 0 0 818.4468669806947,209.36116647030485 Z "/><path class="wedge" fill="url(#hiddenPattern)" d=" M 818.4468669806947,209.36116647030485 L 877.0883218726854,138.47600185575808 A 288.8,288.8 0 0,1 883.7235214357441,144.13603717733722 L 822.9684193991749,213.21819385188547 A 196.80257180615988,196.80257180615988 0 0 0 818.4468669806947,209.36116647030485 Z "/><path class="wedge" fill="rgb(216,173,140)" d=" M 811.5728854240598,229.41798483215865 L 886.3312635573853,146.45755074739915 A 288.8,288.8 0 0,1 901.0616641251627,160.7107493611601 L 820.607255068342,238.15967955373793 A 177.12525475893392,177.12525475893392 0 0 0 811.5728854240598,229.41798483215865 Z "/><path class="wedge" fill="rgb(216,173,140)" d=" M 834.7820163139866,224.51149455188843 L 901.0595082457031,160.7085098448858 A 288.8,288.8 0 0,1 901.0616641251627,160.7107493611601 L 834.7834854366392,224.51302066879418 A 196.80257180615988,196.80257180615988 0 0 0 834.7820163139866,224.51149455188843 Z "/><path class="wedge" fill="rgb(219,180,149)" d=" M 824.7454635686563,214.8001877614114 L 886.3312635573853,146.45755074739915 A 288.8,288.8 0 0,1 900.9946572740105,160.64116554175374 L 834.737823661586,224.46560282040335 A 196.80257180615988,196.80257180615988 0 0 0 824.7454635686563,214.8001877614114 Z "/><path class="wedge" fill="rgb(219,180,149)" d=" M 846.1038375165673,213.51141405873577 L 900.9909648500211,160.6373324674547 A 288.8,288.8 0 0,1 900.9946572740105,160.64116554175374 L 846.1065555398377,213.51423561584085 A 212.58802422820796,212.58802422820796 0 0 0 846.1038375165673,213.51141405873577 Z "/><path class="wedge" fill="rgb(219,180,149)" d=" M 835.312712400303,203.07356163541903 L 886.3312635573853,146.45755074739915 A 288.8,288.8 0 0,1 900.9777957184899,160.62366285392358 L 846.0941436119516,213.5013517452574 A 212.58802422820796,212.58802422820796 0 0 0 835.312712400303,203.07356163541903 Z "/><path class="wedge" fill="url(#hiddenPattern)" d=" M 835.312712400303,203.07356163541903 L 886.3312635573853,146.45755074739915 A 288.8,288.8 0 0,1 900.9777957184899,160.62366285392358 L 846.0941436119516,213.5013517452574 A 212.58802422820796,212.58802422820796 0 0 0 835.312712400303,203.07356163541903 Z "/><path class="wedge" fill="rgb(219,181,149)" d=" M 846.0941436119516,213.5013517452574 L 900.9777957184899,160.62366285392358 A 288.8,288.8 0 0,1 900.9909648500211,160.6373324674547 L 846.1038375165673,213.51141405873577 A 212.58802422820796,212.58802422820796 0 0 0 846.0941436119516,213.5013517452574 Z "/><path class="wedge" fill="url(#hiddenPattern)" d=" M 846.0941436119516,213.5013517452574 L 900.9777957184899,160.62366285392358 A 288.8,288.8 0 0,1 900.9909648500211,160.6373324674547 L 846.1038375165673,213.51141405873577 A 212.58802422820796,212.58802422820796 0 0 0 846.0941436119516,213.5013517452574 Z "/><path class="wedge" fill="rgb(216,174,140)" d=" M 834.737823661586,224.46560282040335 L 900.9946572740105,160.64116554175374 A 288.8,288.8 0 0,1 901.0595082457031,160.7085098448858 L 834.7820163139866,224.51149455188843 A 196.80257180615988,196.80257180615988 0 0 0 834.737823661586,224.46560282040335 Z "/><path class="wedge" fill="url(#hiddenPattern)" d=" M 834.737823661586,224.46560282040335 L 900.9946572740105,160.64116554175374 A 288.8,288.8 0 0,1 901.0595082457031,160.7085098448858 L 834.7820163139866,224.51149455188843 A 196.80257180615988,196.80257180615988 0 0 0 834.737823661586,224.46560282040335 Z "/><path class="wedge" fill="rgb(213,168,130)" d=" M 820.607255068342,238.15967955373793 L 901.0616641251627,160.7107493611601 A 288.8,288.8 0 0,1 910.5411514071475,171.04924995027642 L 826.4211629624058,244.50043284554062 A 177.12525475893392,177.12525475893392 0 0 0 820.607255068342,238.15967955373793 Z "/><path class="wedge" fill="url(#hiddenPattern)" d=" M 820.607255068342,238.15967955373793 L 901.0616641251627,160.7107493611601 A 288.8,288.8 0 0,1 910.5411514071475,171.04924995027642 L 826.4211629624058,244.50043284554062 A 177.12525475893392,177.12525475893392 0 0 0 820.607255068342,238.15967955373793 Z "/><path class="wedge" fill="rgb(210,162,121)" d=" M 807.6510582266194,261.31806020122775 L 910.9438472503335,171.5114266090874 A 288.8,288.8 0 0,1 925.3042209462728,189.41856472640967 L 815.2054446501922,270.73824967142207 A 151.92548921932007,151.92548921932007 0 0 0 807.6510582266194,261.31806020122775 Z "/><path class="wedge" fill="url(#hiddenPattern)" d=" M 807.6510582266194,261.31806020122775 L 910.9438472503335,171.5114266090874 A 288.8,288.8 0 0,1 925.3042209462728,189.41856472640967 L 815.2054446501922,270.73824967142207 A 151.92548921932007,151.92548921932007 0 0 0 807.6510582266194,261.31806020122775 Z "/><path class="wedge" fill="rgb(210,163,121)" d=" M 788.5468001626143,290.8666515462186 L 925.813403081803,190.1100958351549 A 288.8,288.8 0 0,1 958.3751979920535,247.06385871604024 L 801.9101859043388,314.2405197533545 A 118.52374271281718,118.52374271281718 0 0 0 788.5468001626143,290.8666515462186 Z "/><path class="wedge" fill="rgb(210,163,121)" d=" M 832.5738080124511,300.99578021977794 L 958.3202958971933,246.93606799243787 A 288.8,288.8 0 0,1 958.3751979920535,247.06385871604024 L 832.6026896870383,301.063005525183 A 151.92548921932007,151.92548921932007 0 0 0 832.5738080124511,300.99578021977794 Z "/><path class="wedge" fill="rgb(213,169,130)" d=" M 815.4733038781776,271.1020349969293 L 925.813403081803,190.1100958351549 A 288.8,288.8 0 0,1 947.4602865982315,224.4152184745831 L 826.8608155412905,289.1485119350315 A 151.92548921932007,151.92548921932007 0 0 0 815.4733038781776,271.1020349969293 Z "/><path class="wedge" fill="rgb(213,169,130)" d=" M 849.0564878276748,277.2161800804713 L 947.4476999960915,224.3917719655986 A 288.8,288.8 0 0,1 947.4602865982315,224.4152184745831 L 849.0642073744567,277.2305601666108 A 177.12525475893392,177.12525475893392 0 0 0 849.0564878276748,277.2161800804713 Z "/><path class="wedge" fill="rgb(216,176,140)" d=" M 835.7878577983336,256.1907278014959 L 925.813403081803,190.1100958351549 A 288.8,288.8 0 0,1 947.3977332821856,224.29874433317764 L 849.0258425128202,277.1591248758585 A 177.12525475893392,177.12525475893392 0 0 0 835.7878577983336,256.1907278014959 Z "/><path class="wedge" fill="rgb(216,176,140)" d=" M 866.1658390541725,267.48612694266626 L 947.1140283883207,223.77208528779667 A 288.8,288.8 0 0,1 947.3977332821856,224.29874433317764 L 866.3591695692232,267.8450184059487 A 196.80257180615988,196.80257180615988 0 0 0 866.1658390541725,267.48612694266626 Z "/><path class="wedge" fill="rgb(219,182,149)" d=" M 851.6505418194008,244.54718616568664 L 925.813403081803,190.1100958351549 A 288.8,288.8 0 0,1 945.851047403671,221.45865190967052 L 865.3051814851929,265.90963927466964 A 196.80257180615988,196.80257180615988 0 0 0 851.6505418194008,244.54718616568664 Z "/><path class="wedge" fill="rgb(219,182,149)" d=" M 879.0864282840813,258.2113369396868 L 945.797685493103,221.36200298869167 A 288.8,288.8 0 0,1 945.851047403671,221.45865190967052 L 879.1257084195962,258.2824809949316 A 212.58802422820796,212.58802422820796 0 0 0 879.0864282840813,258.2113369396868 Z "/><path class="wedge" fill="rgb(223,189,159)" d=" M 864.3758357860314,235.20655440806019 L 925.813403081803,190.1100958351549 A 288.8,288.8 0 0,1 943.0619190556286,216.51997841149011 L 877.0726084028745,254.64708334504797 A 212.58802422820796,212.58802422820796 0 0 0 864.3758357860314,235.20655440806019 Z "/><path class="wedge" fill="rgb(223,189,159)" d=" M 888.2019298451613,248.04103986772202 L 942.9643589460786,216.35125559937984 A 288.8,288.8 0 0,1 943.0619190556286,216.51997841149011 L 888.278116393277,248.17279872595162 A 225.52942178226067,225.52942178226067 0 0 0 888.2019298451613,248.04103986772202 Z "/><path class="wedge" fill="rgb(226,195,168)" d=" M 874.8084216765908,227.54881830081908 L 925.813403081803,190.1100958351549 A 288.8,288.8 0 0,1 940.4732040647477,212.1294076389574 L 886.2565395406024,244.74411836714484 A 225.52942178226067,225.52942178226067 0 0 0 874.8084216765908,227.54881830081908 Z "/><path class="wedge" fill="rgb(226,195,168)" d=" M 895.4316552450923,239.04344816495995 L 940.3753065690796,211.96678994313424 A 288.8,288.8 0 0,1 940.4732040647477,212.1294076389574 L 895.5117665236484,239.17652114542108 A 236.3302257028515,236.3302257028515 0 0 0 895.4316552450923,239.04344816495995 Z "/><path class="wedge" fill="rgb(229,202,178)" d=" M 883.515388147408,221.15772291684038 L 925.813403081803,190.1100958351549 A 288.8,288.8 0 0,1 938.2488881708985,208.49287606495838 L 893.6915688878179,236.20068206073017 A 236.3302257028515,236.3302257028515 0 0 0 883.515388147408,221.15772291684038 Z "/><path class="wedge" fill="rgb(229,202,178)" d=" M 883.515388147408,221.15772291684038 L 925.813403081803,190.1100958351549 A 288.8,288.8 0 0,1 938.2488881708985,208.49287606495838 L 893.6915688878179,236.20068206073017 A 236.3302257028515,236.3302257028515 0 0 0 883.515388147408,221.15772291684038 Z "/><path class="wedge" fill="rgb(226,196,168)" d=" M 893.6915688878179,236.20068206073017 L 938.2488881708985,208.49287606495838 A 288.8,288.8 0 0,1 940.3753065690796,211.96678994313424 L 895.4316552450923,239.04344816495995 A 236.3302257028515,236.3302257028515 0 0 0 893.6915688878179,236.20068206073017 Z "/><path class="wedge" fill="url(#hiddenPattern)" d=" M 893.6915688878179,236.20068206073017 L 938.2488881708985,208.49287606495838 A 288.8,288.8 0 0,1 940.3753065690796,211.96678994313424 L 895.4316552450923,239.04344816495995 A 236.3302257028515,236.3302257028515 0 0 0 893.6915688878179,236.20068206073017 Z "/><path class="wedge" fill="rgb(223,190,159)" d=" M 886.2565395406024,244.74411836714484 L 940.4732040647477,212.1294076389574 A 288.8,288.8 0 0,1 942.9643589460786,216.35125559937984 L 888.2019298451613,248.04103986772202 A 225.52942178226067,225.52942178226067 0 0 0 886.2565395406024,244.74411836714484 Z "/><path class="wedge" fill="url(#hiddenPattern)" d=" M 886.2565395406024,244.74411836714484 L 940.4732040647477,212.1294076389574 A 288.8,288.8 0 0,1 942.9643589460786,216.35125559937984 L 888.2019298451613,248.04103986772202 A 225.52942178226067,225.52942178226067 0 0 0 886.2565395406024,244.74411836714484 Z "/><path class="wedge" fill="rgb(219,183,149)" d=" M 877.0726084028745,254.64708334504797 L 943.0619190556286,216.51997841149011 A 288.8,288.8 0 0,1 945.797685493103,221.36200298869167 L 879.0864282840813,258.2113369396868 A 212.58802422820796,212.58802422820796 0 0 0 877.0726084028745,254.64708334504797 Z "/><path class="wedge" fill="url(#hiddenPattern)" d=" M 877.0726084028745,254.64708334504797 L 943.0619190556286,216.51997841149011 A 288.8,288.8 0 0,1 945.797685493103,221.36200298869167 L 879.0864282840813,258.2113369396868 A 212.58802422820796,212.58802422820796 0 0 0 877.0726084028745,254.64708334504797 Z "/><path class="wedge" fill="rgb(216,177,140)" d=" M 865.3051814851929,265.90963927466964 L 945.851047403671,221.45865190967052 A 288.8,288.8 0 0,1 947.1140283883207,223.77208528779667 L 866.1658390541725,267.48612694266626 A 196.80257180615988,196.80257180615988 0 0 0 865.3051814851929,265.90963927466964 Z "/><path class="wedge" fill="url(#hiddenPattern)" d=" M 865.3051814851929,265.90963927466964 L 945.851047403671,221.45865190967052 A 288.8,288.8 0 0,1 947.1140283883207,223.77208528779667 L 866.1658390541725,267.48612694266626 A 196.80257180615988,196.80257180615988 0 0 0 865.3051814851929,265.90963927466964 Z "/><path class="wedge" fill="rgb(213,170,130)" d=" M 849.0258425128202,277.1591248758585 L 947.3977332821856,224.29874433317764 A 288.8,288.8 0 0,1 947.4476999960915,224.3917719655986 L 849.0564878276748,277.2161800804713 A 177.12525475893392,177.12525475893392 0 0 0 849.0258425128202,277.1591248758585 Z "/><path class="wedge" fill="url(#hiddenPattern)" d=" M 849.0258425128202,277.1591248758585 L 947.3977332821856,224.29874433317764 A 288.8,288.8 0 0,1 947.4476999960915,224.3917719655986 L 849.0564878276748,277.2161800804713 A 177.12525475893392,177.12525475893392 0 0 0 849.0258425128202,277.1591248758585 Z "/><path class="wedge" fill="rgb(213,170,130)" d=" M 826.8608155412905,289.1485119350315 L 947.4602865982315,224.4152184745831 A 288.8,288.8 0 0,1 958.0492584595052,246.3076698725393 L 832.4312266574734,300.66520649474296 A 151.92548921932007,151.92548921932007 0 0 0 826.8608155412905,289.1485119350315 Z "/><path class="wedge" fill="rgb(213,170,130)" d=" M 855.5165849480463,290.5605544439644 L 957.9807888596895,246.14956885019234 A 288.8,288.8 0 0,1 958.0492584595052,246.3076698725393 L 855.5585783528614,290.65752010830255 A 177.12525475893392,177.12525475893392 0 0 0 855.5165849480463,290.5605544439644 Z "/><path class="wedge" fill="rgb(216,177,140)" d=" M 849.0642073744567,277.2305601666108 L 947.4602865982315,224.4152184745831 A 288.8,288.8 0 0,1 957.4596070473017,244.95450788424904 L 855.1969365363603,289.8276061127831 A 177.12525475893392,177.12525475893392 0 0 0 849.0642073744567,277.2305601666108 Z "/><path class="wedge" fill="rgb(216,177,140)" d=" M 873.1727248081639,281.82272103235465 L 957.3963564452215,244.8104707880638 A 288.8,288.8 0 0,1 957.4596070473017,244.95450788424904 L 873.2158268897348,281.92087501768964 A 196.80257180615988,196.80257180615988 0 0 0 873.1727248081639,281.82272103235465 Z "/><path class="wedge" fill="rgb(219,183,149)" d=" M 866.4017964856803,267.9243896337101 L 947.4602865982315,224.4152184745831 A 288.8,288.8 0 0,1 956.9996836647892,243.9119689084693 L 872.9024124004264,281.21043751200534 A 196.80257180615988,196.80257180615988 0 0 0 866.4017964856803,267.9243896337101 Z "/><path class="wedge" fill="rgb(219,183,149)" d=" M 887.2981517866182,274.7335739840961 L 956.9532797752478,243.80739743529125 A 288.8,288.8 0 0,1 956.9996836647892,243.9119689084693 L 887.3323100663762,274.8105498943231 A 212.58802422820796,212.58802422820796 0 0 0 887.2981517866182,274.7335739840961 Z "/><path class="wedge" fill="rgb(223,190,159)" d=" M 880.3102824531218,260.45883364220975 L 947.4602865982315,224.4152184745831 A 288.8,288.8 0 0,1 954.5847181861907,238.61178483427747 L 885.5546343749822,270.9090413750078 A 212.58802422820796,212.58802422820796 0 0 0 880.3102824531218,260.45883364220975 Z "/><path class="wedge" fill="rgb(226,196,168)" d=" M 891.7128853983638,254.33834209943325 L 947.4602865982315,224.4152184745831 A 288.8,288.8 0 0,1 954.5788097277393,238.59915726834572 L 897.2718757215687,265.4148501145034 A 225.52942178226067,225.52942178226067 0 0 0 891.7128853983638,254.33834209943325 Z "/><path class="wedge" fill="rgb(226,196,168)" d=" M 891.7128853983638,254.33834209943325 L 947.4602865982315,224.4152184745831 A 288.8,288.8 0 0,1 954.5788097277393,238.59915726834572 L 897.2718757215687,265.4148501145034 A 225.52942178226067,225.52942178226067 0 0 0 891.7128853983638,254.33834209943325 Z "/><path class="wedge" fill="url(#hiddenPattern)" d=" M 891.7128853983638,254.33834209943325 L 947.4602865982315,224.4152184745831 A 288.8,288.8 0 0,1 954.5788097277393,238.59915726834572 L 897.2718757215687,265.4148501145034 A 225.52942178226067,225.52942178226067 0 0 0 891.7128853983638,254.33834209943325 Z "/><path class="wedge" fill="rgb(223,190,159)" d=" M 897.2718757215687,265.4148501145034 L 954.5788097277393,238.59915726834572 A 288.8,288.8 0 0,1 954.5847181861907,238.61178483427747 L 897.2764897493324,265.42471122130087 A 225.52942178226067,225.52942178226067 0 0 0 897.2718757215687,265.4148501145034 Z "/><path class="wedge" fill="url(#hiddenPattern)" d=" M 897.2718757215687,265.4148501145034 L 954.5788097277393,238.59915726834572 A 288.8,288.8 0 0,1 954.5847181861907,238.61178483427747 L 897.2764897493324,265.42471122130087 A 225.52942178226067,225.52942178226067 0 0 0 897.2718757215687,265.4148501145034 Z "/><path class="wedge" fill="rgb(219,184,149)" d=" M 885.5546343749822,270.9090413750078 L 954.5847181861907,238.61178483427747 A 288.8,288.8 0 0,1 956.9532797752478,243.80739743529125 L 887.2981517866182,274.7335739840961 A 212.58802422820796,212.58802422820796 0 0 0 885.5546343749822,270.9090413750078 Z "/><path class="wedge" fill="url(#hiddenPattern)" d=" M 885.5546343749822,270.9090413750078 L 954.5847181861907,238.61178483427747 A 288.8,288.8 0 0,1 956.9532797752478,243.80739743529125 L 887.2981517866182,274.7335739840961 A 212.58802422820796,212.58802422820796 0 0 0 885.5546343749822,270.9090413750078 Z "/><path class="wedge" fill="rgb(216,178,140)" d=" M 872.9024124004264,281.21043751200534 L 956.9996836647892,243.9119689084693 A 288.8,288.8 0 0,1 957.3963564452215,244.8104707880638 L 873.1727248081639,281.82272103235465 A 196.80257180615988,196.80257180615988 0 0 0 872.9024124004264,281.21043751200534 Z "/><path class="wedge" fill="url(#hiddenPattern)" d=" M 872.9024124004264,281.21043751200534 L 956.9996836647892,243.9119689084693 A 288.8,288.8 0 0,1 957.3963564452215,244.8104707880638 L 873.1727248081639,281.82272103235465 A 196.80257180615988,196.80257180615988 0 0 0 872.9024124004264,281.21043751200534 Z "/><path class="wedge" fill="rgb(213,171,130)" d=" M 855.1969365363603,289.8276061127831 L 957.4596070473017,244.95450788424904 A 288.8,288.8 0 0,1 957.9807888596895,246.14956885019234 L 855.5165849480463,290.5605544439644 A 177.12525475893392,177.12525475893392 0 0 0 855.1969365363603,289.8276061127831 Z "/><path class="wedge" fill="url(#hiddenPattern)" d=" M 855.1969365363603,289.8276061127831 L 957.4596070473017,244.95450788424904 A 288.8,288.8 0 0,1 957.9807888596895,246.14956885019234 L 855.5165849480463,290.5605544439644 A 177.12525475893392,177.12525475893392 0 0 0 855.1969365363603,289.8276061127831 Z "/><path class="wedge" fill="rgb(210,165,121)" d=" M 832.4312266574734,300.66520649474296 L 958.0492584595052,246.3076698725393 A 288.8,288.8 0 0,1 958.3202958971933,246.93606799243787 L 832.5738080124511,300.99578021977794 A 151.92548921932007,151.92548921932007 0 0 0 832.4312266574734,300.66520649474296 Z "/><path class="wedge" fill="url(#hiddenPattern)" d=" M 832.4312266574734,300.66520649474296 L 958.0492584595052,246.3076698725393 A 288.8,288.8 0 0,1 958.3202958971933,246.93606799243787 L 832.5738080124511,300.99578021977794 A 151.92548921932007,151.92548921932007 0 0 0 832.4312266574734,300.66520649474296 Z "/><path class="wedge" fill="rgb(207,159,111)" d=" M 801.9101859043388,314.2405197533545 L 958.3751979920535,247.06385871604024 A 288.8,288.8 0 0,1 960.9135872997432,253.16795587496787 L 802.951942833735,316.74564593465215 A 118.52374271281718,118.52374271281718 0 0 0 801.9101859043388,314.2405197533545 Z "/><path class="wedge" fill="url(#hiddenPattern)" d=" M 801.9101859043388,314.2405197533545 L 958.3751979920535,247.06385871604024 A 288.8,288.8 0 0,1 960.9135872997432,253.16795587496787 L 802.951942833735,316.74564593465215 A 118.52374271281718,118.52374271281718 0 0 0 801.9101859043388,314.2405197533545 Z "/><path class="wedge" fill="rgb(207,207,111)" d=" M 760.184624343966,334.56013896102763 L 961.7384973758641,255.2405558441106 A 288.8,288.8 0 0,1 713.7013662375691,649.0571009989131 L 698.1753415593922,433.01427524972826 A 72.2,72.2 0 0 0 760.184624343966,334.56013896102763 Z "/><path class="wedge" fill="rgb(101,204,101)" d=" M 698.1753415593922,433.01427524972826 L 713.7013662375691,649.0571009989131 A 288.8,288.8 0 0,1 696.9372201750435,649.7731606248981 L 693.9843050437609,433.1932901562245 A 72.2,72.2 0 0 0 698.1753415593922,433.01427524972826 Z "/><path class="wedge" fill="url(#hiddenPattern)" d=" M 698.1753415593922,433.01427524972826 L 713.7013662375691,649.0571009989131 A 288.8,288.8 0 0,1 696.9372201750435,649.7731606248981 L 693.9843050437609,433.1932901562245 A 72.2,72.2 0 0 0 698.1753415593922,433.01427524972826 Z "/><path class="wedge" fill="rgb(111,207,207)" d=" M 693.9843050437609,433.1932901562245 L 696.9372201750435,649.7731606248981 A 288.8,288.8 0 0,1 693.89338469222,649.7986181819292 L 693.223346173055,433.1996545454823 A 72.2,72.2 0 0 0 693.9843050437609,433.1932901562245 Z "/><path class="wedge" fill="rgb(111,207,207)" d=" M 693.9843050437609,433.1932901562245 L 696.9372201750435,649.7731606248981 A 288.8,288.8 0 0,1 693.89338469222,649.7986181819292 L 693.223346173055,433.1996545454823 A 72.2,72.2 0 0 0 693.9843050437609,433.1932901562245 Z "/><path class="wedge" fill="rgb(111,207,207)" d=" M 693.9843050437609,433.1932901562245 L 696.9372201750435,649.7731606248981 A 288.8,288.8 0 0,1 693.89338469222,649.7986181819292 L 693.223346173055,433.1996545454823 A 72.2,72.2 0 0 0 693.9843050437609,433.1932901562245 Z "/><path class="wedge" fill="rgb(111,207,207)" d=" M 693.9843050437609,433.1932901562245 L 696.9372201750435,649.7731606248981 A 288.8,288.8 0 0,1 693.89338469222,649.7986181819292 L 693.223346173055,433.1996545454823 A 72.2,72.2 0 0 0 693.9843050437609,433.1932901562245 Z "/><path class="wedge" fill="rgb(111,207,207)" d=" M 693.9843050437609,433.1932901562245 L 696.9372201750435,649.7731606248981 A 288.8,288.8 0 0,1 693.89338469222,649.7986181819292 L 693.223346173055,433.1996545454823 A 72.2,72.2 0 0 0 693.9843050437609,433.1932901562245 Z "/><path class="wedge" fill="rgb(111,207,207)" d=" M 693.9843050437609,433.1932901562245 L 696.9372201750435,649.7731606248981 A 288.8,288.8 0 0,1 693.89338469222,649.7986181819292 L 693.223346173055,433.1996545454823 A 72.2,72.2 0 0 0 693.9843050437609,433.1932901562245 Z "/><path class="wedge" fill="rgb(111,207,207)" d=" M 693.9843050437609,433.1932901562245 L 696.9372201750435,649.7731606248981 A 288.8,288.8 0 0,1 693.89338469222,649.7986181819292 L 693.223346173055,433.1996545454823 A 72.2,72.2 0 0 0 693.9843050437609,433.1932901562245 Z "/><path class="wedge" fill="rgb(111,207,207)" d=" M 693.9843050437609,433.1932901562245 L 696.9372201750435,649.7731606248981 A 288.8,288.8 0 0,1 693.89338469222,649.7986181819292 L 693.223346173055,433.1996545454823 A 72.2,72.2 0 0 0 693.9843050437609,433.1932901562245 Z "/><path class="wedge" fill="rgb(111,207,207)" d=" M 693.9843050437609,433.1932901562245 L 696.9372201750435,649.7731606248981 A 288.8,288.8 0 0,1 693.89338469222,649.7986181819292 L 693.223346173055,433.1996545454823 A 72.2,72.2 0 0 0 693.9843050437609,433.1932901562245 Z "/><path class="wedge" fill="rgb(111,207,207)" d=" M 693.9843050437609,433.1932901562245 L 696.9372201750435,649.7731606248981 A 288.8,288.8 0 0,1 693.89338469222,649.7986181819292 L 693.223346173055,433.1996545454823 A 72.2,72.2 0 0 0 693.9843050437609,433.1932901562245 Z "/><path class="wedge" fill="rgb(111,207,207)" d=" M 693.9843050437609,433.1932901562245 L 696.9372201750435,649.7731606248981 A 288.8,288.8 0 0,1 693.89338469222,649.7986181819292 L 693.223346173055,433.1996545454823 A 72.2,72.2 0 0 0 693.9843050437609,433.1932901562245 Z "/><path class="wedge" fill="rgb(111,207,207)" d=" M 693.9843050437609,433.1932901562245 L 696.9372201750435,649.7731606248981 A 288.8,288.8 0 0,1 693.89338469222,649.7986181819292 L 693.223346173055,433.1996545454823 A 72.2,72.2 0 0 0 693.9843050437609,433.1932901562245 Z "/><path class="wedge" fill="rgb(111,207,207)" d=" M 693.9843050437609,433.1932901562245 L 696.9372201750435,649.7731606248981 A 288.8,288.8 0 0,1 693.89338469222,649.7986181819292 L 693.223346173055,433.1996545454823 A 72.2,72.2 0 0 0 693.9843050437609,433.1932901562245 Z "/><path class="wedge" fill="rgb(111,207,207)" d=" M 693.9843050437609,433.1932901562245 L 696.9372201750435,649.7731606248981 A 288.8,288.8 0 0,1 693.89338469222,649.7986181819292 L 693.223346173055,433.1996545454823 A 72.2,72.2 0 0 0 693.9843050437609,433.1932901562245 Z "/><path class="wedge" fill="rgb(111,207,207)" d=" M 693.9843050437609,433.1932901562245 L 696.9372201750435,649.7731606248981 A 288.8,288.8 0 0,1 693.89338469222,649.7986181819292 L 693.223346173055,433.1996545454823 A 72.2,72.2 0 0 0 693.9843050437609,433.1932901562245 Z "/><path class="wedge" fill="rgb(111,207,207)" d=" M 693.9843050437609,433.1932901562245 L 696.9372201750435,649.7731606248981 A 288.8,288.8 0 0,1 693.89338469222,649.7986181819292 L 693.223346173055,433.1996545454823 A 72.2,72.2 0 0 0 693.9843050437609,433.1932901562245 Z "/><path class="wedge" fill="rgb(111,207,207)" d=" M 693.9843050437609,433.1932901562245 L 696.9372201750435,649.7731606248981 A 288.8,288.8 0 0,1 693.89338469222,649.7986181819292 L 693.223346173055,433.1996545454823 A 72.2,72.2 0 0 0 693.9843050437609,433.1932901562245 Z "/><path class="wedge" fill="rgb(111,207,207)" d=" M 693.9843050437609,433.1932901562245 L 696.9372201750435,649.7731606248981 A 288.8,288.8 0 0,1 693.89338469222,649.7986181819292 L 693.223346173055,433.1996545454823 A 72.2,72.2 0 0 0 693.9843050437609,433.1932901562245 Z "/><path class="wedge" fill="rgb(111,207,207)" d=" M 693.9843050437609,433.1932901562245 L 696.9372201750435,649.7731606248981 A 288.8,288.8 0 0,1 693.89338469222,649.7986181819292 L 693.223346173055,433.1996545454823 A 72.2,72.2 0 0 0 693.9843050437609,433.1932901562245 Z "/><path class="wedge" fill="rgb(111,207,207)" d=" M 693.9843050437609,433.1932901562245 L 696.9372201750435,649.7731606248981 A 288.8,288.8 0 0,1 693.89338469222,649.7986181819292 L 693.223346173055,433.1996545454823 A 72.2,72.2 0 0 0 693.9843050437609,433.1932901562245 Z "/><path class="wedge" fill="rgb(111,207,207)" d=" M 693.9843050437609,433.1932901562245 L 696.9372201750435,649.7731606248981 A 288.8,288.8 0 0,1 693.89338469222,649.7986181819292 L 693.223346173055,433.1996545454823 A 72.2,72.2 0 0 0 693.9843050437609,433.1932901562245 Z "/><path class="wedge" fill="rgb(111,207,207)" d=" M 693.9843050437609,433.1932901562245 L 696.9372201750435,649.7731606248981 A 288.8,288.8 0 0,1 693.89338469222,649.7986181819292 L 693.223346173055,433.1996545454823 A 72.2,72.2 0 0 0 693.9843050437609,433.1932901562245 Z "/><path class="wedge" fill="rgb(111,207,207)" d=" M 693.9843050437609,433.1932901562245 L 696.9372201750435,649.7731606248981 A 288.8,288.8 0 0,1 693.89338469222,649.7986181819292 L 693.223346173055,433.1996545454823 A 72.2,72.2 0 0 0 693.9843050437609,433.1932901562245 Z "/><path class="wedge" fill="rgb(111,207,207)" d=" M 693.9843050437609,433.1932901562245 L 696.9372201750435,649.7731606248981 A 288.8,288.8 0 0,1 693.89338469222,649.7986181819292 L 693.223346173055,433.1996545454823 A 72.2,72.2 0 0 0 693.9843050437609,433.1932901562245 Z "/><path class="wedge" fill="rgb(111,207,207)" d=" M 693.9843050437609,433.1932901562245 L 696.9372201750435,649.7731606248981 A 288.8,288.8 0 0,1 693.89338469222,649.7986181819292 L 693.223346173055,433.1996545454823 A 72.2,72.2 0 0 0 693.9843050437609,433.1932901562245 Z "/><path class="wedge" fill="rgb(111,207,207)" d=" M 693.9843050437609,433.1932901562245 L 696.9372201750435,649.7731606248981 A 288.8,288.8 0 0,1 693.89338469222,649.7986181819292 L 693.223346173055,433.1996545454823 A 72.2,72.2 0 0 0 693.9843050437609,433.1932901562245 Z "/><path class="wedge" fill="rgb(111,207,207)" d=" M 693.9843050437609,433.1932901562245 L 696.9372201750435,649.7731606248981 A 288.8,288.8 0 0,1 693.89338469222,649.7986181819292 L 693.223346173055,433.1996545454823 A 72.2,72.2 0 0 0 693.9843050437609,433.1932901562245 Z "/><path class="wedge" fill="rgb(111,207,207)" d=" M 693.9843050437609,433.1932901562245 L 696.9372201750435,649.7731606248981 A 288.8,288.8 0 0,1 693.89338469222,649.7986181819292 L 693.223346173055,433.1996545454823 A 72.2,72.2 0 0 0 693.9843050437609,433.1932901562245 Z "/><path class="wedge" fill="rgb(111,207,207)" d=" M 693.9843050437609,433.1932901562245 L 696.9372201750435,649.7731606248981 A 288.8,288.8 0 0,1 693.89338469222,649.7986181819292 L 693.223346173055,433.1996545454823 A 72.2,72.2 0 0 0 693.9843050437609,433.1932901562245 Z "/><path class="wedge" fill="rgb(111,207,207)" d=" M 693.9843050437609,433.1932901562245 L 696.9372201750435,649.7731606248981 A 288.8,288.8 0 0,1 693.89338469222,649.7986181819292 L 693.223346173055,433.1996545454823 A 72.2,72.2 0 0 0 693.9843050437609,433.1932901562245 Z "/><path class="wedge" fill="rgb(101,101,204)" d=" M 693.223346173055,433.1996545454823 L 693.89338469222,649.7986181819292 A 288.8,288.8 0 0,1 693.6727236593597,649.7992164859145 L 693.1681809148399,433.1998041214786 A 72.2,72.2 0 0 0 693.223346173055,433.1996545454823 Z "/><path class="wedge" fill="url(#hiddenPattern)" d=" M 693.223346173055,433.1996545454823 L 693.89338469222,649.7986181819292 A 288.8,288.8 0 0,1 693.6727236593597,649.7992164859145 L 693.1681809148399,433.1998041214786 A 72.2,72.2 0 0 0 693.223346173055,433.1996545454823 Z "/><path class="wedge" fill="rgb(207,111,207)" d=" M 693.1681809148399,433.1998041214786 L 693.6727236593597,649.7992164859145 A 288.8,288.8 0 0,1 693.671593270877,649.7992191168088 L 693.1678983177193,433.19980477920217 A 72.2,72.2 0 0 0 693.1681809148399,433.1998041214786 Z "/><path class="wedge" fill="rgb(207,111,207)" d=" M 693.1681809148399,433.1998041214786 L 693.6727236593597,649.7992164859145 A 288.8,288.8 0 0,1 693.671593270877,649.7992191168088 L 693.1678983177193,433.19980477920217 A 72.2,72.2 0 0 0 693.1681809148399,433.1998041214786 Z "/><circle cx="693" cy="361" r="72.2"/><circle cx="693" cy="361" r="288.8"/><text x="693" y="361" text-anchor="middle" style="font-color:black;font-weight:bold" transform="rotate(360,693,361)">Root</text><path class="line" d=" M 760.184624343966,334.56013896102763 A 72.2,72.2 0 1 0 693,433.2"/><line x1="961.7384973758641" y1="255.2405558441106" x2="760.184624343966" y2="334.56013896102763"/><text x="693" y="274.90287718615485" text-anchor="middle" style="font-color:black;font-weight:normal" transform="rotate(304.2591800352619,693,361)">Bacteria</text><path class="line" d=" M 788.5468001626143,290.8666515462186 A 118.52374271281718,118.52374271281718 0 1 0 693,479.5237427128172"/><line x1="925.813403081803" y1="190.1100958351549" x2="788.5468001626143" y2="290.8666515462186"/><text x="693" y="232.45573333523197" text-anchor="middle" style="font-color:black;font-weight:normal" transform="rotate(296.8602763304185,693,361)">Proteobacteria</text><path class="line" d=" M 807.6510582266194,261.31806020122775 A 151.92548921932007,151.92548921932007 0 1 0 693,512.9254892193201"/><line x1="910.9438472503335" y1="171.5114266090874" x2="807.6510582266194" y2="261.31806020122775"/><text x="693" y="196.474628010873" text-anchor="middle" style="font-color:black;font-weight:normal" transform="rotate(294.49753865431694,693,361)">Gammaproteobacteria</text><path class="line" d=" M 811.5728854240598,229.41798483215865 A 177.12525475893392,177.12525475893392 0 1 0 693,538.1252547589339"/><line x1="886.3312635573853" y1="146.45755074739915" x2="811.5728854240598" y2="229.41798483215865"/><text x="693" y="174.0360867174531" text-anchor="middle" style="font-color:black;font-weight:normal" transform="rotate(291.01152749825144,693,361)">Enterobacterales</text><path class="line" d=" M 818.4468669806947,209.36116647030485 A 196.80257180615988,196.80257180615988 0 1 0 693,557.8025718061599"/><line x1="877.0883218726854" y1="138.47600185575808" x2="818.4468669806947" y2="209.36116647030485"/><text x="693" y="156.3047019828161" text-anchor="middle" style="font-color:black;font-weight:normal" transform="rotate(289.80003522771324,693,361)">Erwiniaceae</text><path class="line" d=" M 823.3112724081051,193.03381194825621 A 212.58802422820796,212.58802422820796 0 1 0 693,573.5880242282079"/><line x1="870.0273542363877" y1="132.8185900383984" x2="823.3112724081051" y2="193.03381194825621"/><text x="442.305987885896" y="361" text-anchor="end" style="font-color:black;font-weight:normal" transform="rotate(18.902485422625873,693,361)">Pantoea&#160;&#160;&#160;61%</text><path class="line" d=" M 583.1733148000673,557.981266387024 A 225.52942178226067,225.52942178226067 0 0 0 693,586.5294217822607"/><line x1="552.3622666387053" y1="613.2428749340551" x2="583.1733148000673" y2="557.981266387024"/><text x="435.8352891088697" y="361" text-anchor="end" style="font-color:black;font-weight:normal" transform="rotate(-75.42909830914763,693,361)">Pantoea vagans&#160;&#160;&#160;8%</text><path class="line" d=" M 691.0578659197326,597.3222454530571 A 236.3302257028515,236.3302257028515 0 0 0 693,597.3302257028515"/><line x1="690.6266754677142" y1="649.7902479840074" x2="691.0578659197326" y2="597.3222454530571"/><path class="line" d=" M 501.6781691311512,480.41305256307817 A 225.52942178226067,225.52942178226067 0 0 0 583.1733148000673,557.981266387024"/><line x1="448.00427253226087" y1="513.9134837826714" x2="501.6781691311512" y2="480.41305256307817"/><path class="line" d=" M 494.020656039344,488.51155342849404 A 236.3302257028515,236.3302257028515 0 0 0 577.9136174944174,567.4148738403787"/><line x1="449.8434830333931" y1="516.8215269360053" x2="494.020656039344" y2="488.51155342849404"/><text x="430.43488714857426" y="361" text-anchor="end" style="font-color:black;font-weight:normal" transform="rotate(-46.755543186575586,693,361)">Pantoea sp. MT58&#160;&#160;&#160;8%</text><path class="line" d=" M 492.6592339241038,486.3616888402663 A 236.3302257028515,236.3302257028515 0 0 0 494.020656039344,488.51155342849404"/><line x1="448.1797994918061" y1="514.1943517990389" x2="492.6592339241038" y2="486.3616888402663"/><path class="line" d=" M 468.02920456034315,376.86383587562966 A 225.52942178226067,225.52942178226067 0 0 0 501.6781691311512,480.41305256307817"/><line x1="404.9153447495633" y1="381.3143153770202" x2="468.02920456034315" y2="376.86383587562966"/><text x="435.8352891088697" y="361" text-anchor="end" style="font-color:black;font-weight:normal" transform="rotate(-18.00189407359914,693,361)">Pantoea eucalypti&#160;&#160;&#160;8%</text><line x1="408.1180338563438" y1="313.59002883227265" x2="470.53024549663314" y2="323.9766503318172"/><path class="line" d=" M 470.53024549663314,323.9766503318172 A 225.52942178226067,225.52942178226067 0 0 0 468.02920456034315,376.86383587562966"/><text x="435.8352891088697" y="361" text-anchor="end" style="font-color:black;font-weight:normal" transform="rotate(2.707506726671094,693,361)">Pantoea agglomerans&#160;&#160;&#160;4%</text><path class="line" d=" M 471.9505299641301,316.2713527333779 A 225.52942178226067,225.52942178226067 0 0 0 470.53024549663314,323.9766503318172"/><line x1="409.9367684186535" y1="303.72306811005836" x2="471.9505299641301" y2="316.2713527333779"/><path class="line" d=" M 826.2633892772758,195.36625608413482 A 212.58802422820796,212.58802422820796 0 0 0 823.3112724081051,193.03381194825621"/><line x1="874.0377934646167" y1="135.987206280481" x2="826.2633892772758" y2="195.36625608413482"/><path class="line" d=" M 822.9684193991749,213.21819385188547 A 196.80257180615988,196.80257180615988 0 0 0 818.4468669806947,209.36116647030485"/><line x1="883.7235214357441" y1="144.13603717733722" x2="822.9684193991749" y2="213.21819385188547"/><path class="line" d=" M 820.607255068342,238.15967955373793 A 177.12525475893392,177.12525475893392 0 0 0 811.5728854240598,229.41798483215865"/><line x1="901.0616641251627" y1="160.7107493611601" x2="820.607255068342" y2="238.15967955373793"/><text x="693" y="174.0360867174531" text-anchor="middle" style="font-color:black;font-weight:normal" transform="rotate(404.0567359296667,693,361)">Ps...es</text><path class="line" d=" M 834.737823661586,224.46560282040335 A 196.80257180615988,196.80257180615988 0 0 0 824.7454635686563,214.8001877614114"/><line x1="900.9946572740105" y1="160.64116554175374" x2="834.737823661586" y2="224.46560282040335"/><text x="693" y="156.3047019828161" text-anchor="middle" style="font-color:black;font-weight:normal" transform="rotate(404.04715343101884,693,361)">Ps...ae</text><path class="line" d=" M 846.0941436119516,213.5013517452574 A 212.58802422820796,212.58802422820796 0 0 0 835.312712400303,203.07356163541903"/><line x1="900.9777957184899" y1="160.62366285392358" x2="846.0941436119516" y2="213.5013517452574"/><text x="943.694012114104" y="361" text-anchor="start" style="font-color:black;font-weight:normal" transform="rotate(314.0447426219978,693,361)">1%&#160;&#160;&#160;Pseudomonas</text><path class="line" d=" M 846.1038375165673,213.51141405873577 A 212.58802422820796,212.58802422820796 0 0 0 846.0941436119516,213.5013517452574"/><line x1="900.9909648500211" y1="160.6373324674547" x2="846.1038375165673" y2="213.51141405873577"/><path class="line" d=" M 834.7820163139866,224.51149455188843 A 196.80257180615988,196.80257180615988 0 0 0 834.737823661586,224.46560282040335"/><line x1="901.0595082457031" y1="160.7085098448858" x2="834.7820163139866" y2="224.51149455188843"/><line x1="973.55" y1="361" x2="990.05" y2="361" class="tick" transform="rotate(317.4819395674965,693,361)"/><text x="992.8" y="361" text-anchor="start" style="font-color:black;font-weight:normal" transform="rotate(317.4819395674965,693,361)">21 more</text><path class="line" d=" M 826.4211629624058,244.50043284554062 A 177.12525475893392,177.12525475893392 0 0 0 820.607255068342,238.15967955373793"/><line x1="910.5411514071475" y1="171.04924995027642" x2="826.4211629624058" y2="244.50043284554062"/><line x1="973.55" y1="361" x2="990.05" y2="361" class="tick" transform="rotate(321.2726283938795,693,361)"/><text x="992.8" y="361" text-anchor="start" style="font-color:black;font-weight:normal" transform="rotate(321.2726283938795,693,361)">7 more</text><path class="line" d=" M 815.2054446501922,270.73824967142207 A 151.92548921932007,151.92548921932007 0 0 0 807.6510582266194,261.31806020122775"/><line x1="925.3042209462728" y1="189.41856472640967" x2="815.2054446501922" y2="270.73824967142207"/><path class="line" d=" M 801.9101859043388,314.2405197533545 A 118.52374271281718,118.52374271281718 0 0 0 788.5468001626143,290.8666515462186"/><line x1="958.3751979920535" y1="247.06385871604024" x2="801.9101859043388" y2="314.2405197533545"/><text x="693" y="219.0950347326308" text-anchor="middle" style="font-color:black;font-weight:normal" transform="rotate(420.2423890930515,693,361)">Terrabacteria group</text><path class="line" d=" M 826.8608155412905,289.1485119350315 A 151.92548921932007,151.92548921932007 0 0 0 815.4733038781776,271.1020349969293"/><line x1="947.4602865982315" y1="224.4152184745831" x2="826.8608155412905" y2="289.1485119350315"/><text x="693" y="196.474628010873" text-anchor="middle" style="font-color:black;font-weight:normal" transform="rotate(417.74765495093425,693,361)">...</text><path class="line" d=" M 849.0258425128202,277.1591248758585 A 177.12525475893392,177.12525475893392 0 0 0 835.7878577983336,256.1907278014959"/><line x1="947.3977332821856" y1="224.29874433317764" x2="849.0258425128202" y2="277.1591248758585"/><text x="693" y="174.0360867174531" text-anchor="middle" style="font-color:black;font-weight:normal" transform="rotate(417.7345403367439,693,361)">...</text><path class="line" d=" M 865.3051814851929,265.90963927466964 A 196.80257180615988,196.80257180615988 0 0 0 851.6505418194008,244.54718616568664"/><line x1="945.851047403671" y1="221.45865190967052" x2="865.3051814851929" y2="265.90963927466964"/><text x="693" y="156.3047019828161" text-anchor="middle" style="font-color:black;font-weight:normal" transform="rotate(417.41374388518074,693,361)">...</text><path class="line" d=" M 877.0726084028745,254.64708334504797 A 212.58802422820796,212.58802422820796 0 0 0 864.3758357860314,235.20655440806019"/><line x1="943.0619190556286" y1="216.51997841149011" x2="877.0726084028745" y2="254.64708334504797"/><path class="line" d=" M 886.2565395406024,244.74411836714484 A 225.52942178226067,225.52942178226067 0 0 0 874.8084216765908,227.54881830081908"/><line x1="940.4732040647477" y1="212.1294076389574" x2="886.2565395406024" y2="244.74411836714484"/><line x1="938.2488881708985" y1="208.49287606495838" x2="893.6915688878179" y2="236.20068206073017"/><path class="line" d=" M 893.6915688878179,236.20068206073017 A 236.3302257028515,236.3302257028515 0 0 0 883.515388147408,221.15772291684038"/><text x="955.5651128514257" y="361" text-anchor="start" style="font-color:black;font-weight:normal" transform="rotate(325.9226444893001,693,361)">1%&#160;&#160;&#160;Curtobacterium flaccumfaciens pv. flaccumfaciens</text><path class="line" d=" M 895.4316552450923,239.04344816495995 A 236.3302257028515,236.3302257028515 0 0 0 893.6915688878179,236.20068206073017"/><line x1="940.3753065690796" y1="211.96678994313424" x2="895.4316552450923" y2="239.04344816495995"/><path class="line" d=" M 888.2019298451613,248.04103986772202 A 225.52942178226067,225.52942178226067 0 0 0 886.2565395406024,244.74411836714484"/><line x1="942.9643589460786" y1="216.35125559937984" x2="888.2019298451613" y2="248.04103986772202"/><path class="line" d=" M 879.0864282840813,258.2113369396868 A 212.58802422820796,212.58802422820796 0 0 0 877.0726084028745,254.64708334504797"/><line x1="945.797685493103" y1="221.36200298869167" x2="879.0864282840813" y2="258.2113369396868"/><path class="line" d=" M 866.1658390541725,267.48612694266626 A 196.80257180615988,196.80257180615988 0 0 0 865.3051814851929,265.90963927466964"/><line x1="947.1140283883207" y1="223.77208528779667" x2="866.1658390541725" y2="267.48612694266626"/><path class="line" d=" M 849.0564878276748,277.2161800804713 A 177.12525475893392,177.12525475893392 0 0 0 849.0258425128202,277.1591248758585"/><line x1="947.4476999960915" y1="224.3917719655986" x2="849.0564878276748" y2="277.2161800804713"/><path class="line" d=" M 832.4312266574734,300.66520649474296 A 151.92548921932007,151.92548921932007 0 0 0 826.8608155412905,289.1485119350315"/><line x1="958.0492584595052" y1="246.3076698725393" x2="832.4312266574734" y2="300.66520649474296"/><text x="693" y="196.474628010873" text-anchor="middle" style="font-color:black;font-weight:normal" transform="rotate(424.1878088751722,693,361)">...</text><path class="line" d=" M 855.1969365363603,289.8276061127831 A 177.12525475893392,177.12525475893392 0 0 0 849.0642073744567,277.2305601666108"/><line x1="957.4596070473017" y1="244.95450788424904" x2="855.1969365363603" y2="289.8276061127831"/><text x="693" y="174.0360867174531" text-anchor="middle" style="font-color:black;font-weight:normal" transform="rotate(424.04138960402463,693,361)">...</text><path class="line" d=" M 872.9024124004264,281.21043751200534 A 196.80257180615988,196.80257180615988 0 0 0 866.4017964856803,267.9243896337101"/><line x1="956.9996836647892" y1="243.9119689084693" x2="872.9024124004264" y2="281.21043751200534"/><text x="693" y="156.3047019828161" text-anchor="middle" style="font-color:black;font-weight:normal" transform="rotate(423.9283572345529,693,361)">B...s</text><path class="line" d=" M 885.5546343749822,270.9090413750078 A 212.58802422820796,212.58802422820796 0 0 0 880.3102824531218,260.45883364220975"/><line x1="954.5847181861907" y1="238.61178483427747" x2="885.5546343749822" y2="270.9090413750078"/><line x1="954.5788097277393" y1="238.59915726834572" x2="897.2718757215687" y2="265.4148501145034"/><path class="line" d=" M 897.2718757215687,265.4148501145034 A 225.52942178226067,225.52942178226067 0 0 0 891.7128853983638,254.33834209943325"/><text x="950.1647108911303" y="361" text-anchor="start" style="font-color:black;font-weight:normal" transform="rotate(333.34920241622865,693,361)">0.9%&#160;&#160;&#160;Exiguobacterium</text><path class="line" d=" M 897.2764897493324,265.42471122130087 A 225.52942178226067,225.52942178226067 0 0 0 897.2718757215687,265.4148501145034"/><path class="line" d=" M 887.2981517866182,274.7335739840961 A 212.58802422820796,212.58802422820796 0 0 0 885.5546343749822,270.9090413750078"/><line x1="956.9532797752478" y1="243.80739743529125" x2="887.2981517866182" y2="274.7335739840961"/><path class="line" d=" M 873.1727248081639,281.82272103235465 A 196.80257180615988,196.80257180615988 0 0 0 872.9024124004264,281.21043751200534"/><line x1="957.3963564452215" y1="244.8104707880638" x2="873.1727248081639" y2="281.82272103235465"/><path class="line" d=" M 855.5165849480463,290.5605544439644 A 177.12525475893392,177.12525475893392 0 0 0 855.1969365363603,289.8276061127831"/><line x1="957.9807888596895" y1="246.14956885019234" x2="855.5165849480463" y2="290.5605544439644"/><path class="line" d=" M 832.5738080124511,300.99578021977794 A 151.92548921932007,151.92548921932007 0 0 0 832.4312266574734,300.66520649474296"/><line x1="958.3202958971933" y1="246.93606799243787" x2="832.5738080124511" y2="300.99578021977794"/><path class="line" d=" M 802.951942833735,316.74564593465215 A 118.52374271281718,118.52374271281718 0 0 0 801.9101859043388,314.2405197533545"/><line x1="960.9135872997432" y1="253.16795587496787" x2="802.951942833735" y2="316.74564593465215"/><path class="line" d=" M 698.1753415593922,433.01427524972826 A 72.2,72.2 0 0 0 760.184624343966,334.56013896102763"/><line x1="713.7013662375691" y1="649.0571009989131" x2="698.1753415593922" y2="433.01427524972826"/><text x="873.5" y="361" text-anchor="start" style="font-color:black;font-weight:normal" transform="rotate(392.203918623671,693,361)">30%&#160;&#160;&#160;No hits</text><path class="line" d=" M 693.9843050437609,433.1932901562245 A 72.2,72.2 0 0 0 698.1753415593922,433.01427524972826"/><line x1="696.9372201750435" y1="649.7731606248981" x2="693.9843050437609" y2="433.1932901562245"/><line x1="693.89338469222" y1="649.7986181819292" x2="693.223346173055" y2="433.1996545454823"/><path class="line" d=" M 693.223346173055,433.1996545454823 A 72.2,72.2 0 0 0 693.9843050437609,433.1932901562245"/><path class="line" d=" M 693.1681809148399,433.1998041214786 A 72.2,72.2 0 0 0 693.223346173055,433.1996545454823"/><line x1="693.6727236593597" y1="649.7992164859145" x2="693.1681809148399" y2="433.1998041214786"/><line x1="693.671593270877" y1="649.7992191168088" x2="693.1678983177193" y2="433.19980477920217"/><path class="line" d=" M 693.1678983177193,433.19980477920217 A 72.2,72.2 0 0 0 693.1681809148399,433.1998041214786"/></svg>