<?xml version="1.0" standalone="no"?><!DOCTYPE svg PUBLIC "-//W3C//DTD SVG 1.1//EN" 	"http://www.w3.org/Graphics/SVG/1.1/DTD/svg11.dtd"><svg width="1536" height="722" version="1.1"	xmlns="http://www.w3.org/2000/svg"><title>Krona (snapshot) - Root</title><defs>	<style type="text/css">	text {font-size: 10px; font-family: sans-serif; dominant-baseline:central}	path {stroke-width:0.25;}	path.wedge {stroke:none}	path.line {fill:none;stroke:black;}	line {stroke:black;stroke-width:0.25;}	line.tick {stroke-width:0.5;}	line.pattern {stroke-width:0.16666666666666666;}	circle {fill:none;stroke:black;stroke-width:0.25;}	rect {stroke:black;stroke-width:0.25;}	.highlight {stroke:black;stroke-width:1.25;}	.searchHighlight {fill:rgb(255, 255, 100);stroke:none;}	</style><pattern id="hiddenPattern" patternUnits="userSpaceOnUse" x="0" y="0" width="6" height="6"><line class="pattern" x1="0" y1="0" x2="3" y2="3"/><line class="pattern" x1="3" y1="6" x2="6" y2="3"/></pattern></defs><path class="wedge" fill="rgb(220,220,220)" d=" M 693.0095775363768,416.95499918033056 L 693.0383101455075,584.8199967213224 A 223.82,223.82 0 0,1 693.0000000000001,584.8199999999999 L 693,416.955 A 55.955,55.955 0 0 0 693.0095775363768,416.95499918033056 Z "/><path class="wedge" fill="rgb(207,111,111)" d=" M 693,416.955 L 693,584.8199999999999 A 223.82,223.82 0 1,1 728.4006159023844,582.0026895622129 L 701.8501539755961,416.25067239055323 A 55.955,55.955 0 1 0 693,416.955 Z "/><path class="wedge" fill="rgb(207,111,111)" d=" M 707.8911287308446,453.7564292501151 L 728.4778120055676,581.990310319927 A 223.82,223.82 0 0,1 728.4006159023844,582.0026895622129 L 707.8587271523639,453.7616251987954 A 93.94413702892902,93.94413702892902 0 0 0 707.8911287308446,453.7564292501151 Z "/><path class="wedge" fill="rgb(210,121,121)" d=" M 693,454.94413702892905 L 693,584.8199999999999 A 223.82,223.82 0 1,1 732.618394759759,581.2856672520023 L 709.6290586461308,453.46066888495744 A 93.94413702892902,93.94413702892902 0 1 0 693,454.94413702892905 Z "/><path class="wedge" fill="rgb(210,121,121)" d=" M 714.2093828525957,478.7950463336997 L 732.6617491972963,581.2778655485175 A 223.82,223.82 0 0,1 732.618394759759,581.2856672520023 L 714.1861987802162,478.79921834626754 A 119.68922617239382,119.68922617239382 0 0 0 714.2093828525957,478.7950463336997 Z "/><path class="wedge" fill="rgb(213,130,130)" d=" M 693,480.68922617239383 L 693,584.8199999999999 A 223.82,223.82 0 1,1 735.5080474949175,580.7463499086386 L 715.7314597031813,478.5108148278663 A 119.68922617239382,119.68922617239382 0 1 0 693,480.68922617239383 Z "/><path class="wedge" fill="rgb(213,130,130)" d=" M 719.586173372046,496.67237204429784 L 736.0408669364938,580.6426101041304 A 223.82,223.82 0 0,1 735.5080474949175,580.7463499086386 L 719.2570529091463,496.7364517114735 A 138.25272927032893,138.25272927032893 0 0 0 719.586173372046,496.67237204429784 Z "/><path class="wedge" fill="rgb(216,140,140)" d=" M 693,499.2527292703289 L 693,584.8199999999999 A 223.82,223.82 0 1,1 779.1758696188234,567.5650306693743 L 746.2304940221891,488.5944029213216 A 138.25272927032893,138.25272927032893 0 1 0 693,499.2527292703289 Z "/><path class="wedge" fill="rgb(216,140,140)" d=" M 753.1595303692695,500.86882333910694 L 781.4348816179579,566.6080351377781 A 223.82,223.82 0 0,1 779.1758696188234,567.5650306693743 L 751.622793976569,501.5198379692281 A 152.25786297107078,152.25786297107078 0 0 0 753.1595303692695,500.86882333910694 Z "/><path class="wedge" fill="rgb(219,149,149)" d=" M 693,513.2578629710708 L 693,584.8199999999999 A 223.82,223.82 0 1,1 789.5029295691795,562.9469657721204 L 758.6479752776831,498.3783104367574 A 152.25786297107078,152.25786297107078 0 1 0 693,513.2578629710708 Z "/><path class="wedge" fill="rgb(219,149,149)" d=" M 764.551638198154,507.6716901842332 L 791.1329319890935,562.1599365162555 A 223.82,223.82 0 0,1 789.5029295691795,562.9469657721204 L 763.3631549739418,508.2455366130066 A 163.1938161522649,163.1938161522649 0 0 0 764.551638198154,507.6716901842332 Z "/><path class="wedge" fill="rgb(223,159,159)" d=" M 693,524.1938161522648 L 693,584.8199999999999 A 223.82,223.82 0 1,1 908.6979224792681,420.74779191005854 L 850.2717679631273,404.5638913791166 A 163.1938161522649,163.1938161522649 0 1 0 693,524.1938161522648 Z "/><path class="wedge" fill="rgb(223,159,159)" d=" M 860.5635949608035,399.6655552435775 L 911.089083385284,411.3243888007262 A 223.82,223.82 0 0,1 908.6979224792681,420.74779191005854 L 858.7264029687866,406.9058043988963 A 171.9668093513465,171.9668093513465 0 0 0 860.5635949608035,399.6655552435775 Z "/><path class="wedge" fill="rgb(226,168,168)" d=" M 693,532.9668093513465 L 693,584.8199999999999 A 223.82,223.82 0 1,1 912.8411713085752,403.0148997103845 L 861.909770324361,393.2811556090235 A 171.9668093513465,171.9668093513465 0 1 0 693,532.9668093513465 Z "/><path class="wedge" fill="rgb(226,168,168)" d=" M 693,532.9668093513465 L 693,584.8199999999999 A 223.82,223.82 0 1,1 912.8411713085752,403.0148997103845 L 861.909770324361,393.2811556090235 A 171.9668093513465,171.9668093513465 0 1 0 693,532.9668093513465 Z "/><path class="wedge" fill="rgb(226,190,168)" d=" M 861.909770324361,393.2811556090235 L 912.8411713085752,403.0148997103845 A 223.82,223.82 0 0,1 911.089083385284,411.3243888007262 L 860.5635949608035,399.6655552435775 A 171.9668093513465,171.9668093513465 0 0 0 861.909770324361,393.2811556090235 Z "/><path class="wedge" fill="url(#hiddenPattern)" d=" M 861.909770324361,393.2811556090235 L 912.8411713085752,403.0148997103845 A 223.82,223.82 0 0,1 911.089083385284,411.3243888007262 L 860.5635949608035,399.6655552435775 A 171.9668093513465,171.9668093513465 0 0 0 861.909770324361,393.2811556090235 Z "/><path class="wedge" fill="rgb(223,184,159)" d=" M 850.2717679631273,404.5638913791166 L 908.6979224792681,420.74779191005854 A 223.82,223.82 0 0,1 791.2551265209996,562.1002797420788 L 764.6407338642014,507.6281926565895 A 163.1938161522649,163.1938161522649 0 0 0 850.2717679631273,404.5638913791166 Z "/><path class="wedge" fill="rgb(223,184,159)" d=" M 769.0029228976272,515.2599728688544 L 791.920101309734,561.7740171358633 A 223.82,223.82 0 0,1 791.2551265209996,562.1002797420788 L 768.4920052284388,515.51064903453 A 171.9668093513465,171.9668093513465 0 0 0 769.0029228976272,515.2599728688544 Z "/><path class="wedge" fill="rgb(226,191,168)" d=" M 858.7264029687866,406.9058043988963 L 908.6979224792681,420.74779191005854 A 223.82,223.82 0 0,1 793.8222832312433,560.8255729481064 L 770.464419438811,514.5312581837663 A 171.9668093513465,171.9668093513465 0 0 0 858.7264029687866,406.9058043988963 Z "/><path class="wedge" fill="rgb(226,195,168)" d=" M 770.464419438811,514.5312581837663 L 793.8222832312433,560.8255729481064 A 223.82,223.82 0 0,1 791.920101309734,561.7740171358633 L 769.0029228976272,515.2599728688544 A 171.9668093513465,171.9668093513465 0 0 0 770.464419438811,514.5312581837663 Z "/><path class="wedge" fill="url(#hiddenPattern)" d=" M 770.464419438811,514.5312581837663 L 793.8222832312433,560.8255729481064 A 223.82,223.82 0 0,1 791.920101309734,561.7740171358633 L 769.0029228976272,515.2599728688544 A 171.9668093513465,171.9668093513465 0 0 0 770.464419438811,514.5312581837663 Z "/><path class="wedge" fill="rgb(219,181,149)" d=" M 764.6407338642014,507.6281926565895 L 791.2551265209996,562.1002797420788 A 223.82,223.82 0 0,1 791.1329319890935,562.1599365162555 L 764.551638198154,507.6716901842332 A 163.1938161522649,163.1938161522649 0 0 0 764.6407338642014,507.6281926565895 Z "/><path class="wedge" fill="url(#hiddenPattern)" d=" M 764.6407338642014,507.6281926565895 L 791.2551265209996,562.1002797420788 A 223.82,223.82 0 0,1 791.1329319890935,562.1599365162555 L 764.551638198154,507.6716901842332 A 163.1938161522649,163.1938161522649 0 0 0 764.6407338642014,507.6281926565895 Z "/><path class="wedge" fill="rgb(216,175,140)" d=" M 758.6479752776831,498.3783104367574 L 789.5029295691795,562.9469657721204 A 223.82,223.82 0 0,1 781.4348816179579,566.6080351377781 L 753.1595303692695,500.86882333910694 A 152.25786297107078,152.25786297107078 0 0 0 758.6479752776831,498.3783104367574 Z "/><path class="wedge" fill="url(#hiddenPattern)" d=" M 758.6479752776831,498.3783104367574 L 789.5029295691795,562.9469657721204 A 223.82,223.82 0 0,1 781.4348816179579,566.6080351377781 L 753.1595303692695,500.86882333910694 A 152.25786297107078,152.25786297107078 0 0 0 758.6479752776831,498.3783104367574 Z "/><path class="wedge" fill="rgb(216,176,140)" d=" M 746.2304940221891,488.5944029213216 L 779.1758696188234,567.5650306693743 A 223.82,223.82 0 0,1 736.098656929393,580.6312777608929 L 719.6218700222239,496.6653721006753 A 138.25272927032893,138.25272927032893 0 0 0 746.2304940221891,488.5944029213216 Z "/><path class="wedge" fill="rgb(216,176,140)" d=" M 722.3207242799518,510.4080050205357 L 736.1016459858347,580.630691191627 A 223.82,223.82 0 0,1 736.098656929393,580.6312777608929 L 722.3186909167755,510.40840404556883 A 152.25786297107078,152.25786297107078 0 0 0 722.3207242799518,510.4080050205357 Z "/><path class="wedge" fill="rgb(219,182,149)" d=" M 751.622793976569,501.5198379692281 L 779.1758696188234,567.5650306693743 A 223.82,223.82 0 0,1 736.1019142340994,580.6306385488062 L 722.320906760997,510.4079692092436 A 152.25786297107078,152.25786297107078 0 0 0 751.622793976569,501.5198379692281 Z "/><path class="wedge" fill="rgb(219,182,149)" d=" M 724.4312738271299,521.1383672201737 L 736.1079306425703,580.6294577594621 A 223.82,223.82 0 0,1 736.1019142340994,580.6306385488062 L 724.4268870848463,521.1392281687893 A 163.1938161522649,163.1938161522649 0 0 0 724.4312738271299,521.1383672201737 Z "/><path class="wedge" fill="rgb(223,189,159)" d=" M 755.8333885413986,511.61270502432683 L 779.1758696188234,567.5650306693743 A 223.82,223.82 0 0,1 736.1084671360223,580.6293524581413 L 724.4316650004556,521.1382904418501 A 163.1938161522649,163.1938161522649 0 0 0 755.8333885413986,511.61270502432683 Z "/><path class="wedge" fill="rgb(223,189,159)" d=" M 747.2266883450328,524.193289658653 L 763.5776738614021,573.4009989437751 A 223.82,223.82 0 0,1 736.1084671360223,580.6293524581413 L 726.1213723054649,529.7470243147568 A 171.9668093513465,171.9668093513465 0 0 0 747.2266883450328,524.193289658653 Z "/><path class="wedge" fill="rgb(226,195,168)" d=" M 759.2111935547614,519.7093613071903 L 779.1758696188234,567.5650306693743 A 223.82,223.82 0 0,1 764.0835979852709,573.2322183304608 L 747.6154031933735,524.0636110617804 A 171.9668093513465,171.9668093513465 0 0 0 759.2111935547614,519.7093613071903 Z "/><path class="wedge" fill="rgb(226,195,168)" d=" M 750.1900484721849,530.7860695370234 L 764.4463908220768,573.1103619309982 A 223.82,223.82 0 0,1 764.0835979852709,573.2322183304608 L 749.8996469601764,530.8836108307364 A 179.15917797612775,179.15917797612775 0 0 0 750.1900484721849,530.7860695370234 Z "/><path class="wedge" fill="rgb(229,202,178)" d=" M 761.9804215989919,526.3472482054271 L 779.1758696188234,567.5650306693743 A 223.82,223.82 0 0,1 764.655642116665,573.0397636125084 L 750.3575459698566,530.7295583373668 A 179.15917797612775,179.15917797612775 0 0 0 761.9804215989919,526.3472482054271 Z "/><path class="wedge" fill="rgb(229,202,178)" d=" M 754.4583460597137,535.6648040948812 L 767.2896267739306,572.1313424240705 A 223.82,223.82 0 0,1 764.655642116665,573.0397636125084 L 752.2793023949121,536.4163230645065 A 185.16188076896051,185.16188076896051 0 0 0 754.4583460597137,535.6648040948812 Z "/><path class="wedge" fill="rgb(229,202,178)" d=" M 764.2916008199538,531.8871842544874 L 779.1758696188234,567.5650306693743 A 223.82,223.82 0 0,1 767.3098874517425,572.1242123180318 L 754.4751073196962,535.6589054984903 A 185.16188076896051,185.16188076896051 0 0 0 764.2916008199538,531.8871842544874 Z "/><path class="wedge" fill="rgb(229,202,178)" d=" M 754.4751073196962,535.6589054984903 L 767.3098874517425,572.1242123180318 A 223.82,223.82 0 0,1 767.2896267739306,572.1313424240705 L 754.4583460597137,535.6648040948812 A 185.16188076896051,185.16188076896051 0 0 0 754.4751073196962,535.6589054984903 Z "/><path class="wedge" fill="url(#hiddenPattern)" d=" M 754.4751073196962,535.6589054984903 L 767.3098874517425,572.1242123180318 A 223.82,223.82 0 0,1 767.2896267739306,572.1313424240705 L 754.4583460597137,535.6648040948812 A 185.16188076896051,185.16188076896051 0 0 0 754.4751073196962,535.6589054984903 Z "/><path class="wedge" fill="rgb(226,196,168)" d=" M 750.3575459698566,530.7295583373668 L 764.655642116665,573.0397636125084 A 223.82,223.82 0 0,1 764.4463908220768,573.1103619309982 L 750.1900484721849,530.7860695370234 A 179.15917797612775,179.15917797612775 0 0 0 750.3575459698566,530.7295583373668 Z "/><path class="wedge" fill="url(#hiddenPattern)" d=" M 750.3575459698566,530.7295583373668 L 764.655642116665,573.0397636125084 A 223.82,223.82 0 0,1 764.4463908220768,573.1103619309982 L 750.1900484721849,530.7860695370234 A 179.15917797612775,179.15917797612775 0 0 0 750.3575459698566,530.7295583373668 Z "/><path class="wedge" fill="rgb(223,189,159)" d=" M 747.6154031933735,524.0636110617804 L 764.0835979852709,573.2322183304608 A 223.82,223.82 0 0,1 763.5776738614021,573.4009989437751 L 747.2266883450328,524.193289658653 A 171.9668093513465,171.9668093513465 0 0 0 747.6154031933735,524.0636110617804 Z "/><path class="wedge" fill="url(#hiddenPattern)" d=" M 747.6154031933735,524.0636110617804 L 764.0835979852709,573.2322183304608 A 223.82,223.82 0 0,1 763.5776738614021,573.4009989437751 L 747.2266883450328,524.193289658653 A 171.9668093513465,171.9668093513465 0 0 0 747.6154031933735,524.0636110617804 Z "/><path class="wedge" fill="rgb(219,183,149)" d=" M 724.4316650004556,521.1382904418501 L 736.1084671360223,580.6293524581413 A 223.82,223.82 0 0,1 736.1079306425703,580.6294577594621 L 724.4312738271299,521.1383672201737 A 163.1938161522649,163.1938161522649 0 0 0 724.4316650004556,521.1382904418501 Z "/><path class="wedge" fill="url(#hiddenPattern)" d=" M 724.4316650004556,521.1382904418501 L 736.1084671360223,580.6293524581413 A 223.82,223.82 0 0,1 736.1079306425703,580.6294577594621 L 724.4312738271299,521.1383672201737 A 163.1938161522649,163.1938161522649 0 0 0 724.4316650004556,521.1382904418501 Z "/><path class="wedge" fill="rgb(216,177,140)" d=" M 722.320906760997,510.4079692092436 L 736.1019142340994,580.6306385488062 A 223.82,223.82 0 0,1 736.1016459858347,580.630691191627 L 722.3207242799518,510.4080050205357 A 152.25786297107078,152.25786297107078 0 0 0 722.320906760997,510.4079692092436 Z "/><path class="wedge" fill="url(#hiddenPattern)" d=" M 722.320906760997,510.4079692092436 L 736.1019142340994,580.6306385488062 A 223.82,223.82 0 0,1 736.1016459858347,580.630691191627 L 722.3207242799518,510.4080050205357 A 152.25786297107078,152.25786297107078 0 0 0 722.320906760997,510.4079692092436 Z "/><path class="wedge" fill="rgb(213,171,130)" d=" M 719.6218700222239,496.6653721006753 L 736.098656929393,580.6312777608929 A 223.82,223.82 0 0,1 736.0408669364938,580.6426101041304 L 719.586173372046,496.67237204429784 A 138.25272927032893,138.25272927032893 0 0 0 719.6218700222239,496.6653721006753 Z "/><path class="wedge" fill="url(#hiddenPattern)" d=" M 719.6218700222239,496.6653721006753 L 736.098656929393,580.6312777608929 A 223.82,223.82 0 0,1 736.0408669364938,580.6426101041304 L 719.586173372046,496.67237204429784 A 138.25272927032893,138.25272927032893 0 0 0 719.6218700222239,496.6653721006753 Z "/><path class="wedge" fill="rgb(210,165,121)" d=" M 715.7314597031813,478.5108148278663 L 735.5080474949175,580.7463499086386 A 223.82,223.82 0 0,1 732.6617491972963,581.2778655485175 L 714.2093828525957,478.7950463336997 A 119.68922617239382,119.68922617239382 0 0 0 715.7314597031813,478.5108148278663 Z "/><path class="wedge" fill="url(#hiddenPattern)" d=" M 715.7314597031813,478.5108148278663 L 735.5080474949175,580.7463499086386 A 223.82,223.82 0 0,1 732.6617491972963,581.2778655485175 L 714.2093828525957,478.7950463336997 A 119.68922617239382,119.68922617239382 0 0 0 715.7314597031813,478.5108148278663 Z "/><path class="wedge" fill="rgb(207,159,111)" d=" M 709.6290586461308,453.46066888495744 L 732.618394759759,581.2856672520023 A 223.82,223.82 0 0,1 728.4778120055676,581.990310319927 L 707.8911287308446,453.7564292501151 A 93.94413702892902,93.94413702892902 0 0 0 709.6290586461308,453.46066888495744 Z "/><path class="wedge" fill="url(#hiddenPattern)" d=" M 709.6290586461308,453.46066888495744 L 732.618394759759,581.2856672520023 A 223.82,223.82 0 0,1 728.4778120055676,581.990310319927 L 707.8911287308446,453.7564292501151 A 93.94413702892902,93.94413702892902 0 0 0 709.6290586461308,453.46066888495744 Z "/><path class="wedge" fill="rgb(207,207,111)" d=" M 701.8501539755961,416.25067239055323 L 728.4006159023844,582.0026895622129 A 223.82,223.82 0 0,1 693.1775309929311,584.8199295923993 L 693.0443827482328,416.9549823980998 A 55.955,55.955 0 0 0 701.8501539755961,416.25067239055323 Z "/><path class="wedge" fill="rgb(111,207,111)" d=" M 693.0443827482328,416.9549823980998 L 693.1775309929311,584.8199295923993 A 223.82,223.82 0 0,1 693.0435040795464,584.8199957720378 L 693.0108760198866,416.95499894300946 A 55.955,55.955 0 0 0 693.0443827482328,416.9549823980998 Z "/><path class="wedge" fill="rgb(111,207,111)" d=" M 693.0443827482328,416.9549823980998 L 693.1775309929311,584.8199295923993 A 223.82,223.82 0 0,1 693.0435040795464,584.8199957720378 L 693.0108760198866,416.95499894300946 A 55.955,55.955 0 0 0 693.0443827482328,416.9549823980998 Z "/><path class="wedge" fill="rgb(111,207,111)" d=" M 693.0443827482328,416.9549823980998 L 693.1775309929311,584.8199295923993 A 223.82,223.82 0 0,1 693.0435040795464,584.8199957720378 L 693.0108760198866,416.95499894300946 A 55.955,55.955 0 0 0 693.0443827482328,416.9549823980998 Z "/><path class="wedge" fill="rgb(111,207,111)" d=" M 693.0443827482328,416.9549823980998 L 693.1775309929311,584.8199295923993 A 223.82,223.82 0 0,1 693.0435040795464,584.8199957720378 L 693.0108760198866,416.95499894300946 A 55.955,55.955 0 0 0 693.0443827482328,416.9549823980998 Z "/><path class="wedge" fill="rgb(111,207,111)" d=" M 693.0443827482328,416.9549823980998 L 693.1775309929311,584.8199295923993 A 223.82,223.82 0 0,1 693.0435040795464,584.8199957720378 L 693.0108760198866,416.95499894300946 A 55.955,55.955 0 0 0 693.0443827482328,416.9549823980998 Z "/><path class="wedge" fill="rgb(111,207,111)" d=" M 693.0443827482328,416.9549823980998 L 693.1775309929311,584.8199295923993 A 223.82,223.82 0 0,1 693.0435040795464,584.8199957720378 L 693.0108760198866,416.95499894300946 A 55.955,55.955 0 0 0 693.0443827482328,416.9549823980998 Z "/><path class="wedge" fill="rgb(111,207,111)" d=" M 693.0443827482328,416.9549823980998 L 693.1775309929311,584.8199295923993 A 223.82,223.82 0 0,1 693.0435040795464,584.8199957720378 L 693.0108760198866,416.95499894300946 A 55.955,55.955 0 0 0 693.0443827482328,416.9549823980998 Z "/><path class="wedge" fill="rgb(111,207,111)" d=" M 693.0443827482328,416.9549823980998 L 693.1775309929311,584.8199295923993 A 223.82,223.82 0 0,1 693.0435040795464,584.8199957720378 L 693.0108760198866,416.95499894300946 A 55.955,55.955 0 0 0 693.0443827482328,416.9549823980998 Z "/><path class="wedge" fill="rgb(111,207,111)" d=" M 693.0443827482328,416.9549823980998 L 693.1775309929311,584.8199295923993 A 223.82,223.82 0 0,1 693.0435040795464,584.8199957720378 L 693.0108760198866,416.95499894300946 A 55.955,55.955 0 0 0 693.0443827482328,416.9549823980998 Z "/><path class="wedge" fill="rgb(111,207,111)" d=" M 693.0443827482328,416.9549823980998 L 693.1775309929311,584.8199295923993 A 223.82,223.82 0 0,1 693.0435040795464,584.8199957720378 L 693.0108760198866,416.95499894300946 A 55.955,55.955 0 0 0 693.0443827482328,416.9549823980998 Z "/><path class="wedge" fill="rgb(111,207,111)" d=" M 693.0443827482328,416.9549823980998 L 693.1775309929311,584.8199295923993 A 223.82,223.82 0 0,1 693.0435040795464,584.8199957720378 L 693.0108760198866,416.95499894300946 A 55.955,55.955 0 0 0 693.0443827482328,416.9549823980998 Z "/><path class="wedge" fill="rgb(111,207,111)" d=" M 693.0443827482328,416.9549823980998 L 693.1775309929311,584.8199295923993 A 223.82,223.82 0 0,1 693.0435040795464,584.8199957720378 L 693.0108760198866,416.95499894300946 A 55.955,55.955 0 0 0 693.0443827482328,416.9549823980998 Z "/><path class="wedge" fill="rgb(111,207,111)" d=" M 693.0443827482328,416.9549823980998 L 693.1775309929311,584.8199295923993 A 223.82,223.82 0 0,1 693.0435040795464,584.8199957720378 L 693.0108760198866,416.95499894300946 A 55.955,55.955 0 0 0 693.0443827482328,416.9549823980998 Z "/><path class="wedge" fill="rgb(111,207,111)" d=" M 693.0443827482328,416.9549823980998 L 693.1775309929311,584.8199295923993 A 223.82,223.82 0 0,1 693.0435040795464,584.8199957720378 L 693.0108760198866,416.95499894300946 A 55.955,55.955 0 0 0 693.0443827482328,416.9549823980998 Z "/><path class="wedge" fill="rgb(111,207,111)" d=" M 693.0443827482328,416.9549823980998 L 693.1775309929311,584.8199295923993 A 223.82,223.82 0 0,1 693.0435040795464,584.8199957720378 L 693.0108760198866,416.95499894300946 A 55.955,55.955 0 0 0 693.0443827482328,416.9549823980998 Z "/><path class="wedge" fill="rgb(111,207,111)" d=" M 693.0443827482328,416.9549823980998 L 693.1775309929311,584.8199295923993 A 223.82,223.82 0 0,1 693.0435040795464,584.8199957720378 L 693.0108760198866,416.95499894300946 A 55.955,55.955 0 0 0 693.0443827482328,416.9549823980998 Z "/><path class="wedge" fill="rgb(111,207,111)" d=" M 693.0443827482328,416.9549823980998 L 693.1775309929311,584.8199295923993 A 223.82,223.82 0 0,1 693.0435040795464,584.8199957720378 L 693.0108760198866,416.95499894300946 A 55.955,55.955 0 0 0 693.0443827482328,416.9549823980998 Z "/><path class="wedge" fill="rgb(111,207,111)" d=" M 693.0443827482328,416.9549823980998 L 693.1775309929311,584.8199295923993 A 223.82,223.82 0 0,1 693.0435040795464,584.8199957720378 L 693.0108760198866,416.95499894300946 A 55.955,55.955 0 0 0 693.0443827482328,416.9549823980998 Z "/><path class="wedge" fill="rgb(111,207,111)" d=" M 693.0443827482328,416.9549823980998 L 693.1775309929311,584.8199295923993 A 223.82,223.82 0 0,1 693.0435040795464,584.8199957720378 L 693.0108760198866,416.95499894300946 A 55.955,55.955 0 0 0 693.0443827482328,416.9549823980998 Z "/><path class="wedge" fill="rgb(111,207,111)" d=" M 693.0443827482328,416.9549823980998 L 693.1775309929311,584.8199295923993 A 223.82,223.82 0 0,1 693.0435040795464,584.8199957720378 L 693.0108760198866,416.95499894300946 A 55.955,55.955 0 0 0 693.0443827482328,416.9549823980998 Z "/><path class="wedge" fill="rgb(111,207,111)" d=" M 693.0443827482328,416.9549823980998 L 693.1775309929311,584.8199295923993 A 223.82,223.82 0 0,1 693.0435040795464,584.8199957720378 L 693.0108760198866,416.95499894300946 A 55.955,55.955 0 0 0 693.0443827482328,416.9549823980998 Z "/><path class="wedge" fill="rgb(111,207,111)" d=" M 693.0443827482328,416.9549823980998 L 693.1775309929311,584.8199295923993 A 223.82,223.82 0 0,1 693.0435040795464,584.8199957720378 L 693.0108760198866,416.95499894300946 A 55.955,55.955 0 0 0 693.0443827482328,416.9549823980998 Z "/><path class="wedge" fill="rgb(111,207,111)" d=" M 693.0443827482328,416.9549823980998 L 693.1775309929311,584.8199295923993 A 223.82,223.82 0 0,1 693.0435040795464,584.8199957720378 L 693.0108760198866,416.95499894300946 A 55.955,55.955 0 0 0 693.0443827482328,416.9549823980998 Z "/><path class="wedge" fill="rgb(111,207,111)" d=" M 693.0443827482328,416.9549823980998 L 693.1775309929311,584.8199295923993 A 223.82,223.82 0 0,1 693.0435040795464,584.8199957720378 L 693.0108760198866,416.95499894300946 A 55.955,55.955 0 0 0 693.0443827482328,416.9549823980998 Z "/><path class="wedge" fill="rgb(111,207,111)" d=" M 693.0443827482328,416.9549823980998 L 693.1775309929311,584.8199295923993 A 223.82,223.82 0 0,1 693.0435040795464,584.8199957720378 L 693.0108760198866,416.95499894300946 A 55.955,55.955 0 0 0 693.0443827482328,416.9549823980998 Z "/><path class="wedge" fill="rgb(111,207,111)" d=" M 693.0443827482328,416.9549823980998 L 693.1775309929311,584.8199295923993 A 223.82,223.82 0 0,1 693.0435040795464,584.8199957720378 L 693.0108760198866,416.95499894300946 A 55.955,55.955 0 0 0 693.0443827482328,416.9549823980998 Z "/><path class="wedge" fill="rgb(111,207,111)" d=" M 693.0443827482328,416.9549823980998 L 693.1775309929311,584.8199295923993 A 223.82,223.82 0 0,1 693.0435040795464,584.8199957720378 L 693.0108760198866,416.95499894300946 A 55.955,55.955 0 0 0 693.0443827482328,416.9549823980998 Z "/><path class="wedge" fill="rgb(111,207,111)" d=" M 693.0443827482328,416.9549823980998 L 693.1775309929311,584.8199295923993 A 223.82,223.82 0 0,1 693.0435040795464,584.8199957720378 L 693.0108760198866,416.95499894300946 A 55.955,55.955 0 0 0 693.0443827482328,416.9549823980998 Z "/><path class="wedge" fill="rgb(111,207,111)" d=" M 693.0443827482328,416.9549823980998 L 693.1775309929311,584.8199295923993 A 223.82,223.82 0 0,1 693.0435040795464,584.8199957720378 L 693.0108760198866,416.95499894300946 A 55.955,55.955 0 0 0 693.0443827482328,416.9549823980998 Z "/><path class="wedge" fill="rgb(111,207,111)" d=" M 693.0443827482328,416.9549823980998 L 693.1775309929311,584.8199295923993 A 223.82,223.82 0 0,1 693.0435040795464,584.8199957720378 L 693.0108760198866,416.95499894300946 A 55.955,55.955 0 0 0 693.0443827482328,416.9549823980998 Z "/><path class="wedge" fill="rgb(101,204,204)" d=" M 693.0108760198866,416.95499894300946 L 693.0435040795464,584.8199957720378 A 223.82,223.82 0 0,1 693.0405751693768,584.8199963221688 L 693.0101437923443,416.95499908054217 A 55.955,55.955 0 0 0 693.0108760198866,416.95499894300946 Z "/><path class="wedge" fill="url(#hiddenPattern)" d=" M 693.0108760198866,416.95499894300946 L 693.0435040795464,584.8199957720378 A 223.82,223.82 0 0,1 693.0405751693768,584.8199963221688 L 693.0101437923443,416.95499908054217 A 55.955,55.955 0 0 0 693.0108760198866,416.95499894300946 Z "/><path class="wedge" fill="rgb(101,101,204)" d=" M 693.0101437923443,416.95499908054217 L 693.0405751693768,584.8199963221688 A 223.82,223.82 0 0,1 693.0383491976431,584.8199967146346 L 693.0095872994108,416.9549991786586 A 55.955,55.955 0 0 0 693.0101437923443,416.95499908054217 Z "/><path class="wedge" fill="url(#hiddenPattern)" d=" M 693.0101437923443,416.95499908054217 L 693.0405751693768,584.8199963221688 A 223.82,223.82 0 0,1 693.0383491976431,584.8199967146346 L 693.0095872994108,416.9549991786586 A 55.955,55.955 0 0 0 693.0101437923443,416.95499908054217 Z "/><path class="wedge" fill="rgb(207,111,207)" d=" M 693.0095872994108,416.9549991786586 L 693.0383491976431,584.8199967146346 A 223.82,223.82 0 0,1 693.0383101455075,584.8199967213224 L 693.0095775363768,416.95499918033056 A 55.955,55.955 0 0 0 693.0095872994108,416.9549991786586 Z "/><path class="wedge" fill="rgb(207,111,207)" d=" M 693.0095872994108,416.9549991786586 L 693.0383491976431,584.8199967146346 A 223.82,223.82 0 0,1 693.0383101455075,584.8199967213224 L 693.0095775363768,416.95499918033056 A 55.955,55.955 0 0 0 693.0095872994108,416.9549991786586 Z "/><circle cx="693" cy="361" r="55.955"/><circle cx="693" cy="361" r="223.82"/><text x="693" y="361" text-anchor="middle" style="font-color:black;font-weight:bold" transform="rotate(360,693,361)">Root</text><path class="line" d=" M 701.8501539755961,416.25067239055323 A 55.955,55.955 0 1 0 693,416.955"/><line x1="728.4006159023844" y1="582.0026895622129" x2="701.8501539755961" y2="416.25067239055323"/><text x="693" y="293.6482588913213" text-anchor="middle" style="font-color:black;font-weight:normal" transform="rotate(355.44978257832446,693,361)">Bacteria</text><path class="line" d=" M 709.6290586461308,453.46066888495744 A 93.94413702892902,93.94413702892902 0 1 0 693,454.94413702892905"/><line x1="732.618394759759" y1="581.2856672520023" x2="709.6290586461308" y2="453.46066888495744"/><text x="693" y="259.3323362280315" text-anchor="middle" style="font-color:black;font-weight:normal" transform="rotate(354.9021733670131,693,361)">Proteobacteria</text><path class="line" d=" M 715.7314597031813,478.5108148278663 A 119.68922617239382,119.68922617239382 0 1 0 693,480.68922617239383"/><line x1="735.5080474949175" y1="580.7463499086386" x2="715.7314597031813" y2="478.5108148278663"/><text x="693" y="232.02902227863862" text-anchor="middle" style="font-color:black;font-weight:normal" transform="rotate(354.52592227703065,693,361)">Gammaproteobacteria</text><path class="line" d=" M 746.2304940221891,488.5944029213216 A 138.25272927032893,138.25272927032893 0 1 0 693,499.2527292703289"/><line x1="779.1758696188234" y1="567.5650306693743" x2="746.2304940221891" y2="488.5944029213216"/><text x="693" y="215.74470387930015" text-anchor="middle" style="font-color:black;font-weight:normal" transform="rotate(348.6774129132405,693,361)">Enterobacterales</text><path class="line" d=" M 758.6479752776831,498.3783104367574 A 152.25786297107078,152.25786297107078 0 1 0 693,513.2578629710708"/><line x1="789.5029295691795" y1="562.9469657721204" x2="758.6479752776831" y2="498.3783104367574"/><path class="line" d=" M 850.2717679631273,404.5638913791166 A 163.1938161522649,163.1938161522649 0 1 0 693,524.1938161522648"/><line x1="908.6979224792681" y1="420.74779191005854" x2="850.2717679631273" y2="404.5638913791166"/><line x1="912.8411713085752" y1="403.0148997103845" x2="861.909770324361" y2="393.2811556090235"/><path class="line" d=" M 861.909770324361,393.2811556090235 A 171.9668093513465,171.9668093513465 0 1 0 693,532.9668093513465"/><text x="495.1065953243268" y="361" text-anchor="end" style="font-color:black;font-weight:normal" transform="rotate(50.409800932767624,693,361)">Pantoea agglomerans&#160;&#160;&#160;78%</text><path class="line" d=" M 860.5635949608035,399.6655552435775 A 171.9668093513465,171.9668093513465 0 0 0 861.909770324361,393.2811556090235"/><line x1="911.089083385284" y1="411.3243888007262" x2="860.5635949608035" y2="399.6655552435775"/><path class="line" d=" M 764.6407338642014,507.6281926565895 A 163.1938161522649,163.1938161522649 0 0 0 850.2717679631273,404.5638913791166"/><line x1="791.2551265209996" y1="562.1002797420788" x2="764.6407338642014" y2="507.6281926565895"/><path class="line" d=" M 770.464419438811,514.5312581837663 A 171.9668093513465,171.9668093513465 0 0 0 858.7264029687866,406.9058043988963"/><line x1="793.8222832312433" y1="560.8255729481064" x2="770.464419438811" y2="514.5312581837663"/><text x="890.8934046756732" y="361" text-anchor="start" style="font-color:black;font-weight:normal" transform="rotate(399.3546528788409,693,361)">13%&#160;&#160;&#160;Erwinia persicina</text><path class="line" d=" M 769.0029228976272,515.2599728688544 A 171.9668093513465,171.9668093513465 0 0 0 770.464419438811,514.5312581837663"/><line x1="791.920101309734" y1="561.7740171358633" x2="769.0029228976272" y2="515.2599728688544"/><path class="line" d=" M 764.551638198154,507.6716901842332 A 163.1938161522649,163.1938161522649 0 0 0 764.6407338642014,507.6281926565895"/><line x1="791.1329319890935" y1="562.1599365162555" x2="764.551638198154" y2="507.6716901842332"/><path class="line" d=" M 753.1595303692695,500.86882333910694 A 152.25786297107078,152.25786297107078 0 0 0 758.6479752776831,498.3783104367574"/><line x1="781.4348816179579" y1="566.6080351377781" x2="753.1595303692695" y2="500.86882333910694"/><path class="line" d=" M 719.6218700222239,496.6653721006753 A 138.25272927032893,138.25272927032893 0 0 0 746.2304940221891,488.5944029213216"/><line x1="736.098656929393" y1="580.6312777608929" x2="719.6218700222239" y2="496.6653721006753"/><text x="693" y="506.2552961206999" text-anchor="middle" style="font-color:black;font-weight:normal" transform="rotate(343.126318507072,693,361)">Pseu...ales</text><path class="line" d=" M 722.320906760997,510.4079692092436 A 152.25786297107078,152.25786297107078 0 0 0 751.622793976569,501.5198379692281"/><line x1="736.1019142340994" y1="580.6306385488062" x2="722.320906760997" y2="510.4079692092436"/><path class="line" d=" M 724.4316650004556,521.1382904418501 A 163.1938161522649,163.1938161522649 0 0 0 755.8333885413986,511.61270502432683"/><line x1="736.1084671360223" y1="580.6293524581413" x2="724.4316650004556" y2="521.1382904418501"/><path class="line" d=" M 747.6154031933735,524.0636110617804 A 171.9668093513465,171.9668093513465 0 0 0 759.2111935547614,519.7093613071903"/><line x1="764.0835979852709" y1="573.2322183304608" x2="747.6154031933735" y2="524.0636110617804"/><path class="line" d=" M 750.3575459698566,530.7295583373668 A 179.15917797612775,179.15917797612775 0 0 0 761.9804215989919,526.3472482054271"/><line x1="764.655642116665" y1="573.0397636125084" x2="750.3575459698566" y2="530.7295583373668"/><path class="line" d=" M 754.4751073196962,535.6589054984903 A 185.16188076896051,185.16188076896051 0 0 0 764.2916008199538,531.8871842544874"/><line x1="767.3098874517425" y1="572.1242123180318" x2="754.4751073196962" y2="535.6589054984903"/><text x="897.4909403844803" y="361" text-anchor="start" style="font-color:black;font-weight:normal" transform="rotate(428.982083174319,693,361)">0.9%&#160;&#160;&#160;Pseudomonas fluorescens A506</text><path class="line" d=" M 754.4583460597137,535.6648040948812 A 185.16188076896051,185.16188076896051 0 0 0 754.4751073196962,535.6589054984903"/><line x1="767.2896267739306" y1="572.1313424240705" x2="754.4583460597137" y2="535.6648040948812"/><path class="line" d=" M 750.1900484721849,530.7860695370234 A 179.15917797612775,179.15917797612775 0 0 0 750.3575459698566,530.7295583373668"/><line x1="764.4463908220768" y1="573.1103619309982" x2="750.1900484721849" y2="530.7860695370234"/><path class="line" d=" M 747.2266883450328,524.193289658653 A 171.9668093513465,171.9668093513465 0 0 0 747.6154031933735,524.0636110617804"/><line x1="763.5776738614021" y1="573.4009989437751" x2="747.2266883450328" y2="524.193289658653"/><path class="line" d=" M 724.4312738271299,521.1383672201737 A 163.1938161522649,163.1938161522649 0 0 0 724.4316650004556,521.1382904418501"/><line x1="736.1079306425703" y1="580.6294577594621" x2="724.4312738271299" y2="521.1383672201737"/><path class="line" d=" M 722.3207242799518,510.4080050205357 A 152.25786297107078,152.25786297107078 0 0 0 722.320906760997,510.4079692092436"/><line x1="736.1016459858347" y1="580.630691191627" x2="722.3207242799518" y2="510.4080050205357"/><path class="line" d=" M 719.586173372046,496.67237204429784 A 138.25272927032893,138.25272927032893 0 0 0 719.6218700222239,496.6653721006753"/><line x1="736.0408669364938" y1="580.6426101041304" x2="719.586173372046" y2="496.67237204429784"/><path class="line" d=" M 714.2093828525957,478.7950463336997 A 119.68922617239382,119.68922617239382 0 0 0 715.7314597031813,478.5108148278663"/><line x1="732.6617491972963" y1="581.2778655485175" x2="714.2093828525957" y2="478.7950463336997"/><path class="line" d=" M 707.8911287308446,453.7564292501151 A 93.94413702892902,93.94413702892902 0 0 0 709.6290586461308,453.46066888495744"/><line x1="728.4778120055676" y1="581.990310319927" x2="707.8911287308446" y2="453.7564292501151"/><path class="line" d=" M 693.0443827482328,416.9549823980998 A 55.955,55.955 0 0 0 701.8501539755961,416.25067239055323"/><line x1="693.1775309929311" y1="584.8199295923993" x2="693.0443827482328" y2="416.9549823980998"/><text x="832.8875" y="361" text-anchor="start" style="font-color:black;font-weight:normal" transform="rotate(445.4270594577492,693,361)">3%&#160;&#160;&#160;No hits</text><line x1="693.0435040795464" y1="584.8199957720378" x2="693.0108760198866" y2="416.95499894300946"/><path class="line" d=" M 693.0108760198866,416.95499894300946 A 55.955,55.955 0 0 0 693.0443827482328,416.9549823980998"/><path class="line" d=" M 693.0101437923443,416.95499908054217 A 55.955,55.955 0 0 0 693.0108760198866,416.95499894300946"/><line x1="693.0405751693768" y1="584.8199963221688" x2="693.0101437923443" y2="416.95499908054217"/><path class="line" d=" M 693.0095872994108,416.9549991786586 A 55.955,55.955 0 0 0 693.0101437923443,416.95499908054217"/><line x1="693.0383491976431" y1="584.8199967146346" x2="693.0095872994108" y2="416.9549991786586"/><line x1="693.0383101455075" y1="584.8199967213224" x2="693.0095775363768" y2="416.95499918033056"/><path class="line" d=" M 693.0095775363768,416.95499918033056 A 55.955,55.955 0 0 0 693.0095872994108,416.9549991786586"/></svg>