<?xml version="1.0" standalone="no"?><!DOCTYPE svg PUBLIC "-//W3C//DTD SVG 1.1//EN" 	"http://www.w3.org/Graphics/SVG/1.1/DTD/svg11.dtd"><svg width="1536" height="722" version="1.1"	xmlns="http://www.w3.org/2000/svg"><title>Krona (snapshot) - Root</title><defs>	<style type="text/css">	text {font-size: 11px; font-family: sans-serif; dominant-baseline:central}	path {stroke-width:0.27499999999999997;}	path.wedge {stroke:none}	path.line {fill:none;stroke:black;}	line {stroke:black;stroke-width:0.27499999999999997;}	line.tick {stroke-width:0.5499999999999999;}	line.pattern {stroke-width:0.18333333333333332;}	circle {fill:none;stroke:black;stroke-width:0.27499999999999997;}	rect {stroke:black;stroke-width:0.27499999999999997;}	.highlight {stroke:black;stroke-width:1.375;}	.searchHighlight {fill:rgb(255, 255, 100);stroke:none;}	</style><pattern id="hiddenPattern" patternUnits="userSpaceOnUse" x="0" y="0" width="6.6" height="6.6"><line class="pattern" x1="0" y1="0" x2="3.3" y2="3.3"/><line class="pattern" x1="3.3" y1="6.6" x2="6.6" y2="3.3"/></pattern></defs><path class="wedge" fill="rgb(220,220,220)" d=" M 693.0509401715098,433.19998202976876 L 693.2037606860391,649.7999281190749 A 288.8,288.8 0 0,1 693.0000000000001,649.8 L 693,433.2 A 72.2,72.2 0 0 0 693.0509401715098,433.19998202976876 Z "/><path class="wedge" fill="rgb(207,111,111)" d=" M 693,433.2 L 693,649.8 A 288.8,288.8 0 1,1 937.1332125307832,515.2867931463982 L 754.0333031326958,399.57169828659954 A 72.2,72.2 0 1 0 693,433.2 Z "/><path class="wedge" fill="rgb(207,111,111)" d=" M 795.6672619489766,425.4460654692644 L 937.6026680977848,514.5414431332629 A 288.8,288.8 0 0,1 937.1332125307832,515.2867931463982 L 795.4702170105645,425.75891179116815 A 121.21824132765036,121.21824132765036 0 0 0 795.6672619489766,425.4460654692644 Z "/><path class="wedge" fill="rgb(210,121,121)" d=" M 693,482.2182413276504 L 693,649.8 A 288.8,288.8 0 1,1 925.7183004951864,189.98060748958295 L 790.6790273919189,289.2179016861638 A 121.21824132765036,121.21824132765036 0 1 0 693,482.2182413276504 Z "/><path class="wedge" fill="rgb(210,121,121)" d=" M 817.3101255326063,269.359401312896 L 925.4611260886012,189.6312022052454 A 288.8,288.8 0 0,1 925.7183004951864,189.98060748958295 L 817.4476512484295,269.546248100953 A 154.43771119018558,154.43771119018558 0 0 0 817.3101255326063,269.359401312896 Z "/><path class="wedge" fill="rgb(213,130,130)" d=" M 693,515.4377111901856 L 693,649.8 A 288.8,288.8 0 1,1 920.1404749749615,182.6390047455753 L 814.4648721391436,265.62027744911046 A 154.43771119018558,154.43771119018558 0 1 0 693,515.4377111901856 Z "/><path class="wedge" fill="rgb(213,130,130)" d=" M 833.1084544348814,250.5788347563828 L 919.8242691274327,182.23705379803673 A 288.8,288.8 0 0,1 920.1404749749615,182.6390047455753 L 833.3037735369818,250.8271182678206 A 178.39061841332764,178.39061841332764 0 0 0 833.1084544348814,250.5788347563828 Z "/><path class="wedge" fill="rgb(216,140,140)" d=" M 693,539.3906184133276 L 693,649.8 A 288.8,288.8 0 1,1 868.2962613491852,131.48603363412028 L 801.2798077133846,219.23013021293295 A 178.39061841332764,178.39061841332764 0 1 0 693,539.3906184133276 Z "/><path class="wedge" fill="rgb(216,140,140)" d=" M 811.194949269939,204.0695167033855 L 866.7473062433834,130.3112192299592 A 288.8,288.8 0 0,1 868.2962613491852,131.48603363412028 L 812.2486557941437,204.86870681403332 A 196.4617586723494,196.4617586723494 0 0 0 811.194949269939,204.0695167033855 Z "/><path class="wedge" fill="rgb(219,149,149)" d=" M 693,557.4617586723493 L 693,649.8 A 288.8,288.8 0 1,1 841.5169650129286,113.31441078789311 L 794.0315240274228,192.50711061493212 A 196.4617586723494,196.4617586723494 0 1 0 693,557.4617586723493 Z "/><path class="wedge" fill="rgb(219,149,149)" d=" M 800.0476251960062,179.66700904834292 L 839.8156088035543,112.30215720348173 A 288.8,288.8 0 0,1 841.5169650129286,113.31441078789311 L 801.2881345894568,180.40507323096247 A 210.5726660029225,210.5726660029225 0 0 0 800.0476251960062,179.66700904834292 Z "/><path class="wedge" fill="rgb(223,159,159)" d=" M 693,571.5726660029225 L 693,649.8 A 288.8,288.8 0 1,1 833.7947233657787,108.84471872999796 L 795.6576186228393,177.14608786793244 A 210.5726660029225,210.5726660029225 0 1 0 693,571.5726660029225 Z "/><path class="wedge" fill="rgb(223,159,159)" d=" M 638.5019849076381,145.9039338284101 L 622.0691861762048,81.04596868361745 A 288.8,288.8 0 0,1 833.7947233657787,108.84471872999796 L 801.1762994849364,167.2624466933536 A 221.8926572275439,221.8926572275439 0 0 0 638.5019849076381,145.9039338284101 Z "/><path class="wedge" fill="rgb(226,168,168)" d=" M 693,582.8926572275439 L 693,649.8 A 288.8,288.8 0 0,1 445.1184659211872,212.81030716431607 L 502.54607938231385,247.14195042574988 A 221.8926572275439,221.8926572275439 0 0 0 693,582.8926572275439 Z "/><path class="wedge" fill="rgb(226,168,168)" d=" M 693,582.8926572275439 L 693,649.8 A 288.8,288.8 0 0,1 445.1184659211872,212.81030716431607 L 502.54607938231385,247.14195042574988 A 221.8926572275439,221.8926572275439 0 0 0 693,582.8926572275439 Z "/><path class="wedge" fill="rgb(226,179,168)" d=" M 502.54607938231385,247.14195042574988 L 445.1184659211872,212.81030716431607 A 288.8,288.8 0 0,1 486.22909050034525,159.3784957285419 L 534.1324565573602,206.08888041202067 A 221.8926572275439,221.8926572275439 0 0 0 502.54607938231385,247.14195042574988 Z "/><path class="wedge" fill="rgb(226,179,168)" d=" M 495.4104260039778,241.002593319183 L 446.155272582896,211.08962495418933 A 288.8,288.8 0 0,1 486.22909050034525,159.3784957285419 L 527.4879538230076,199.609851811345 A 231.1731328724229,231.1731328724229 0 0 0 495.4104260039778,241.002593319183 Z "/><path class="wedge" fill="rgb(229,188,178)" d=" M 494.58050272083995,242.37993229838264 L 445.1184659211872,212.81030716431607 A 288.8,288.8 0 0,1 446.155272582896,211.08962495418933 L 495.4104260039778,241.002593319183 A 231.1731328724229,231.1731328724229 0 0 0 494.58050272083995,242.37993229838264 Z "/><path class="wedge" fill="url(#hiddenPattern)" d=" M 494.58050272083995,242.37993229838264 L 445.1184659211872,212.81030716431607 A 288.8,288.8 0 0,1 446.155272582896,211.08962495418933 L 495.4104260039778,241.002593319183 A 231.1731328724229,231.1731328724229 0 0 0 494.58050272083995,242.37993229838264 Z "/><path class="wedge" fill="rgb(226,181,168)" d=" M 534.1324565573602,206.08888041202067 L 486.22909050034525,159.3784957285419 A 288.8,288.8 0 0,1 529.2154047202628,123.13439435460057 L 567.1599755555445,178.2415813722412 A 221.8926572275439,221.8926572275439 0 0 0 534.1324565573602,206.08888041202067 Z "/><path class="wedge" fill="rgb(226,181,168)" d=" M 530.1326231019414,196.94136747980428 L 489.5330232639229,156.0448112931008 A 288.8,288.8 0 0,1 529.2154047202628,123.13439435460057 L 561.8968213051984,170.59786267436542 A 231.1731328724229,231.1731328724229 0 0 0 530.1326231019414,196.94136747980428 Z "/><path class="wedge" fill="rgb(229,189,178)" d=" M 527.4879538230076,199.609851811345 L 486.22909050034525,159.3784957285419 A 288.8,288.8 0 0,1 489.5330232639229,156.0448112931008 L 530.1326231019414,196.94136747980428 A 231.1731328724229,231.1731328724229 0 0 0 527.4879538230076,199.609851811345 Z "/><path class="wedge" fill="url(#hiddenPattern)" d=" M 527.4879538230076,199.609851811345 L 486.22909050034525,159.3784957285419 A 288.8,288.8 0 0,1 489.5330232639229,156.0448112931008 L 530.1326231019414,196.94136747980428 A 231.1731328724229,231.1731328724229 0 0 0 527.4879538230076,199.609851811345 Z "/><path class="wedge" fill="rgb(226,182,168)" d=" M 567.1599755555445,178.2415813722412 L 529.2154047202628,123.13439435460057 A 288.8,288.8 0 0,1 572.4870593845266,98.5460590042295 L 600.4067291431004,159.34971479434716 A 221.8926572275439,221.8926572275439 0 0 0 567.1599755555445,178.2415813722412 Z "/><path class="wedge" fill="rgb(226,182,168)" d=" M 600.4067291431004,159.34971479434716 L 572.4870593845266,98.5460590042295 A 288.8,288.8 0 0,1 618.4321002181161,81.99270919540663 L 635.7075158362902,146.63133953431682 A 221.8926572275439,221.8926572275439 0 0 0 600.4067291431004,159.34971479434716 Z "/><path class="wedge" fill="rgb(226,182,168)" d=" M 633.2303946677193,137.687188812477 L 618.3310200649973,82.01974364578024 A 288.8,288.8 0 0,1 618.4321002181161,81.99270919540663 L 633.3113053867903,137.66554878966411 A 231.1731328724229,231.1731328724229 0 0 0 633.2303946677193,137.687188812477 Z "/><path class="wedge" fill="rgb(229,190,178)" d=" M 596.5340926809306,150.91585950586463 L 572.4870593845266,98.5460590042295 A 288.8,288.8 0 0,1 615.4967039296041,82.79381908695024 L 630.961635178212,138.30680600366424 A 231.1731328724229,231.1731328724229 0 0 0 596.5340926809306,150.91585950586463 Z "/><path class="wedge" fill="rgb(229,191,178)" d=" M 630.961635178212,138.30680600366424 L 615.4967039296041,82.79381908695024 A 288.8,288.8 0 0,1 618.3310200649973,82.01974364578024 L 633.2303946677193,137.687188812477 A 231.1731328724229,231.1731328724229 0 0 0 630.961635178212,138.30680600366424 Z "/><path class="wedge" fill="url(#hiddenPattern)" d=" M 630.961635178212,138.30680600366424 L 615.4967039296041,82.79381908695024 A 288.8,288.8 0 0,1 618.3310200649973,82.01974364578024 L 633.2303946677193,137.687188812477 A 231.1731328724229,231.1731328724229 0 0 0 630.961635178212,138.30680600366424 Z "/><path class="wedge" fill="rgb(226,183,168)" d=" M 635.7075158362902,146.63133953431682 L 618.4321002181161,81.99270919540663 A 288.8,288.8 0 0,1 622.0691861762048,81.04596868361745 L 638.5019849076381,145.9039338284101 A 221.8926572275439,221.8926572275439 0 0 0 635.7075158362902,146.63133953431682 Z "/><path class="wedge" fill="url(#hiddenPattern)" d=" M 635.7075158362902,146.63133953431682 L 618.4321002181161,81.99270919540663 A 288.8,288.8 0 0,1 622.0691861762048,81.04596868361745 L 638.5019849076381,145.9039338284101 A 221.8926572275439,221.8926572275439 0 0 0 635.7075158362902,146.63133953431682 Z "/><path class="wedge" fill="rgb(219,173,149)" d=" M 795.6576186228393,177.14608786793244 L 833.7947233657787,108.84471872999796 A 288.8,288.8 0 0,1 839.8156088035543,112.30215720348173 L 800.0476251960062,179.66700904834292 A 210.5726660029225,210.5726660029225 0 0 0 795.6576186228393,177.14608786793244 Z "/><path class="wedge" fill="url(#hiddenPattern)" d=" M 795.6576186228393,177.14608786793244 L 833.7947233657787,108.84471872999796 A 288.8,288.8 0 0,1 839.8156088035543,112.30215720348173 L 800.0476251960062,179.66700904834292 A 210.5726660029225,210.5726660029225 0 0 0 795.6576186228393,177.14608786793244 Z "/><path class="wedge" fill="rgb(219,173,149)" d=" M 794.0315240274228,192.50711061493212 L 841.5169650129286,113.31441078789311 A 288.8,288.8 0 0,1 864.297150563885,128.48607308659186 L 809.5281837096367,202.82792590989519 A 196.4617586723494,196.4617586723494 0 0 0 794.0315240274228,192.50711061493212 Z "/><path class="wedge" fill="rgb(219,173,149)" d=" M 817.3003610300385,191.02862618846538 L 863.4777022910318,127.88459291250118 A 288.8,288.8 0 0,1 864.297150563885,128.48607308659186 L 817.8978451279131,191.46718326535657 A 210.5726660029225,210.5726660029225 0 0 0 817.3003610300385,191.02862618846538 Z "/><path class="wedge" fill="rgb(223,180,159)" d=" M 801.2881345894568,180.40507323096247 L 841.5169650129286,113.31441078789311 A 288.8,288.8 0 0,1 859.1801149400848,124.80175826543456 L 814.1668623255047,188.78083979484006 A 210.5726660029225,210.5726660029225 0 0 0 801.2881345894568,180.40507323096247 Z "/><path class="wedge" fill="rgb(223,180,159)" d=" M 820.0269611548906,179.0645651027425 L 858.3294292830641,124.20553255420782 A 288.8,288.8 0 0,1 859.1801149400848,124.80175826543456 L 820.6805653823894,179.52266104239445 A 221.8926572275439,221.8926572275439 0 0 0 820.0269611548906,179.0645651027425 Z "/><path class="wedge" fill="rgb(226,188,168)" d=" M 807.1095014199753,170.69662899153644 L 841.5169650129286,113.31441078789311 A 288.8,288.8 0 0,1 855.3051072389471,122.12243268955984 L 817.703294760566,177.46406453405456 A 221.8926572275439,221.8926572275439 0 0 0 807.1095014199753,170.69662899153644 Z "/><path class="wedge" fill="rgb(226,188,168)" d=" M 814.695058252639,164.45145597349824 L 845.0312174112286,115.45581063185435 A 288.8,288.8 0 0,1 855.3051072389471,122.12243268955984 L 822.9189062383033,169.78782684176758 A 231.1731328724229,231.1731328724229 0 0 0 814.695058252639,164.45145597349824 Z "/><path class="wedge" fill="rgb(229,195,178)" d=" M 811.882036311436,162.73734894212348 L 841.5169650129286,113.31441078789311 A 288.8,288.8 0 0,1 845.0312174112286,115.45581063185435 L 814.695058252639,164.45145597349824 A 231.1731328724229,231.1731328724229 0 0 0 811.882036311436,162.73734894212348 Z "/><path class="wedge" fill="url(#hiddenPattern)" d=" M 811.882036311436,162.73734894212348 L 841.5169650129286,113.31441078789311 A 288.8,288.8 0 0,1 845.0312174112286,115.45581063185435 L 814.695058252639,164.45145597349824 A 231.1731328724229,231.1731328724229 0 0 0 811.882036311436,162.73734894212348 Z "/><path class="wedge" fill="rgb(223,181,159)" d=" M 817.703294760566,177.46406453405456 L 855.3051072389471,122.12243268955984 A 288.8,288.8 0 0,1 858.3294292830641,124.20553255420782 L 820.0269611548906,179.0645651027425 A 221.8926572275439,221.8926572275439 0 0 0 817.703294760566,177.46406453405456 Z "/><path class="wedge" fill="url(#hiddenPattern)" d=" M 817.703294760566,177.46406453405456 L 855.3051072389471,122.12243268955984 A 288.8,288.8 0 0,1 858.3294292830641,124.20553255420782 L 820.0269611548906,179.0645651027425 A 221.8926572275439,221.8926572275439 0 0 0 817.703294760566,177.46406453405456 Z "/><path class="wedge" fill="rgb(219,174,149)" d=" M 814.1668623255047,188.78083979484006 L 859.1801149400848,124.80175826543456 A 288.8,288.8 0 0,1 863.4777022910318,127.88459291250118 L 817.3003610300385,191.02862618846538 A 210.5726660029225,210.5726660029225 0 0 0 814.1668623255047,188.78083979484006 Z "/><path class="wedge" fill="url(#hiddenPattern)" d=" M 814.1668623255047,188.78083979484006 L 859.1801149400848,124.80175826543456 A 288.8,288.8 0 0,1 863.4777022910318,127.88459291250118 L 817.3003610300385,191.02862618846538 A 210.5726660029225,210.5726660029225 0 0 0 814.1668623255047,188.78083979484006 Z "/><path class="wedge" fill="rgb(216,166,140)" d=" M 809.5281837096367,202.82792590989519 L 864.297150563885,128.48607308659186 A 288.8,288.8 0 0,1 866.7473062433834,130.3112192299592 L 811.194949269939,204.0695167033855 A 196.4617586723494,196.4617586723494 0 0 0 809.5281837096367,202.82792590989519 Z "/><path class="wedge" fill="url(#hiddenPattern)" d=" M 809.5281837096367,202.82792590989519 L 864.297150563885,128.48607308659186 A 288.8,288.8 0 0,1 866.7473062433834,130.3112192299592 L 811.194949269939,204.0695167033855 A 196.4617586723494,196.4617586723494 0 0 0 809.5281837096367,202.82792590989519 Z "/><path class="wedge" fill="rgb(216,167,140)" d=" M 801.2798077133846,219.23013021293295 L 868.2962613491852,131.48603363412028 A 288.8,288.8 0 0,1 917.9850745968645,179.9277596961828 L 831.9723912434325,249.15239291798952 A 178.39061841332764,178.39061841332764 0 0 0 801.2798077133846,219.23013021293295 Z "/><path class="wedge" fill="rgb(216,167,140)" d=" M 846.0477804340059,237.81883453686277 L 917.9811835546892,179.92292512211478 A 288.8,288.8 0 0,1 917.9850745968645,179.9277596961828 L 846.0504273903383,237.8221233489259 A 196.4617586723494,196.4617586723494 0 0 0 846.0477804340059,237.81883453686277 Z "/><path class="wedge" fill="rgb(219,174,149)" d=" M 812.2486557941437,204.86870681403332 L 868.2962613491852,131.48603363412028 A 288.8,288.8 0 0,1 917.9759325750231,179.9164011789067 L 846.0442083540198,237.81439649892604 A 196.4617586723494,196.4617586723494 0 0 0 812.2486557941437,204.86870681403332 Z "/><path class="wedge" fill="rgb(219,174,149)" d=" M 857.030478227644,228.9589083656579 L 917.9674804016878,179.90590080923062 A 288.8,288.8 0 0,1 917.9759325750231,179.9164011789067 L 857.0366409585054,228.96656449736398 A 210.5726660029225,210.5726660029225 0 0 0 857.030478227644,228.9589083656579 Z "/><path class="wedge" fill="rgb(223,181,159)" d=" M 820.8137156947472,193.65454368916767 L 868.2962613491852,131.48603363412028 A 288.8,288.8 0 0,1 917.9550104591001,179.89041088515998 L 857.021386021773,228.9476142015037 A 210.5726660029225,210.5726660029225 0 0 0 820.8137156947472,193.65454368916767 Z "/><path class="wedge" fill="rgb(223,181,159)" d=" M 861.7729657387424,216.94432545973916 L 912.6631160055279,173.5071855597074 A 288.8,288.8 0 0,1 917.9550104591001,179.89041088515998 L 865.8388678234753,221.84872583767137 A 221.8926572275439,221.8926572275439 0 0 0 861.7729657387424,216.94432545973916 Z "/><path class="wedge" fill="rgb(226,189,168)" d=" M 827.6847411108888,184.65836610887055 L 868.2962613491852,131.48603363412028 A 288.8,288.8 0 0,1 886.2473052201908,146.38192288361535 L 841.4770015836923,196.1032707049151 A 221.8926572275439,221.8926572275439 0 0 0 827.6847411108888,184.65836610887055 Z "/><path class="wedge" fill="rgb(223,183,159)" d=" M 841.4770015836923,196.1032707049151 L 886.2473052201908,146.38192288361535 A 288.8,288.8 0 0,1 912.6631160055279,173.5071855597074 L 861.7729657387424,216.94432545973916 A 221.8926572275439,221.8926572275439 0 0 0 841.4770015836923,196.1032707049151 Z "/><path class="wedge" fill="url(#hiddenPattern)" d=" M 841.4770015836923,196.1032707049151 L 886.2473052201908,146.38192288361535 A 288.8,288.8 0 0,1 912.6631160055279,173.5071855597074 L 861.7729657387424,216.94432545973916 A 221.8926572275439,221.8926572275439 0 0 0 841.4770015836923,196.1032707049151 Z "/><path class="wedge" fill="rgb(219,176,149)" d=" M 857.021386021773,228.9476142015037 L 917.9550104591001,179.89041088515998 A 288.8,288.8 0 0,1 917.9674804016878,179.90590080923062 L 857.030478227644,228.9589083656579 A 210.5726660029225,210.5726660029225 0 0 0 857.021386021773,228.9476142015037 Z "/><path class="wedge" fill="url(#hiddenPattern)" d=" M 857.021386021773,228.9476142015037 L 917.9550104591001,179.89041088515998 A 288.8,288.8 0 0,1 917.9674804016878,179.90590080923062 L 857.030478227644,228.9589083656579 A 210.5726660029225,210.5726660029225 0 0 0 857.021386021773,228.9476142015037 Z "/><path class="wedge" fill="rgb(216,168,140)" d=" M 846.0442083540198,237.81439649892604 L 917.9759325750231,179.9164011789067 A 288.8,288.8 0 0,1 917.9811835546892,179.92292512211478 L 846.0477804340059,237.81883453686277 A 196.4617586723494,196.4617586723494 0 0 0 846.0442083540198,237.81439649892604 Z "/><path class="wedge" fill="url(#hiddenPattern)" d=" M 846.0442083540198,237.81439649892604 L 917.9759325750231,179.9164011789067 A 288.8,288.8 0 0,1 917.9811835546892,179.92292512211478 L 846.0477804340059,237.81883453686277 A 196.4617586723494,196.4617586723494 0 0 0 846.0442083540198,237.81439649892604 Z "/><path class="wedge" fill="rgb(213,161,130)" d=" M 831.9723912434325,249.15239291798952 L 917.9850745968645,179.9277596961828 A 288.8,288.8 0 0,1 919.8242691274327,182.23705379803673 L 833.1084544348814,250.5788347563828 A 178.39061841332764,178.39061841332764 0 0 0 831.9723912434325,249.15239291798952 Z "/><path class="wedge" fill="url(#hiddenPattern)" d=" M 831.9723912434325,249.15239291798952 L 917.9850745968645,179.9277596961828 A 288.8,288.8 0 0,1 919.8242691274327,182.23705379803673 L 833.1084544348814,250.5788347563828 A 178.39061841332764,178.39061841332764 0 0 0 831.9723912434325,249.15239291798952 Z "/><path class="wedge" fill="rgb(210,155,121)" d=" M 814.4648721391436,265.62027744911046 L 920.1404749749615,182.6390047455753 A 288.8,288.8 0 0,1 925.4611260886012,189.6312022052454 L 817.3101255326063,269.359401312896 A 154.43771119018558,154.43771119018558 0 0 0 814.4648721391436,265.62027744911046 Z "/><path class="wedge" fill="url(#hiddenPattern)" d=" M 814.4648721391436,265.62027744911046 L 920.1404749749615,182.6390047455753 A 288.8,288.8 0 0,1 925.4611260886012,189.6312022052454 L 817.3101255326063,269.359401312896 A 154.43771119018558,154.43771119018558 0 0 0 814.4648721391436,265.62027744911046 Z "/><path class="wedge" fill="rgb(210,155,121)" d=" M 790.6790273919189,289.2179016861638 L 925.7183004951864,189.98060748958295 A 288.8,288.8 0 0,1 938.0142798169448,513.8837554672957 L 795.8400280456055,425.1700137303052 A 121.21824132765036,121.21824132765036 0 0 0 790.6790273919189,289.2179016861638 Z "/><path class="wedge" fill="rgb(210,155,121)" d=" M 824.0567914224973,442.70143242136703 L 938.0774559602676,513.7824616245043 A 288.8,288.8 0 0,1 938.0142798169448,513.8837554672957 L 824.0230075617751,442.7555999741314 A 154.43771119018558,154.43771119018558 0 0 0 824.0567914224973,442.70143242136703 Z "/><path class="wedge" fill="rgb(213,162,130)" d=" M 817.4476512484295,269.546248100953 L 925.7183004951864,189.98060748958295 A 288.8,288.8 0 0,1 944.1734089623305,503.5389723207019 L 827.3166426315055,437.22365872787543 A 154.43771119018558,154.43771119018558 0 0 0 817.4476512484295,269.546248100953 Z "/><path class="wedge" fill="rgb(213,162,130)" d=" M 848.1860271252172,448.9801666455617 L 944.2336412777096,503.43278235835714 A 288.8,288.8 0 0,1 944.1734089623305,503.5389723207019 L 848.1488218620976,449.0457597655478 A 178.39061841332764,178.39061841332764 0 0 0 848.1860271252172,448.9801666455617 Z "/><path class="wedge" fill="rgb(216,169,140)" d=" M 836.7491743124478,255.36199726244837 L 925.7183004951864,189.98060748958295 A 288.8,288.8 0 0,1 944.3890431869211,503.15832358875207 L 848.2820182702548,448.81063454847447 A 178.39061841332764,178.39061841332764 0 0 0 836.7491743124478,255.36199726244837 Z "/><path class="wedge" fill="rgb(216,169,140)" d=" M 864.0584138024815,457.62422930099603 L 944.4569259687157,503.03821451413637 A 288.8,288.8 0 0,1 944.3890431869211,503.15832358875207 L 864.0122352335932,457.70593581080044 A 196.4617586723494,196.4617586723494 0 0 0 864.0584138024815,457.62422930099603 Z "/><path class="wedge" fill="rgb(219,176,149)" d=" M 851.311103152786,244.6607665523776 L 925.7183004951864,189.98060748958295 A 288.8,288.8 0 0,1 945.1494822146879,501.80510863908603 L 864.5295385187668,456.7853852953118 A 196.4617586723494,196.4617586723494 0 0 0 851.311103152786,244.6607665523776 Z "/><path class="wedge" fill="rgb(219,176,149)" d=" M 876.994748703426,463.4049809195893 L 945.3484383524495,501.44823124938233 A 288.8,288.8 0 0,1 945.1494822146879,501.80510863908603 L 876.8496838684325,463.66519083436106 A 210.5726660029225,210.5726660029225 0 0 0 876.994748703426,463.4049809195893 Z "/><path class="wedge" fill="rgb(223,184,159)" d=" M 862.6818315891297,236.30467652659712 L 925.7183004951864,189.98060748958295 A 288.8,288.8 0 0,1 949.8228473697559,493.0888529319983 L 880.2571733417976,457.3099096646774 A 210.5726660029225,210.5726660029225 0 0 0 862.6818315891297,236.30467652659712 Z "/><path class="wedge" fill="rgb(226,191,168)" d=" M 871.8036083184037,229.60129002224116 L 925.7183004951864,189.98060748958295 A 288.8,288.8 0 0,1 949.8241749980489,493.0862715673798 L 890.3247875020388,462.4853662789643 A 221.8926572275439,221.8926572275439 0 0 0 871.8036083184037,229.60129002224116 Z "/><path class="wedge" fill="rgb(226,191,168)" d=" M 871.8036083184037,229.60129002224116 L 925.7183004951864,189.98060748958295 A 288.8,288.8 0 0,1 949.8241749980489,493.0862715673798 L 890.3247875020388,462.4853662789643 A 221.8926572275439,221.8926572275439 0 0 0 871.8036083184037,229.60129002224116 Z "/><path class="wedge" fill="rgb(226,191,168)" d=" M 905.1337346499339,452.8710835112024 L 958.0144582359867,475.7727185610173 A 288.8,288.8 0 0,1 949.8241749980489,493.0862715673798 L 898.5777324503958,466.7299072287702 A 231.1731328724229,231.1731328724229 0 0 0 905.1337346499339,452.8710835112024 Z "/><path class="wedge" fill="rgb(229,198,178)" d=" M 879.2819203677915,224.10564837752187 L 925.7183004951864,189.98060748958295 A 288.8,288.8 0 0,1 980.481647941779,388.5634195389299 L 923.1178434834763,383.0634419926987 A 231.1731328724229,231.1731328724229 0 0 0 879.2819203677915,224.10564837752187 Z "/><path class="wedge" fill="rgb(229,198,178)" d=" M 879.2819203677915,224.10564837752187 L 925.7183004951864,189.98060748958295 A 288.8,288.8 0 0,1 980.481647941779,388.5634195389299 L 923.1178434834763,383.0634419926987 A 231.1731328724229,231.1731328724229 0 0 0 879.2819203677915,224.10564837752187 Z "/><path class="wedge" fill="rgb(229,201,178)" d=" M 923.1178434834763,383.0634419926987 L 980.481647941779,388.5634195389299 A 288.8,288.8 0 0,1 969.0164393645695,445.97273209980347 L 913.9403913164774,429.0173569537419 A 231.1731328724229,231.1731328724229 0 0 0 923.1178434834763,383.0634419926987 Z "/><path class="wedge" fill="rgb(229,201,178)" d=" M 921.5850592409727,430.5050142948833 L 969.3090747773988,445.0162793490517 A 288.8,288.8 0 0,1 969.0164393645695,445.97273209980347 L 921.3429677235968,431.2962688306525 A 238.9185558309168,238.9185558309168 0 0 0 921.5850592409727,430.5050142948833 Z "/><path class="wedge" fill="rgb(229,201,178)" d=" M 930.82790912099,383.80267448061915 L 980.481647941779,388.5634195389299 A 288.8,288.8 0 0,1 973.3881858451741,430.1946908256126 L 924.9596275421735,418.24340582833156 A 238.9185558309168,238.9185558309168 0 0 0 930.82790912099,383.80267448061915 Z "/><path class="wedge" fill="rgb(229,202,178)" d=" M 924.9596275421735,418.24340582833156 L 973.3881858451741,430.1946908256126 A 288.8,288.8 0 0,1 969.3090747773988,445.0162793490517 L 921.5850592409727,430.5050142948833 A 238.9185558309168,238.9185558309168 0 0 0 924.9596275421735,418.24340582833156 Z "/><path class="wedge" fill="url(#hiddenPattern)" d=" M 924.9596275421735,418.24340582833156 L 973.3881858451741,430.1946908256126 A 288.8,288.8 0 0,1 969.3090747773988,445.0162793490517 L 921.5850592409727,430.5050142948833 A 238.9185558309168,238.9185558309168 0 0 0 924.9596275421735,418.24340582833156 Z "/><path class="wedge" fill="rgb(229,202,178)" d=" M 913.9403913164774,429.0173569537419 L 969.0164393645695,445.97273209980347 A 288.8,288.8 0 0,1 961.4695793855296,467.4402411898659 L 907.8994243334298,446.2012604555319 A 231.1731328724229,231.1731328724229 0 0 0 913.9403913164774,429.0173569537419 Z "/><path class="wedge" fill="rgb(226,196,168)" d=" M 907.8994243334298,446.2012604555319 L 961.4695793855296,467.4402411898659 A 288.8,288.8 0 0,1 958.0144582359867,475.7727185610173 L 905.1337346499339,452.8710835112024 A 231.1731328724229,231.1731328724229 0 0 0 907.8994243334298,446.2012604555319 Z "/><path class="wedge" fill="url(#hiddenPattern)" d=" M 907.8994243334298,446.2012604555319 L 961.4695793855296,467.4402411898659 A 288.8,288.8 0 0,1 958.0144582359867,475.7727185610173 L 905.1337346499339,452.8710835112024 A 231.1731328724229,231.1731328724229 0 0 0 907.8994243334298,446.2012604555319 Z "/><path class="wedge" fill="rgb(223,190,159)" d=" M 890.3247875020388,462.4853662789643 L 949.8241749980489,493.0862715673798 A 288.8,288.8 0 0,1 949.8228473697559,493.0888529319983 L 890.3237674502045,462.4873496094853 A 221.8926572275439,221.8926572275439 0 0 0 890.3247875020388,462.4853662789643 Z "/><path class="wedge" fill="url(#hiddenPattern)" d=" M 890.3247875020388,462.4853662789643 L 949.8241749980489,493.0862715673798 A 288.8,288.8 0 0,1 949.8228473697559,493.0888529319983 L 890.3237674502045,462.4873496094853 A 221.8926572275439,221.8926572275439 0 0 0 890.3247875020388,462.4853662789643 Z "/><path class="wedge" fill="rgb(219,184,149)" d=" M 880.2571733417976,457.3099096646774 L 949.8228473697559,493.0888529319983 A 288.8,288.8 0 0,1 945.3484383524495,501.44823124938233 L 876.994748703426,463.4049809195893 A 210.5726660029225,210.5726660029225 0 0 0 880.2571733417976,457.3099096646774 Z "/><path class="wedge" fill="url(#hiddenPattern)" d=" M 880.2571733417976,457.3099096646774 L 949.8228473697559,493.0888529319983 A 288.8,288.8 0 0,1 945.3484383524495,501.44823124938233 L 876.994748703426,463.4049809195893 A 210.5726660029225,210.5726660029225 0 0 0 880.2571733417976,457.3099096646774 Z "/><path class="wedge" fill="rgb(216,177,140)" d=" M 864.5295385187668,456.7853852953118 L 945.1494822146879,501.80510863908603 A 288.8,288.8 0 0,1 944.4569259687157,503.03821451413637 L 864.0584138024815,457.62422930099603 A 196.4617586723494,196.4617586723494 0 0 0 864.5295385187668,456.7853852953118 Z "/><path class="wedge" fill="url(#hiddenPattern)" d=" M 864.5295385187668,456.7853852953118 L 945.1494822146879,501.80510863908603 A 288.8,288.8 0 0,1 944.4569259687157,503.03821451413637 L 864.0584138024815,457.62422930099603 A 196.4617586723494,196.4617586723494 0 0 0 864.5295385187668,456.7853852953118 Z "/><path class="wedge" fill="rgb(213,171,130)" d=" M 848.2820182702548,448.81063454847447 L 944.3890431869211,503.15832358875207 A 288.8,288.8 0 0,1 944.2336412777096,503.43278235835714 L 848.1860271252172,448.9801666455617 A 178.39061841332764,178.39061841332764 0 0 0 848.2820182702548,448.81063454847447 Z "/><path class="wedge" fill="url(#hiddenPattern)" d=" M 848.2820182702548,448.81063454847447 L 944.3890431869211,503.15832358875207 A 288.8,288.8 0 0,1 944.2336412777096,503.43278235835714 L 848.1860271252172,448.9801666455617 A 178.39061841332764,178.39061841332764 0 0 0 848.2820182702548,448.81063454847447 Z "/><path class="wedge" fill="rgb(210,165,121)" d=" M 827.3166426315055,437.22365872787543 L 944.1734089623305,503.5389723207019 A 288.8,288.8 0 0,1 938.0774559602676,513.7824616245043 L 824.0567914224973,442.70143242136703 A 154.43771119018558,154.43771119018558 0 0 0 827.3166426315055,437.22365872787543 Z "/><path class="wedge" fill="url(#hiddenPattern)" d=" M 827.3166426315055,437.22365872787543 L 944.1734089623305,503.5389723207019 A 288.8,288.8 0 0,1 938.0774559602676,513.7824616245043 L 824.0567914224973,442.70143242136703 A 154.43771119018558,154.43771119018558 0 0 0 827.3166426315055,437.22365872787543 Z "/><path class="wedge" fill="rgb(207,159,111)" d=" M 795.8400280456055,425.1700137303052 L 938.0142798169448,513.8837554672957 A 288.8,288.8 0 0,1 937.6026680977848,514.5414431332629 L 795.6672619489766,425.4460654692644 A 121.21824132765036,121.21824132765036 0 0 0 795.8400280456055,425.1700137303052 Z "/><path class="wedge" fill="url(#hiddenPattern)" d=" M 795.8400280456055,425.1700137303052 L 938.0142798169448,513.8837554672957 A 288.8,288.8 0 0,1 937.6026680977848,514.5414431332629 L 795.6672619489766,425.4460654692644 A 121.21824132765036,121.21824132765036 0 0 0 795.8400280456055,425.1700137303052 Z "/><path class="wedge" fill="rgb(207,207,111)" d=" M 754.0333031326958,399.57169828659954 L 937.1332125307832,515.2867931463982 A 288.8,288.8 0 0,1 714.905554207289,648.9680306820039 L 698.4763885518222,432.992007670501 A 72.2,72.2 0 0 0 754.0333031326958,399.57169828659954 Z "/><path class="wedge" fill="rgb(111,207,111)" d=" M 698.4763885518222,432.992007670501 L 714.905554207289,648.9680306820039 A 288.8,288.8 0 0,1 693.9282156535661,649.7985083335793 L 693.2320539133915,433.19962708339483 A 72.2,72.2 0 0 0 698.4763885518222,432.992007670501 Z "/><path class="wedge" fill="rgb(111,207,111)" d=" M 693.3903988992224,482.2176126611474 L 693.9301174547705,649.7985022148147 A 288.8,288.8 0 0,1 693.9282156535661,649.7985083335793 L 693.3896006547717,482.21761522938107 A 121.21824132765036,121.21824132765036 0 0 0 693.3903988992224,482.2176126611474 Z "/><path class="wedge" fill="rgb(121,210,121)" d=" M 702.1944347517835,481.86903821973465 L 714.905554207289,648.9680306820039 A 288.8,288.8 0 0,1 693.9374577397425,649.798478481079 L 693.3934798425574,482.2176026993686 A 121.21824132765036,121.21824132765036 0 0 0 702.1944347517835,481.86903821973465 Z "/><path class="wedge" fill="rgb(121,210,121)" d=" M 702.1944347517835,481.86903821973465 L 714.905554207289,648.9680306820039 A 288.8,288.8 0 0,1 693.9374577397425,649.798478481079 L 693.3934798425574,482.2176026993686 A 121.21824132765036,121.21824132765036 0 0 0 702.1944347517835,481.86903821973465 Z "/><path class="wedge" fill="rgb(130,213,130)" d=" M 704.7141400766144,514.9928100916684 L 714.905554207289,648.9680306820039 A 288.8,288.8 0 0,1 693.9375911994636,649.7984780478296 L 693.5013830986053,515.4368973161907 A 154.43771119018558,154.43771119018558 0 0 0 704.7141400766144,514.9928100916684 Z "/><path class="wedge" fill="rgb(130,213,130)" d=" M 704.7141400766144,514.9928100916684 L 714.905554207289,648.9680306820039 A 288.8,288.8 0 0,1 693.9375911994636,649.7984780478296 L 693.5013830986053,515.4368973161907 A 154.43771119018558,154.43771119018558 0 0 0 704.7141400766144,514.9928100916684 Z "/><path class="wedge" fill="rgb(130,213,130)" d=" M 704.7141400766144,514.9928100916684 L 714.905554207289,648.9680306820039 A 288.8,288.8 0 0,1 693.9375911994636,649.7984780478296 L 693.5013830986053,515.4368973161907 A 154.43771119018558,154.43771119018558 0 0 0 704.7141400766144,514.9928100916684 Z "/><path class="wedge" fill="rgb(130,213,130)" d=" M 693.6172118993564,539.389550667523 L 693.999216203854,649.7982714057997 A 288.8,288.8 0 0,1 693.9375911994636,649.7984780478296 L 693.5791463777396,539.3896783094881 A 178.39061841332764,178.39061841332764 0 0 0 693.6172118993564,539.389550667523 Z "/><path class="wedge" fill="rgb(130,213,130)" d=" M 706.5309742442,538.8767142542617 L 714.905554207289,648.9680306820039 A 288.8,288.8 0 0,1 696.563936804692,649.7780087791523 L 695.2014296765063,539.3770345231383 A 178.39061841332764,178.39061841332764 0 0 0 706.5309742442,538.8767142542617 Z "/><path class="wedge" fill="url(#hiddenPattern)" d=" M 706.5309742442,538.8767142542617 L 714.905554207289,648.9680306820039 A 288.8,288.8 0 0,1 696.563936804692,649.7780087791523 L 695.2014296765063,539.3770345231383 A 178.39061841332764,178.39061841332764 0 0 0 706.5309742442,538.8767142542617 Z "/><path class="wedge" fill="rgb(130,213,169)" d=" M 695.2014296765063,539.3770345231383 L 696.563936804692,649.7780087791523 A 288.8,288.8 0 0,1 693.999216203854,649.7982714057997 L 693.6172118993564,539.389550667523 A 178.39061841332764,178.39061841332764 0 0 0 695.2014296765063,539.3770345231383 Z "/><path class="wedge" fill="url(#hiddenPattern)" d=" M 695.2014296765063,539.3770345231383 L 696.563936804692,649.7780087791523 A 288.8,288.8 0 0,1 693.999216203854,649.7982714057997 L 693.6172118993564,539.389550667523 A 178.39061841332764,178.39061841332764 0 0 0 695.2014296765063,539.3770345231383 Z "/><path class="wedge" fill="rgb(121,210,164)" d=" M 693.5013830986053,515.4368973161907 L 693.9375911994636,649.7984780478296 A 288.8,288.8 0 0,1 693.9374577397425,649.798478481079 L 693.5013117301363,515.4368975478735 A 154.43771119018558,154.43771119018558 0 0 0 693.5013830986053,515.4368973161907 Z "/><path class="wedge" fill="url(#hiddenPattern)" d=" M 693.5013830986053,515.4368973161907 L 693.9375911994636,649.7984780478296 A 288.8,288.8 0 0,1 693.9374577397425,649.798478481079 L 693.5013117301363,515.4368975478735 A 154.43771119018558,154.43771119018558 0 0 0 693.5013830986053,515.4368973161907 Z "/><path class="wedge" fill="rgb(111,207,159)" d=" M 693.3934798425574,482.2176026993686 L 693.9374577397425,649.798478481079 A 288.8,288.8 0 0,1 693.9301174547705,649.7985022148147 L 693.3903988992224,482.2176126611474 A 121.21824132765036,121.21824132765036 0 0 0 693.3934798425574,482.2176026993686 Z "/><path class="wedge" fill="url(#hiddenPattern)" d=" M 693.3934798425574,482.2176026993686 L 693.9374577397425,649.798478481079 A 288.8,288.8 0 0,1 693.9301174547705,649.7985022148147 L 693.3903988992224,482.2176126611474 A 121.21824132765036,121.21824132765036 0 0 0 693.3934798425574,482.2176026993686 Z "/><path class="wedge" fill="rgb(111,207,207)" d=" M 693.2320539133915,433.19962708339483 L 693.9282156535661,649.7985083335793 A 288.8,288.8 0 0,1 693.2597806810509,649.7998831613298 L 693.0649451702627,433.1999707903325 A 72.2,72.2 0 0 0 693.2320539133915,433.19962708339483 Z "/><path class="wedge" fill="rgb(111,207,207)" d=" M 693.2320539133915,433.19962708339483 L 693.9282156535661,649.7985083335793 A 288.8,288.8 0 0,1 693.2597806810509,649.7998831613298 L 693.0649451702627,433.1999707903325 A 72.2,72.2 0 0 0 693.2320539133915,433.19962708339483 Z "/><path class="wedge" fill="rgb(111,207,207)" d=" M 693.2320539133915,433.19962708339483 L 693.9282156535661,649.7985083335793 A 288.8,288.8 0 0,1 693.2597806810509,649.7998831613298 L 693.0649451702627,433.1999707903325 A 72.2,72.2 0 0 0 693.2320539133915,433.19962708339483 Z "/><path class="wedge" fill="rgb(111,207,207)" d=" M 693.2320539133915,433.19962708339483 L 693.9282156535661,649.7985083335793 A 288.8,288.8 0 0,1 693.2597806810509,649.7998831613298 L 693.0649451702627,433.1999707903325 A 72.2,72.2 0 0 0 693.2320539133915,433.19962708339483 Z "/><path class="wedge" fill="rgb(111,207,207)" d=" M 693.2320539133915,433.19962708339483 L 693.9282156535661,649.7985083335793 A 288.8,288.8 0 0,1 693.2597806810509,649.7998831613298 L 693.0649451702627,433.1999707903325 A 72.2,72.2 0 0 0 693.2320539133915,433.19962708339483 Z "/><path class="wedge" fill="rgb(111,207,207)" d=" M 693.2320539133915,433.19962708339483 L 693.9282156535661,649.7985083335793 A 288.8,288.8 0 0,1 693.2597806810509,649.7998831613298 L 693.0649451702627,433.1999707903325 A 72.2,72.2 0 0 0 693.2320539133915,433.19962708339483 Z "/><path class="wedge" fill="rgb(111,207,207)" d=" M 693.2320539133915,433.19962708339483 L 693.9282156535661,649.7985083335793 A 288.8,288.8 0 0,1 693.2597806810509,649.7998831613298 L 693.0649451702627,433.1999707903325 A 72.2,72.2 0 0 0 693.2320539133915,433.19962708339483 Z "/><path class="wedge" fill="rgb(111,207,207)" d=" M 693.2320539133915,433.19962708339483 L 693.9282156535661,649.7985083335793 A 288.8,288.8 0 0,1 693.2597806810509,649.7998831613298 L 693.0649451702627,433.1999707903325 A 72.2,72.2 0 0 0 693.2320539133915,433.19962708339483 Z "/><path class="wedge" fill="rgb(111,207,207)" d=" M 693.2320539133915,433.19962708339483 L 693.9282156535661,649.7985083335793 A 288.8,288.8 0 0,1 693.2597806810509,649.7998831613298 L 693.0649451702627,433.1999707903325 A 72.2,72.2 0 0 0 693.2320539133915,433.19962708339483 Z "/><path class="wedge" fill="rgb(111,207,207)" d=" M 693.2320539133915,433.19962708339483 L 693.9282156535661,649.7985083335793 A 288.8,288.8 0 0,1 693.2597806810509,649.7998831613298 L 693.0649451702627,433.1999707903325 A 72.2,72.2 0 0 0 693.2320539133915,433.19962708339483 Z "/><path class="wedge" fill="rgb(111,207,207)" d=" M 693.2320539133915,433.19962708339483 L 693.9282156535661,649.7985083335793 A 288.8,288.8 0 0,1 693.2597806810509,649.7998831613298 L 693.0649451702627,433.1999707903325 A 72.2,72.2 0 0 0 693.2320539133915,433.19962708339483 Z "/><path class="wedge" fill="rgb(111,207,207)" d=" M 693.2320539133915,433.19962708339483 L 693.9282156535661,649.7985083335793 A 288.8,288.8 0 0,1 693.2597806810509,649.7998831613298 L 693.0649451702627,433.1999707903325 A 72.2,72.2 0 0 0 693.2320539133915,433.19962708339483 Z "/><path class="wedge" fill="rgb(111,207,207)" d=" M 693.2320539133915,433.19962708339483 L 693.9282156535661,649.7985083335793 A 288.8,288.8 0 0,1 693.2597806810509,649.7998831613298 L 693.0649451702627,433.1999707903325 A 72.2,72.2 0 0 0 693.2320539133915,433.19962708339483 Z "/><path class="wedge" fill="rgb(111,207,207)" d=" M 693.2320539133915,433.19962708339483 L 693.9282156535661,649.7985083335793 A 288.8,288.8 0 0,1 693.2597806810509,649.7998831613298 L 693.0649451702627,433.1999707903325 A 72.2,72.2 0 0 0 693.2320539133915,433.19962708339483 Z "/><path class="wedge" fill="rgb(111,207,207)" d=" M 693.2320539133915,433.19962708339483 L 693.9282156535661,649.7985083335793 A 288.8,288.8 0 0,1 693.2597806810509,649.7998831613298 L 693.0649451702627,433.1999707903325 A 72.2,72.2 0 0 0 693.2320539133915,433.19962708339483 Z "/><path class="wedge" fill="rgb(111,207,207)" d=" M 693.2320539133915,433.19962708339483 L 693.9282156535661,649.7985083335793 A 288.8,288.8 0 0,1 693.2597806810509,649.7998831613298 L 693.0649451702627,433.1999707903325 A 72.2,72.2 0 0 0 693.2320539133915,433.19962708339483 Z "/><path class="wedge" fill="rgb(111,207,207)" d=" M 693.2320539133915,433.19962708339483 L 693.9282156535661,649.7985083335793 A 288.8,288.8 0 0,1 693.2597806810509,649.7998831613298 L 693.0649451702627,433.1999707903325 A 72.2,72.2 0 0 0 693.2320539133915,433.19962708339483 Z "/><path class="wedge" fill="rgb(111,207,207)" d=" M 693.2320539133915,433.19962708339483 L 693.9282156535661,649.7985083335793 A 288.8,288.8 0 0,1 693.2597806810509,649.7998831613298 L 693.0649451702627,433.1999707903325 A 72.2,72.2 0 0 0 693.2320539133915,433.19962708339483 Z "/><path class="wedge" fill="rgb(111,207,207)" d=" M 693.2320539133915,433.19962708339483 L 693.9282156535661,649.7985083335793 A 288.8,288.8 0 0,1 693.2597806810509,649.7998831613298 L 693.0649451702627,433.1999707903325 A 72.2,72.2 0 0 0 693.2320539133915,433.19962708339483 Z "/><path class="wedge" fill="rgb(111,207,207)" d=" M 693.2320539133915,433.19962708339483 L 693.9282156535661,649.7985083335793 A 288.8,288.8 0 0,1 693.2597806810509,649.7998831613298 L 693.0649451702627,433.1999707903325 A 72.2,72.2 0 0 0 693.2320539133915,433.19962708339483 Z "/><path class="wedge" fill="rgb(111,207,207)" d=" M 693.2320539133915,433.19962708339483 L 693.9282156535661,649.7985083335793 A 288.8,288.8 0 0,1 693.2597806810509,649.7998831613298 L 693.0649451702627,433.1999707903325 A 72.2,72.2 0 0 0 693.2320539133915,433.19962708339483 Z "/><path class="wedge" fill="rgb(111,207,207)" d=" M 693.2320539133915,433.19962708339483 L 693.9282156535661,649.7985083335793 A 288.8,288.8 0 0,1 693.2597806810509,649.7998831613298 L 693.0649451702627,433.1999707903325 A 72.2,72.2 0 0 0 693.2320539133915,433.19962708339483 Z "/><path class="wedge" fill="rgb(111,207,207)" d=" M 693.2320539133915,433.19962708339483 L 693.9282156535661,649.7985083335793 A 288.8,288.8 0 0,1 693.2597806810509,649.7998831613298 L 693.0649451702627,433.1999707903325 A 72.2,72.2 0 0 0 693.2320539133915,433.19962708339483 Z "/><path class="wedge" fill="rgb(111,207,207)" d=" M 693.2320539133915,433.19962708339483 L 693.9282156535661,649.7985083335793 A 288.8,288.8 0 0,1 693.2597806810509,649.7998831613298 L 693.0649451702627,433.1999707903325 A 72.2,72.2 0 0 0 693.2320539133915,433.19962708339483 Z "/><path class="wedge" fill="rgb(111,207,207)" d=" M 693.2320539133915,433.19962708339483 L 693.9282156535661,649.7985083335793 A 288.8,288.8 0 0,1 693.2597806810509,649.7998831613298 L 693.0649451702627,433.1999707903325 A 72.2,72.2 0 0 0 693.2320539133915,433.19962708339483 Z "/><path class="wedge" fill="rgb(111,207,207)" d=" M 693.2320539133915,433.19962708339483 L 693.9282156535661,649.7985083335793 A 288.8,288.8 0 0,1 693.2597806810509,649.7998831613298 L 693.0649451702627,433.1999707903325 A 72.2,72.2 0 0 0 693.2320539133915,433.19962708339483 Z "/><path class="wedge" fill="rgb(111,207,207)" d=" M 693.2320539133915,433.19962708339483 L 693.9282156535661,649.7985083335793 A 288.8,288.8 0 0,1 693.2597806810509,649.7998831613298 L 693.0649451702627,433.1999707903325 A 72.2,72.2 0 0 0 693.2320539133915,433.19962708339483 Z "/><path class="wedge" fill="rgb(111,207,207)" d=" M 693.2320539133915,433.19962708339483 L 693.9282156535661,649.7985083335793 A 288.8,288.8 0 0,1 693.2597806810509,649.7998831613298 L 693.0649451702627,433.1999707903325 A 72.2,72.2 0 0 0 693.2320539133915,433.19962708339483 Z "/><path class="wedge" fill="rgb(111,207,207)" d=" M 693.2320539133915,433.19962708339483 L 693.9282156535661,649.7985083335793 A 288.8,288.8 0 0,1 693.2597806810509,649.7998831613298 L 693.0649451702627,433.1999707903325 A 72.2,72.2 0 0 0 693.2320539133915,433.19962708339483 Z "/><path class="wedge" fill="rgb(111,207,207)" d=" M 693.2320539133915,433.19962708339483 L 693.9282156535661,649.7985083335793 A 288.8,288.8 0 0,1 693.2597806810509,649.7998831613298 L 693.0649451702627,433.1999707903325 A 72.2,72.2 0 0 0 693.2320539133915,433.19962708339483 Z "/><path class="wedge" fill="rgb(101,101,204)" d=" M 693.0649451702627,433.1999707903325 L 693.2597806810509,649.7998831613298 A 288.8,288.8 0 0,1 693.204094337017,649.7999278834772 L 693.0510235842543,433.1999819708693 A 72.2,72.2 0 0 0 693.0649451702627,433.1999707903325 Z "/><path class="wedge" fill="url(#hiddenPattern)" d=" M 693.0649451702627,433.1999707903325 L 693.2597806810509,649.7998831613298 A 288.8,288.8 0 0,1 693.204094337017,649.7999278834772 L 693.0510235842543,433.1999819708693 A 72.2,72.2 0 0 0 693.0649451702627,433.1999707903325 Z "/><path class="wedge" fill="rgb(207,111,207)" d=" M 693.0510235842543,433.1999819708693 L 693.204094337017,649.7999278834772 A 288.8,288.8 0 0,1 693.2037606860391,649.7999281190749 L 693.0509401715098,433.19998202976876 A 72.2,72.2 0 0 0 693.0510235842543,433.1999819708693 Z "/><path class="wedge" fill="rgb(207,111,207)" d=" M 693.0510235842543,433.1999819708693 L 693.204094337017,649.7999278834772 A 288.8,288.8 0 0,1 693.2037606860391,649.7999281190749 L 693.0509401715098,433.19998202976876 A 72.2,72.2 0 0 0 693.0510235842543,433.1999819708693 Z "/><circle cx="693" cy="361" r="72.2"/><circle cx="693" cy="361" r="288.8"/><text x="693" y="361" text-anchor="middle" style="font-color:black;font-weight:bold" transform="rotate(360,693,361)">Root</text><path class="line" d=" M 754.0333031326958,399.57169828659954 A 72.2,72.2 0 1 0 693,433.2"/><line x1="937.1332125307832" y1="515.2867931463982" x2="754.0333031326958" y2="399.57169828659954"/><text x="693" y="274.0945276017049" text-anchor="middle" style="font-color:black;font-weight:normal" transform="rotate(331.14599067791335,693,361)">Bacteria</text><path class="line" d=" M 790.6790273919189,289.2179016861638 A 121.21824132765036,121.21824132765036 0 1 0 693,482.2182413276504"/><line x1="925.7183004951864" y1="189.98060748958295" x2="790.6790273919189" y2="289.2179016861638"/><text x="693" y="229.81591771358907" text-anchor="middle" style="font-color:black;font-weight:normal" transform="rotate(296.84433942333123,693,361)">Proteobacteria</text><path class="line" d=" M 814.4648721391436,265.62027744911046 A 154.43771119018558,154.43771119018558 0 1 0 693,515.4377111901856"/><line x1="920.1404749749615" y1="182.6390047455753" x2="814.4648721391436" y2="265.62027744911046"/><text x="693" y="194.58583519824336" text-anchor="middle" style="font-color:black;font-weight:normal" transform="rotate(295.9296953142701,693,361)">Gammaproteobacteria</text><path class="line" d=" M 801.2798077133846,219.23013021293295 A 178.39061841332764,178.39061841332764 0 1 0 693,539.3906184133276"/><line x1="868.2962613491852" y1="131.48603363412028" x2="801.2798077133846" y2="219.23013021293295"/><text x="693" y="173.57381145716147" text-anchor="middle" style="font-color:black;font-weight:normal" transform="rotate(288.6857826797709,693,361)">Enterobacterales</text><path class="line" d=" M 794.0315240274228,192.50711061493212 A 196.4617586723494,196.4617586723494 0 1 0 693,557.4617586723493"/><line x1="841.5169650129286" y1="113.31441078789311" x2="794.0315240274228" y2="192.50711061493212"/><text x="693" y="157.48278766236407" text-anchor="middle" style="font-color:black;font-weight:normal" transform="rotate(285.4738495675277,693,361)">Erwiniaceae</text><path class="line" d=" M 795.6576186228393,177.14608786793244 A 210.5726660029225,210.5726660029225 0 1 0 693,571.5726660029225"/><line x1="833.7947233657787" y1="108.84471872999796" x2="795.6576186228393" y2="177.14608786793244"/><line x1="445.1184659211872" y1="212.81030716431607" x2="502.54607938231385" y2="247.14195042574988"/><path class="line" d=" M 502.54607938231385,247.14195042574988 A 221.8926572275439,221.8926572275439 0 0 0 693,582.8926572275439"/><text x="437.6536713862281" y="361" text-anchor="end" style="font-color:black;font-weight:normal" transform="rotate(-29.5639885191833,693,361)">Pantoea agglomerans&#160;&#160;&#160;34%</text><path class="line" d=" M 534.1324565573602,206.08888041202067 A 221.8926572275439,221.8926572275439 0 0 0 502.54607938231385,247.14195042574988"/><line x1="486.22909050034525" y1="159.3784957285419" x2="534.1324565573602" y2="206.08888041202067"/><text x="437.6536713862281" y="361" text-anchor="end" style="font-color:black;font-weight:normal" transform="rotate(37.574810412403075,693,361)">Pantoea vagans&#160;&#160;&#160;4%</text><path class="line" d=" M 495.4104260039778,241.002593319183 A 231.1731328724229,231.1731328724229 0 0 0 494.58050272083995,242.37993229838264"/><line x1="446.155272582896" y1="211.08962495418933" x2="495.4104260039778" y2="241.002593319183"/><path class="line" d=" M 567.1599755555445,178.2415813722412 A 221.8926572275439,221.8926572275439 0 0 0 534.1324565573602,206.08888041202067"/><line x1="529.2154047202628" y1="123.13439435460057" x2="567.1599755555445" y2="178.2415813722412"/><text x="437.6536713862281" y="361" text-anchor="end" style="font-color:black;font-weight:normal" transform="rotate(49.86393917898756,693,361)">Pantoea ananatis&#160;&#160;&#160;3%</text><path class="line" d=" M 530.1326231019414,196.94136747980428 A 231.1731328724229,231.1731328724229 0 0 0 527.4879538230076,199.609851811345"/><line x1="489.5330232639229" y1="156.0448112931008" x2="530.1326231019414" y2="196.94136747980428"/><path class="line" d=" M 600.4067291431004,159.34971479434716 A 221.8926572275439,221.8926572275439 0 0 0 567.1599755555445,178.2415813722412"/><line x1="572.4870593845266" y1="98.5460590042295" x2="600.4067291431004" y2="159.34971479434716"/><text x="437.6536713862281" y="361" text-anchor="end" style="font-color:black;font-weight:normal" transform="rotate(60.39337930107264,693,361)">Pantoea eucalypti&#160;&#160;&#160;3%</text><path class="line" d=" M 635.7075158362902,146.63133953431682 A 221.8926572275439,221.8926572275439 0 0 0 600.4067291431004,159.34971479434716"/><line x1="618.4321002181161" y1="81.99270919540663" x2="635.7075158362902" y2="146.63133953431682"/><path class="line" d=" M 630.961635178212,138.30680600366424 A 231.1731328724229,231.1731328724229 0 0 0 596.5340926809306,150.91585950586463"/><line x1="615.4967039296041" y1="82.79381908695024" x2="630.961635178212" y2="138.30680600366424"/><text x="433.01343356378857" y="361" text-anchor="end" style="font-color:black;font-weight:normal" transform="rotate(69.88479319867997,693,361)">Pantoea sp. MT58&#160;&#160;&#160;3%</text><path class="line" d=" M 633.2303946677193,137.687188812477 A 231.1731328724229,231.1731328724229 0 0 0 630.961635178212,138.30680600366424"/><line x1="618.3310200649973" y1="82.01974364578024" x2="633.2303946677193" y2="137.687188812477"/><path class="line" d=" M 638.5019849076381,145.9039338284101 A 221.8926572275439,221.8926572275439 0 0 0 635.7075158362902,146.63133953431682"/><line x1="622.0691861762048" y1="81.04596868361745" x2="638.5019849076381" y2="145.9039338284101"/><path class="line" d=" M 800.0476251960062,179.66700904834292 A 210.5726660029225,210.5726660029225 0 0 0 795.6576186228393,177.14608786793244"/><line x1="839.8156088035543" y1="112.30215720348173" x2="800.0476251960062" y2="179.66700904834292"/><path class="line" d=" M 809.5281837096367,202.82792590989519 A 196.4617586723494,196.4617586723494 0 0 0 794.0315240274228,192.50711061493212"/><line x1="864.297150563885" y1="128.48607308659186" x2="809.5281837096367" y2="202.82792590989519"/><text x="693" y="157.48278766236407" text-anchor="middle" style="font-color:black;font-weight:normal" transform="rotate(393.6637174956245,693,361)">En...ae</text><path class="line" d=" M 814.1668623255047,188.78083979484006 A 210.5726660029225,210.5726660029225 0 0 0 801.2881345894568,180.40507323096247"/><line x1="859.1801149400848" y1="124.80175826543456" x2="814.1668623255047" y2="188.78083979484006"/><path class="line" d=" M 817.703294760566,177.46406453405456 A 221.8926572275439,221.8926572275439 0 0 0 807.1095014199753,170.69662899153644"/><line x1="855.3051072389471" y1="122.12243268955984" x2="817.703294760566" y2="177.46406453405456"/><path class="line" d=" M 814.695058252639,164.45145597349824 A 231.1731328724229,231.1731328724229 0 0 0 811.882036311436,162.73734894212348"/><line x1="845.0312174112286" y1="115.45581063185435" x2="814.695058252639" y2="164.45145597349824"/><path class="line" d=" M 820.0269611548906,179.0645651027425 A 221.8926572275439,221.8926572275439 0 0 0 817.703294760566,177.46406453405456"/><line x1="858.3294292830641" y1="124.20553255420782" x2="820.0269611548906" y2="179.0645651027425"/><path class="line" d=" M 817.3003610300385,191.02862618846538 A 210.5726660029225,210.5726660029225 0 0 0 814.1668623255047,188.78083979484006"/><line x1="863.4777022910318" y1="127.88459291250118" x2="817.3003610300385" y2="191.02862618846538"/><path class="line" d=" M 811.194949269939,204.0695167033855 A 196.4617586723494,196.4617586723494 0 0 0 809.5281837096367,202.82792590989519"/><line x1="866.7473062433834" y1="130.3112192299592" x2="811.194949269939" y2="204.0695167033855"/><path class="line" d=" M 831.9723912434325,249.15239291798952 A 178.39061841332764,178.39061841332764 0 0 0 801.2798077133846,219.23013021293295"/><line x1="917.9850745968645" y1="179.9277596961828" x2="831.9723912434325" y2="249.15239291798952"/><text x="693" y="173.57381145716147" text-anchor="middle" style="font-color:black;font-weight:normal" transform="rotate(404.2718985685901,693,361)">Pseudomonadales</text><path class="line" d=" M 846.0442083540198,237.81439649892604 A 196.4617586723494,196.4617586723494 0 0 0 812.2486557941437,204.86870681403332"/><line x1="917.9759325750231" y1="179.9164011789067" x2="846.0442083540198" y2="237.81439649892604"/><text x="693" y="157.48278766236407" text-anchor="middle" style="font-color:black;font-weight:normal" transform="rotate(404.27045223192766,693,361)">P...e</text><path class="line" d=" M 857.021386021773,228.9476142015037 A 210.5726660029225,210.5726660029225 0 0 0 820.8137156947472,193.65454368916767"/><line x1="917.9550104591001" y1="179.89041088515998" x2="857.021386021773" y2="228.9476142015037"/><path class="line" d=" M 841.4770015836923,196.1032707049151 A 221.8926572275439,221.8926572275439 0 0 0 827.6847411108888,184.65836610887055"/><line x1="886.2473052201908" y1="146.38192288361535" x2="841.4770015836923" y2="196.1032707049151"/><text x="948.3463286137719" y="361" text-anchor="start" style="font-color:black;font-weight:normal" transform="rotate(309.6861011827415,693,361)">1%&#160;&#160;&#160;Pseudomonas rhizosphaerae</text><line x1="973.55" y1="361" x2="990.05" y2="361" class="tick" transform="rotate(315.7591596081601,693,361)"/><text x="992.8" y="361" text-anchor="start" style="font-color:black;font-weight:normal" transform="rotate(315.7591596081601,693,361)">96 more</text><path class="line" d=" M 861.7729657387424,216.94432545973916 A 221.8926572275439,221.8926572275439 0 0 0 841.4770015836923,196.1032707049151"/><line x1="912.6631160055279" y1="173.5071855597074" x2="861.7729657387424" y2="216.94432545973916"/><path class="line" d=" M 857.030478227644,228.9589083656579 A 210.5726660029225,210.5726660029225 0 0 0 857.021386021773,228.9476142015037"/><line x1="917.9674804016878" y1="179.90590080923062" x2="857.030478227644" y2="228.9589083656579"/><path class="line" d=" M 846.0477804340059,237.81883453686277 A 196.4617586723494,196.4617586723494 0 0 0 846.0442083540198,237.81439649892604"/><line x1="917.9811835546892" y1="179.92292512211478" x2="846.0477804340059" y2="237.81883453686277"/><path class="line" d=" M 833.1084544348814,250.5788347563828 A 178.39061841332764,178.39061841332764 0 0 0 831.9723912434325,249.15239291798952"/><line x1="919.8242691274327" y1="182.23705379803673" x2="833.1084544348814" y2="250.5788347563828"/><path class="line" d=" M 817.3101255326063,269.359401312896 A 154.43771119018558,154.43771119018558 0 0 0 814.4648721391436,265.62027744911046"/><line x1="925.4611260886012" y1="189.6312022052454" x2="817.3101255326063" y2="269.359401312896"/><path class="line" d=" M 795.8400280456055,425.1700137303052 A 121.21824132765036,121.21824132765036 0 0 0 790.6790273919189,289.2179016861638"/><line x1="938.0142798169448" y1="513.8837554672957" x2="795.8400280456055" y2="425.1700137303052"/><text x="693" y="216.52812976857498" text-anchor="middle" style="font-color:black;font-weight:normal" transform="rotate(447.82598720199826,693,361)">Terrabacteria group</text><path class="line" d=" M 827.3166426315055,437.22365872787543 A 154.43771119018558,154.43771119018558 0 0 0 817.4476512484295,269.546248100953"/><line x1="944.1734089623305" y1="503.5389723207019" x2="827.3166426315055" y2="437.22365872787543"/><text x="693" y="194.58583519824336" text-anchor="middle" style="font-color:black;font-weight:normal" transform="rotate(446.63162753988286,693,361)">Firmicutes</text><path class="line" d=" M 848.2820182702548,448.81063454847447 A 178.39061841332764,178.39061841332764 0 0 0 836.7491743124478,255.36199726244837"/><line x1="944.3890431869211" y1="503.15832358875207" x2="848.2820182702548" y2="448.81063454847447"/><text x="693" y="173.57381145716147" text-anchor="middle" style="font-color:black;font-weight:normal" transform="rotate(446.58823082062156,693,361)">Bacilli</text><path class="line" d=" M 864.5295385187668,456.7853852953118 A 196.4617586723494,196.4617586723494 0 0 0 851.311103152786,244.6607665523776"/><line x1="945.1494822146879" y1="501.80510863908603" x2="864.5295385187668" y2="456.7853852953118"/><text x="693" y="157.48278766236407" text-anchor="middle" style="font-color:black;font-weight:normal" transform="rotate(446.43425388573803,693,361)">Bacillales</text><path class="line" d=" M 880.2571733417976,457.3099096646774 A 210.5726660029225,210.5726660029225 0 0 0 862.6818315891297,236.30467652659712"/><line x1="949.8228473697559" y1="493.0888529319983" x2="880.2571733417976" y2="457.3099096646774"/><line x1="949.8241749980489" y1="493.0862715673798" x2="890.3247875020388" y2="462.4853662789643"/><path class="line" d=" M 890.3247875020388,462.4853662789643 A 221.8926572275439,221.8926572275439 0 0 0 871.8036083184037,229.60129002224116"/><line x1="980.481647941779" y1="388.5634195389299" x2="923.1178434834763" y2="383.0634419926987"/><path class="line" d=" M 923.1178434834763,383.0634419926987 A 231.1731328724229,231.1731328724229 0 0 0 879.2819203677915,224.10564837752187"/><text x="952.9865664362114" y="361" text-anchor="start" style="font-color:black;font-weight:normal" transform="rotate(344.58269656949017,693,361)">12%&#160;&#160;&#160;Exiguobacterium sibiricum 255-15</text><path class="line" d=" M 913.9403913164774,429.0173569537419 A 231.1731328724229,231.1731328724229 0 0 0 923.1178434834763,383.0634419926987"/><line x1="969.0164393645695" y1="445.97273209980347" x2="913.9403913164774" y2="429.0173569537419"/><path class="line" d=" M 924.9596275421735,418.24340582833156 A 238.9185558309168,238.9185558309168 0 0 0 930.82790912099,383.80267448061915"/><line x1="973.3881858451741" y1="430.1946908256126" x2="924.9596275421735" y2="418.24340582833156"/><text x="956.8592779154584" y="361" text-anchor="start" style="font-color:black;font-weight:normal" transform="rotate(369.66964096687366,693,361)">2%&#160;&#160;&#160;Exiguobacterium sp. Helios</text><line x1="973.55" y1="361" x2="990.05" y2="361" class="tick" transform="rotate(375.3876584934733,693,361)"/><text x="992.8" y="361" text-anchor="start" style="font-color:black;font-weight:normal" transform="rotate(375.3876584934733,693,361)">6 more</text><path class="line" d=" M 921.5850592409727,430.5050142948833 A 238.9185558309168,238.9185558309168 0 0 0 924.9596275421735,418.24340582833156"/><line x1="969.3090747773988" y1="445.0162793490517" x2="921.5850592409727" y2="430.5050142948833"/><path class="line" d=" M 907.8994243334298,446.2012604555319 A 231.1731328724229,231.1731328724229 0 0 0 913.9403913164774,429.0173569537419"/><line x1="961.4695793855296" y1="467.4402411898659" x2="907.8994243334298" y2="446.2012604555319"/><text x="952.9865664362114" y="361" text-anchor="start" style="font-color:black;font-weight:normal" transform="rotate(379.36902285193537,693,361)">1%&#160;&#160;&#160;Exiguobacterium acetylicum</text><path class="line" d=" M 905.1337346499339,452.8710835112024 A 231.1731328724229,231.1731328724229 0 0 0 907.8994243334298,446.2012604555319"/><line x1="958.0144582359867" y1="475.7727185610173" x2="905.1337346499339" y2="452.8710835112024"/><path class="line" d=" M 890.3237674502045,462.4873496094853 A 221.8926572275439,221.8926572275439 0 0 0 890.3247875020388,462.4853662789643"/><path class="line" d=" M 876.994748703426,463.4049809195893 A 210.5726660029225,210.5726660029225 0 0 0 880.2571733417976,457.3099096646774"/><line x1="945.3484383524495" y1="501.44823124938233" x2="876.994748703426" y2="463.4049809195893"/><path class="line" d=" M 864.0584138024815,457.62422930099603 A 196.4617586723494,196.4617586723494 0 0 0 864.5295385187668,456.7853852953118"/><line x1="944.4569259687157" y1="503.03821451413637" x2="864.0584138024815" y2="457.62422930099603"/><path class="line" d=" M 848.1860271252172,448.9801666455617 A 178.39061841332764,178.39061841332764 0 0 0 848.2820182702548,448.81063454847447"/><line x1="944.2336412777096" y1="503.43278235835714" x2="848.1860271252172" y2="448.9801666455617"/><path class="line" d=" M 824.0567914224973,442.70143242136703 A 154.43771119018558,154.43771119018558 0 0 0 827.3166426315055,437.22365872787543"/><line x1="938.0774559602676" y1="513.7824616245043" x2="824.0567914224973" y2="442.70143242136703"/><path class="line" d=" M 795.6672619489766,425.4460654692644 A 121.21824132765036,121.21824132765036 0 0 0 795.8400280456055,425.1700137303052"/><line x1="937.6026680977848" y1="514.5414431332629" x2="795.6672619489766" y2="425.4460654692644"/><path class="line" d=" M 698.4763885518222,432.992007670501 A 72.2,72.2 0 0 0 754.0333031326958,399.57169828659954"/><line x1="714.905554207289" y1="648.9680306820039" x2="698.4763885518222" y2="432.992007670501"/><text x="873.5" y="361" text-anchor="start" style="font-color:black;font-weight:normal" transform="rotate(418.97095187449906,693,361)">15%&#160;&#160;&#160;No hits</text><path class="line" d=" M 693.2320539133915,433.19962708339483 A 72.2,72.2 0 0 0 698.4763885518222,432.992007670501"/><line x1="693.9282156535661" y1="649.7985083335793" x2="693.2320539133915" y2="433.19962708339483"/><text x="693" y="467.5127689293553" text-anchor="middle" style="font-color:black;font-weight:normal" transform="rotate(357.73288548503524,693,361)">Viruses</text><line x1="693.9374577397425" y1="649.798478481079" x2="693.3934798425574" y2="482.2176026993686"/><path class="line" d=" M 693.3934798425574,482.2176026993686 A 121.21824132765036,121.21824132765036 0 0 0 702.1944347517835,481.86903821973465"/><text x="693" y="492.1840822864109" text-anchor="middle" style="font-color:black;font-weight:normal" transform="rotate(357.7319686995536,693,361)">Heunggongvirae</text><line x1="693.9375911994636" y1="649.7984780478296" x2="693.5013830986053" y2="515.4368973161907"/><path class="line" d=" M 693.5013830986053,515.4368973161907 A 154.43771119018558,154.43771119018558 0 0 0 704.7141400766144,514.9928100916684"/><text x="693" y="527.4141648017567" text-anchor="middle" style="font-color:black;font-weight:normal" transform="rotate(357.73195546077403,693,361)">Caudovirales</text><path class="line" d=" M 695.2014296765063,539.3770345231383 A 178.39061841332764,178.39061841332764 0 0 0 706.5309742442,538.8767142542617"/><line x1="696.563936804692" y1="649.7780087791523" x2="695.2014296765063" y2="539.3770345231383"/><text x="926.5953092066638" y="361" text-anchor="start" style="font-color:black;font-weight:normal" transform="rotate(447.47142289924193,693,361)">1%&#160;&#160;&#160;Myoviridae</text><path class="line" d=" M 693.6172118993564,539.389550667523 A 178.39061841332764,178.39061841332764 0 0 0 695.2014296765063,539.3770345231383"/><line x1="693.999216203854" y1="649.7982714057997" x2="693.6172118993564" y2="539.389550667523"/><path class="line" d=" M 693.5013117301363,515.4368975478735 A 154.43771119018558,154.43771119018558 0 0 0 693.5013830986053,515.4368973161907"/><path class="line" d=" M 693.3903988992224,482.2176126611474 A 121.21824132765036,121.21824132765036 0 0 0 693.3934798425574,482.2176026993686"/><line x1="693.9301174547705" y1="649.7985022148147" x2="693.3903988992224" y2="482.2176126611474"/><line x1="693.2597806810509" y1="649.7998831613298" x2="693.0649451702627" y2="433.1999707903325"/><path class="line" d=" M 693.0649451702627,433.1999707903325 A 72.2,72.2 0 0 0 693.2320539133915,433.19962708339483"/><path class="line" d=" M 693.0510235842543,433.1999819708693 A 72.2,72.2 0 0 0 693.0649451702627,433.1999707903325"/><line x1="693.204094337017" y1="649.7999278834772" x2="693.0510235842543" y2="433.1999819708693"/><line x1="693.2037606860391" y1="649.7999281190749" x2="693.0509401715098" y2="433.19998202976876"/><path class="line" d=" M 693.0509401715098,433.19998202976876 A 72.2,72.2 0 0 0 693.0510235842543,433.1999819708693"/></svg>