<?xml version="1.0" standalone="no"?><!DOCTYPE svg PUBLIC "-//W3C//DTD SVG 1.1//EN" 	"http://www.w3.org/Graphics/SVG/1.1/DTD/svg11.dtd"><svg width="1536" height="722" version="1.1"	xmlns="http://www.w3.org/2000/svg"><title>Krona (snapshot) - Root</title><defs>	<style type="text/css">	text {font-size: 12px; font-family: sans-serif; dominant-baseline:central}	path {stroke-width:0.3;}	path.wedge {stroke:none}	path.line {fill:none;stroke:black;}	line {stroke:black;stroke-width:0.3;}	line.tick {stroke-width:0.6;}	line.pattern {stroke-width:0.19999999999999998;}	circle {fill:none;stroke:black;stroke-width:0.3;}	rect {stroke:black;stroke-width:0.3;}	.highlight {stroke:black;stroke-width:1.5;}	.searchHighlight {fill:rgb(255, 255, 100);stroke:none;}	</style><pattern id="hiddenPattern" patternUnits="userSpaceOnUse" x="0" y="0" width="7.199999999999999" height="7.199999999999999"><line class="pattern" x1="0" y1="0" x2="3.5999999999999996" y2="3.5999999999999996"/><line class="pattern" x1="3.5999999999999996" y1="7.199999999999999" x2="7.199999999999999" y2="3.5999999999999996"/></pattern></defs><path class="wedge" fill="rgb(220,220,220)" d=" M 693.0101046611347,422.3699991681263 L 693.0404186445388,606.4799966725052 A 245.48000000000002,245.48000000000002 0 0,1 693.0000000000001,606.48 L 693,422.37 A 61.370000000000005,61.370000000000005 0 0 0 693.0101046611347,422.3699991681263 Z "/><path class="wedge" fill="rgb(207,111,111)" d=" M 693,422.37 L 693,606.48 A 245.48000000000002,245.48000000000002 0 1,1 727.8099007618368,603.9993852028254 L 701.7024751904592,421.74984630070634 A 61.370000000000005,61.370000000000005 0 1 0 693,422.37 Z "/><path class="wedge" fill="rgb(207,111,111)" d=" M 706.9186863379093,457.9784716724475 L 727.8747787383323,603.9900825300333 A 245.48000000000002,245.48000000000002 0 0,1 727.8099007618368,603.9993852028254 L 706.8927932358525,457.98218441240977 A 97.97220931109393,97.97220931109393 0 0 0 706.9186863379093,457.9784716724475 Z "/><path class="wedge" fill="rgb(210,121,121)" d=" M 693,458.97220931109393 L 693,606.48 A 245.48000000000002,245.48000000000002 0 1,1 728.6014120213439,603.8846842888339 L 707.208689059498,457.93640674435636 A 97.97220931109393,97.97220931109393 0 1 0 693,458.97220931109393 Z "/><path class="wedge" fill="rgb(210,121,121)" d=" M 711.3771890734628,486.2117464078479 L 728.6469355966358,603.8780072023181 A 245.48000000000002,245.48000000000002 0 0,1 728.6014120213439,603.8846842888339 L 711.3537201458695,486.21518866955444 A 126.55316083269122,126.55316083269122 0 0 0 711.3771890734628,486.2117464078479 Z "/><path class="wedge" fill="rgb(213,130,130)" d=" M 693,487.5531608326912 L 693,606.48 A 245.48000000000002,245.48000000000002 0 1,1 731.3270219122179,603.469523427874 L 712.7588633220425,486.0011593424871 A 126.55316083269122,126.55316083269122 0 1 0 693,487.5531608326912 Z "/><path class="wedge" fill="rgb(213,130,130)" d=" M 716.6397217471547,508.6001599268384 L 731.8214505332068,603.3908525058192 A 245.48000000000002,245.48000000000002 0 0,1 731.3270219122179,603.469523427874 L 716.3386470870513,508.6480653678105 A 149.48124850532648,149.48124850532648 0 0 0 716.6397217471547,508.6001599268384 Z "/><path class="wedge" fill="rgb(216,140,140)" d=" M 693,510.48124850532645 L 693,606.48 A 245.48000000000002,245.48000000000002 0 1,1 731.9371567201293,603.3722926131452 L 716.7101792397445,508.58885816731004 A 149.48124850532648,149.48124850532648 0 1 0 693,510.48124850532645 Z "/><path class="wedge" fill="rgb(216,140,140)" d=" M 721.3655346455542,526.8704778945107 L 734.3788790311169,602.9673919562886 A 245.48000000000002,245.48000000000002 0 0,1 731.9371567201293,603.3722926131452 L 719.6917155274709,527.1480403582361 A 168.27839728462325,168.27839728462325 0 0 0 721.3655346455542,526.8704778945107 Z "/><path class="wedge" fill="rgb(219,149,149)" d=" M 693,529.2783972846232 L 693,606.48 A 245.48000000000002,245.48000000000002 0 1,1 742.3722428125109,601.4637437113181 L 726.8450459949348,525.8397156460853 A 168.27839728462325,168.27839728462325 0 1 0 693,529.2783972846232 Z "/><path class="wedge" fill="rgb(219,149,149)" d=" M 731.738227650881,540.8415295836514 L 744.6912956312193,600.9759161998676 A 245.48000000000002,245.48000000000002 0 0,1 742.3722428125109,601.4637437113181 L 730.0002948920184,541.2071147941239 A 183.96637204804267,183.96637204804267 0 0 0 731.738227650881,540.8415295836514 Z "/><path class="wedge" fill="rgb(223,159,159)" d=" M 693,544.9663720480427 L 693,606.48 A 245.48000000000002,245.48000000000002 0 1,1 807.7656328630667,578.0006449611149 L 779.0070763956983,523.6235187615353 A 183.96637204804267,183.96637204804267 0 1 0 693,544.9663720480427 Z "/><path class="wedge" fill="rgb(223,159,159)" d=" M 793.8584059852201,530.5217165574309 L 818.5155199207761,571.965126641863 A 245.48000000000002,245.48000000000002 0 0,1 807.7656328630667,578.0006449611149 L 785.2202991292228,535.3715770157914 A 197.25625577521595,197.25625577521595 0 0 0 793.8584059852201,530.5217165574309 Z "/><path class="wedge" fill="rgb(226,168,168)" d=" M 693,558.256255775216 L 693,606.48 A 245.48000000000002,245.48000000000002 0 1,1 828.6989786942296,565.5634805661632 L 802.0413575433621,525.3776529445474 A 197.25625577521595,197.25625577521595 0 1 0 693,558.256255775216 Z "/><path class="wedge" fill="rgb(226,168,168)" d=" M 693,558.256255775216 L 693,606.48 A 245.48000000000002,245.48000000000002 0 1,1 828.6989786942296,565.5634805661632 L 802.0413575433621,525.3776529445474 A 197.25625577521595,197.25625577521595 0 1 0 693,558.256255775216 Z "/><path class="wedge" fill="rgb(226,194,168)" d=" M 802.0413575433621,525.3776529445474 L 828.6989786942296,565.5634805661632 A 245.48000000000002,245.48000000000002 0 0,1 818.5155199207761,571.965126641863 L 793.8584059852201,530.5217165574309 A 197.25625577521595,197.25625577521595 0 0 0 802.0413575433621,525.3776529445474 Z "/><path class="wedge" fill="url(#hiddenPattern)" d=" M 802.0413575433621,525.3776529445474 L 828.6989786942296,565.5634805661632 A 245.48000000000002,245.48000000000002 0 0,1 818.5155199207761,571.965126641863 L 793.8584059852201,530.5217165574309 A 197.25625577521595,197.25625577521595 0 0 0 802.0413575433621,525.3776529445474 Z "/><path class="wedge" fill="rgb(223,188,159)" d=" M 779.0070763956983,523.6235187615353 L 807.7656328630667,578.0006449611149 A 245.48000000000002,245.48000000000002 0 0,1 744.8470833231262,600.9423062965029 L 731.8549772699531,540.8163418209543 A 183.96637204804267,183.96637204804267 0 0 0 779.0070763956983,523.6235187615353 Z "/><path class="wedge" fill="rgb(223,188,159)" d=" M 734.886733976545,553.7577027234854 L 745.1268915713352,600.8816741126972 A 245.48000000000002,245.48000000000002 0 0,1 744.8470833231262,600.9423062965029 L 734.6618931448,553.8064239128164 A 197.25625577521595,197.25625577521595 0 0 0 734.886733976545,553.7577027234854 Z "/><path class="wedge" fill="rgb(226,194,168)" d=" M 785.2202991292228,535.3715770157914 L 807.7656328630667,578.0006449611149 A 245.48000000000002,245.48000000000002 0 0,1 747.6134679286118,600.327807663068 L 736.8848305299731,553.3126415288734 A 197.25625577521595,197.25625577521595 0 0 0 785.2202991292228,535.3715770157914 Z "/><path class="wedge" fill="rgb(226,196,168)" d=" M 736.8848305299731,553.3126415288734 L 747.6134679286118,600.327807663068 A 245.48000000000002,245.48000000000002 0 0,1 745.1268915713352,600.8816741126972 L 734.886733976545,553.7577027234854 A 197.25625577521595,197.25625577521595 0 0 0 736.8848305299731,553.3126415288734 Z "/><path class="wedge" fill="url(#hiddenPattern)" d=" M 736.8848305299731,553.3126415288734 L 747.6134679286118,600.327807663068 A 245.48000000000002,245.48000000000002 0 0,1 745.1268915713352,600.8816741126972 L 734.886733976545,553.7577027234854 A 197.25625577521595,197.25625577521595 0 0 0 736.8848305299731,553.3126415288734 Z "/><path class="wedge" fill="rgb(219,183,149)" d=" M 731.8549772699531,540.8163418209543 L 744.8470833231262,600.9423062965029 A 245.48000000000002,245.48000000000002 0 0,1 744.6912956312193,600.9759161998676 L 731.738227650881,540.8415295836514 A 183.96637204804267,183.96637204804267 0 0 0 731.8549772699531,540.8163418209543 Z "/><path class="wedge" fill="url(#hiddenPattern)" d=" M 731.8549772699531,540.8163418209543 L 744.8470833231262,600.9423062965029 A 245.48000000000002,245.48000000000002 0 0,1 744.6912956312193,600.9759161998676 L 731.738227650881,540.8415295836514 A 183.96637204804267,183.96637204804267 0 0 0 731.8549772699531,540.8163418209543 Z "/><path class="wedge" fill="rgb(216,177,140)" d=" M 726.8450459949348,525.8397156460853 L 742.3722428125109,601.4637437113181 A 245.48000000000002,245.48000000000002 0 0,1 734.3788790311169,602.9673919562886 L 721.3655346455542,526.8704778945107 A 168.27839728462325,168.27839728462325 0 0 0 726.8450459949348,525.8397156460853 Z "/><path class="wedge" fill="url(#hiddenPattern)" d=" M 726.8450459949348,525.8397156460853 L 742.3722428125109,601.4637437113181 A 245.48000000000002,245.48000000000002 0 0,1 734.3788790311169,602.9673919562886 L 721.3655346455542,526.8704778945107 A 168.27839728462325,168.27839728462325 0 0 0 726.8450459949348,525.8397156460853 Z "/><path class="wedge" fill="rgb(213,171,130)" d=" M 716.7101792397445,508.58885816731004 L 731.9371567201293,603.3722926131452 A 245.48000000000002,245.48000000000002 0 0,1 731.8214505332068,603.3908525058192 L 716.6397217471547,508.6001599268384 A 149.48124850532648,149.48124850532648 0 0 0 716.7101792397445,508.58885816731004 Z "/><path class="wedge" fill="url(#hiddenPattern)" d=" M 716.7101792397445,508.58885816731004 L 731.9371567201293,603.3722926131452 A 245.48000000000002,245.48000000000002 0 0,1 731.8214505332068,603.3908525058192 L 716.6397217471547,508.6001599268384 A 149.48124850532648,149.48124850532648 0 0 0 716.7101792397445,508.58885816731004 Z "/><path class="wedge" fill="rgb(210,165,121)" d=" M 712.7588633220425,486.0011593424871 L 731.3270219122179,603.469523427874 A 245.48000000000002,245.48000000000002 0 0,1 728.6469355966358,603.8780072023181 L 711.3771890734628,486.2117464078479 A 126.55316083269122,126.55316083269122 0 0 0 712.7588633220425,486.0011593424871 Z "/><path class="wedge" fill="url(#hiddenPattern)" d=" M 712.7588633220425,486.0011593424871 L 731.3270219122179,603.469523427874 A 245.48000000000002,245.48000000000002 0 0,1 728.6469355966358,603.8780072023181 L 711.3771890734628,486.2117464078479 A 126.55316083269122,126.55316083269122 0 0 0 712.7588633220425,486.0011593424871 Z "/><path class="wedge" fill="rgb(207,159,111)" d=" M 707.208689059498,457.93640674435636 L 728.6014120213439,603.8846842888339 A 245.48000000000002,245.48000000000002 0 0,1 727.8747787383323,603.9900825300333 L 706.9186863379093,457.9784716724475 A 97.97220931109393,97.97220931109393 0 0 0 707.208689059498,457.93640674435636 Z "/><path class="wedge" fill="url(#hiddenPattern)" d=" M 707.208689059498,457.93640674435636 L 728.6014120213439,603.8846842888339 A 245.48000000000002,245.48000000000002 0 0,1 727.8747787383323,603.9900825300333 L 706.9186863379093,457.9784716724475 A 97.97220931109393,97.97220931109393 0 0 0 707.208689059498,457.93640674435636 Z "/><path class="wedge" fill="rgb(207,207,111)" d=" M 701.7024751904592,421.74984630070634 L 727.8099007618368,603.9993852028254 A 245.48000000000002,245.48000000000002 0 0,1 693.1156228125674,606.4799727704182 L 693.0289057031418,422.3699931926045 A 61.370000000000005,61.370000000000005 0 0 0 701.7024751904592,421.74984630070634 Z "/><path class="wedge" fill="rgb(111,207,111)" d=" M 693.0289057031418,422.3699931926045 L 693.1156228125674,606.4799727704182 A 245.48000000000002,245.48000000000002 0 0,1 693.0430912914042,606.4799962179009 L 693.0107728228511,422.3699990544752 A 61.370000000000005,61.370000000000005 0 0 0 693.0289057031418,422.3699931926045 Z "/><path class="wedge" fill="rgb(111,207,111)" d=" M 693.0289057031418,422.3699931926045 L 693.1156228125674,606.4799727704182 A 245.48000000000002,245.48000000000002 0 0,1 693.0430912914042,606.4799962179009 L 693.0107728228511,422.3699990544752 A 61.370000000000005,61.370000000000005 0 0 0 693.0289057031418,422.3699931926045 Z "/><path class="wedge" fill="rgb(111,207,111)" d=" M 693.0289057031418,422.3699931926045 L 693.1156228125674,606.4799727704182 A 245.48000000000002,245.48000000000002 0 0,1 693.0430912914042,606.4799962179009 L 693.0107728228511,422.3699990544752 A 61.370000000000005,61.370000000000005 0 0 0 693.0289057031418,422.3699931926045 Z "/><path class="wedge" fill="rgb(111,207,111)" d=" M 693.0289057031418,422.3699931926045 L 693.1156228125674,606.4799727704182 A 245.48000000000002,245.48000000000002 0 0,1 693.0430912914042,606.4799962179009 L 693.0107728228511,422.3699990544752 A 61.370000000000005,61.370000000000005 0 0 0 693.0289057031418,422.3699931926045 Z "/><path class="wedge" fill="rgb(111,207,111)" d=" M 693.0289057031418,422.3699931926045 L 693.1156228125674,606.4799727704182 A 245.48000000000002,245.48000000000002 0 0,1 693.0430912914042,606.4799962179009 L 693.0107728228511,422.3699990544752 A 61.370000000000005,61.370000000000005 0 0 0 693.0289057031418,422.3699931926045 Z "/><path class="wedge" fill="rgb(111,207,111)" d=" M 693.0289057031418,422.3699931926045 L 693.1156228125674,606.4799727704182 A 245.48000000000002,245.48000000000002 0 0,1 693.0430912914042,606.4799962179009 L 693.0107728228511,422.3699990544752 A 61.370000000000005,61.370000000000005 0 0 0 693.0289057031418,422.3699931926045 Z "/><path class="wedge" fill="rgb(111,207,111)" d=" M 693.0289057031418,422.3699931926045 L 693.1156228125674,606.4799727704182 A 245.48000000000002,245.48000000000002 0 0,1 693.0430912914042,606.4799962179009 L 693.0107728228511,422.3699990544752 A 61.370000000000005,61.370000000000005 0 0 0 693.0289057031418,422.3699931926045 Z "/><path class="wedge" fill="rgb(111,207,111)" d=" M 693.0289057031418,422.3699931926045 L 693.1156228125674,606.4799727704182 A 245.48000000000002,245.48000000000002 0 0,1 693.0430912914042,606.4799962179009 L 693.0107728228511,422.3699990544752 A 61.370000000000005,61.370000000000005 0 0 0 693.0289057031418,422.3699931926045 Z "/><path class="wedge" fill="rgb(111,207,111)" d=" M 693.0289057031418,422.3699931926045 L 693.1156228125674,606.4799727704182 A 245.48000000000002,245.48000000000002 0 0,1 693.0430912914042,606.4799962179009 L 693.0107728228511,422.3699990544752 A 61.370000000000005,61.370000000000005 0 0 0 693.0289057031418,422.3699931926045 Z "/><path class="wedge" fill="rgb(111,207,111)" d=" M 693.0289057031418,422.3699931926045 L 693.1156228125674,606.4799727704182 A 245.48000000000002,245.48000000000002 0 0,1 693.0430912914042,606.4799962179009 L 693.0107728228511,422.3699990544752 A 61.370000000000005,61.370000000000005 0 0 0 693.0289057031418,422.3699931926045 Z "/><path class="wedge" fill="rgb(111,207,111)" d=" M 693.0289057031418,422.3699931926045 L 693.1156228125674,606.4799727704182 A 245.48000000000002,245.48000000000002 0 0,1 693.0430912914042,606.4799962179009 L 693.0107728228511,422.3699990544752 A 61.370000000000005,61.370000000000005 0 0 0 693.0289057031418,422.3699931926045 Z "/><path class="wedge" fill="rgb(111,207,111)" d=" M 693.0289057031418,422.3699931926045 L 693.1156228125674,606.4799727704182 A 245.48000000000002,245.48000000000002 0 0,1 693.0430912914042,606.4799962179009 L 693.0107728228511,422.3699990544752 A 61.370000000000005,61.370000000000005 0 0 0 693.0289057031418,422.3699931926045 Z "/><path class="wedge" fill="rgb(111,207,111)" d=" M 693.0289057031418,422.3699931926045 L 693.1156228125674,606.4799727704182 A 245.48000000000002,245.48000000000002 0 0,1 693.0430912914042,606.4799962179009 L 693.0107728228511,422.3699990544752 A 61.370000000000005,61.370000000000005 0 0 0 693.0289057031418,422.3699931926045 Z "/><path class="wedge" fill="rgb(111,207,111)" d=" M 693.0289057031418,422.3699931926045 L 693.1156228125674,606.4799727704182 A 245.48000000000002,245.48000000000002 0 0,1 693.0430912914042,606.4799962179009 L 693.0107728228511,422.3699990544752 A 61.370000000000005,61.370000000000005 0 0 0 693.0289057031418,422.3699931926045 Z "/><path class="wedge" fill="rgb(111,207,111)" d=" M 693.0289057031418,422.3699931926045 L 693.1156228125674,606.4799727704182 A 245.48000000000002,245.48000000000002 0 0,1 693.0430912914042,606.4799962179009 L 693.0107728228511,422.3699990544752 A 61.370000000000005,61.370000000000005 0 0 0 693.0289057031418,422.3699931926045 Z "/><path class="wedge" fill="rgb(111,207,111)" d=" M 693.0289057031418,422.3699931926045 L 693.1156228125674,606.4799727704182 A 245.48000000000002,245.48000000000002 0 0,1 693.0430912914042,606.4799962179009 L 693.0107728228511,422.3699990544752 A 61.370000000000005,61.370000000000005 0 0 0 693.0289057031418,422.3699931926045 Z "/><path class="wedge" fill="rgb(111,207,111)" d=" M 693.0289057031418,422.3699931926045 L 693.1156228125674,606.4799727704182 A 245.48000000000002,245.48000000000002 0 0,1 693.0430912914042,606.4799962179009 L 693.0107728228511,422.3699990544752 A 61.370000000000005,61.370000000000005 0 0 0 693.0289057031418,422.3699931926045 Z "/><path class="wedge" fill="rgb(111,207,111)" d=" M 693.0289057031418,422.3699931926045 L 693.1156228125674,606.4799727704182 A 245.48000000000002,245.48000000000002 0 0,1 693.0430912914042,606.4799962179009 L 693.0107728228511,422.3699990544752 A 61.370000000000005,61.370000000000005 0 0 0 693.0289057031418,422.3699931926045 Z "/><path class="wedge" fill="rgb(111,207,111)" d=" M 693.0289057031418,422.3699931926045 L 693.1156228125674,606.4799727704182 A 245.48000000000002,245.48000000000002 0 0,1 693.0430912914042,606.4799962179009 L 693.0107728228511,422.3699990544752 A 61.370000000000005,61.370000000000005 0 0 0 693.0289057031418,422.3699931926045 Z "/><path class="wedge" fill="rgb(111,207,111)" d=" M 693.0289057031418,422.3699931926045 L 693.1156228125674,606.4799727704182 A 245.48000000000002,245.48000000000002 0 0,1 693.0430912914042,606.4799962179009 L 693.0107728228511,422.3699990544752 A 61.370000000000005,61.370000000000005 0 0 0 693.0289057031418,422.3699931926045 Z "/><path class="wedge" fill="rgb(111,207,111)" d=" M 693.0289057031418,422.3699931926045 L 693.1156228125674,606.4799727704182 A 245.48000000000002,245.48000000000002 0 0,1 693.0430912914042,606.4799962179009 L 693.0107728228511,422.3699990544752 A 61.370000000000005,61.370000000000005 0 0 0 693.0289057031418,422.3699931926045 Z "/><path class="wedge" fill="rgb(111,207,111)" d=" M 693.0289057031418,422.3699931926045 L 693.1156228125674,606.4799727704182 A 245.48000000000002,245.48000000000002 0 0,1 693.0430912914042,606.4799962179009 L 693.0107728228511,422.3699990544752 A 61.370000000000005,61.370000000000005 0 0 0 693.0289057031418,422.3699931926045 Z "/><path class="wedge" fill="rgb(111,207,111)" d=" M 693.0289057031418,422.3699931926045 L 693.1156228125674,606.4799727704182 A 245.48000000000002,245.48000000000002 0 0,1 693.0430912914042,606.4799962179009 L 693.0107728228511,422.3699990544752 A 61.370000000000005,61.370000000000005 0 0 0 693.0289057031418,422.3699931926045 Z "/><path class="wedge" fill="rgb(111,207,111)" d=" M 693.0289057031418,422.3699931926045 L 693.1156228125674,606.4799727704182 A 245.48000000000002,245.48000000000002 0 0,1 693.0430912914042,606.4799962179009 L 693.0107728228511,422.3699990544752 A 61.370000000000005,61.370000000000005 0 0 0 693.0289057031418,422.3699931926045 Z "/><path class="wedge" fill="rgb(111,207,111)" d=" M 693.0289057031418,422.3699931926045 L 693.1156228125674,606.4799727704182 A 245.48000000000002,245.48000000000002 0 0,1 693.0430912914042,606.4799962179009 L 693.0107728228511,422.3699990544752 A 61.370000000000005,61.370000000000005 0 0 0 693.0289057031418,422.3699931926045 Z "/><path class="wedge" fill="rgb(111,207,111)" d=" M 693.0289057031418,422.3699931926045 L 693.1156228125674,606.4799727704182 A 245.48000000000002,245.48000000000002 0 0,1 693.0430912914042,606.4799962179009 L 693.0107728228511,422.3699990544752 A 61.370000000000005,61.370000000000005 0 0 0 693.0289057031418,422.3699931926045 Z "/><path class="wedge" fill="rgb(111,207,111)" d=" M 693.0289057031418,422.3699931926045 L 693.1156228125674,606.4799727704182 A 245.48000000000002,245.48000000000002 0 0,1 693.0430912914042,606.4799962179009 L 693.0107728228511,422.3699990544752 A 61.370000000000005,61.370000000000005 0 0 0 693.0289057031418,422.3699931926045 Z "/><path class="wedge" fill="rgb(111,207,111)" d=" M 693.0289057031418,422.3699931926045 L 693.1156228125674,606.4799727704182 A 245.48000000000002,245.48000000000002 0 0,1 693.0430912914042,606.4799962179009 L 693.0107728228511,422.3699990544752 A 61.370000000000005,61.370000000000005 0 0 0 693.0289057031418,422.3699931926045 Z "/><path class="wedge" fill="rgb(111,207,111)" d=" M 693.0289057031418,422.3699931926045 L 693.1156228125674,606.4799727704182 A 245.48000000000002,245.48000000000002 0 0,1 693.0430912914042,606.4799962179009 L 693.0107728228511,422.3699990544752 A 61.370000000000005,61.370000000000005 0 0 0 693.0289057031418,422.3699931926045 Z "/><path class="wedge" fill="rgb(111,207,111)" d=" M 693.0289057031418,422.3699931926045 L 693.1156228125674,606.4799727704182 A 245.48000000000002,245.48000000000002 0 0,1 693.0430912914042,606.4799962179009 L 693.0107728228511,422.3699990544752 A 61.370000000000005,61.370000000000005 0 0 0 693.0289057031418,422.3699931926045 Z "/><path class="wedge" fill="rgb(101,204,204)" d=" M 693.0107728228511,422.3699990544752 L 693.0430912914042,606.4799962179009 A 245.48000000000002,245.48000000000002 0 0,1 693.0413232327093,606.4799965218967 L 693.0103308081773,422.3699991304742 A 61.370000000000005,61.370000000000005 0 0 0 693.0107728228511,422.3699990544752 Z "/><path class="wedge" fill="url(#hiddenPattern)" d=" M 693.0107728228511,422.3699990544752 L 693.0430912914042,606.4799962179009 A 245.48000000000002,245.48000000000002 0 0,1 693.0413232327093,606.4799965218967 L 693.0103308081773,422.3699991304742 A 61.370000000000005,61.370000000000005 0 0 0 693.0107728228511,422.3699990544752 Z "/><path class="wedge" fill="rgb(101,101,204)" d=" M 693.0103308081773,422.3699991304742 L 693.0413232327093,606.4799965218967 A 245.48000000000002,245.48000000000002 0 0,1 693.0405419974712,606.479996652164 L 693.0101354993678,422.36999916304103 A 61.370000000000005,61.370000000000005 0 0 0 693.0103308081773,422.3699991304742 Z "/><path class="wedge" fill="url(#hiddenPattern)" d=" M 693.0103308081773,422.3699991304742 L 693.0413232327093,606.4799965218967 A 245.48000000000002,245.48000000000002 0 0,1 693.0405419974712,606.479996652164 L 693.0101354993678,422.36999916304103 A 61.370000000000005,61.370000000000005 0 0 0 693.0103308081773,422.3699991304742 Z "/><path class="wedge" fill="rgb(207,111,207)" d=" M 693.0101354993678,422.36999916304103 L 693.0405419974712,606.479996652164 A 245.48000000000002,245.48000000000002 0 0,1 693.0404186445388,606.4799966725052 L 693.0101046611347,422.3699991681263 A 61.370000000000005,61.370000000000005 0 0 0 693.0101354993678,422.36999916304103 Z "/><path class="wedge" fill="rgb(207,111,207)" d=" M 693.0101354993678,422.36999916304103 L 693.0405419974712,606.479996652164 A 245.48000000000002,245.48000000000002 0 0,1 693.0404186445388,606.4799966725052 L 693.0101046611347,422.3699991681263 A 61.370000000000005,61.370000000000005 0 0 0 693.0101354993678,422.36999916304103 Z "/><circle cx="693" cy="361" r="61.370000000000005"/><circle cx="693" cy="361" r="245.48000000000002"/><text x="693" y="361" text-anchor="middle" style="font-color:black;font-weight:bold" transform="rotate(360,693,361)">Root</text><path class="line" d=" M 701.7024751904592,421.74984630070634 A 61.370000000000005,61.370000000000005 0 1 0 693,422.37"/><line x1="727.8099007618368" y1="603.9993852028254" x2="701.7024751904592" y2="421.74984630070634"/><text x="693" y="288.6493372066718" text-anchor="middle" style="font-color:black;font-weight:normal" transform="rotate(355.9238924021401,693,361)">Bacteria</text><path class="line" d=" M 707.208689059498,457.93640674435636 A 97.97220931109393,97.97220931109393 0 1 0 693,458.97220931109393"/><line x1="728.6014120213439" y1="603.8846842888339" x2="707.208689059498" y2="457.93640674435636"/><text x="693" y="248.73731492810742" text-anchor="middle" style="font-color:black;font-weight:normal" transform="rotate(355.83055693934284,693,361)">Proteobacteria</text><path class="line" d=" M 712.7588633220425,486.0011593424871 A 126.55316083269122,126.55316083269122 0 1 0 693,487.5531608326912"/><line x1="731.3270219122179" y1="603.469523427874" x2="712.7588633220425" y2="486.0011593424871"/><text x="693" y="222.98279533099114" text-anchor="middle" style="font-color:black;font-weight:normal" transform="rotate(355.5088036728296,693,361)">Gammaproteobacteria</text><path class="line" d=" M 716.7101792397445,508.58885816731004 A 149.48124850532648,149.48124850532648 0 1 0 693,510.48124850532645"/><line x1="731.9371567201293" y1="603.3722926131452" x2="716.7101792397445" y2="508.58885816731004"/><text x="693" y="202.12017710502514" text-anchor="middle" style="font-color:black;font-weight:normal" transform="rotate(355.43670153597316,693,361)">Enterobacterales</text><path class="line" d=" M 726.8450459949348,525.8397156460853 A 168.27839728462325,168.27839728462325 0 1 0 693,529.2783972846232"/><line x1="742.3722428125109" y1="601.4637437113181" x2="726.8450459949348" y2="525.8397156460853"/><text x="693" y="184.87761533366702" text-anchor="middle" style="font-color:black;font-weight:normal" transform="rotate(354.19861389168153,693,361)">Erwiniaceae</text><path class="line" d=" M 779.0070763956983,523.6235187615353 A 183.96637204804267,183.96637204804267 0 1 0 693,544.9663720480427"/><line x1="807.7656328630667" y1="578.0006449611149" x2="779.0070763956983" y2="523.6235187615353"/><line x1="828.6989786942296" y1="565.5634805661632" x2="802.0413575433621" y2="525.3776529445474"/><path class="line" d=" M 802.0413575433621,525.3776529445474 A 197.25625577521595,197.25625577521595 0 1 0 693,558.256255775216"/><text x="471.631872112392" y="361" text-anchor="end" style="font-color:black;font-weight:normal" transform="rotate(73.2206724782266,693,361)">Pantoea agglomerans&#160;&#160;&#160;91%</text><path class="line" d=" M 793.8584059852201,530.5217165574309 A 197.25625577521595,197.25625577521595 0 0 0 802.0413575433621,525.3776529445474"/><line x1="818.5155199207761" y1="571.965126641863" x2="793.8584059852201" y2="530.5217165574309"/><path class="line" d=" M 731.8549772699531,540.8163418209543 A 183.96637204804267,183.96637204804267 0 0 0 779.0070763956983,523.6235187615353"/><line x1="744.8470833231262" y1="600.9423062965029" x2="731.8549772699531" y2="540.8163418209543"/><path class="line" d=" M 736.8848305299731,553.3126415288734 A 197.25625577521595,197.25625577521595 0 0 0 785.2202991292228,535.3715770157914"/><line x1="747.6134679286118" y1="600.327807663068" x2="736.8848305299731" y2="553.3126415288734"/><text x="914.368127887608" y="361" text-anchor="start" style="font-color:black;font-weight:normal" transform="rotate(429.63617995591625,693,361)">4%&#160;&#160;&#160;Erwinia persicina</text><path class="line" d=" M 734.886733976545,553.7577027234854 A 197.25625577521595,197.25625577521595 0 0 0 736.8848305299731,553.3126415288734"/><line x1="745.1268915713352" y1="600.8816741126972" x2="734.886733976545" y2="553.7577027234854"/><path class="line" d=" M 731.738227650881,540.8415295836514 A 183.96637204804267,183.96637204804267 0 0 0 731.8549772699531,540.8163418209543"/><line x1="744.6912956312193" y1="600.9759161998676" x2="731.738227650881" y2="540.8415295836514"/><path class="line" d=" M 721.3655346455542,526.8704778945107 A 168.27839728462325,168.27839728462325 0 0 0 726.8450459949348,525.8397156460853"/><line x1="734.3788790311169" y1="602.9673919562886" x2="721.3655346455542" y2="526.8704778945107"/><path class="line" d=" M 716.6397217471547,508.6001599268384 A 149.48124850532648,149.48124850532648 0 0 0 716.7101792397445,508.58885816731004"/><line x1="731.8214505332068" y1="603.3908525058192" x2="716.6397217471547" y2="508.6001599268384"/><path class="line" d=" M 711.3771890734628,486.2117464078479 A 126.55316083269122,126.55316083269122 0 0 0 712.7588633220425,486.0011593424871"/><line x1="728.6469355966358" y1="603.8780072023181" x2="711.3771890734628" y2="486.2117464078479"/><path class="line" d=" M 706.9186863379093,457.9784716724475 A 97.97220931109393,97.97220931109393 0 0 0 707.208689059498,457.93640674435636"/><line x1="727.8747787383323" y1="603.9900825300333" x2="706.9186863379093" y2="457.9784716724475"/><path class="line" d=" M 693.0289057031418,422.3699931926045 A 61.370000000000005,61.370000000000005 0 0 0 701.7024751904592,421.74984630070634"/><line x1="693.1156228125674" y1="606.4799727704182" x2="693.0289057031418" y2="422.3699931926045"/><text x="846.425" y="361" text-anchor="start" style="font-color:black;font-weight:normal" transform="rotate(445.9103990433727,693,361)">2%&#160;&#160;&#160;No hits</text><line x1="693.0430912914042" y1="606.4799962179009" x2="693.0107728228511" y2="422.3699990544752"/><path class="line" d=" M 693.0107728228511,422.3699990544752 A 61.370000000000005,61.370000000000005 0 0 0 693.0289057031418,422.3699931926045"/><path class="line" d=" M 693.0103308081773,422.3699991304742 A 61.370000000000005,61.370000000000005 0 0 0 693.0107728228511,422.3699990544752"/><line x1="693.0413232327093" y1="606.4799965218967" x2="693.0103308081773" y2="422.3699991304742"/><path class="line" d=" M 693.0101354993678,422.36999916304103 A 61.370000000000005,61.370000000000005 0 0 0 693.0103308081773,422.3699991304742"/><line x1="693.0405419974712" y1="606.479996652164" x2="693.0101354993678" y2="422.36999916304103"/><line x1="693.0404186445388" y1="606.4799966725052" x2="693.0101046611347" y2="422.3699991681263"/><path class="line" d=" M 693.0101046611347,422.3699991681263 A 61.370000000000005,61.370000000000005 0 0 0 693.0101354993678,422.36999916304103"/></svg>