<?xml version="1.0" standalone="no"?><!DOCTYPE svg PUBLIC "-//W3C//DTD SVG 1.1//EN" 	"http://www.w3.org/Graphics/SVG/1.1/DTD/svg11.dtd"><svg width="1536" height="722" version="1.1"	xmlns="http://www.w3.org/2000/svg"><title>Krona (snapshot) - Root</title><defs>	<style type="text/css">	text {font-size: 11px; font-family: sans-serif; dominant-baseline:central}	path {stroke-width:0.27499999999999997;}	path.wedge {stroke:none}	path.line {fill:none;stroke:black;}	line {stroke:black;stroke-width:0.27499999999999997;}	line.tick {stroke-width:0.5499999999999999;}	line.pattern {stroke-width:0.18333333333333332;}	circle {fill:none;stroke:black;stroke-width:0.27499999999999997;}	rect {stroke:black;stroke-width:0.27499999999999997;}	.highlight {stroke:black;stroke-width:1.375;}	.searchHighlight {fill:rgb(255, 255, 100);stroke:none;}	</style><pattern id="hiddenPattern" patternUnits="userSpaceOnUse" x="0" y="0" width="6.6" height="6.6"><line class="pattern" x1="0" y1="0" x2="3.3" y2="3.3"/><line class="pattern" x1="3.3" y1="6.6" x2="6.6" y2="3.3"/></pattern></defs><path class="wedge" fill="rgb(220,220,220)" d=" M 693.010694366817,427.78499914374873 L 693.0427774672678,628.1399965749949 A 267.14,267.14 0 0,1 693.0000000000001,628.14 L 693,427.78499999999997 A 66.785,66.785 0 0 0 693.010694366817,427.78499914374873 Z "/><path class="wedge" fill="rgb(207,111,111)" d=" M 693,427.78499999999997 L 693,628.14 A 267.14,267.14 0 1,1 738.3732505242806,624.2585188305611 L 704.3433126310701,426.8146297076403 A 66.785,66.785 0 1 0 693,427.78499999999997 Z "/><path class="wedge" fill="rgb(207,111,111)" d=" M 711.6672911793105,469.0335480307285 L 738.4855168187487,624.2391448089195 A 267.14,267.14 0 0,1 738.3732505242806,624.2585188305611 L 711.6212170054848,469.0414991441508 A 109.63446200935587,109.63446200935587 0 0 0 711.6672911793105,469.0335480307285 Z "/><path class="wedge" fill="rgb(210,121,121)" d=" M 693,470.63446200935584 L 693,628.14 A 267.14,267.14 0 1,1 758.4400033260607,620.0007443322995 L 719.8566278301382,467.2941052066122 A 109.63446200935587,109.63446200935587 0 1 0 693,470.63446200935584 Z "/><path class="wedge" fill="rgb(210,121,121)" d=" M 727.4569460309845,497.24133961967027 L 758.500305872853,619.9855006183989 A 267.14,267.14 0 0,1 758.4400033260607,620.0007443322995 L 727.4252234065987,497.2493586940881 A 140.53107752787105,140.53107752787105 0 0 0 727.4569460309845,497.24133961967027 Z "/><path class="wedge" fill="rgb(213,130,130)" d=" M 693,501.53107752787105 L 693,628.14 A 267.14,267.14 0 1,1 762.5033163961414,618.9400484801417 L 729.5627608928288,496.6913713801962 A 140.53107752787105,140.53107752787105 0 1 0 693,501.53107752787105 Z "/><path class="wedge" fill="rgb(213,130,130)" d=" M 735.9638454204287,519.1073546862452 L 763.0518882770666,618.7916068238401 A 267.14,267.14 0 0,1 762.5033163961414,618.9400484801417 L 735.6273982799769,519.1983961204185 A 163.84086065201387,163.84086065201387 0 0 0 735.9638454204287,519.1073546862452 Z "/><path class="wedge" fill="rgb(216,140,140)" d=" M 693,524.8408606520138 L 693,628.14 A 267.14,267.14 0 1,1 766.7060900979538,617.7706990341233 L 738.2050207267487,518.481217039642 A 163.84086065201387,163.84086065201387 0 1 0 693,524.8408606520138 Z "/><path class="wedge" fill="rgb(216,140,140)" d=" M 745.0303361626384,535.4484790472814 L 769.3524630083093,616.9962519111651 A 267.14,267.14 0 0,1 766.7060900979538,617.7706990341233 L 743.226967067361,535.97622553456 A 182.04237892069787,182.04237892069787 0 0 0 745.0303361626384,535.4484790472814 Z "/><path class="wedge" fill="rgb(219,149,149)" d=" M 693,543.0423789206978 L 693,628.14 A 267.14,267.14 0 1,1 778.0466350146683,614.2406947405606 L 750.9549740108952,533.5707064090062 A 182.04237892069787,182.04237892069787 0 1 0 693,543.0423789206978 Z "/><path class="wedge" fill="rgb(219,149,149)" d=" M 757.1987492946589,546.8691819808255 L 780.2137499918368,613.5025572392512 A 267.14,267.14 0 0,1 778.0466350146683,614.2406947405606 L 755.6035183692031,547.4125309871001 A 196.64392241109235,196.64392241109235 0 0 0 757.1987492946589,546.8691819808255 Z "/><path class="wedge" fill="rgb(223,159,159)" d=" M 693,557.6439224110924 L 693,628.14 A 267.14,267.14 0 1,1 872.6737745474047,558.6894391207795 L 825.2593238803921,506.5208008084111 A 196.64392241109235,196.64392241109235 0 1 0 693,557.6439224110924 Z "/><path class="wedge" fill="rgb(223,159,159)" d=" M 840.1964860527661,508.8285962533828 L 881.4913499804067,550.3007939300938 A 267.14,267.14 0 0,1 872.6737745474047,558.6894391207795 L 833.3106734179794,515.3794490906123 A 208.6147151485911,208.6147151485911 0 0 0 840.1964860527661,508.8285962533828 Z "/><path class="wedge" fill="rgb(226,168,168)" d=" M 693,569.6147151485911 L 693,628.14 A 267.14,267.14 0 1,1 889.4284574308566,542.0514863549431 L 846.3947244666292,502.38655481457465 A 208.6147151485911,208.6147151485911 0 1 0 693,569.6147151485911 Z "/><path class="wedge" fill="rgb(226,168,168)" d=" M 693,569.6147151485911 L 693,628.14 A 267.14,267.14 0 1,1 889.4284574308566,542.0514863549431 L 846.3947244666292,502.38655481457465 A 208.6147151485911,208.6147151485911 0 1 0 693,569.6147151485911 Z "/><path class="wedge" fill="rgb(226,193,168)" d=" M 846.3947244666292,502.38655481457465 L 889.4284574308566,542.0514863549431 A 267.14,267.14 0 0,1 881.4913499804067,550.3007939300938 L 840.1964860527661,508.8285962533828 A 208.6147151485911,208.6147151485911 0 0 0 846.3947244666292,502.38655481457465 Z "/><path class="wedge" fill="url(#hiddenPattern)" d=" M 846.3947244666292,502.38655481457465 L 889.4284574308566,542.0514863549431 A 267.14,267.14 0 0,1 881.4913499804067,550.3007939300938 L 840.1964860527661,508.8285962533828 A 208.6147151485911,208.6147151485911 0 0 0 846.3947244666292,502.38655481457465 Z "/><path class="wedge" fill="rgb(223,187,159)" d=" M 825.2593238803921,506.5208008084111 L 872.6737745474047,558.6894391207795 A 267.14,267.14 0 0,1 780.3744440786738,613.446996658591 L 757.317037516355,546.8282833864089 A 196.64392241109235,196.64392241109235 0 0 0 825.2593238803921,506.5208008084111 Z "/><path class="wedge" fill="rgb(223,187,159)" d=" M 761.5393691965797,558.0341448751021 L 780.7675722641752,613.3105880831258 A 267.14,267.14 0 0,1 780.3744440786738,613.446996658591 L 761.232367907236,558.1406689303335 A 208.6147151485911,208.6147151485911 0 0 0 761.5393691965797,558.0341448751021 Z "/><path class="wedge" fill="rgb(226,193,168)" d=" M 833.3106734179794,515.3794490906123 L 872.6737745474047,558.6894391207795 A 267.14,267.14 0 0,1 783.162335848104,612.4647744603878 L 763.4094857006955,557.3736329039399 A 208.6147151485911,208.6147151485911 0 0 0 833.3106734179794,515.3794490906123 Z "/><path class="wedge" fill="rgb(226,195,168)" d=" M 763.4094857006955,557.3736329039399 L 783.162335848104,612.4647744603878 A 267.14,267.14 0 0,1 780.7675722641752,613.3105880831258 L 761.5393691965797,558.0341448751021 A 208.6147151485911,208.6147151485911 0 0 0 763.4094857006955,557.3736329039399 Z "/><path class="wedge" fill="url(#hiddenPattern)" d=" M 763.4094857006955,557.3736329039399 L 783.162335848104,612.4647744603878 A 267.14,267.14 0 0,1 780.7675722641752,613.3105880831258 L 761.5393691965797,558.0341448751021 A 208.6147151485911,208.6147151485911 0 0 0 763.4094857006955,557.3736329039399 Z "/><path class="wedge" fill="rgb(219,182,149)" d=" M 757.317037516355,546.8282833864089 L 780.3744440786738,613.446996658591 A 267.14,267.14 0 0,1 780.2137499918368,613.5025572392512 L 757.1987492946589,546.8691819808255 A 196.64392241109235,196.64392241109235 0 0 0 757.317037516355,546.8282833864089 Z "/><path class="wedge" fill="url(#hiddenPattern)" d=" M 757.317037516355,546.8282833864089 L 780.3744440786738,613.446996658591 A 267.14,267.14 0 0,1 780.2137499918368,613.5025572392512 L 757.1987492946589,546.8691819808255 A 196.64392241109235,196.64392241109235 0 0 0 757.317037516355,546.8282833864089 Z "/><path class="wedge" fill="rgb(216,176,140)" d=" M 750.9549740108952,533.5707064090062 L 778.0466350146683,614.2406947405606 A 267.14,267.14 0 0,1 769.3524630083093,616.9962519111651 L 745.0303361626384,535.4484790472814 A 182.04237892069787,182.04237892069787 0 0 0 750.9549740108952,533.5707064090062 Z "/><path class="wedge" fill="url(#hiddenPattern)" d=" M 750.9549740108952,533.5707064090062 L 778.0466350146683,614.2406947405606 A 267.14,267.14 0 0,1 769.3524630083093,616.9962519111651 L 745.0303361626384,535.4484790472814 A 182.04237892069787,182.04237892069787 0 0 0 750.9549740108952,533.5707064090062 Z "/><path class="wedge" fill="rgb(213,170,130)" d=" M 738.2050207267487,518.481217039642 L 766.7060900979538,617.7706990341233 A 267.14,267.14 0 0,1 763.0518882770666,618.7916068238401 L 735.9638454204287,519.1073546862452 A 163.84086065201387,163.84086065201387 0 0 0 738.2050207267487,518.481217039642 Z "/><path class="wedge" fill="url(#hiddenPattern)" d=" M 738.2050207267487,518.481217039642 L 766.7060900979538,617.7706990341233 A 267.14,267.14 0 0,1 763.0518882770666,618.7916068238401 L 735.9638454204287,519.1073546862452 A 163.84086065201387,163.84086065201387 0 0 0 738.2050207267487,518.481217039642 Z "/><path class="wedge" fill="rgb(210,164,121)" d=" M 729.5627608928288,496.6913713801962 L 762.5033163961414,618.9400484801417 A 267.14,267.14 0 0,1 758.500305872853,619.9855006183989 L 727.4569460309845,497.24133961967027 A 140.53107752787105,140.53107752787105 0 0 0 729.5627608928288,496.6913713801962 Z "/><path class="wedge" fill="url(#hiddenPattern)" d=" M 729.5627608928288,496.6913713801962 L 762.5033163961414,618.9400484801417 A 267.14,267.14 0 0,1 758.500305872853,619.9855006183989 L 727.4569460309845,497.24133961967027 A 140.53107752787105,140.53107752787105 0 0 0 729.5627608928288,496.6913713801962 Z "/><path class="wedge" fill="rgb(210,165,121)" d=" M 719.8566278301382,467.2941052066122 L 758.4400033260607,620.0007443322995 A 267.14,267.14 0 0,1 738.5168646267286,624.2337262482755 L 711.68015634388,469.0313242492616 A 109.63446200935587,109.63446200935587 0 0 0 719.8566278301382,467.2941052066122 Z "/><path class="wedge" fill="rgb(210,165,121)" d=" M 716.945418688595,499.4759931358948 L 738.5186088443863,624.2334246422208 A 267.14,267.14 0 0,1 738.5168646267286,624.2337262482755 L 716.944501129312,499.47615179810884 A 140.53107752787105,140.53107752787105 0 0 0 716.945418688595,499.4759931358948 Z "/><path class="wedge" fill="rgb(213,171,130)" d=" M 727.4252234065987,497.2493586940881 L 758.4400033260607,620.0007443322995 A 267.14,267.14 0 0,1 738.7427726012145,624.1945636876901 L 717.0633417786968,499.45555002810875 A 140.53107752787105,140.53107752787105 0 0 0 727.4252234065987,497.2493586940881 Z "/><path class="wedge" fill="rgb(213,171,130)" d=" M 721.0555122045639,522.420927559385 L 738.7440805700204,624.1943363615628 A 267.14,267.14 0 0,1 738.7427726012145,624.1945636876901 L 721.0547100082067,522.4210669818164 A 163.84086065201387,163.84086065201387 0 0 0 721.0555122045639,522.420927559385 Z "/><path class="wedge" fill="rgb(216,178,140)" d=" M 733.1353090739403,519.8489363663853 L 758.4400033260607,620.0007443322995 A 267.14,267.14 0 0,1 738.751153270658,624.193107003973 L 721.0598499950843,522.4201735764337 A 163.84086065201387,163.84086065201387 0 0 0 733.1353090739403,519.8489363663853 Z "/><path class="wedge" fill="rgb(216,178,140)" d=" M 724.1776547779715,540.3526737064507 L 738.7519768021464,624.1929638472425 A 267.14,267.14 0 0,1 738.751153270658,624.193107003973 L 724.1770935829754,540.3527712605114 A 182.04237892069787,182.04237892069787 0 0 0 724.1776547779715,540.3526737064507 Z "/><path class="wedge" fill="rgb(219,184,149)" d=" M 737.5940476231731,537.4958884498137 L 758.4400033260607,620.0007443322995 A 267.14,267.14 0 0,1 738.8967660445419,624.1677534703912 L 724.2763213128513,540.3354941115736 A 182.04237892069787,182.04237892069787 0 0 0 737.5940476231731,537.4958884498137 Z "/><path class="wedge" fill="rgb(219,184,149)" d=" M 726.7857664646843,554.7197826903941 L 738.8978316884237,624.1675676186203 A 267.14,267.14 0 0,1 738.8967660445419,624.1677534703912 L 726.784982035573,554.7199194973912 A 196.64392241109235,196.64392241109235 0 0 0 726.7857664646843,554.7197826903941 Z "/><path class="wedge" fill="rgb(223,190,159)" d=" M 741.1709176335686,551.6525502466717 L 758.4400033260607,620.0007443322995 A 267.14,267.14 0 0,1 739.1572935289596,624.1221842682244 L 726.9767584315892,554.686375637785 A 196.64392241109235,196.64392241109235 0 0 0 741.1709176335686,551.6525502466717 Z "/><path class="wedge" fill="rgb(223,190,159)" d=" M 729.0586114624905,566.4747573691839 L 739.1745829349985,624.1191507488174 A 267.14,267.14 0 0,1 739.1572935289596,624.1221842682244 L 729.045109835943,566.4771263022787 A 208.6147151485911,208.6147151485911 0 0 0 729.0586114624905,566.4747573691839 Z "/><path class="wedge" fill="rgb(226,197,168)" d=" M 744.1033452616193,563.258615340854 L 758.4400033260607,620.0007443322995 A 267.14,267.14 0 0,1 739.2743442384818,624.1016242163823 L 729.1365169648826,566.4610705661162 A 208.6147151485911,208.6147151485911 0 0 0 744.1033452616193,563.258615340854 Z "/><path class="wedge" fill="rgb(226,197,168)" d=" M 739.874934211404,574.5206948962207 L 750.2820550566171,621.9263224906424 A 267.14,267.14 0 0,1 739.2743442384818,624.1016242163823 L 730.8671267940854,576.3007833581871 A 218.6054587751376,218.6054587751376 0 0 0 739.874934211404,574.5206948962207 Z "/><path class="wedge" fill="rgb(226,197,168)" d=" M 746.5507297646927,572.9449597135002 L 758.4400033260607,620.0007443322995 A 267.14,267.14 0 0,1 750.2820550566171,621.9263224906424 L 739.874934211404,574.5206948962207 A 218.6054587751376,218.6054587751376 0 0 0 746.5507297646927,572.9449597135002 Z "/><path class="wedge" fill="url(#hiddenPattern)" d=" M 746.5507297646927,572.9449597135002 L 758.4400033260607,620.0007443322995 A 267.14,267.14 0 0,1 750.2820550566171,621.9263224906424 L 739.874934211404,574.5206948962207 A 218.6054587751376,218.6054587751376 0 0 0 746.5507297646927,572.9449597135002 Z "/><path class="wedge" fill="rgb(223,191,159)" d=" M 729.1365169648826,566.4610705661162 L 739.2743442384818,624.1016242163823 A 267.14,267.14 0 0,1 739.1745829349985,624.1191507488174 L 729.0586114624905,566.4747573691839 A 208.6147151485911,208.6147151485911 0 0 0 729.1365169648826,566.4610705661162 Z "/><path class="wedge" fill="url(#hiddenPattern)" d=" M 729.1365169648826,566.4610705661162 L 739.2743442384818,624.1016242163823 A 267.14,267.14 0 0,1 739.1745829349985,624.1191507488174 L 729.0586114624905,566.4747573691839 A 208.6147151485911,208.6147151485911 0 0 0 729.1365169648826,566.4610705661162 Z "/><path class="wedge" fill="rgb(219,184,149)" d=" M 726.9767584315892,554.686375637785 L 739.1572935289596,624.1221842682244 A 267.14,267.14 0 0,1 738.8978316884237,624.1675676186203 L 726.7857664646843,554.7197826903941 A 196.64392241109235,196.64392241109235 0 0 0 726.9767584315892,554.686375637785 Z "/><path class="wedge" fill="url(#hiddenPattern)" d=" M 726.9767584315892,554.686375637785 L 739.1572935289596,624.1221842682244 A 267.14,267.14 0 0,1 738.8978316884237,624.1675676186203 L 726.7857664646843,554.7197826903941 A 196.64392241109235,196.64392241109235 0 0 0 726.9767584315892,554.686375637785 Z "/><path class="wedge" fill="rgb(216,178,140)" d=" M 724.2763213128513,540.3354941115736 L 738.8967660445419,624.1677534703912 A 267.14,267.14 0 0,1 738.7519768021464,624.1929638472425 L 724.1776547779715,540.3526737064507 A 182.04237892069787,182.04237892069787 0 0 0 724.2763213128513,540.3354941115736 Z "/><path class="wedge" fill="url(#hiddenPattern)" d=" M 724.2763213128513,540.3354941115736 L 738.8967660445419,624.1677534703912 A 267.14,267.14 0 0,1 738.7519768021464,624.1929638472425 L 724.1776547779715,540.3526737064507 A 182.04237892069787,182.04237892069787 0 0 0 724.2763213128513,540.3354941115736 Z "/><path class="wedge" fill="rgb(213,172,130)" d=" M 721.0598499950843,522.4201735764337 L 738.751153270658,624.193107003973 A 267.14,267.14 0 0,1 738.7440805700204,624.1943363615628 L 721.0555122045639,522.420927559385 A 163.84086065201387,163.84086065201387 0 0 0 721.0598499950843,522.4201735764337 Z "/><path class="wedge" fill="url(#hiddenPattern)" d=" M 721.0598499950843,522.4201735764337 L 738.751153270658,624.193107003973 A 267.14,267.14 0 0,1 738.7440805700204,624.1943363615628 L 721.0555122045639,522.420927559385 A 163.84086065201387,163.84086065201387 0 0 0 721.0598499950843,522.4201735764337 Z "/><path class="wedge" fill="rgb(210,165,121)" d=" M 717.0633417786968,499.45555002810875 L 738.7427726012145,624.1945636876901 A 267.14,267.14 0 0,1 738.5186088443863,624.2334246422208 L 716.945418688595,499.4759931358948 A 140.53107752787105,140.53107752787105 0 0 0 717.0633417786968,499.45555002810875 Z "/><path class="wedge" fill="url(#hiddenPattern)" d=" M 717.0633417786968,499.45555002810875 L 738.7427726012145,624.1945636876901 A 267.14,267.14 0 0,1 738.5186088443863,624.2334246422208 L 716.945418688595,499.4759931358948 A 140.53107752787105,140.53107752787105 0 0 0 717.0633417786968,499.45555002810875 Z "/><path class="wedge" fill="rgb(207,159,111)" d=" M 711.68015634388,469.0313242492616 L 738.5168646267286,624.2337262482755 A 267.14,267.14 0 0,1 738.4855168187487,624.2391448089195 L 711.6672911793105,469.0335480307285 A 109.63446200935587,109.63446200935587 0 0 0 711.68015634388,469.0313242492616 Z "/><path class="wedge" fill="url(#hiddenPattern)" d=" M 711.68015634388,469.0313242492616 L 738.5168646267286,624.2337262482755 A 267.14,267.14 0 0,1 738.4855168187487,624.2391448089195 L 711.6672911793105,469.0335480307285 A 109.63446200935587,109.63446200935587 0 0 0 711.68015634388,469.0313242492616 Z "/><path class="wedge" fill="rgb(188,207,111)" d=" M 704.3433126310701,426.8146297076403 L 738.3732505242806,624.2585188305611 A 267.14,267.14 0 0,1 693.1789769768637,628.1399400449916 L 693.044744244216,427.7849850112479 A 66.785,66.785 0 0 0 704.3433126310701,426.8146297076403 Z "/><path class="wedge" fill="rgb(111,207,149)" d=" M 693.044744244216,427.7849850112479 L 693.1789769768637,628.1399400449916 A 267.14,267.14 0 0,1 693.0470552139526,628.1399958557438 L 693.0117638034882,427.78499896393595 A 66.785,66.785 0 0 0 693.044744244216,427.7849850112479 Z "/><path class="wedge" fill="rgb(111,207,149)" d=" M 693.044744244216,427.7849850112479 L 693.1789769768637,628.1399400449916 A 267.14,267.14 0 0,1 693.0470552139526,628.1399958557438 L 693.0117638034882,427.78499896393595 A 66.785,66.785 0 0 0 693.044744244216,427.7849850112479 Z "/><path class="wedge" fill="rgb(111,207,149)" d=" M 693.044744244216,427.7849850112479 L 693.1789769768637,628.1399400449916 A 267.14,267.14 0 0,1 693.0470552139526,628.1399958557438 L 693.0117638034882,427.78499896393595 A 66.785,66.785 0 0 0 693.044744244216,427.7849850112479 Z "/><path class="wedge" fill="rgb(111,207,149)" d=" M 693.044744244216,427.7849850112479 L 693.1789769768637,628.1399400449916 A 267.14,267.14 0 0,1 693.0470552139526,628.1399958557438 L 693.0117638034882,427.78499896393595 A 66.785,66.785 0 0 0 693.044744244216,427.7849850112479 Z "/><path class="wedge" fill="rgb(111,207,149)" d=" M 693.044744244216,427.7849850112479 L 693.1789769768637,628.1399400449916 A 267.14,267.14 0 0,1 693.0470552139526,628.1399958557438 L 693.0117638034882,427.78499896393595 A 66.785,66.785 0 0 0 693.044744244216,427.7849850112479 Z "/><path class="wedge" fill="rgb(111,207,149)" d=" M 693.044744244216,427.7849850112479 L 693.1789769768637,628.1399400449916 A 267.14,267.14 0 0,1 693.0470552139526,628.1399958557438 L 693.0117638034882,427.78499896393595 A 66.785,66.785 0 0 0 693.044744244216,427.7849850112479 Z "/><path class="wedge" fill="rgb(111,207,149)" d=" M 693.044744244216,427.7849850112479 L 693.1789769768637,628.1399400449916 A 267.14,267.14 0 0,1 693.0470552139526,628.1399958557438 L 693.0117638034882,427.78499896393595 A 66.785,66.785 0 0 0 693.044744244216,427.7849850112479 Z "/><path class="wedge" fill="rgb(111,207,149)" d=" M 693.044744244216,427.7849850112479 L 693.1789769768637,628.1399400449916 A 267.14,267.14 0 0,1 693.0470552139526,628.1399958557438 L 693.0117638034882,427.78499896393595 A 66.785,66.785 0 0 0 693.044744244216,427.7849850112479 Z "/><path class="wedge" fill="rgb(111,207,149)" d=" M 693.044744244216,427.7849850112479 L 693.1789769768637,628.1399400449916 A 267.14,267.14 0 0,1 693.0470552139526,628.1399958557438 L 693.0117638034882,427.78499896393595 A 66.785,66.785 0 0 0 693.044744244216,427.7849850112479 Z "/><path class="wedge" fill="rgb(111,207,149)" d=" M 693.044744244216,427.7849850112479 L 693.1789769768637,628.1399400449916 A 267.14,267.14 0 0,1 693.0470552139526,628.1399958557438 L 693.0117638034882,427.78499896393595 A 66.785,66.785 0 0 0 693.044744244216,427.7849850112479 Z "/><path class="wedge" fill="rgb(111,207,149)" d=" M 693.044744244216,427.7849850112479 L 693.1789769768637,628.1399400449916 A 267.14,267.14 0 0,1 693.0470552139526,628.1399958557438 L 693.0117638034882,427.78499896393595 A 66.785,66.785 0 0 0 693.044744244216,427.7849850112479 Z "/><path class="wedge" fill="rgb(111,207,149)" d=" M 693.044744244216,427.7849850112479 L 693.1789769768637,628.1399400449916 A 267.14,267.14 0 0,1 693.0470552139526,628.1399958557438 L 693.0117638034882,427.78499896393595 A 66.785,66.785 0 0 0 693.044744244216,427.7849850112479 Z "/><path class="wedge" fill="rgb(111,207,149)" d=" M 693.044744244216,427.7849850112479 L 693.1789769768637,628.1399400449916 A 267.14,267.14 0 0,1 693.0470552139526,628.1399958557438 L 693.0117638034882,427.78499896393595 A 66.785,66.785 0 0 0 693.044744244216,427.7849850112479 Z "/><path class="wedge" fill="rgb(111,207,149)" d=" M 693.044744244216,427.7849850112479 L 693.1789769768637,628.1399400449916 A 267.14,267.14 0 0,1 693.0470552139526,628.1399958557438 L 693.0117638034882,427.78499896393595 A 66.785,66.785 0 0 0 693.044744244216,427.7849850112479 Z "/><path class="wedge" fill="rgb(111,207,149)" d=" M 693.044744244216,427.7849850112479 L 693.1789769768637,628.1399400449916 A 267.14,267.14 0 0,1 693.0470552139526,628.1399958557438 L 693.0117638034882,427.78499896393595 A 66.785,66.785 0 0 0 693.044744244216,427.7849850112479 Z "/><path class="wedge" fill="rgb(111,207,149)" d=" M 693.044744244216,427.7849850112479 L 693.1789769768637,628.1399400449916 A 267.14,267.14 0 0,1 693.0470552139526,628.1399958557438 L 693.0117638034882,427.78499896393595 A 66.785,66.785 0 0 0 693.044744244216,427.7849850112479 Z "/><path class="wedge" fill="rgb(111,207,149)" d=" M 693.044744244216,427.7849850112479 L 693.1789769768637,628.1399400449916 A 267.14,267.14 0 0,1 693.0470552139526,628.1399958557438 L 693.0117638034882,427.78499896393595 A 66.785,66.785 0 0 0 693.044744244216,427.7849850112479 Z "/><path class="wedge" fill="rgb(111,207,149)" d=" M 693.044744244216,427.7849850112479 L 693.1789769768637,628.1399400449916 A 267.14,267.14 0 0,1 693.0470552139526,628.1399958557438 L 693.0117638034882,427.78499896393595 A 66.785,66.785 0 0 0 693.044744244216,427.7849850112479 Z "/><path class="wedge" fill="rgb(111,207,149)" d=" M 693.044744244216,427.7849850112479 L 693.1789769768637,628.1399400449916 A 267.14,267.14 0 0,1 693.0470552139526,628.1399958557438 L 693.0117638034882,427.78499896393595 A 66.785,66.785 0 0 0 693.044744244216,427.7849850112479 Z "/><path class="wedge" fill="rgb(111,207,149)" d=" M 693.044744244216,427.7849850112479 L 693.1789769768637,628.1399400449916 A 267.14,267.14 0 0,1 693.0470552139526,628.1399958557438 L 693.0117638034882,427.78499896393595 A 66.785,66.785 0 0 0 693.044744244216,427.7849850112479 Z "/><path class="wedge" fill="rgb(111,207,149)" d=" M 693.044744244216,427.7849850112479 L 693.1789769768637,628.1399400449916 A 267.14,267.14 0 0,1 693.0470552139526,628.1399958557438 L 693.0117638034882,427.78499896393595 A 66.785,66.785 0 0 0 693.044744244216,427.7849850112479 Z "/><path class="wedge" fill="rgb(111,207,149)" d=" M 693.044744244216,427.7849850112479 L 693.1789769768637,628.1399400449916 A 267.14,267.14 0 0,1 693.0470552139526,628.1399958557438 L 693.0117638034882,427.78499896393595 A 66.785,66.785 0 0 0 693.044744244216,427.7849850112479 Z "/><path class="wedge" fill="rgb(111,207,149)" d=" M 693.044744244216,427.7849850112479 L 693.1789769768637,628.1399400449916 A 267.14,267.14 0 0,1 693.0470552139526,628.1399958557438 L 693.0117638034882,427.78499896393595 A 66.785,66.785 0 0 0 693.044744244216,427.7849850112479 Z "/><path class="wedge" fill="rgb(111,207,149)" d=" M 693.044744244216,427.7849850112479 L 693.1789769768637,628.1399400449916 A 267.14,267.14 0 0,1 693.0470552139526,628.1399958557438 L 693.0117638034882,427.78499896393595 A 66.785,66.785 0 0 0 693.044744244216,427.7849850112479 Z "/><path class="wedge" fill="rgb(111,207,149)" d=" M 693.044744244216,427.7849850112479 L 693.1789769768637,628.1399400449916 A 267.14,267.14 0 0,1 693.0470552139526,628.1399958557438 L 693.0117638034882,427.78499896393595 A 66.785,66.785 0 0 0 693.044744244216,427.7849850112479 Z "/><path class="wedge" fill="rgb(111,207,149)" d=" M 693.044744244216,427.7849850112479 L 693.1789769768637,628.1399400449916 A 267.14,267.14 0 0,1 693.0470552139526,628.1399958557438 L 693.0117638034882,427.78499896393595 A 66.785,66.785 0 0 0 693.044744244216,427.7849850112479 Z "/><path class="wedge" fill="rgb(111,207,149)" d=" M 693.044744244216,427.7849850112479 L 693.1789769768637,628.1399400449916 A 267.14,267.14 0 0,1 693.0470552139526,628.1399958557438 L 693.0117638034882,427.78499896393595 A 66.785,66.785 0 0 0 693.044744244216,427.7849850112479 Z "/><path class="wedge" fill="rgb(111,207,149)" d=" M 693.044744244216,427.7849850112479 L 693.1789769768637,628.1399400449916 A 267.14,267.14 0 0,1 693.0470552139526,628.1399958557438 L 693.0117638034882,427.78499896393595 A 66.785,66.785 0 0 0 693.044744244216,427.7849850112479 Z "/><path class="wedge" fill="rgb(111,207,149)" d=" M 693.044744244216,427.7849850112479 L 693.1789769768637,628.1399400449916 A 267.14,267.14 0 0,1 693.0470552139526,628.1399958557438 L 693.0117638034882,427.78499896393595 A 66.785,66.785 0 0 0 693.044744244216,427.7849850112479 Z "/><path class="wedge" fill="rgb(111,207,149)" d=" M 693.044744244216,427.7849850112479 L 693.1789769768637,628.1399400449916 A 267.14,267.14 0 0,1 693.0470552139526,628.1399958557438 L 693.0117638034882,427.78499896393595 A 66.785,66.785 0 0 0 693.044744244216,427.7849850112479 Z "/><path class="wedge" fill="rgb(101,142,204)" d=" M 693.0117638034882,427.78499896393595 L 693.0470552139526,628.1399958557438 A 267.14,267.14 0 0,1 693.0442525523329,628.1399963347151 L 693.0110631380832,427.78499908367877 A 66.785,66.785 0 0 0 693.0117638034882,427.78499896393595 Z "/><path class="wedge" fill="url(#hiddenPattern)" d=" M 693.0117638034882,427.78499896393595 L 693.0470552139526,628.1399958557438 A 267.14,267.14 0 0,1 693.0442525523329,628.1399963347151 L 693.0110631380832,427.78499908367877 A 66.785,66.785 0 0 0 693.0117638034882,427.78499896393595 Z "/><path class="wedge" fill="rgb(183,101,204)" d=" M 693.0110631380832,427.78499908367877 L 693.0442525523329,628.1399963347151 A 267.14,267.14 0 0,1 693.0427774672678,628.1399965749949 L 693.010694366817,427.78499914374873 A 66.785,66.785 0 0 0 693.0110631380832,427.78499908367877 Z "/><path class="wedge" fill="url(#hiddenPattern)" d=" M 693.0110631380832,427.78499908367877 L 693.0442525523329,628.1399963347151 A 267.14,267.14 0 0,1 693.0427774672678,628.1399965749949 L 693.010694366817,427.78499914374873 A 66.785,66.785 0 0 0 693.0110631380832,427.78499908367877 Z "/><circle cx="693" cy="361" r="66.785"/><circle cx="693" cy="361" r="267.14"/><text x="693" y="361" text-anchor="middle" style="font-color:black;font-weight:bold" transform="rotate(360,693,361)">Root</text><path class="line" d=" M 704.3433126310701,426.8146297076403 A 66.785,66.785 0 1 0 693,427.78499999999997"/><line x1="738.3732505242806" y1="624.2585188305611" x2="704.3433126310701" y2="426.8146297076403"/><text x="693" y="281.3601613971932" text-anchor="middle" style="font-color:black;font-weight:normal" transform="rotate(355.1105031392357,693,361)">Bacteria</text><path class="line" d=" M 719.8566278301382,467.2941052066122 A 109.63446200935587,109.63446200935587 0 1 0 693,470.63446200935584"/><line x1="758.4400033260607" y1="620.0007443322995" x2="719.8566278301382" y2="467.2941052066122"/><text x="693" y="242.0965533350896" text-anchor="middle" style="font-color:black;font-weight:normal" transform="rotate(352.9101114389325,693,361)">Proteobacteria</text><path class="line" d=" M 729.5627608928288,496.6913713801962 A 140.53107752787105,140.53107752787105 0 1 0 693,501.53107752787105"/><line x1="762.5033163961414" y1="618.9400484801417" x2="729.5627608928288" y2="496.6913713801962"/><text x="693" y="208.81403091005754" text-anchor="middle" style="font-color:black;font-weight:normal" transform="rotate(352.4597583260042,693,361)">Gammaproteobacteria</text><path class="line" d=" M 738.2050207267487,518.481217039642 A 163.84086065201387,163.84086065201387 0 1 0 693,524.8408606520138"/><line x1="766.7060900979538" y1="617.7706990341233" x2="738.2050207267487" y2="518.481217039642"/><text x="693" y="188.0583802136441" text-anchor="middle" style="font-color:black;font-weight:normal" transform="rotate(351.99193082259904,693,361)">Enterobacterales</text><path class="line" d=" M 750.9549740108952,533.5707064090062 A 182.04237892069787,182.04237892069787 0 1 0 693,543.0423789206978"/><line x1="778.0466350146683" y1="614.2406947405606" x2="750.9549740108952" y2="533.5707064090062"/><text x="693" y="171.65684933410492" text-anchor="middle" style="font-color:black;font-weight:normal" transform="rotate(350.7181194682703,693,361)">Erwiniaceae</text><path class="line" d=" M 825.2593238803921,506.5208008084111 A 196.64392241109235,196.64392241109235 0 1 0 693,557.6439224110924"/><line x1="872.6737745474047" y1="558.6894391207795" x2="825.2593238803921" y2="506.5208008084111"/><line x1="889.4284574308566" y1="542.0514863549431" x2="846.3947244666292" y2="502.38655481457465"/><path class="line" d=" M 846.3947244666292,502.38655481457465 A 208.6147151485911,208.6147151485911 0 1 0 693,569.6147151485911"/><text x="455.1226424257045" y="361" text-anchor="end" style="font-color:black;font-weight:normal" transform="rotate(66.33364836957686,693,361)">Pantoea agglomerans&#160;&#160;&#160;87%</text><path class="line" d=" M 840.1964860527661,508.8285962533828 A 208.6147151485911,208.6147151485911 0 0 0 846.3947244666292,502.38655481457465"/><line x1="881.4913499804067" y1="550.3007939300938" x2="840.1964860527661" y2="508.8285962533828"/><path class="line" d=" M 757.317037516355,546.8282833864089 A 196.64392241109235,196.64392241109235 0 0 0 825.2593238803921,506.5208008084111"/><line x1="780.3744440786738" y1="613.446996658591" x2="757.317037516355" y2="546.8282833864089"/><path class="line" d=" M 763.4094857006955,557.3736329039399 A 208.6147151485911,208.6147151485911 0 0 0 833.3106734179794,515.3794490906123"/><line x1="783.162335848104" y1="612.4647744603878" x2="763.4094857006955" y2="557.3736329039399"/><text x="930.8773575742955" y="361" text-anchor="start" style="font-color:black;font-weight:normal" transform="rotate(419.00402741169773,693,361)">6%&#160;&#160;&#160;Erwinia persicina</text><path class="line" d=" M 761.5393691965797,558.0341448751021 A 208.6147151485911,208.6147151485911 0 0 0 763.4094857006955,557.3736329039399"/><line x1="780.7675722641752" y1="613.3105880831258" x2="761.5393691965797" y2="558.0341448751021"/><path class="line" d=" M 757.1987492946589,546.8691819808255 A 196.64392241109235,196.64392241109235 0 0 0 757.317037516355,546.8282833864089"/><line x1="780.2137499918368" y1="613.5025572392512" x2="757.1987492946589" y2="546.8691819808255"/><path class="line" d=" M 745.0303361626384,535.4484790472814 A 182.04237892069787,182.04237892069787 0 0 0 750.9549740108952,533.5707064090062"/><line x1="769.3524630083093" y1="616.9962519111651" x2="745.0303361626384" y2="535.4484790472814"/><path class="line" d=" M 735.9638454204287,519.1073546862452 A 163.84086065201387,163.84086065201387 0 0 0 738.2050207267487,518.481217039642"/><line x1="763.0518882770666" y1="618.7916068238401" x2="735.9638454204287" y2="519.1073546862452"/><path class="line" d=" M 727.4569460309845,497.24133961967027 A 140.53107752787105,140.53107752787105 0 0 0 729.5627608928288,496.6913713801962"/><line x1="758.500305872853" y1="619.9855006183989" x2="727.4569460309845" y2="497.24133961967027"/><path class="line" d=" M 711.68015634388,469.0313242492616 A 109.63446200935587,109.63446200935587 0 0 0 719.8566278301382,467.2941052066122"/><line x1="738.5168646267286" y1="624.2337262482755" x2="711.68015634388" y2="469.0313242492616"/><text x="693" y="492.2620928723165" text-anchor="middle" style="font-color:black;font-weight:normal" transform="rotate(348.00498570267825,693,361)">Terrabacteria group</text><path class="line" d=" M 717.0633417786968,499.45555002810875 A 140.53107752787105,140.53107752787105 0 0 0 727.4252234065987,497.2493586940881"/><line x1="738.7427726012145" y1="624.1945636876901" x2="717.0633417786968" y2="499.45555002810875"/><text x="693" y="513.1859690899424" text-anchor="middle" style="font-color:black;font-weight:normal" transform="rotate(347.9803981701514,693,361)">Firmicutes</text><path class="line" d=" M 721.0598499950843,522.4201735764337 A 163.84086065201387,163.84086065201387 0 0 0 733.1353090739403,519.8489363663853"/><line x1="738.751153270658" y1="624.193107003973" x2="721.0598499950843" y2="522.4201735764337"/><text x="693" y="533.9416197863559" text-anchor="middle" style="font-color:black;font-weight:normal" transform="rotate(347.97948595845776,693,361)">Ba...li</text><path class="line" d=" M 724.2763213128513,540.3354941115736 A 182.04237892069787,182.04237892069787 0 0 0 737.5940476231731,537.4958884498137"/><line x1="738.8967660445419" y1="624.1677534703912" x2="724.2763213128513" y2="540.3354941115736"/><text x="693" y="550.3431506658951" text-anchor="middle" style="font-color:black;font-weight:normal" transform="rotate(347.96363562116943,693,361)">Bac...les</text><path class="line" d=" M 726.9767584315892,554.686375637785 A 196.64392241109235,196.64392241109235 0 0 0 741.1709176335686,551.6525502466717"/><line x1="739.1572935289596" y1="624.1221842682244" x2="726.9767584315892" y2="554.686375637785"/><path class="line" d=" M 729.1365169648826,566.4610705661162 A 208.6147151485911,208.6147151485911 0 0 0 744.1033452616193,563.258615340854"/><line x1="739.2743442384818" y1="624.1016242163823" x2="729.1365169648826" y2="566.4610705661162"/><path class="line" d=" M 739.874934211404,574.5206948962207 A 218.6054587751376,218.6054587751376 0 0 0 746.5507297646927,572.9449597135002"/><line x1="750.2820550566171" y1="621.9263224906424" x2="739.874934211404" y2="574.5206948962207"/><path class="line" d=" M 729.0586114624905,566.4747573691839 A 208.6147151485911,208.6147151485911 0 0 0 729.1365169648826,566.4610705661162"/><line x1="739.1745829349985" y1="624.1191507488174" x2="729.0586114624905" y2="566.4747573691839"/><path class="line" d=" M 726.7857664646843,554.7197826903941 A 196.64392241109235,196.64392241109235 0 0 0 726.9767584315892,554.686375637785"/><line x1="738.8978316884237" y1="624.1675676186203" x2="726.7857664646843" y2="554.7197826903941"/><path class="line" d=" M 724.1776547779715,540.3526737064507 A 182.04237892069787,182.04237892069787 0 0 0 724.2763213128513,540.3354941115736"/><line x1="738.7519768021464" y1="624.1929638472425" x2="724.1776547779715" y2="540.3526737064507"/><path class="line" d=" M 721.0555122045639,522.420927559385 A 163.84086065201387,163.84086065201387 0 0 0 721.0598499950843,522.4201735764337"/><line x1="738.7440805700204" y1="624.1943363615628" x2="721.0555122045639" y2="522.420927559385"/><path class="line" d=" M 716.945418688595,499.4759931358948 A 140.53107752787105,140.53107752787105 0 0 0 717.0633417786968,499.45555002810875"/><line x1="738.5186088443863" y1="624.2334246422208" x2="716.945418688595" y2="499.4759931358948"/><path class="line" d=" M 711.6672911793105,469.0335480307285 A 109.63446200935587,109.63446200935587 0 0 0 711.68015634388,469.0313242492616"/><line x1="738.4855168187487" y1="624.2391448089195" x2="711.6672911793105" y2="469.0335480307285"/><path class="line" d=" M 693.044744244216,427.7849850112479 A 66.785,66.785 0 0 0 704.3433126310701,426.8146297076403"/><line x1="693.1789769768637" y1="628.1399400449916" x2="693.044744244216" y2="427.7849850112479"/><text x="859.9625" y="361" text-anchor="start" style="font-color:black;font-weight:normal" transform="rotate(445.09130978337083,693,361)">3%&#160;&#160;&#160;No hits</text><line x1="693.0470552139526" y1="628.1399958557438" x2="693.0117638034882" y2="427.78499896393595"/><path class="line" d=" M 693.0117638034882,427.78499896393595 A 66.785,66.785 0 0 0 693.044744244216,427.7849850112479"/><path class="line" d=" M 693.0110631380832,427.78499908367877 A 66.785,66.785 0 0 0 693.0117638034882,427.78499896393595"/><line x1="693.0442525523329" y1="628.1399963347151" x2="693.0110631380832" y2="427.78499908367877"/><path class="line" d=" M 693.010694366817,427.78499914374873 A 66.785,66.785 0 0 0 693.0110631380832,427.78499908367877"/><line x1="693.0427774672678" y1="628.1399965749949" x2="693.010694366817" y2="427.78499914374873"/></svg>