<?xml version="1.0" standalone="no"?><!DOCTYPE svg PUBLIC "-//W3C//DTD SVG 1.1//EN" 	"http://www.w3.org/Graphics/SVG/1.1/DTD/svg11.dtd"><svg width="1536" height="722" version="1.1"	xmlns="http://www.w3.org/2000/svg"><title>Krona (snapshot) - Root</title><defs>	<style type="text/css">	text {font-size: 12px; font-family: sans-serif; dominant-baseline:central}	path {stroke-width:0.3;}	path.wedge {stroke:none}	path.line {fill:none;stroke:black;}	line {stroke:black;stroke-width:0.3;}	line.tick {stroke-width:0.6;}	line.pattern {stroke-width:0.19999999999999998;}	circle {fill:none;stroke:black;stroke-width:0.3;}	rect {stroke:black;stroke-width:0.3;}	.highlight {stroke:black;stroke-width:1.5;}	.searchHighlight {fill:rgb(255, 255, 100);stroke:none;}	</style><pattern id="hiddenPattern" patternUnits="userSpaceOnUse" x="0" y="0" width="7.199999999999999" height="7.199999999999999"><line class="pattern" x1="0" y1="0" x2="3.5999999999999996" y2="3.5999999999999996"/><line class="pattern" x1="3.5999999999999996" y1="7.199999999999999" x2="7.199999999999999" y2="3.5999999999999996"/></pattern></defs><path class="wedge" fill="rgb(220,220,220)" d=" M 693.0160744610143,427.78499806552145 L 693.0642978440575,628.1399922620858 A 267.14,267.14 0 0,1 693.0000000000001,628.14 L 693,427.78499999999997 A 66.785,66.785 0 0 0 693.0160744610143,427.78499806552145 Z "/><path class="wedge" fill="rgb(207,111,111)" d=" M 693,427.78499999999997 L 693,628.14 A 267.14,267.14 0 1,1 751.4395695589312,621.6695154976255 L 707.6098923897329,426.1673788744064 A 66.785,66.785 0 1 0 693,427.78499999999997 Z "/><path class="wedge" fill="rgb(207,111,111)" d=" M 717.692144674827,470.3742825862761 L 751.8285335935112,621.5820086560796 A 267.14,267.14 0 0,1 751.4395695589312,621.6695154976255 L 717.5288845078896,470.41101189872876 A 112.12687322807658,112.12687322807658 0 0 0 717.692144674827,470.3742825862761 Z "/><path class="wedge" fill="rgb(210,121,121)" d=" M 693,473.1268732280766 L 693,628.14 A 267.14,267.14 0 1,1 801.3554429319287,605.1779629430664 L 738.4801116014092,463.4890001347877 A 112.12687322807658,112.12687322807658 0 1 0 693,473.1268732280766 Z "/><path class="wedge" fill="rgb(210,121,121)" d=" M 751.1962993090965,491.4634366444354 L 801.8276374399878,604.9678768387973 A 267.14,267.14 0 0,1 801.3554429319287,605.1779629430664 L 750.9437901710728,491.575781578979 A 142.85488285092165,142.85488285092165 0 0 0 751.1962993090965,491.4634366444354 Z "/><path class="wedge" fill="rgb(213,130,130)" d=" M 693,503.8548828509216 L 693,628.14 A 267.14,267.14 0 1,1 805.4432532308953,603.3227071548449 L 753.1297737803251,490.58367126871144 A 142.85488285092165,142.85488285092165 0 1 0 693,503.8548828509216 Z "/><path class="wedge" fill="rgb(213,130,130)" d=" M 763.0810638519154,510.3900294137478 L 806.4555809069445,602.8503892100812 A 267.14,267.14 0 0,1 805.4432532308953,603.3227071548449 L 762.4557530480117,510.68177834122054 A 165.01132203232805,165.01132203232805 0 0 0 763.0810638519154,510.3900294137478 Z "/><path class="wedge" fill="rgb(216,140,140)" d=" M 693,526.011322032328 L 693,628.14 A 267.14,267.14 0 1,1 806.1562331565019,119.00940824521427 L 762.8961579297475,211.5233680285896 A 165.01132203232805,165.01132203232805 0 1 0 693,526.011322032328 Z "/><path class="wedge" fill="rgb(216,140,140)" d=" M 766.7059483697187,194.89105448622283 L 801.3481998380922,116.81882301896235 A 267.14,267.14 0 0,1 806.1562331565019,119.00940824521427 L 769.9767055770941,196.38124224962698 A 181.72712677192317,181.72712677192317 0 0 0 766.7059483697187,194.89105448622283 Z "/><path class="wedge" fill="rgb(219,149,149)" d=" M 693,542.7271267719232 L 693,628.14 A 267.14,267.14 0 1,1 787.8826725957631,111.27803852867643 L 757.5457642856522,191.12182919056477 A 181.72712677192317,181.72712677192317 0 1 0 693,542.7271267719232 Z "/><path class="wedge" fill="rgb(219,149,149)" d=" M 760.194261988587,178.1774933401775 L 785.1567990312409,110.259289319992 A 267.14,267.14 0 0,1 787.8826725957631,111.27803852867643 L 762.1817774445024,178.92029367556896 A 194.77971605270326,194.77971605270326 0 0 0 760.194261988587,178.1774933401775 Z "/><path class="wedge" fill="rgb(223,159,159)" d=" M 693,555.7797160527033 L 693,628.14 A 267.14,267.14 0 0,1 555.9878897933029,131.67171727693975 L 593.1003970882603,193.78993115350852 A 194.77971605270326,194.77971605270326 0 0 0 693,555.7797160527033 Z "/><path class="wedge" fill="rgb(223,159,159)" d=" M 574.651903385288,193.3050950813062 L 538.9663752312481,142.74001273572998 A 267.14,267.14 0 0,1 555.9878897933029,131.67171727693975 L 587.7299819732787,184.80103174913683 A 205.2507079354781,205.2507079354781 0 0 0 574.651903385288,193.3050950813062 Z "/><path class="wedge" fill="rgb(226,168,168)" d=" M 693,566.2507079354781 L 693,628.14 A 267.14,267.14 0 0,1 530.8974845989752,148.6640536775261 L 568.452361891959,197.8566919860843 A 205.2507079354781,205.2507079354781 0 0 0 693,566.2507079354781 Z "/><path class="wedge" fill="rgb(226,168,168)" d=" M 693,566.2507079354781 L 693,628.14 A 267.14,267.14 0 0,1 530.8974845989752,148.6640536775261 L 568.452361891959,197.8566919860843 A 205.2507079354781,205.2507079354781 0 0 0 693,566.2507079354781 Z "/><path class="wedge" fill="rgb(226,180,168)" d=" M 568.452361891959,197.8566919860843 L 530.8974845989752,148.6640536775261 A 267.14,267.14 0 0,1 538.9663752312481,142.74001273572998 L 574.651903385288,193.3050950813062 A 205.2507079354781,205.2507079354781 0 0 0 568.452361891959,197.8566919860843 Z "/><path class="wedge" fill="url(#hiddenPattern)" d=" M 568.452361891959,197.8566919860843 L 530.8974845989752,148.6640536775261 A 267.14,267.14 0 0,1 538.9663752312481,142.74001273572998 L 574.651903385288,193.3050950813062 A 205.2507079354781,205.2507079354781 0 0 0 568.452361891959,197.8566919860843 Z "/><path class="wedge" fill="rgb(223,172,159)" d=" M 593.1003970882603,193.78993115350852 L 555.9878897933029,131.67171727693975 A 267.14,267.14 0 0,1 784.7302245545171,110.102918504065 L 759.8832338555796,178.0634787293922 A 194.77971605270326,194.77971605270326 0 0 0 593.1003970882603,193.78993115350852 Z "/><path class="wedge" fill="rgb(223,172,159)" d=" M 761.2104336392148,167.41490281851446 L 781.7779410149852,109.04314498482128 A 267.14,267.14 0 0,1 784.7302245545171,110.102918504065 L 763.4787509504193,168.22915476534402 A 205.2507079354781,205.2507079354781 0 0 0 761.2104336392148,167.41490281851446 Z "/><path class="wedge" fill="rgb(226,180,168)" d=" M 587.7299819732787,184.80103174913683 L 555.9878897933029,131.67171727693975 A 267.14,267.14 0 0,1 774.5173720425936,106.6013017814962 L 755.6319469970132,165.5387702807069 A 205.2507079354781,205.2507079354781 0 0 0 587.7299819732787,184.80103174913683 Z "/><path class="wedge" fill="rgb(226,184,168)" d=" M 755.6319469970132,165.5387702807069 L 774.5173720425936,106.6013017814962 A 267.14,267.14 0 0,1 781.7779410149852,109.04314498482128 L 761.2104336392148,167.41490281851446 A 205.2507079354781,205.2507079354781 0 0 0 755.6319469970132,165.5387702807069 Z "/><path class="wedge" fill="url(#hiddenPattern)" d=" M 755.6319469970132,165.5387702807069 L 774.5173720425936,106.6013017814962 A 267.14,267.14 0 0,1 781.7779410149852,109.04314498482128 L 761.2104336392148,167.41490281851446 A 205.2507079354781,205.2507079354781 0 0 0 755.6319469970132,165.5387702807069 Z "/><path class="wedge" fill="rgb(219,169,149)" d=" M 759.8832338555796,178.0634787293922 L 784.7302245545171,110.102918504065 A 267.14,267.14 0 0,1 785.1567990312409,110.259289319992 L 760.194261988587,178.1774933401775 A 194.77971605270326,194.77971605270326 0 0 0 759.8832338555796,178.0634787293922 Z "/><path class="wedge" fill="url(#hiddenPattern)" d=" M 759.8832338555796,178.0634787293922 L 784.7302245545171,110.102918504065 A 267.14,267.14 0 0,1 785.1567990312409,110.259289319992 L 760.194261988587,178.1774933401775 A 194.77971605270326,194.77971605270326 0 0 0 759.8832338555796,178.0634787293922 Z "/><path class="wedge" fill="rgb(216,161,140)" d=" M 757.5457642856522,191.12182919056477 L 787.8826725957631,111.27803852867643 A 267.14,267.14 0 0,1 801.3481998380922,116.81882301896235 L 766.7059483697187,194.89105448622283 A 181.72712677192317,181.72712677192317 0 0 0 757.5457642856522,191.12182919056477 Z "/><path class="wedge" fill="url(#hiddenPattern)" d=" M 757.5457642856522,191.12182919056477 L 787.8826725957631,111.27803852867643 A 267.14,267.14 0 0,1 801.3481998380922,116.81882301896235 L 766.7059483697187,194.89105448622283 A 181.72712677192317,181.72712677192317 0 0 0 757.5457642856522,191.12182919056477 Z "/><path class="wedge" fill="rgb(216,162,140)" d=" M 762.8961579297475,211.5233680285896 L 806.1562331565019,119.00940824521427 A 267.14,267.14 0 0,1 807.4483355992402,602.3821826037781 L 763.6942845011237,510.1008200437907 A 165.01132203232805,165.01132203232805 0 0 0 762.8961579297475,211.5233680285896 Z "/><path class="wedge" fill="rgb(216,162,140)" d=" M 770.9187440543515,525.1749613362863 L 807.5410355428312,602.3382082820204 A 267.14,267.14 0 0,1 807.4483355992402,602.3821826037781 L 770.8556831334834,525.2048757150569 A 181.72712677192317,181.72712677192317 0 0 0 770.9187440543515,525.1749613362863 Z "/><path class="wedge" fill="rgb(219,170,149)" d=" M 769.9767055770941,196.38124224962698 L 806.1562331565019,119.00940824521427 A 267.14,267.14 0 0,1 807.5435579958855,602.3370110895617 L 770.9204600015926,525.1741469230733 A 181.72712677192317,181.72712677192317 0 0 0 769.9767055770941,196.38124224962698 Z "/><path class="wedge" fill="rgb(219,170,149)" d=" M 776.5987801277504,536.9272058174168 L 807.655563607478,602.2838190468883 A 267.14,267.14 0 0,1 807.5435579958855,602.3370110895617 L 776.5171135064196,536.9659897171255 A 194.77971605270326,194.77971605270326 0 0 0 776.5987801277504,536.9272058174168 Z "/><path class="wedge" fill="rgb(223,177,159)" d=" M 775.5055737209588,184.5574651889541 L 806.1562331565019,119.00940824521427 A 267.14,267.14 0 0,1 807.6673914929283,602.2781982032515 L 776.6074041906743,536.923107493214 A 194.77971605270326,194.77971605270326 0 0 0 775.5055737209588,184.5574651889541 Z "/><path class="wedge" fill="rgb(223,177,159)" d=" M 865.8042473700074,250.24556352497555 L 917.9099508925221,216.84975341844435 A 267.14,267.14 0 0,1 807.6673914929283,602.2781982032515 L 781.1019812871084,546.3804034985924 A 205.2507079354781,205.2507079354781 0 0 0 865.8042473700074,250.24556352497555 Z "/><path class="wedge" fill="rgb(226,185,168)" d=" M 779.9409184797636,175.07224574606934 L 806.1562331565019,119.00940824521427 A 267.14,267.14 0 0,1 912.760455316007,209.1147739926582 L 861.8477540983508,244.30257481864567 A 205.2507079354781,205.2507079354781 0 0 0 779.9409184797636,175.07224574606934 Z "/><path class="wedge" fill="rgb(226,185,168)" d=" M 867.0354753241468,236.75377748557875 L 910.4190601178178,205.781663784575 A 267.14,267.14 0 0,1 912.760455316007,209.1147739926582 L 868.9096708340423,239.42180217052214 A 213.83514790699118,213.83514790699118 0 0 0 867.0354753241468,236.75377748557875 Z "/><path class="wedge" fill="rgb(229,193,178)" d=" M 783.5771500098023,167.29597222435828 L 806.1562331565019,119.00940824521427 A 267.14,267.14 0 0,1 909.4438783160313,204.42469179492244 L 866.2548803371691,235.6675743482238 A 213.83514790699118,213.83514790699118 0 0 0 783.5771500098023,167.29597222435828 Z "/><path class="wedge" fill="rgb(229,193,178)" d=" M 859.4992674346979,215.67675514463602 L 894.2610040601895,185.33615100230676 A 267.14,267.14 0 0,1 909.4438783160313,204.42469179492244 L 872.0597604768313,231.4683292412125 A 220.99966414359804,220.99966414359804 0 0 0 859.4992674346979,215.67675514463602 Z "/><path class="wedge" fill="rgb(229,193,178)" d=" M 786.6119245464611,160.80594630636298 L 806.1562331565019,119.00940824521427 A 267.14,267.14 0 0,1 894.1514753440889,185.21074103661397 L 859.4086564836149,215.57300594834058 A 220.99966414359804,220.99966414359804 0 0 0 786.6119245464611,160.80594630636298 Z "/><path class="wedge" fill="rgb(229,194,178)" d=" M 859.4086564836149,215.57300594834058 L 894.1514753440889,185.21074103661397 A 267.14,267.14 0 0,1 894.2610040601895,185.33615100230676 L 859.4992674346979,215.67675514463602 A 220.99966414359804,220.99966414359804 0 0 0 859.4086564836149,215.57300594834058 Z "/><path class="wedge" fill="url(#hiddenPattern)" d=" M 859.4086564836149,215.57300594834058 L 894.1514753440889,185.21074103661397 A 267.14,267.14 0 0,1 894.2610040601895,185.33615100230676 L 859.4992674346979,215.67675514463602 A 220.99966414359804,220.99966414359804 0 0 0 859.4086564836149,215.57300594834058 Z "/><path class="wedge" fill="rgb(226,187,168)" d=" M 866.2548803371691,235.6675743482238 L 909.4438783160313,204.42469179492244 A 267.14,267.14 0 0,1 910.4190601178178,205.781663784575 L 867.0354753241468,236.75377748557875 A 213.83514790699118,213.83514790699118 0 0 0 866.2548803371691,235.6675743482238 Z "/><path class="wedge" fill="url(#hiddenPattern)" d=" M 866.2548803371691,235.6675743482238 L 909.4438783160313,204.42469179492244 A 267.14,267.14 0 0,1 910.4190601178178,205.781663784575 L 867.0354753241468,236.75377748557875 A 213.83514790699118,213.83514790699118 0 0 0 866.2548803371691,235.6675743482238 Z "/><path class="wedge" fill="rgb(223,180,159)" d=" M 861.8477540983508,244.30257481864567 L 912.760455316007,209.1147739926582 A 267.14,267.14 0 0,1 917.9099508925221,216.84975341844435 L 865.8042473700074,250.24556352497555 A 205.2507079354781,205.2507079354781 0 0 0 861.8477540983508,244.30257481864567 Z "/><path class="wedge" fill="url(#hiddenPattern)" d=" M 861.8477540983508,244.30257481864567 L 912.760455316007,209.1147739926582 A 267.14,267.14 0 0,1 917.9099508925221,216.84975341844435 L 865.8042473700074,250.24556352497555 A 205.2507079354781,205.2507079354781 0 0 0 861.8477540983508,244.30257481864567 Z "/><path class="wedge" fill="rgb(219,182,149)" d=" M 776.6074041906743,536.923107493214 L 807.6673914929283,602.2781982032515 A 267.14,267.14 0 0,1 807.655563607478,602.2838190468883 L 776.5987801277504,536.9272058174168 A 194.77971605270326,194.77971605270326 0 0 0 776.6074041906743,536.923107493214 Z "/><path class="wedge" fill="url(#hiddenPattern)" d=" M 776.6074041906743,536.923107493214 L 807.6673914929283,602.2781982032515 A 267.14,267.14 0 0,1 807.655563607478,602.2838190468883 L 776.5987801277504,536.9272058174168 A 194.77971605270326,194.77971605270326 0 0 0 776.6074041906743,536.923107493214 Z "/><path class="wedge" fill="rgb(216,176,140)" d=" M 770.9204600015926,525.1741469230733 L 807.5435579958855,602.3370110895617 A 267.14,267.14 0 0,1 807.5410355428312,602.3382082820204 L 770.9187440543515,525.1749613362863 A 181.72712677192317,181.72712677192317 0 0 0 770.9204600015926,525.1741469230733 Z "/><path class="wedge" fill="url(#hiddenPattern)" d=" M 770.9204600015926,525.1741469230733 L 807.5435579958855,602.3370110895617 A 267.14,267.14 0 0,1 807.5410355428312,602.3382082820204 L 770.9187440543515,525.1749613362863 A 181.72712677192317,181.72712677192317 0 0 0 770.9204600015926,525.1741469230733 Z "/><path class="wedge" fill="rgb(213,169,130)" d=" M 763.6942845011237,510.1008200437907 L 807.4483355992402,602.3821826037781 A 267.14,267.14 0 0,1 806.4555809069445,602.8503892100812 L 763.0810638519154,510.3900294137478 A 165.01132203232805,165.01132203232805 0 0 0 763.6942845011237,510.1008200437907 Z "/><path class="wedge" fill="url(#hiddenPattern)" d=" M 763.6942845011237,510.1008200437907 L 807.4483355992402,602.3821826037781 A 267.14,267.14 0 0,1 806.4555809069445,602.8503892100812 L 763.0810638519154,510.3900294137478 A 165.01132203232805,165.01132203232805 0 0 0 763.6942845011237,510.1008200437907 Z "/><path class="wedge" fill="rgb(210,163,121)" d=" M 753.1297737803251,490.58367126871144 L 805.4432532308953,603.3227071548449 A 267.14,267.14 0 0,1 801.8276374399878,604.9678768387973 L 751.1962993090965,491.4634366444354 A 142.85488285092165,142.85488285092165 0 0 0 753.1297737803251,490.58367126871144 Z "/><path class="wedge" fill="url(#hiddenPattern)" d=" M 753.1297737803251,490.58367126871144 L 805.4432532308953,603.3227071548449 A 267.14,267.14 0 0,1 801.8276374399878,604.9678768387973 L 751.1962993090965,491.4634366444354 A 142.85488285092165,142.85488285092165 0 0 0 753.1297737803251,490.58367126871144 Z "/><path class="wedge" fill="rgb(210,164,121)" d=" M 738.4801116014092,463.4890001347877 L 801.3554429319287,605.1779629430664 A 267.14,267.14 0 0,1 752.1002472781429,621.5205181394786 L 717.8061912641473,470.34847312547026 A 112.12687322807658,112.12687322807658 0 0 0 738.4801116014092,463.4890001347877 Z "/><path class="wedge" fill="rgb(210,164,121)" d=" M 724.6141129381396,500.3128329246273 L 752.1186941723786,621.5163326921227 A 267.14,267.14 0 0,1 752.1002472781429,621.5205181394786 L 724.6042483393711,500.31507112029874 A 142.85488285092165,142.85488285092165 0 0 0 724.6141129381396,500.3128329246273 Z "/><path class="wedge" fill="rgb(213,170,130)" d=" M 750.9437901710728,491.575781578979 L 801.3554429319287,605.1779629430664 A 267.14,267.14 0 0,1 753.518634968316,621.1946856136221 L 725.3627405431477,500.14083002083703 A 142.85488285092165,142.85488285092165 0 0 0 750.9437901710728,491.575781578979 Z "/><path class="wedge" fill="rgb(213,170,130)" d=" M 730.3853866571471,521.7204693352787 L 753.5239208351634,621.19345611821 A 267.14,267.14 0 0,1 753.518634968316,621.1946856136221 L 730.3821215980897,521.7212287897348 A 165.01132203232805,165.01132203232805 0 0 0 730.3853866571471,521.7204693352787 Z "/><path class="wedge" fill="rgb(216,177,140)" d=" M 759.9307287848919,511.827762508034 L 801.3554429319287,605.1779629430664 A 267.14,267.14 0 0,1 753.6443398998521,621.1654159147814 L 730.4597690374053,521.70314901246 A 165.01132203232805,165.01132203232805 0 0 0 759.9307287848919,511.827762508034 Z "/><path class="wedge" fill="rgb(216,177,140)" d=" M 734.2580748757655,537.9816935796591 L 753.6496251720569,621.1641838656678 A 267.14,267.14 0 0,1 753.6443398998521,621.1654159147814 L 734.2544794676201,537.9825317047826 A 181.72712677192317,181.72712677192317 0 0 0 734.2580748757655,537.9816935796591 Z "/><path class="wedge" fill="rgb(219,183,149)" d=" M 766.7108756237122,527.1067591025851 L 801.3554429319287,605.1779629430664 A 267.14,267.14 0 0,1 753.763405646965,621.1376330602368 L 734.3354762338092,537.9636318832286 A 181.72712677192317,181.72712677192317 0 0 0 766.7108756237122,527.1067591025851 Z "/><path class="wedge" fill="rgb(219,183,149)" d=" M 737.3138989996582,550.6718643895815 L 753.7764258962447,621.1345914238979 A 267.14,267.14 0 0,1 753.763405646965,621.1376330602368 L 737.3044055488174,550.6740821370638 A 194.77971605270326,194.77971605270326 0 0 0 737.3138989996582,550.6718643895815 Z "/><path class="wedge" fill="rgb(223,190,159)" d=" M 772.0051748410795,539.0374121748072 L 801.3554429319287,605.1779629430664 A 267.14,267.14 0 0,1 755.4349050293289,620.7415296674344 L 738.5231454420535,550.3852713772467 A 194.77971605270326,194.77971605270326 0 0 0 772.0051748410795,539.0374121748072 Z "/><path class="wedge" fill="rgb(223,190,159)" d=" M 741.0909734961372,560.5372430806058 L 755.5918555359947,620.7037528041541 A 267.14,267.14 0 0,1 755.4349050293289,620.7415296674344 L 740.9703842822269,560.5662680410455 A 205.2507079354781,205.2507079354781 0 0 0 741.0909734961372,560.5372430806058 Z "/><path class="wedge" fill="rgb(226,196,168)" d=" M 776.2523447272616,548.6083692307678 L 801.3554429319287,605.1779629430664 A 267.14,267.14 0 0,1 756.2042594083941,620.5553913765546 L 741.5614995437243,560.4232530826829 A 205.2507079354781,205.2507079354781 0 0 0 776.2523447272616,548.6083692307678 Z "/><path class="wedge" fill="rgb(226,196,168)" d=" M 769.8555581912558,560.5462193465846 L 789.014121233906,610.2891255624296 A 267.14,267.14 0 0,1 756.2042594083941,620.5553913765546 L 743.5925438307472,568.7639646068073 A 213.83514790699118,213.83514790699118 0 0 0 769.8555581912558,560.5462193465846 Z "/><path class="wedge" fill="rgb(226,196,168)" d=" M 779.7343047311392,556.4549330746366 L 801.3554429319287,605.1779629430664 A 267.14,267.14 0 0,1 789.014121233906,610.2891255624296 L 769.8555581912558,560.5462193465846 A 213.83514790699118,213.83514790699118 0 0 0 779.7343047311392,556.4549330746366 Z "/><path class="wedge" fill="url(#hiddenPattern)" d=" M 779.7343047311392,556.4549330746366 L 801.3554429319287,605.1779629430664 A 267.14,267.14 0 0,1 789.014121233906,610.2891255624296 L 769.8555581912558,560.5462193465846 A 213.83514790699118,213.83514790699118 0 0 0 779.7343047311392,556.4549330746366 Z "/><path class="wedge" fill="rgb(223,191,159)" d=" M 741.5614995437243,560.4232530826829 L 756.2042594083941,620.5553913765546 A 267.14,267.14 0 0,1 755.5918555359947,620.7037528041541 L 741.0909734961372,560.5372430806058 A 205.2507079354781,205.2507079354781 0 0 0 741.5614995437243,560.4232530826829 Z "/><path class="wedge" fill="url(#hiddenPattern)" d=" M 741.5614995437243,560.4232530826829 L 756.2042594083941,620.5553913765546 A 267.14,267.14 0 0,1 755.5918555359947,620.7037528041541 L 741.0909734961372,560.5372430806058 A 205.2507079354781,205.2507079354781 0 0 0 741.5614995437243,560.4232530826829 Z "/><path class="wedge" fill="rgb(219,184,149)" d=" M 738.5231454420535,550.3852713772467 L 755.4349050293289,620.7415296674344 A 267.14,267.14 0 0,1 753.7764258962447,621.1345914238979 L 737.3138989996582,550.6718643895815 A 194.77971605270326,194.77971605270326 0 0 0 738.5231454420535,550.3852713772467 Z "/><path class="wedge" fill="url(#hiddenPattern)" d=" M 738.5231454420535,550.3852713772467 L 755.4349050293289,620.7415296674344 A 267.14,267.14 0 0,1 753.7764258962447,621.1345914238979 L 737.3138989996582,550.6718643895815 A 194.77971605270326,194.77971605270326 0 0 0 738.5231454420535,550.3852713772467 Z "/><path class="wedge" fill="rgb(216,178,140)" d=" M 734.3354762338092,537.9636318832286 L 753.763405646965,621.1376330602368 A 267.14,267.14 0 0,1 753.6496251720569,621.1641838656678 L 734.2580748757655,537.9816935796591 A 181.72712677192317,181.72712677192317 0 0 0 734.3354762338092,537.9636318832286 Z "/><path class="wedge" fill="url(#hiddenPattern)" d=" M 734.3354762338092,537.9636318832286 L 753.763405646965,621.1376330602368 A 267.14,267.14 0 0,1 753.6496251720569,621.1641838656678 L 734.2580748757655,537.9816935796591 A 181.72712677192317,181.72712677192317 0 0 0 734.3354762338092,537.9636318832286 Z "/><path class="wedge" fill="rgb(213,172,130)" d=" M 730.4597690374053,521.70314901246 L 753.6443398998521,621.1654159147814 A 267.14,267.14 0 0,1 753.5239208351634,621.19345611821 L 730.3853866571471,521.7204693352787 A 165.01132203232805,165.01132203232805 0 0 0 730.4597690374053,521.70314901246 Z "/><path class="wedge" fill="url(#hiddenPattern)" d=" M 730.4597690374053,521.70314901246 L 753.6443398998521,621.1654159147814 A 267.14,267.14 0 0,1 753.5239208351634,621.19345611821 L 730.3853866571471,521.7204693352787 A 165.01132203232805,165.01132203232805 0 0 0 730.4597690374053,521.70314901246 Z "/><path class="wedge" fill="rgb(210,165,121)" d=" M 725.3627405431477,500.14083002083703 L 753.518634968316,621.1946856136221 A 267.14,267.14 0 0,1 752.1186941723786,621.5163326921227 L 724.6141129381396,500.3128329246273 A 142.85488285092165,142.85488285092165 0 0 0 725.3627405431477,500.14083002083703 Z "/><path class="wedge" fill="url(#hiddenPattern)" d=" M 725.3627405431477,500.14083002083703 L 753.518634968316,621.1946856136221 A 267.14,267.14 0 0,1 752.1186941723786,621.5163326921227 L 724.6141129381396,500.3128329246273 A 142.85488285092165,142.85488285092165 0 0 0 725.3627405431477,500.14083002083703 Z "/><path class="wedge" fill="rgb(207,159,111)" d=" M 717.8061912641473,470.34847312547026 L 752.1002472781429,621.5205181394786 A 267.14,267.14 0 0,1 751.8285335935112,621.5820086560796 L 717.692144674827,470.3742825862761 A 112.12687322807658,112.12687322807658 0 0 0 717.8061912641473,470.34847312547026 Z "/><path class="wedge" fill="url(#hiddenPattern)" d=" M 717.8061912641473,470.34847312547026 L 752.1002472781429,621.5205181394786 A 267.14,267.14 0 0,1 751.8285335935112,621.5820086560796 L 717.692144674827,470.3742825862761 A 112.12687322807658,112.12687322807658 0 0 0 717.8061912641473,470.34847312547026 Z "/><path class="wedge" fill="rgb(188,207,111)" d=" M 707.6098923897329,426.1673788744064 L 751.4395695589312,621.6695154976255 A 267.14,267.14 0 0,1 693.5321577117635,628.1394699556204 L 693.1330394279408,427.7848674889051 A 66.785,66.785 0 0 0 707.6098923897329,426.1673788744064 Z "/><path class="wedge" fill="rgb(111,207,149)" d=" M 693.1330394279408,427.7848674889051 L 693.5321577117635,628.1394699556204 A 267.14,267.14 0 0,1 693.1167192641797,628.1399745014089 L 693.0291798160449,427.78499362535223 A 66.785,66.785 0 0 0 693.1330394279408,427.7848674889051 Z "/><path class="wedge" fill="rgb(111,207,149)" d=" M 693.1330394279408,427.7848674889051 L 693.5321577117635,628.1394699556204 A 267.14,267.14 0 0,1 693.1167192641797,628.1399745014089 L 693.0291798160449,427.78499362535223 A 66.785,66.785 0 0 0 693.1330394279408,427.7848674889051 Z "/><path class="wedge" fill="rgb(111,207,149)" d=" M 693.1330394279408,427.7848674889051 L 693.5321577117635,628.1394699556204 A 267.14,267.14 0 0,1 693.1167192641797,628.1399745014089 L 693.0291798160449,427.78499362535223 A 66.785,66.785 0 0 0 693.1330394279408,427.7848674889051 Z "/><path class="wedge" fill="rgb(111,207,149)" d=" M 693.1330394279408,427.7848674889051 L 693.5321577117635,628.1394699556204 A 267.14,267.14 0 0,1 693.1167192641797,628.1399745014089 L 693.0291798160449,427.78499362535223 A 66.785,66.785 0 0 0 693.1330394279408,427.7848674889051 Z "/><path class="wedge" fill="rgb(111,207,149)" d=" M 693.1330394279408,427.7848674889051 L 693.5321577117635,628.1394699556204 A 267.14,267.14 0 0,1 693.1167192641797,628.1399745014089 L 693.0291798160449,427.78499362535223 A 66.785,66.785 0 0 0 693.1330394279408,427.7848674889051 Z "/><path class="wedge" fill="rgb(111,207,149)" d=" M 693.1330394279408,427.7848674889051 L 693.5321577117635,628.1394699556204 A 267.14,267.14 0 0,1 693.1167192641797,628.1399745014089 L 693.0291798160449,427.78499362535223 A 66.785,66.785 0 0 0 693.1330394279408,427.7848674889051 Z "/><path class="wedge" fill="rgb(111,207,149)" d=" M 693.1330394279408,427.7848674889051 L 693.5321577117635,628.1394699556204 A 267.14,267.14 0 0,1 693.1167192641797,628.1399745014089 L 693.0291798160449,427.78499362535223 A 66.785,66.785 0 0 0 693.1330394279408,427.7848674889051 Z "/><path class="wedge" fill="rgb(111,207,149)" d=" M 693.1330394279408,427.7848674889051 L 693.5321577117635,628.1394699556204 A 267.14,267.14 0 0,1 693.1167192641797,628.1399745014089 L 693.0291798160449,427.78499362535223 A 66.785,66.785 0 0 0 693.1330394279408,427.7848674889051 Z "/><path class="wedge" fill="rgb(111,207,149)" d=" M 693.1330394279408,427.7848674889051 L 693.5321577117635,628.1394699556204 A 267.14,267.14 0 0,1 693.1167192641797,628.1399745014089 L 693.0291798160449,427.78499362535223 A 66.785,66.785 0 0 0 693.1330394279408,427.7848674889051 Z "/><path class="wedge" fill="rgb(111,207,149)" d=" M 693.1330394279408,427.7848674889051 L 693.5321577117635,628.1394699556204 A 267.14,267.14 0 0,1 693.1167192641797,628.1399745014089 L 693.0291798160449,427.78499362535223 A 66.785,66.785 0 0 0 693.1330394279408,427.7848674889051 Z "/><path class="wedge" fill="rgb(111,207,149)" d=" M 693.1330394279408,427.7848674889051 L 693.5321577117635,628.1394699556204 A 267.14,267.14 0 0,1 693.1167192641797,628.1399745014089 L 693.0291798160449,427.78499362535223 A 66.785,66.785 0 0 0 693.1330394279408,427.7848674889051 Z "/><path class="wedge" fill="rgb(111,207,149)" d=" M 693.1330394279408,427.7848674889051 L 693.5321577117635,628.1394699556204 A 267.14,267.14 0 0,1 693.1167192641797,628.1399745014089 L 693.0291798160449,427.78499362535223 A 66.785,66.785 0 0 0 693.1330394279408,427.7848674889051 Z "/><path class="wedge" fill="rgb(111,207,149)" d=" M 693.1330394279408,427.7848674889051 L 693.5321577117635,628.1394699556204 A 267.14,267.14 0 0,1 693.1167192641797,628.1399745014089 L 693.0291798160449,427.78499362535223 A 66.785,66.785 0 0 0 693.1330394279408,427.7848674889051 Z "/><path class="wedge" fill="rgb(111,207,149)" d=" M 693.1330394279408,427.7848674889051 L 693.5321577117635,628.1394699556204 A 267.14,267.14 0 0,1 693.1167192641797,628.1399745014089 L 693.0291798160449,427.78499362535223 A 66.785,66.785 0 0 0 693.1330394279408,427.7848674889051 Z "/><path class="wedge" fill="rgb(111,207,149)" d=" M 693.1330394279408,427.7848674889051 L 693.5321577117635,628.1394699556204 A 267.14,267.14 0 0,1 693.1167192641797,628.1399745014089 L 693.0291798160449,427.78499362535223 A 66.785,66.785 0 0 0 693.1330394279408,427.7848674889051 Z "/><path class="wedge" fill="rgb(111,207,149)" d=" M 693.1330394279408,427.7848674889051 L 693.5321577117635,628.1394699556204 A 267.14,267.14 0 0,1 693.1167192641797,628.1399745014089 L 693.0291798160449,427.78499362535223 A 66.785,66.785 0 0 0 693.1330394279408,427.7848674889051 Z "/><path class="wedge" fill="rgb(111,207,149)" d=" M 693.1330394279408,427.7848674889051 L 693.5321577117635,628.1394699556204 A 267.14,267.14 0 0,1 693.1167192641797,628.1399745014089 L 693.0291798160449,427.78499362535223 A 66.785,66.785 0 0 0 693.1330394279408,427.7848674889051 Z "/><path class="wedge" fill="rgb(111,207,149)" d=" M 693.1330394279408,427.7848674889051 L 693.5321577117635,628.1394699556204 A 267.14,267.14 0 0,1 693.1167192641797,628.1399745014089 L 693.0291798160449,427.78499362535223 A 66.785,66.785 0 0 0 693.1330394279408,427.7848674889051 Z "/><path class="wedge" fill="rgb(111,207,149)" d=" M 693.1330394279408,427.7848674889051 L 693.5321577117635,628.1394699556204 A 267.14,267.14 0 0,1 693.1167192641797,628.1399745014089 L 693.0291798160449,427.78499362535223 A 66.785,66.785 0 0 0 693.1330394279408,427.7848674889051 Z "/><path class="wedge" fill="rgb(111,207,149)" d=" M 693.1330394279408,427.7848674889051 L 693.5321577117635,628.1394699556204 A 267.14,267.14 0 0,1 693.1167192641797,628.1399745014089 L 693.0291798160449,427.78499362535223 A 66.785,66.785 0 0 0 693.1330394279408,427.7848674889051 Z "/><path class="wedge" fill="rgb(111,207,149)" d=" M 693.1330394279408,427.7848674889051 L 693.5321577117635,628.1394699556204 A 267.14,267.14 0 0,1 693.1167192641797,628.1399745014089 L 693.0291798160449,427.78499362535223 A 66.785,66.785 0 0 0 693.1330394279408,427.7848674889051 Z "/><path class="wedge" fill="rgb(111,207,149)" d=" M 693.1330394279408,427.7848674889051 L 693.5321577117635,628.1394699556204 A 267.14,267.14 0 0,1 693.1167192641797,628.1399745014089 L 693.0291798160449,427.78499362535223 A 66.785,66.785 0 0 0 693.1330394279408,427.7848674889051 Z "/><path class="wedge" fill="rgb(111,207,149)" d=" M 693.1330394279408,427.7848674889051 L 693.5321577117635,628.1394699556204 A 267.14,267.14 0 0,1 693.1167192641797,628.1399745014089 L 693.0291798160449,427.78499362535223 A 66.785,66.785 0 0 0 693.1330394279408,427.7848674889051 Z "/><path class="wedge" fill="rgb(111,207,149)" d=" M 693.1330394279408,427.7848674889051 L 693.5321577117635,628.1394699556204 A 267.14,267.14 0 0,1 693.1167192641797,628.1399745014089 L 693.0291798160449,427.78499362535223 A 66.785,66.785 0 0 0 693.1330394279408,427.7848674889051 Z "/><path class="wedge" fill="rgb(111,207,149)" d=" M 693.1330394279408,427.7848674889051 L 693.5321577117635,628.1394699556204 A 267.14,267.14 0 0,1 693.1167192641797,628.1399745014089 L 693.0291798160449,427.78499362535223 A 66.785,66.785 0 0 0 693.1330394279408,427.7848674889051 Z "/><path class="wedge" fill="rgb(111,207,149)" d=" M 693.1330394279408,427.7848674889051 L 693.5321577117635,628.1394699556204 A 267.14,267.14 0 0,1 693.1167192641797,628.1399745014089 L 693.0291798160449,427.78499362535223 A 66.785,66.785 0 0 0 693.1330394279408,427.7848674889051 Z "/><path class="wedge" fill="rgb(111,207,149)" d=" M 693.1330394279408,427.7848674889051 L 693.5321577117635,628.1394699556204 A 267.14,267.14 0 0,1 693.1167192641797,628.1399745014089 L 693.0291798160449,427.78499362535223 A 66.785,66.785 0 0 0 693.1330394279408,427.7848674889051 Z "/><path class="wedge" fill="rgb(111,207,149)" d=" M 693.1330394279408,427.7848674889051 L 693.5321577117635,628.1394699556204 A 267.14,267.14 0 0,1 693.1167192641797,628.1399745014089 L 693.0291798160449,427.78499362535223 A 66.785,66.785 0 0 0 693.1330394279408,427.7848674889051 Z "/><path class="wedge" fill="rgb(111,207,149)" d=" M 693.1330394279408,427.7848674889051 L 693.5321577117635,628.1394699556204 A 267.14,267.14 0 0,1 693.1167192641797,628.1399745014089 L 693.0291798160449,427.78499362535223 A 66.785,66.785 0 0 0 693.1330394279408,427.7848674889051 Z "/><path class="wedge" fill="rgb(111,207,149)" d=" M 693.1330394279408,427.7848674889051 L 693.5321577117635,628.1394699556204 A 267.14,267.14 0 0,1 693.1167192641797,628.1399745014089 L 693.0291798160449,427.78499362535223 A 66.785,66.785 0 0 0 693.1330394279408,427.7848674889051 Z "/><path class="wedge" fill="rgb(101,142,204)" d=" M 693.0291798160449,427.78499362535223 L 693.1167192641797,628.1399745014089 A 267.14,267.14 0 0,1 693.0884439449786,628.1399853591158 L 693.0221109862447,427.78499633977896 A 66.785,66.785 0 0 0 693.0291798160449,427.78499362535223 Z "/><path class="wedge" fill="url(#hiddenPattern)" d=" M 693.0291798160449,427.78499362535223 L 693.1167192641797,628.1399745014089 A 267.14,267.14 0 0,1 693.0884439449786,628.1399853591158 L 693.0221109862447,427.78499633977896 A 66.785,66.785 0 0 0 693.0291798160449,427.78499362535223 Z "/><path class="wedge" fill="rgb(183,101,204)" d=" M 693.0221109862447,427.78499633977896 L 693.0884439449786,628.1399853591158 A 267.14,267.14 0 0,1 693.0642978440575,628.1399922620858 L 693.0160744610143,427.78499806552145 A 66.785,66.785 0 0 0 693.0221109862447,427.78499633977896 Z "/><path class="wedge" fill="url(#hiddenPattern)" d=" M 693.0221109862447,427.78499633977896 L 693.0884439449786,628.1399853591158 A 267.14,267.14 0 0,1 693.0642978440575,628.1399922620858 L 693.0160744610143,427.78499806552145 A 66.785,66.785 0 0 0 693.0221109862447,427.78499633977896 Z "/><circle cx="693" cy="361" r="66.785"/><circle cx="693" cy="361" r="267.14"/><text x="693" y="361" text-anchor="middle" style="font-color:black;font-weight:bold" transform="rotate(360,693,361)">Root</text><path class="line" d=" M 707.6098923897329,426.1673788744064 A 66.785,66.785 0 1 0 693,427.78499999999997"/><line x1="751.4395695589312" y1="621.6695154976255" x2="707.6098923897329" y2="426.1673788744064"/><text x="693" y="280.612438031577" text-anchor="middle" style="font-color:black;font-weight:normal" transform="rotate(353.6818913186015,693,361)">Bacteria</text><path class="line" d=" M 738.4801116014092,463.4890001347877 A 112.12687322807658,112.12687322807658 0 1 0 693,473.1268732280766"/><line x1="801.3554429319287" y1="605.1779629430664" x2="738.4801116014092" y2="463.4890001347877"/><text x="693" y="239.65472388506993" text-anchor="middle" style="font-color:black;font-weight:normal" transform="rotate(348.0352283404923,693,361)">Proteobacteria</text><path class="line" d=" M 753.1297737803251,490.58367126871144 A 142.85488285092165,142.85488285092165 0 1 0 693,503.8548828509216"/><line x1="805.4432532308953" y1="603.3227071548449" x2="753.1297737803251" y2="490.58367126871144"/><text x="693" y="207.06689755837513" text-anchor="middle" style="font-color:black;font-weight:normal" transform="rotate(347.55381324645117,693,361)">Gammaproteobacteria</text><path class="line" d=" M 762.8961579297475,211.5233680285896 A 165.01132203232805,165.01132203232805 0 1 0 693,526.011322032328"/><line x1="806.1562331565019" y1="119.00940824521427" x2="762.8961579297475" y2="211.5233680285896"/><text x="693" y="187.63077559787436" text-anchor="middle" style="font-color:black;font-weight:normal" transform="rotate(282.53053444995953,693,361)">Enterobacterales</text><path class="line" d=" M 757.5457642856522,191.12182919056477 A 181.72712677192317,181.72712677192317 0 1 0 693,542.7271267719232"/><line x1="787.8826725957631" y1="111.27803852867643" x2="757.5457642856522" y2="191.12182919056477"/><path class="line" d=" M 593.1003970882603,193.78993115350852 A 194.77971605270326,194.77971605270326 0 0 0 693,555.7797160527033"/><line x1="555.9878897933029" y1="131.67171727693975" x2="593.1003970882603" y2="193.78993115350852"/><line x1="530.8974845989752" y1="148.6640536775261" x2="568.452361891959" y2="197.8566919860843"/><path class="line" d=" M 568.452361891959,197.8566919860843 A 205.2507079354781,205.2507079354781 0 0 0 693,566.2507079354781"/><text x="456.80464603226096" y="361" text-anchor="end" style="font-color:black;font-weight:normal" transform="rotate(-18.679504924200852,693,361)">Pantoea agglomerans&#160;&#160;&#160;40%</text><path class="line" d=" M 574.651903385288,193.3050950813062 A 205.2507079354781,205.2507079354781 0 0 0 568.452361891959,197.8566919860843"/><line x1="538.9663752312481" y1="142.74001273572998" x2="574.651903385288" y2="193.3050950813062"/><path class="line" d=" M 759.8832338555796,178.0634787293922 A 194.77971605270326,194.77971605270326 0 0 0 593.1003970882603,193.78993115350852"/><line x1="784.7302245545171" y1="110.102918504065" x2="759.8832338555796" y2="178.0634787293922"/><path class="line" d=" M 755.6319469970132,165.5387702807069 A 205.2507079354781,205.2507079354781 0 0 0 587.7299819732787,184.80103174913683"/><line x1="774.5173720425936" y1="106.6013017814962" x2="755.6319469970132" y2="165.5387702807069"/><text x="456.80464603226096" y="361" text-anchor="end" style="font-color:black;font-weight:normal" transform="rotate(83.45545293639206,693,361)">Erwinia persicina&#160;&#160;&#160;14%</text><path class="line" d=" M 761.2104336392148,167.41490281851446 A 205.2507079354781,205.2507079354781 0 0 0 755.6319469970132,165.5387702807069"/><line x1="781.7779410149852" y1="109.04314498482128" x2="761.2104336392148" y2="167.41490281851446"/><path class="line" d=" M 760.194261988587,178.1774933401775 A 194.77971605270326,194.77971605270326 0 0 0 759.8832338555796,178.0634787293922"/><line x1="785.1567990312409" y1="110.259289319992" x2="760.194261988587" y2="178.1774933401775"/><line x1="951.14" y1="361" x2="969.14" y2="361" class="tick" transform="rotate(292.36614724232686,693,361)"/><text x="972.14" y="361" text-anchor="start" style="font-color:black;font-weight:normal" transform="rotate(292.36614724232686,693,361)">8 more</text><path class="line" d=" M 766.7059483697187,194.89105448622283 A 181.72712677192317,181.72712677192317 0 0 0 757.5457642856522,191.12182919056477"/><line x1="801.3481998380922" y1="116.81882301896235" x2="766.7059483697187" y2="194.89105448622283"/><path class="line" d=" M 763.6942845011237,510.1008200437907 A 165.01132203232805,165.01132203232805 0 0 0 762.8961579297475,211.5233680285896"/><line x1="807.4483355992402" y1="602.3821826037781" x2="763.6942845011237" y2="510.1008200437907"/><text x="693" y="187.63077559787436" text-anchor="middle" style="font-color:black;font-weight:normal" transform="rotate(449.8468431730857,693,361)">Pseudomonadales</text><path class="line" d=" M 770.9204600015926,525.1741469230733 A 181.72712677192317,181.72712677192317 0 0 0 769.9767055770941,196.38124224962698"/><line x1="807.5435579958855" y1="602.3370110895617" x2="770.9204600015926" y2="525.1741469230733"/><path class="line" d=" M 776.6074041906743,536.923107493214 A 194.77971605270326,194.77971605270326 0 0 0 775.5055737209588,184.5574651889541"/><line x1="807.6673914929283" y1="602.2781982032515" x2="776.6074041906743" y2="536.923107493214"/><text x="923.9598580263516" y="361" text-anchor="start" style="font-color:black;font-weight:normal" transform="rotate(359.8208394283759,693,361)">36%&#160;&#160;&#160;Pseudomonas</text><path class="line" d=" M 861.8477540983508,244.30257481864567 A 205.2507079354781,205.2507079354781 0 0 0 779.9409184797636,175.07224574606934"/><line x1="912.760455316007" y1="209.1147739926582" x2="861.8477540983508" y2="244.30257481864567"/><path class="line" d=" M 866.2548803371691,235.6675743482238 A 213.83514790699118,213.83514790699118 0 0 0 783.5771500098023,167.29597222435828"/><line x1="909.4438783160313" y1="204.42469179492244" x2="866.2548803371691" y2="235.6675743482238"/><path class="line" d=" M 859.4086564836149,215.57300594834058 A 220.99966414359804,220.99966414359804 0 0 0 786.6119245464611,160.80594630636298"/><line x1="894.1514753440889" y1="185.21074103661397" x2="859.4086564836149" y2="215.57300594834058"/><text x="937.069832071799" y="361" text-anchor="start" style="font-color:black;font-weight:normal" transform="rotate(306.9551884778304,693,361)">7%&#160;&#160;&#160;Pseudomonas fluorescens A506</text><path class="line" d=" M 859.4992674346979,215.67675514463602 A 220.99966414359804,220.99966414359804 0 0 0 859.4086564836149,215.57300594834058"/><line x1="894.2610040601895" y1="185.33615100230676" x2="859.4992674346979" y2="215.67675514463602"/><path class="line" d=" M 867.0354753241468,236.75377748557875 A 213.83514790699118,213.83514790699118 0 0 0 866.2548803371691,235.6675743482238"/><line x1="910.4190601178178" y1="205.781663784575" x2="867.0354753241468" y2="236.75377748557875"/><path class="line" d=" M 865.8042473700074,250.24556352497555 A 205.2507079354781,205.2507079354781 0 0 0 861.8477540983508,244.30257481864567"/><line x1="917.9099508925221" y1="216.84975341844435" x2="865.8042473700074" y2="250.24556352497555"/><path class="line" d=" M 776.5987801277504,536.9272058174168 A 194.77971605270326,194.77971605270326 0 0 0 776.6074041906743,536.923107493214"/><line x1="807.655563607478" y1="602.2838190468883" x2="776.5987801277504" y2="536.9272058174168"/><path class="line" d=" M 770.9187440543515,525.1749613362863 A 181.72712677192317,181.72712677192317 0 0 0 770.9204600015926,525.1741469230733"/><line x1="807.5410355428312" y1="602.3382082820204" x2="770.9187440543515" y2="525.1749613362863"/><path class="line" d=" M 763.0810638519154,510.3900294137478 A 165.01132203232805,165.01132203232805 0 0 0 763.6942845011237,510.1008200437907"/><line x1="806.4555809069445" y1="602.8503892100812" x2="763.0810638519154" y2="510.3900294137478"/><path class="line" d=" M 751.1962993090965,491.4634366444354 A 142.85488285092165,142.85488285092165 0 0 0 753.1297737803251,490.58367126871144"/><line x1="801.8276374399878" y1="604.9678768387973" x2="751.1962993090965" y2="491.4634366444354"/><path class="line" d=" M 717.8061912641473,470.34847312547026 A 112.12687322807658,112.12687322807658 0 0 0 738.4801116014092,463.4890001347877"/><line x1="752.1002472781429" y1="621.5205181394786" x2="717.8061912641473" y2="470.34847312547026"/><text x="693" y="494.63647996406814" text-anchor="middle" style="font-color:black;font-weight:normal" transform="rotate(341.64448967346425,693,361)">Terrabacteria group</text><path class="line" d=" M 725.3627405431477,500.14083002083703 A 142.85488285092165,142.85488285092165 0 0 0 750.9437901710728,491.575781578979"/><line x1="753.518634968316" y1="621.1946856136221" x2="725.3627405431477" y2="500.14083002083703"/><text x="693" y="514.9331024416249" text-anchor="middle" style="font-color:black;font-weight:normal" transform="rotate(341.48842081513214,693,361)">Firmicutes</text><path class="line" d=" M 730.4597690374053,521.70314901246 A 165.01132203232805,165.01132203232805 0 0 0 759.9307287848919,511.827762508034"/><line x1="753.6443398998521" y1="621.1654159147814" x2="730.4597690374053" y2="521.70314901246"/><text x="693" y="534.3692244021256" text-anchor="middle" style="font-color:black;font-weight:normal" transform="rotate(341.47457970417895,693,361)">Bacilli</text><path class="line" d=" M 734.3354762338092,537.9636318832286 A 181.72712677192317,181.72712677192317 0 0 0 766.7108756237122,527.1067591025851"/><line x1="753.763405646965" y1="621.1376330602368" x2="734.3354762338092" y2="537.9636318832286"/><path class="line" d=" M 738.5231454420535,550.3852713772467 A 194.77971605270326,194.77971605270326 0 0 0 772.0051748410795,539.0374121748072"/><line x1="755.4349050293289" y1="620.7415296674344" x2="738.5231454420535" y2="550.3852713772467"/><path class="line" d=" M 741.5614995437243,560.4232530826829 A 205.2507079354781,205.2507079354781 0 0 0 776.2523447272616,548.6083692307678"/><line x1="756.2042594083941" y1="620.5553913765546" x2="741.5614995437243" y2="560.4232530826829"/><text x="929.195353967739" y="361" text-anchor="start" style="font-color:black;font-weight:normal" transform="rotate(431.1923678020559,693,361)">3%&#160;&#160;&#160;Bacillus</text><path class="line" d=" M 769.8555581912558,560.5462193465846 A 213.83514790699118,213.83514790699118 0 0 0 779.7343047311392,556.4549330746366"/><line x1="789.014121233906" y1="610.2891255624296" x2="769.8555581912558" y2="560.5462193465846"/><path class="line" d=" M 741.0909734961372,560.5372430806058 A 205.2507079354781,205.2507079354781 0 0 0 741.5614995437243,560.4232530826829"/><line x1="755.5918555359947" y1="620.7037528041541" x2="741.0909734961372" y2="560.5372430806058"/><path class="line" d=" M 737.3138989996582,550.6718643895815 A 194.77971605270326,194.77971605270326 0 0 0 738.5231454420535,550.3852713772467"/><line x1="753.7764258962447" y1="621.1345914238979" x2="737.3138989996582" y2="550.6718643895815"/><path class="line" d=" M 734.2580748757655,537.9816935796591 A 181.72712677192317,181.72712677192317 0 0 0 734.3354762338092,537.9636318832286"/><line x1="753.6496251720569" y1="621.1641838656678" x2="734.2580748757655" y2="537.9816935796591"/><path class="line" d=" M 730.3853866571471,521.7204693352787 A 165.01132203232805,165.01132203232805 0 0 0 730.4597690374053,521.70314901246"/><line x1="753.5239208351634" y1="621.19345611821" x2="730.3853866571471" y2="521.7204693352787"/><path class="line" d=" M 724.6141129381396,500.3128329246273 A 142.85488285092165,142.85488285092165 0 0 0 725.3627405431477,500.14083002083703"/><line x1="752.1186941723786" y1="621.5163326921227" x2="724.6141129381396" y2="500.3128329246273"/><path class="line" d=" M 717.692144674827,470.3742825862761 A 112.12687322807658,112.12687322807658 0 0 0 717.8061912641473,470.34847312547026"/><line x1="751.8285335935112" y1="621.5820086560796" x2="717.692144674827" y2="470.3742825862761"/><path class="line" d=" M 693.1330394279408,427.7848674889051 A 66.785,66.785 0 0 0 707.6098923897329,426.1673788744064"/><line x1="693.5321577117635" y1="628.1394699556204" x2="693.1330394279408" y2="427.7848674889051"/><text x="859.9625" y="361" text-anchor="start" style="font-color:black;font-weight:normal" transform="rotate(443.62482309391567,693,361)">3%&#160;&#160;&#160;No hits</text><line x1="693.1167192641797" y1="628.1399745014089" x2="693.0291798160449" y2="427.78499362535223"/><path class="line" d=" M 693.0291798160449,427.78499362535223 A 66.785,66.785 0 0 0 693.1330394279408,427.7848674889051"/><path class="line" d=" M 693.0221109862447,427.78499633977896 A 66.785,66.785 0 0 0 693.0291798160449,427.78499362535223"/><line x1="693.0884439449786" y1="628.1399853591158" x2="693.0221109862447" y2="427.78499633977896"/><path class="line" d=" M 693.0160744610143,427.78499806552145 A 66.785,66.785 0 0 0 693.0221109862447,427.78499633977896"/><line x1="693.0642978440575" y1="628.1399922620858" x2="693.0160744610143" y2="427.78499806552145"/></svg>