<?xml version="1.0" standalone="no"?><!DOCTYPE svg PUBLIC "-//W3C//DTD SVG 1.1//EN" 	"http://www.w3.org/Graphics/SVG/1.1/DTD/svg11.dtd"><svg width="1536" height="722" version="1.1"	xmlns="http://www.w3.org/2000/svg"><title>Krona (snapshot) - Root</title><defs>	<style type="text/css">	text {font-size: 10px; font-family: sans-serif; dominant-baseline:central}	path {stroke-width:0.25;}	path.wedge {stroke:none}	path.line {fill:none;stroke:black;}	line {stroke:black;stroke-width:0.25;}	line.tick {stroke-width:0.5;}	line.pattern {stroke-width:0.16666666666666666;}	circle {fill:none;stroke:black;stroke-width:0.25;}	rect {stroke:black;stroke-width:0.25;}	.highlight {stroke:black;stroke-width:1.25;}	.searchHighlight {fill:rgb(255, 255, 100);stroke:none;}	</style><pattern id="hiddenPattern" patternUnits="userSpaceOnUse" x="0" y="0" width="6" height="6"><line class="pattern" x1="0" y1="0" x2="3" y2="3"/><line class="pattern" x1="3" y1="6" x2="6" y2="3"/></pattern></defs><path class="wedge" fill="rgb(220,220,220)" d=" M 693.0653399967464,422.3699652165848 L 693.2613599869857,606.4798608663391 A 245.48000000000002,245.48000000000002 0 0,1 693.0000000000001,606.48 L 693,422.37 A 61.370000000000005,61.370000000000005 0 0 0 693.0653399967464,422.3699652165848 Z "/><path class="wedge" fill="rgb(207,111,111)" d=" M 693,422.37 L 693,606.48 A 245.48000000000002,245.48000000000002 0 1,1 938.242730462097,371.79043815121736 L 754.3106826155242,363.69760953780434 A 61.370000000000005,61.370000000000005 0 1 0 693,422.37 Z "/><path class="wedge" fill="rgb(207,111,111)" d=" M 795.9732851733374,364.5802035830722 L 938.33176221949,369.5297623811954 A 245.48000000000002,245.48000000000002 0 0,1 938.242730462097,371.79043815121736 L 795.9359158068088,365.52907872522627 A 103.0355051285028,103.0355051285028 0 0 0 795.9732851733374,364.5802035830722 Z "/><path class="wedge" fill="rgb(210,121,121)" d=" M 693,464.0355051285028 L 693,606.48 A 245.48000000000002,245.48000000000002 0 1,1 875.3808148283898,196.69032657042797 L 769.5508366530514,292.03417712516176 A 103.0355051285028,103.0355051285028 0 1 0 693,464.0355051285028 Z "/><path class="wedge" fill="rgb(210,121,121)" d=" M 790.0006846374849,272.5510346269057 L 874.3922098910639,195.59958708988592 A 245.48000000000002,245.48000000000002 0 0,1 875.3808148283898,196.69032657042797 L 790.5293476700054,273.13431478230626 A 131.27205451165776,131.27205451165776 0 0 0 790.0006846374849,272.5510346269057 Z "/><path class="wedge" fill="rgb(213,130,130)" d=" M 693,492.27205451165776 L 693,606.48 A 245.48000000000002,245.48000000000002 0 1,1 820.7893965683874,151.4044358181991 L 761.3362254861381,248.9173850143595 A 131.27205451165776,131.27205451165776 0 1 0 693,492.27205451165776 Z "/><path class="wedge" fill="rgb(213,130,130)" d=" M 771.616183722608,231.33980232924873 L 820.2732504715223,151.09061451566015 A 245.48000000000002,245.48000000000002 0 0,1 820.7893965683874,151.4044358181991 L 771.9350051263871,231.5336485073346 A 151.63202565132852,151.63202565132852 0 0 0 771.616183722608,231.33980232924873 Z "/><path class="wedge" fill="rgb(216,140,140)" d=" M 693,512.6320256513285 L 693,606.48 A 245.48000000000002,245.48000000000002 0 0,1 573.8699005794157,146.36437897673716 L 619.4138084928004,228.42042531901492 A 151.63202565132852,151.63202565132852 0 0 0 693,512.6320256513285 Z "/><path class="wedge" fill="rgb(216,140,140)" d=" M 611.2571586626668,215.38200237090706 L 572.8375178062356,146.94064310796117 A 245.48000000000002,245.48000000000002 0 0,1 573.8699005794157,146.36437897673716 L 611.9594569148899,214.98998760400931 A 166.992494871497,166.992494871497 0 0 0 611.2571586626668,215.38200237090706 Z "/><path class="wedge" fill="rgb(219,149,149)" d=" M 693,527.992494871497 L 693,606.48 A 245.48000000000002,245.48000000000002 0 0,1 553.4459481556719,159.0467949899517 L 598.0656701690134,223.61744520155258 A 166.992494871497,166.992494871497 0 0 0 693,527.992494871497 Z "/><path class="wedge" fill="rgb(219,149,149)" d=" M 590.9923363847345,213.92621238446264 L 553.0966886572077,159.28858764234056 A 245.48000000000002,245.48000000000002 0 0,1 553.4459481556719,159.0467949899517 L 591.2469918685241,213.74991417312802 A 178.9867661024841,178.9867661024841 0 0 0 590.9923363847345,213.92621238446264 Z "/><path class="wedge" fill="rgb(223,159,159)" d=" M 693,539.9867661024841 L 693,606.48 A 245.48000000000002,245.48000000000002 0 0,1 543.5255658183298,166.27500436238404 L 584.0137461741251,219.02021652070553 A 178.9867661024841,178.9867661024841 0 0 0 693,539.9867661024841 Z "/><path class="wedge" fill="rgb(223,159,159)" d=" M 559.5698732468336,227.697092636196 L 519.3366571576164,187.50223703802763 A 245.48000000000002,245.48000000000002 0 0,1 543.5255658183298,166.27500436238404 L 578.1548497640083,211.38764989386252 A 188.60875864341233,188.60875864341233 0 0 0 559.5698732468336,227.697092636196 Z "/><path class="wedge" fill="rgb(226,168,168)" d=" M 693,549.6087586434123 L 693,606.48 A 245.48000000000002,245.48000000000002 0 0,1 453.2508660924096,308.2668681893415 L 508.7944169295101,320.4837439702308 A 188.60875864341233,188.60875864341233 0 0 0 693,549.6087586434123 Z "/><path class="wedge" fill="rgb(226,168,168)" d=" M 666.0093782145117,555.6346356117392 L 659.281152680702,604.1531816272571 A 245.48000000000002,245.48000000000002 0 0,1 453.2508660924096,308.2668681893415 L 501.090171783699,318.78918529486026 A 196.49716294155948,196.49716294155948 0 0 0 666.0093782145117,555.6346356117392 Z "/><path class="wedge" fill="rgb(229,178,178)" d=" M 693,557.4971629415595 L 693,606.48 A 245.48000000000002,245.48000000000002 0 0,1 659.281152680702,604.1531816272571 L 666.0093782145117,555.6346356117392 A 196.49716294155948,196.49716294155948 0 0 0 693,557.4971629415595 Z "/><path class="wedge" fill="url(#hiddenPattern)" d=" M 693,557.4971629415595 L 693,606.48 A 245.48000000000002,245.48000000000002 0 0,1 659.281152680702,604.1531816272571 L 666.0093782145117,555.6346356117392 A 196.49716294155948,196.49716294155948 0 0 0 693,557.4971629415595 Z "/><path class="wedge" fill="rgb(226,179,168)" d=" M 508.7944169295101,320.4837439702308 L 453.2508660924096,308.2668681893415 A 245.48000000000002,245.48000000000002 0 0,1 502.64251050692786,206.00175293283175 L 546.743320059619,241.91075863107574 A 188.60875864341233,188.60875864341233 0 0 0 508.7944169295101,320.4837439702308 Z "/><path class="wedge" fill="rgb(226,179,168)" d=" M 508.7944169295101,320.4837439702308 L 453.2508660924096,308.2668681893415 A 245.48000000000002,245.48000000000002 0 0,1 502.64251050692786,206.00175293283175 L 546.743320059619,241.91075863107574 A 188.60875864341233,188.60875864341233 0 0 0 508.7944169295101,320.4837439702308 Z "/><path class="wedge" fill="rgb(226,182,168)" d=" M 546.743320059619,241.91075863107574 L 502.64251050692786,206.00175293283175 A 245.48000000000002,245.48000000000002 0 0,1 519.3366571576164,187.50223703802763 L 559.5698732468336,227.697092636196 A 188.60875864341233,188.60875864341233 0 0 0 546.743320059619,241.91075863107574 Z "/><path class="wedge" fill="url(#hiddenPattern)" d=" M 546.743320059619,241.91075863107574 L 502.64251050692786,206.00175293283175 A 245.48000000000002,245.48000000000002 0 0,1 519.3366571576164,187.50223703802763 L 559.5698732468336,227.697092636196 A 188.60875864341233,188.60875864341233 0 0 0 546.743320059619,241.91075863107574 Z "/><path class="wedge" fill="rgb(219,167,149)" d=" M 584.0137461741251,219.02021652070553 L 543.5255658183298,166.27500436238404 A 245.48000000000002,245.48000000000002 0 0,1 553.0966886572077,159.28858764234056 L 590.9923363847345,213.92621238446264 A 178.9867661024841,178.9867661024841 0 0 0 584.0137461741251,219.02021652070553 Z "/><path class="wedge" fill="url(#hiddenPattern)" d=" M 584.0137461741251,219.02021652070553 L 543.5255658183298,166.27500436238404 A 245.48000000000002,245.48000000000002 0 0,1 553.0966886572077,159.28858764234056 L 590.9923363847345,213.92621238446264 A 178.9867661024841,178.9867661024841 0 0 0 584.0137461741251,219.02021652070553 Z "/><path class="wedge" fill="rgb(216,160,140)" d=" M 598.0656701690134,223.61744520155258 L 553.4459481556719,159.0467949899517 A 245.48000000000002,245.48000000000002 0 0,1 571.1427287755298,147.90087787668872 L 610.1042458041105,216.0352205544339 A 166.992494871497,166.992494871497 0 0 0 598.0656701690134,223.61744520155258 Z "/><path class="wedge" fill="url(#hiddenPattern)" d=" M 598.0656701690134,223.61744520155258 L 553.4459481556719,159.0467949899517 A 245.48000000000002,245.48000000000002 0 0,1 571.1427287755298,147.90087787668872 L 610.1042458041105,216.0352205544339 A 166.992494871497,166.992494871497 0 0 0 598.0656701690134,223.61744520155258 Z "/><path class="wedge" fill="rgb(216,160,140)" d=" M 610.1042458041105,216.0352205544339 L 571.1427287755298,147.90087787668872 A 245.48000000000002,245.48000000000002 0 0,1 572.8375178062356,146.94064310796117 L 611.2571586626668,215.38200237090706 A 166.992494871497,166.992494871497 0 0 0 610.1042458041105,216.0352205544339 Z "/><path class="wedge" fill="url(#hiddenPattern)" d=" M 610.1042458041105,216.0352205544339 L 571.1427287755298,147.90087787668872 A 245.48000000000002,245.48000000000002 0 0,1 572.8375178062356,146.94064310796117 L 611.2571586626668,215.38200237090706 A 166.992494871497,166.992494871497 0 0 0 610.1042458041105,216.0352205544339 Z "/><path class="wedge" fill="rgb(216,161,140)" d=" M 619.4138084928004,228.42042531901492 L 573.8699005794157,146.36437897673716 A 245.48000000000002,245.48000000000002 0 0,1 802.3658637924814,141.22844079152458 L 760.5548617564007,225.24797660366625 A 151.63202565132852,151.63202565132852 0 0 0 619.4138084928004,228.42042531901492 Z "/><path class="wedge" fill="rgb(216,161,140)" d=" M 767.3897652863322,211.4919528451684 L 802.3534149336538,141.22224625238303 A 245.48000000000002,245.48000000000002 0 0,1 802.3658637924814,141.22844079152458 L 767.398233862159,211.49616679964873 A 166.992494871497,166.992494871497 0 0 0 767.3897652863322,211.4919528451684 Z "/><path class="wedge" fill="rgb(219,168,149)" d=" M 611.9594569148899,214.98998760400931 L 573.8699005794157,146.36437897673716 A 245.48000000000002,245.48000000000002 0 0,1 802.3339900080691,141.21258218697906 L 767.3765511068225,211.48537867866847 A 166.992494871497,166.992494871497 0 0 0 611.9594569148899,214.98998760400931 Z "/><path class="wedge" fill="rgb(219,168,149)" d=" M 772.6897743772125,200.73209210969807 L 802.2943698581448,141.19287746455743 A 245.48000000000002,245.48000000000002 0 0,1 802.3339900080691,141.21258218697906 L 772.7186626064266,200.74645940863564 A 178.9867661024841,178.9867661024841 0 0 0 772.6897743772125,200.73209210969807 Z "/><path class="wedge" fill="rgb(223,176,159)" d=" M 606.1387027832907,204.50278761059081 L 573.8699005794157,146.36437897673716 A 245.48000000000002,245.48000000000002 0 0,1 802.2437630536533,141.16772158330056 L 772.6528754515213,200.71375020879117 A 178.9867661024841,178.9867661024841 0 0 0 606.1387027832907,204.50278761059081 Z "/><path class="wedge" fill="rgb(223,176,159)" d=" M 772.2947473808466,189.86962024580006 L 796.2045103687453,138.2686384014421 A 245.48000000000002,245.48000000000002 0 0,1 802.2437630536533,141.16772158330056 L 776.9348645066182,192.09706231902118 A 188.60875864341233,188.60875864341233 0 0 0 772.2947473808466,189.86962024580006 Z "/><path class="wedge" fill="rgb(226,184,168)" d=" M 601.469202506181,196.08979125853227 L 573.8699005794157,146.36437897673716 A 245.48000000000002,245.48000000000002 0 0,1 736.5150335692824,119.4076320463243 L 726.4337480195078,175.37821159579076 A 188.60875864341233,188.60875864341233 0 0 0 601.469202506181,196.08979125853227 Z "/><path class="wedge" fill="rgb(226,184,168)" d=" M 727.6531945809044,167.5825986385409 L 736.2915472079889,119.3674849273416 A 245.48000000000002,245.48000000000002 0 0,1 736.5150335692824,119.4076320463243 L 727.8320866941125,167.61473484100293 A 196.49716294155948,196.49716294155948 0 0 0 727.6531945809044,167.5825986385409 Z "/><path class="wedge" fill="rgb(229,192,178)" d=" M 597.6410031078266,189.19255907906597 L 573.8699005794157,146.36437897673716 A 245.48000000000002,245.48000000000002 0 0,1 714.5402987372694,116.46688173110539 L 710.242168774593,165.26077894292564 A 196.49716294155948,196.49716294155948 0 0 0 597.6410031078266,189.19255907906597 Z "/><path class="wedge" fill="rgb(229,192,178)" d=" M 594.4461752600398,183.43608539299348 L 573.8700961467248,146.3642704303186 A 245.48000000000002,245.48000000000002 0 0,1 714.5402987372694,116.46688173110539 L 710.819865188625,158.70256416331344 A 203.0807724562793,203.0807724562793 0 0 0 594.4461752600398,183.43608539299348 Z "/><path class="wedge" fill="rgb(229,192,178)" d=" M 594.4460134710542,183.4361751913091 L 573.8699005794157,146.36437897673716 A 245.48000000000002,245.48000000000002 0 0,1 573.8700961467248,146.3642704303186 L 594.4461752600398,183.43608539299348 A 203.0807724562793,203.0807724562793 0 0 0 594.4460134710542,183.4361751913091 Z "/><path class="wedge" fill="url(#hiddenPattern)" d=" M 594.4460134710542,183.4361751913091 L 573.8699005794157,146.36437897673716 A 245.48000000000002,245.48000000000002 0 0,1 573.8700961467248,146.3642704303186 L 594.4461752600398,183.43608539299348 A 203.0807724562793,203.0807724562793 0 0 0 594.4460134710542,183.4361751913091 Z "/><path class="wedge" fill="rgb(229,195,178)" d=" M 710.242168774593,165.26077894292564 L 714.5402987372694,116.46688173110539 A 245.48000000000002,245.48000000000002 0 0,1 729.6385298335571,118.26959701834718 L 722.327713730828,166.7037821999502 A 196.49716294155948,196.49716294155948 0 0 0 710.242168774593,165.26077894292564 Z "/><path class="wedge" fill="rgb(229,195,178)" d=" M 723.1264712473004,160.16624817619754 L 729.4162794554046,118.2361538642422 A 245.48000000000002,245.48000000000002 0 0,1 729.6385298335571,118.26959701834718 L 723.3103346108082,160.19391503935958 A 203.0807724562793,203.0807724562793 0 0 0 723.1264712473004,160.16624817619754 Z "/><path class="wedge" fill="rgb(229,195,178)" d=" M 710.819865188625,158.70256416331344 L 714.5402987372694,116.46688173110539 A 245.48000000000002,245.48000000000002 0 0,1 729.4162794554046,118.2361538642422 L 723.1264712473004,160.16624817619754 A 203.0807724562793,203.0807724562793 0 0 0 710.819865188625,158.70256416331344 Z "/><path class="wedge" fill="rgb(229,195,178)" d=" M 722.327713730828,166.7037821999502 L 729.6385298335571,118.26959701834718 A 245.48000000000002,245.48000000000002 0 0,1 736.2915472079889,119.3674849273416 L 727.6531945809044,167.5825986385409 A 196.49716294155948,196.49716294155948 0 0 0 722.327713730828,166.7037821999502 Z "/><path class="wedge" fill="url(#hiddenPattern)" d=" M 722.327713730828,166.7037821999502 L 729.6385298335571,118.26959701834718 A 245.48000000000002,245.48000000000002 0 0,1 736.2915472079889,119.3674849273416 L 727.6531945809044,167.5825986385409 A 196.49716294155948,196.49716294155948 0 0 0 722.327713730828,166.7037821999502 Z "/><path class="wedge" fill="rgb(226,188,168)" d=" M 726.4337480195078,175.37821159579076 L 736.5150335692824,119.4076320463243 A 245.48000000000002,245.48000000000002 0 0,1 767.5827508702548,127.1242986699441 L 750.3038946466093,181.307130093208 A 188.60875864341233,188.60875864341233 0 0 0 726.4337480195078,175.37821159579076 Z "/><path class="wedge" fill="rgb(226,188,168)" d=" M 748.3966256977974,172.4732143556786 L 762.2059033968839,125.47723393476122 A 245.48000000000002,245.48000000000002 0 0,1 767.5827508702548,127.1242986699441 L 752.7005823300562,173.79162541826832 A 196.49716294155948,196.49716294155948 0 0 0 748.3966256977974,172.4732143556786 Z "/><path class="wedge" fill="rgb(229,196,178)" d=" M 727.8320866941125,167.61473484100293 L 736.5150335692824,119.4076320463243 A 245.48000000000002,245.48000000000002 0 0,1 762.2059033968839,125.47723393476122 L 748.3966256977974,172.4732143556786 A 196.49716294155948,196.49716294155948 0 0 0 727.8320866941125,167.61473484100293 Z "/><path class="wedge" fill="url(#hiddenPattern)" d=" M 727.8320866941125,167.61473484100293 L 736.5150335692824,119.4076320463243 A 245.48000000000002,245.48000000000002 0 0,1 762.2059033968839,125.47723393476122 L 748.3966256977974,172.4732143556786 A 196.49716294155948,196.49716294155948 0 0 0 727.8320866941125,167.61473484100293 Z "/><path class="wedge" fill="rgb(226,189,168)" d=" M 750.3038946466093,181.307130093208 L 767.5827508702548,127.1242986699441 A 245.48000000000002,245.48000000000002 0 0,1 796.2045103687453,138.2686384014421 L 772.2947473808466,189.86962024580006 A 188.60875864341233,188.60875864341233 0 0 0 750.3038946466093,181.307130093208 Z "/><path class="wedge" fill="url(#hiddenPattern)" d=" M 750.3038946466093,181.307130093208 L 767.5827508702548,127.1242986699441 A 245.48000000000002,245.48000000000002 0 0,1 796.2045103687453,138.2686384014421 L 772.2947473808466,189.86962024580006 A 188.60875864341233,188.60875864341233 0 0 0 750.3038946466093,181.307130093208 Z "/><path class="wedge" fill="rgb(219,175,149)" d=" M 772.6528754515213,200.71375020879117 L 802.2437630536533,141.16772158330056 A 245.48000000000002,245.48000000000002 0 0,1 802.2943698581448,141.19287746455743 L 772.6897743772125,200.73209210969807 A 178.9867661024841,178.9867661024841 0 0 0 772.6528754515213,200.71375020879117 Z "/><path class="wedge" fill="url(#hiddenPattern)" d=" M 772.6528754515213,200.71375020879117 L 802.2437630536533,141.16772158330056 A 245.48000000000002,245.48000000000002 0 0,1 802.2943698581448,141.19287746455743 L 772.6897743772125,200.73209210969807 A 178.9867661024841,178.9867661024841 0 0 0 772.6528754515213,200.71375020879117 Z "/><path class="wedge" fill="rgb(216,168,140)" d=" M 767.3765511068225,211.48537867866847 L 802.3339900080691,141.21258218697906 A 245.48000000000002,245.48000000000002 0 0,1 802.3534149336538,141.22224625238303 L 767.3897652863322,211.4919528451684 A 166.992494871497,166.992494871497 0 0 0 767.3765511068225,211.48537867866847 Z "/><path class="wedge" fill="url(#hiddenPattern)" d=" M 767.3765511068225,211.48537867866847 L 802.3339900080691,141.21258218697906 A 245.48000000000002,245.48000000000002 0 0,1 802.3534149336538,141.22224625238303 L 767.3897652863322,211.4919528451684 A 166.992494871497,166.992494871497 0 0 0 767.3765511068225,211.48537867866847 Z "/><path class="wedge" fill="rgb(216,168,140)" d=" M 760.5548617564007,225.24797660366625 L 802.3658637924814,141.22844079152458 A 245.48000000000002,245.48000000000002 0 0,1 819.1907207756566,150.43805569353165 L 770.9475094085628,230.9367193242952 A 151.63202565132852,151.63202565132852 0 0 0 760.5548617564007,225.24797660366625 Z "/><path class="wedge" fill="rgb(216,168,140)" d=" M 778.8358792352586,217.75651784699923 L 819.1792732115638,150.43119553979145 A 245.48000000000002,245.48000000000002 0 0,1 819.1907207756566,150.43805569353165 L 778.8436666610695,217.76118459862167 A 166.992494871497,166.992494871497 0 0 0 778.8358792352586,217.75651784699923 Z "/><path class="wedge" fill="rgb(219,175,149)" d=" M 767.398233862159,211.49616679964873 L 802.3658637924814,141.22844079152458 A 245.48000000000002,245.48000000000002 0 0,1 819.1110277610202,150.3903158041891 L 778.7894539539734,217.7287086200238 A 166.992494871497,166.992494871497 0 0 0 767.398233862159,211.49616679964873 Z "/><path class="wedge" fill="rgb(219,175,149)" d=" M 784.7607288368074,207.32426644664014 L 818.8496603148966,150.23403168769124 A 245.48000000000002,245.48000000000002 0 0,1 819.1110277610202,150.3903158041891 L 784.9512996122112,207.43821784229408 A 178.9867661024841,178.9867661024841 0 0 0 784.7607288368074,207.32426644664014 Z "/><path class="wedge" fill="rgb(219,175,149)" d=" M 772.7419027302468,200.75802238868494 L 802.3658637924814,141.22844079152458 A 245.48000000000002,245.48000000000002 0 0,1 816.8656380730367,149.0619569195764 L 783.3141192354309,206.4696718875103 A 178.9867661024841,178.9867661024841 0 0 0 772.7419027302468,200.75802238868494 Z "/><path class="wedge" fill="url(#hiddenPattern)" d=" M 772.7419027302468,200.75802238868494 L 802.3658637924814,141.22844079152458 A 245.48000000000002,245.48000000000002 0 0,1 816.8656380730367,149.0619569195764 L 783.3141192354309,206.4696718875103 A 178.9867661024841,178.9867661024841 0 0 0 772.7419027302468,200.75802238868494 Z "/><path class="wedge" fill="rgb(219,176,149)" d=" M 783.3141192354309,206.4696718875103 L 816.8656380730367,149.0619569195764 A 245.48000000000002,245.48000000000002 0 0,1 818.8496603148966,150.23403168769124 L 784.7607288368074,207.32426644664014 A 178.9867661024841,178.9867661024841 0 0 0 783.3141192354309,206.4696718875103 Z "/><path class="wedge" fill="url(#hiddenPattern)" d=" M 783.3141192354309,206.4696718875103 L 816.8656380730367,149.0619569195764 A 245.48000000000002,245.48000000000002 0 0,1 818.8496603148966,150.23403168769124 L 784.7607288368074,207.32426644664014 A 178.9867661024841,178.9867661024841 0 0 0 783.3141192354309,206.4696718875103 Z "/><path class="wedge" fill="rgb(216,169,140)" d=" M 778.7894539539734,217.7287086200238 L 819.1110277610202,150.3903158041891 A 245.48000000000002,245.48000000000002 0 0,1 819.1792732115638,150.43119553979145 L 778.8358792352586,217.75651784699923 A 166.992494871497,166.992494871497 0 0 0 778.7894539539734,217.7287086200238 Z "/><path class="wedge" fill="url(#hiddenPattern)" d=" M 778.7894539539734,217.7287086200238 L 819.1110277610202,150.3903158041891 A 245.48000000000002,245.48000000000002 0 0,1 819.1792732115638,150.43119553979145 L 778.8358792352586,217.75651784699923 A 166.992494871497,166.992494871497 0 0 0 778.7894539539734,217.7287086200238 Z "/><path class="wedge" fill="rgb(213,162,130)" d=" M 770.9475094085628,230.9367193242952 L 819.1907207756566,150.43805569353165 A 245.48000000000002,245.48000000000002 0 0,1 820.2732504715223,151.09061451566015 L 771.616183722608,231.33980232924873 A 151.63202565132852,151.63202565132852 0 0 0 770.9475094085628,230.9367193242952 Z "/><path class="wedge" fill="url(#hiddenPattern)" d=" M 770.9475094085628,230.9367193242952 L 819.1907207756566,150.43805569353165 A 245.48000000000002,245.48000000000002 0 0,1 820.2732504715223,151.09061451566015 L 771.616183722608,231.33980232924873 A 151.63202565132852,151.63202565132852 0 0 0 770.9475094085628,230.9367193242952 Z "/><path class="wedge" fill="rgb(213,162,130)" d=" M 761.3362254861381,248.9173850143595 L 820.7893965683874,151.4044358181991 A 245.48000000000002,245.48000000000002 0 0,1 867.4158139348526,188.25870716750185 L 786.2700107322435,268.6254505087097 A 131.27205451165776,131.27205451165776 0 0 0 761.3362254861381,248.9173850143595 Z "/><path class="wedge" fill="rgb(213,162,130)" d=" M 800.6992997098395,254.26138447058943 L 867.356465787541,188.19880429210545 A 245.48000000000002,245.48000000000002 0 0,1 867.4158139348526,188.25870716750185 L 800.7359588258388,254.29838623993396 A 151.63202565132852,151.63202565132852 0 0 0 800.6992997098395,254.26138447058943 Z "/><path class="wedge" fill="rgb(216,169,140)" d=" M 771.9350051263871,231.5336485073346 L 820.7893965683874,151.4044358181991 A 245.48000000000002,245.48000000000002 0 0,1 867.0906690044508,187.93102714356115 L 800.5351180875828,254.09597958441987 A 151.63202565132852,151.63202565132852 0 0 0 771.9350051263871,231.5336485073346 Z "/><path class="wedge" fill="rgb(216,169,140)" d=" M 811.2126912874498,243.0497860875825 L 866.7733871188258,187.6124562454075 A 245.48000000000002,245.48000000000002 0 0,1 867.0906690044508,187.93102714356115 L 811.4285283970231,243.26650007273867 A 166.992494871497,166.992494871497 0 0 0 811.2126912874498,243.0497860875825 Z "/><path class="wedge" fill="rgb(219,176,149)" d=" M 779.9311966395557,218.41858327880925 L 820.7893965683874,151.4044358181991 A 245.48000000000002,245.48000000000002 0 0,1 863.7723208938253,184.65589089358164 L 809.1711582249297,241.0385256005692 A 166.992494871497,166.992494871497 0 0 0 779.9311966395557,218.41858327880925 Z "/><path class="wedge" fill="rgb(219,176,149)" d=" M 817.2815010669265,232.19638618277477 L 863.4518358884729,184.3460953099279 A 245.48000000000002,245.48000000000002 0 0,1 863.7723208938253,184.65589089358164 L 817.5151762123246,232.4222673530168 A 178.9867661024841,178.9867661024841 0 0 0 817.2815010669265,232.19638618277477 Z "/><path class="wedge" fill="rgb(223,183,159)" d=" M 786.1750482074448,208.17764289422277 L 820.7893965683874,151.4044358181991 A 245.48000000000002,245.48000000000002 0 0,1 862.1138717116723,183.06481855830745 L 816.3059516080438,231.26216921090398 A 178.9867661024841,178.9867661024841 0 0 0 786.1750482074448,208.17764289422277 Z "/><path class="wedge" fill="rgb(223,183,159)" d=" M 821.3140761377005,222.76555529848076 L 860.0046483357356,181.08369213921353 A 245.48000000000002,245.48000000000002 0 0,1 862.1138717116723,183.06481855830745 L 822.9346480891306,224.28770697935488 A 188.60875864341233,188.60875864341233 0 0 0 821.3140761377005,222.76555529848076 Z "/><path class="wedge" fill="rgb(226,190,168)" d=" M 791.1839638852626,199.96219986355254 L 820.7893965683874,151.4044358181991 A 245.48000000000002,245.48000000000002 0 0,1 842.8401101281481,166.55625030157316 L 808.1261087105353,211.6037385669274 A 188.60875864341233,188.60875864341233 0 0 0 791.1839638852626,199.96219986355254 Z "/><path class="wedge" fill="rgb(226,190,168)" d=" M 812.0508002627344,204.67328443006198 L 841.72779846286,165.70414145612077 A 245.48000000000002,245.48000000000002 0 0,1 842.8401101281481,166.55625030157316 L 812.9411623555154,205.35536431701325 A 196.49716294155948,196.49716294155948 0 0 0 812.0508002627344,204.67328443006198 Z "/><path class="wedge" fill="rgb(229,198,178)" d=" M 795.2904264286377,193.22692794989644 L 820.7893965683874,151.4044358181991 A 245.48000000000002,245.48000000000002 0 0,1 837.6502521711044,162.66509397779745 L 808.7868835359425,202.24064548784577 A 196.49716294155948,196.49716294155948 0 0 0 795.2904264286377,193.22692794989644 Z "/><path class="wedge" fill="rgb(229,198,178)" d=" M 808.7868835359425,202.24064548784577 L 837.6502521711044,162.66509397779745 A 245.48000000000002,245.48000000000002 0 0,1 841.72779846286,165.70414145612077 L 812.0508002627344,204.67328443006198 A 196.49716294155948,196.49716294155948 0 0 0 808.7868835359425,202.24064548784577 Z "/><path class="wedge" fill="url(#hiddenPattern)" d=" M 808.7868835359425,202.24064548784577 L 837.6502521711044,162.66509397779745 A 245.48000000000002,245.48000000000002 0 0,1 841.72779846286,165.70414145612077 L 812.0508002627344,204.67328443006198 A 196.49716294155948,196.49716294155948 0 0 0 808.7868835359425,202.24064548784577 Z "/><path class="wedge" fill="rgb(226,191,168)" d=" M 808.1261087105353,211.6037385669274 L 842.8401101281481,166.55625030157316 A 245.48000000000002,245.48000000000002 0 0,1 857.7431955006551,179.01068730215795 L 819.5765422776908,221.17281100575286 A 188.60875864341233,188.60875864341233 0 0 0 808.1261087105353,211.6037385669274 Z "/><path class="wedge" fill="rgb(226,192,168)" d=" M 819.5765422776908,221.17281100575286 L 857.7431955006551,179.01068730215795 A 245.48000000000002,245.48000000000002 0 0,1 860.0046483357356,181.08369213921353 L 821.3140761377005,222.76555529848076 A 188.60875864341233,188.60875864341233 0 0 0 819.5765422776908,221.17281100575286 Z "/><path class="wedge" fill="url(#hiddenPattern)" d=" M 819.5765422776908,221.17281100575286 L 857.7431955006551,179.01068730215795 A 245.48000000000002,245.48000000000002 0 0,1 860.0046483357356,181.08369213921353 L 821.3140761377005,222.76555529848076 A 188.60875864341233,188.60875864341233 0 0 0 819.5765422776908,221.17281100575286 Z "/><path class="wedge" fill="rgb(219,178,149)" d=" M 816.3059516080438,231.26216921090398 L 862.1138717116723,183.06481855830745 A 245.48000000000002,245.48000000000002 0 0,1 863.4518358884729,184.3460953099279 L 817.2815010669265,232.19638618277477 A 178.9867661024841,178.9867661024841 0 0 0 816.3059516080438,231.26216921090398 Z "/><path class="wedge" fill="url(#hiddenPattern)" d=" M 816.3059516080438,231.26216921090398 L 862.1138717116723,183.06481855830745 A 245.48000000000002,245.48000000000002 0 0,1 863.4518358884729,184.3460953099279 L 817.2815010669265,232.19638618277477 A 178.9867661024841,178.9867661024841 0 0 0 816.3059516080438,231.26216921090398 Z "/><path class="wedge" fill="rgb(216,171,140)" d=" M 809.1711582249297,241.0385256005692 L 863.7723208938253,184.65589089358164 A 245.48000000000002,245.48000000000002 0 0,1 866.7733871188258,187.6124562454075 L 811.2126912874498,243.0497860875825 A 166.992494871497,166.992494871497 0 0 0 809.1711582249297,241.0385256005692 Z "/><path class="wedge" fill="url(#hiddenPattern)" d=" M 809.1711582249297,241.0385256005692 L 863.7723208938253,184.65589089358164 A 245.48000000000002,245.48000000000002 0 0,1 866.7733871188258,187.6124562454075 L 811.2126912874498,243.0497860875825 A 166.992494871497,166.992494871497 0 0 0 809.1711582249297,241.0385256005692 Z "/><path class="wedge" fill="rgb(213,164,130)" d=" M 800.5351180875828,254.09597958441987 L 867.0906690044508,187.93102714356115 A 245.48000000000002,245.48000000000002 0 0,1 867.356465787541,188.19880429210545 L 800.6992997098395,254.26138447058943 A 151.63202565132852,151.63202565132852 0 0 0 800.5351180875828,254.09597958441987 Z "/><path class="wedge" fill="url(#hiddenPattern)" d=" M 800.5351180875828,254.09597958441987 L 867.0906690044508,187.93102714356115 A 245.48000000000002,245.48000000000002 0 0,1 867.356465787541,188.19880429210545 L 800.6992997098395,254.26138447058943 A 151.63202565132852,151.63202565132852 0 0 0 800.5351180875828,254.09597958441987 Z "/><path class="wedge" fill="rgb(210,157,121)" d=" M 786.2700107322435,268.6254505087097 L 867.4158139348526,188.25870716750185 A 245.48000000000002,245.48000000000002 0 0,1 874.3922098910639,195.59958708988592 L 790.0006846374849,272.5510346269057 A 131.27205451165776,131.27205451165776 0 0 0 786.2700107322435,268.6254505087097 Z "/><path class="wedge" fill="url(#hiddenPattern)" d=" M 786.2700107322435,268.6254505087097 L 867.4158139348526,188.25870716750185 A 245.48000000000002,245.48000000000002 0 0,1 874.3922098910639,195.59958708988592 L 790.0006846374849,272.5510346269057 A 131.27205451165776,131.27205451165776 0 0 0 786.2700107322435,268.6254505087097 Z "/><path class="wedge" fill="rgb(210,158,121)" d=" M 769.5508366530514,292.03417712516176 L 875.3808148283898,196.69032657042797 A 245.48000000000002,245.48000000000002 0 0,1 938.4761315691555,362.3781254814535 L 796.0338814291134,361.5784416453969 A 103.0355051285028,103.0355051285028 0 0 0 769.5508366530514,292.03417712516176 Z "/><path class="wedge" fill="rgb(210,158,121)" d=" M 824.2706530255339,361.6065887911354 L 938.4773792075171,362.13432685274756 A 245.48000000000002,245.48000000000002 0 0,1 938.4761315691555,362.3781254814535 L 824.2699858426636,361.7369617212207 A 131.27205451165776,131.27205451165776 0 0 0 824.2706530255339,361.6065887911354 Z "/><path class="wedge" fill="rgb(213,165,130)" d=" M 790.5293476700054,273.13431478230626 L 875.3808148283898,196.69032657042797 A 245.48000000000002,245.48000000000002 0 0,1 933.981271689972,314.2190520117014 L 821.8663297766605,335.9835784812328 A 131.27205451165776,131.27205451165776 0 0 0 790.5293476700054,273.13431478230626 Z "/><path class="wedge" fill="rgb(213,165,130)" d=" M 841.8421141770494,332.04665389922394 L 933.9633587049688,314.1268716467468 A 245.48000000000002,245.48000000000002 0 0,1 933.981271689972,314.2190520117014 L 841.8531789570784,332.1035933462801 A 151.63202565132852,151.63202565132852 0 0 0 841.8421141770494,332.04665389922394 Z "/><path class="wedge" fill="rgb(216,172,140)" d=" M 805.6559083932239,259.5065642160898 L 875.3808148283898,196.69032657042797 A 245.48000000000002,245.48000000000002 0 0,1 933.8926023969992,313.76458415128246 L 841.7984082853066,331.8228703453483 A 151.63202565132852,151.63202565132852 0 0 0 805.6559083932239,259.5065642160898 Z "/><path class="wedge" fill="rgb(216,172,140)" d=" M 856.8629274131116,328.8218340638832 L 933.8795164856024,313.6978971116252 A 245.48000000000002,245.48000000000002 0 0,1 933.8926023969992,313.76458415128246 L 856.8718293562101,328.8671992061676 A 166.992494871497,166.992494871497 0 0 0 856.8629274131116,328.8218340638832 Z "/><path class="wedge" fill="rgb(219,179,149)" d=" M 817.0680596581772,249.22518210230913 L 875.3808148283898,196.69032657042797 A 245.48000000000002,245.48000000000002 0 0,1 933.8027718460453,313.30874848296094 L 856.8107203949119,328.5571082191037 A 166.992494871497,166.992494871497 0 0 0 817.0680596581772,249.22518210230913 Z "/><path class="wedge" fill="rgb(219,179,149)" d=" M 868.5293338506392,325.9897815234435 L 933.7381384218265,312.9835537633874 A 245.48000000000002,245.48000000000002 0 0,1 933.8027718460453,313.30874848296094 L 868.576460001784,326.22689066149985 A 178.9867661024841,178.9867661024841 0 0 0 868.5293338506392,325.9897815234435 Z "/><path class="wedge" fill="rgb(223,186,159)" d=" M 825.979274259693,241.19693218789982 L 875.3808148283898,196.69032657042797 A 245.48000000000002,245.48000000000002 0 0,1 927.1224104777194,287.1953435608413 L 863.7056099214817,307.18683078315996 A 178.9867661024841,178.9867661024841 0 0 0 825.979274259693,241.19693218789982 Z "/><path class="wedge" fill="rgb(226,192,168)" d=" M 833.1279904071886,234.7565441638584 L 875.3808148283898,196.69032657042797 A 245.48000000000002,245.48000000000002 0 0,1 927.1212448199002,287.19164597431836 L 872.8815274463574,304.29109487413507 A 188.60875864341233,188.60875864341233 0 0 0 833.1279904071886,234.7565441638584 Z "/><path class="wedge" fill="rgb(226,192,168)" d=" M 833.1279904071886,234.7565441638584 L 875.3808148283898,196.69032657042797 A 245.48000000000002,245.48000000000002 0 0,1 927.1212448199002,287.19164597431836 L 872.8815274463574,304.29109487413507 A 188.60875864341233,188.60875864341233 0 0 0 833.1279904071886,234.7565441638584 Z "/><path class="wedge" fill="rgb(226,192,168)" d=" M 876.6656931353974,291.15697451301384 L 922.4498998150245,273.7464964893946 A 245.48000000000002,245.48000000000002 0 0,1 927.1212448199002,287.19164597431836 L 880.4049225658166,301.91929213201615 A 196.49716294155948,196.49716294155948 0 0 0 876.6656931353974,291.15697451301384 Z "/><path class="wedge" fill="rgb(229,199,178)" d=" M 838.9887269380337,229.47651673144438 L 875.3808148283898,196.69032657042797 A 245.48000000000002,245.48000000000002 0 0,1 896.7377798320024,224.06444045052967 L 856.0841442113432,251.38842692974623 A 196.49716294155948,196.49716294155948 0 0 0 838.9887269380337,229.47651673144438 Z "/><path class="wedge" fill="rgb(229,199,178)" d=" M 838.9887269380337,229.47651673144438 L 875.3808148283898,196.69032657042797 A 245.48000000000002,245.48000000000002 0 0,1 896.7377798320024,224.06444045052967 L 856.0841442113432,251.38842692974623 A 196.49716294155948,196.49716294155948 0 0 0 838.9887269380337,229.47651673144438 Z "/><path class="wedge" fill="rgb(229,200,178)" d=" M 856.0841442113432,251.38842692974623 L 896.7377798320024,224.06444045052967 A 245.48000000000002,245.48000000000002 0 0,1 911.0353672964908,248.21254942200198 L 867.528805176313,270.71804605675425 A 196.49716294155948,196.49716294155948 0 0 0 856.0841442113432,251.38842692974623 Z "/><path class="wedge" fill="rgb(226,194,168)" d=" M 867.528805176313,270.71804605675425 L 911.0353672964908,248.21254942200198 A 245.48000000000002,245.48000000000002 0 0,1 921.5860286201878,271.5077773231064 L 875.9741979466555,289.3649671608934 A 196.49716294155948,196.49716294155948 0 0 0 867.528805176313,270.71804605675425 Z "/><path class="wedge" fill="url(#hiddenPattern)" d=" M 867.528805176313,270.71804605675425 L 911.0353672964908,248.21254942200198 A 245.48000000000002,245.48000000000002 0 0,1 921.5860286201878,271.5077773231064 L 875.9741979466555,289.3649671608934 A 196.49716294155948,196.49716294155948 0 0 0 867.528805176313,270.71804605675425 Z "/><path class="wedge" fill="rgb(226,194,168)" d=" M 875.9741979466555,289.3649671608934 L 921.5860286201878,271.5077773231064 A 245.48000000000002,245.48000000000002 0 0,1 922.4498998150245,273.7464964893946 L 876.6656931353974,291.15697451301384 A 196.49716294155948,196.49716294155948 0 0 0 875.9741979466555,289.3649671608934 Z "/><path class="wedge" fill="url(#hiddenPattern)" d=" M 875.9741979466555,289.3649671608934 L 921.5860286201878,271.5077773231064 A 245.48000000000002,245.48000000000002 0 0,1 922.4498998150245,273.7464964893946 L 876.6656931353974,291.15697451301384 A 196.49716294155948,196.49716294155948 0 0 0 875.9741979466555,289.3649671608934 Z "/><path class="wedge" fill="rgb(223,188,159)" d=" M 872.8815274463574,304.29109487413507 L 927.1212448199002,287.19164597431836 A 245.48000000000002,245.48000000000002 0 0,1 927.1224104777194,287.1953435608413 L 872.8824230520046,304.2939358273861 A 188.60875864341233,188.60875864341233 0 0 0 872.8815274463574,304.29109487413507 Z "/><path class="wedge" fill="url(#hiddenPattern)" d=" M 872.8815274463574,304.29109487413507 L 927.1212448199002,287.19164597431836 A 245.48000000000002,245.48000000000002 0 0,1 927.1224104777194,287.1953435608413 L 872.8824230520046,304.2939358273861 A 188.60875864341233,188.60875864341233 0 0 0 872.8815274463574,304.29109487413507 Z "/><path class="wedge" fill="rgb(223,188,159)" d=" M 863.7056099214817,307.18683078315996 L 927.1224104777194,287.1953435608413 A 245.48000000000002,245.48000000000002 0 0,1 933.3076188036046,310.8733728948227 L 868.2154291976767,324.4511859166498 A 178.9867661024841,178.9867661024841 0 0 0 863.7056099214817,307.18683078315996 Z "/><path class="wedge" fill="rgb(223,188,159)" d=" M 877.5762118993277,322.20714192143805 L 933.2315185304335,310.50992271186345 A 245.48000000000002,245.48000000000002 0 0,1 933.3076188036046,310.8733728948227 L 877.6346817463833,322.4863902831648 A 188.60875864341233,188.60875864341233 0 0 0 877.5762118993277,322.20714192143805 Z "/><path class="wedge" fill="rgb(226,195,168)" d=" M 872.8824230520046,304.2939358273861 L 927.1224104777194,287.1953435608413 A 245.48000000000002,245.48000000000002 0 0,1 931.7741832971144,304.0147405832347 L 876.4565028017082,317.2167221787155 A 188.60875864341233,188.60875864341233 0 0 0 872.8824230520046,304.2939358273861 Z "/><path class="wedge" fill="rgb(226,195,168)" d=" M 872.8824230520046,304.2939358273861 L 927.1224104777194,287.1953435608413 A 245.48000000000002,245.48000000000002 0 0,1 931.7741832971144,304.0147405832347 L 876.4565028017082,317.2167221787155 A 188.60875864341233,188.60875864341233 0 0 0 872.8824230520046,304.2939358273861 Z "/><path class="wedge" fill="rgb(223,189,159)" d=" M 876.4565028017082,317.2167221787155 L 931.7741832971144,304.0147405832347 A 245.48000000000002,245.48000000000002 0 0,1 933.2315185304335,310.50992271186345 L 877.5762118993277,322.20714192143805 A 188.60875864341233,188.60875864341233 0 0 0 876.4565028017082,317.2167221787155 Z "/><path class="wedge" fill="url(#hiddenPattern)" d=" M 876.4565028017082,317.2167221787155 L 931.7741832971144,304.0147405832347 A 245.48000000000002,245.48000000000002 0 0,1 933.2315185304335,310.50992271186345 L 877.5762118993277,322.20714192143805 A 188.60875864341233,188.60875864341233 0 0 0 876.4565028017082,317.2167221787155 Z "/><path class="wedge" fill="rgb(219,182,149)" d=" M 868.2154291976767,324.4511859166498 L 933.3076188036046,310.8733728948227 A 245.48000000000002,245.48000000000002 0 0,1 933.7381384218265,312.9835537633874 L 868.5293338506392,325.9897815234435 A 178.9867661024841,178.9867661024841 0 0 0 868.2154291976767,324.4511859166498 Z "/><path class="wedge" fill="url(#hiddenPattern)" d=" M 868.2154291976767,324.4511859166498 L 933.3076188036046,310.8733728948227 A 245.48000000000002,245.48000000000002 0 0,1 933.7381384218265,312.9835537633874 L 868.5293338506392,325.9897815234435 A 178.9867661024841,178.9867661024841 0 0 0 868.2154291976767,324.4511859166498 Z "/><path class="wedge" fill="rgb(216,176,140)" d=" M 856.8107203949119,328.5571082191037 L 933.8027718460453,313.30874848296094 A 245.48000000000002,245.48000000000002 0 0,1 933.8795164856024,313.6978971116252 L 856.8629274131116,328.8218340638832 A 166.992494871497,166.992494871497 0 0 0 856.8107203949119,328.5571082191037 Z "/><path class="wedge" fill="url(#hiddenPattern)" d=" M 856.8107203949119,328.5571082191037 L 933.8027718460453,313.30874848296094 A 245.48000000000002,245.48000000000002 0 0,1 933.8795164856024,313.6978971116252 L 856.8629274131116,328.8218340638832 A 166.992494871497,166.992494871497 0 0 0 856.8107203949119,328.5571082191037 Z "/><path class="wedge" fill="rgb(213,169,130)" d=" M 841.7984082853066,331.8228703453483 L 933.8926023969992,313.76458415128246 A 245.48000000000002,245.48000000000002 0 0,1 933.9633587049688,314.1268716467468 L 841.8421141770494,332.04665389922394 A 151.63202565132852,151.63202565132852 0 0 0 841.7984082853066,331.8228703453483 Z "/><path class="wedge" fill="url(#hiddenPattern)" d=" M 841.7984082853066,331.8228703453483 L 933.8926023969992,313.76458415128246 A 245.48000000000002,245.48000000000002 0 0,1 933.9633587049688,314.1268716467468 L 841.8421141770494,332.04665389922394 A 151.63202565132852,151.63202565132852 0 0 0 841.7984082853066,331.8228703453483 Z "/><path class="wedge" fill="rgb(213,170,130)" d=" M 821.8663297766605,335.9835784812328 L 933.981271689972,314.2190520117014 A 245.48000000000002,245.48000000000002 0 0,1 938.4785497192719,361.84381735167915 L 824.2712789644409,361.45123691293594 A 131.27205451165776,131.27205451165776 0 0 0 821.8663297766605,335.9835784812328 Z "/><path class="wedge" fill="rgb(213,170,130)" d=" M 844.6312184569819,361.4947649706556 L 938.4786932175616,361.8009845181111 A 245.48000000000002,245.48000000000002 0 0,1 938.4785497192719,361.84381735167915 L 844.6311298186555,361.5212226426383 A 151.63202565132852,151.63202565132852 0 0 0 844.6312184569819,361.4947649706556 Z "/><path class="wedge" fill="rgb(216,176,140)" d=" M 841.8531789570784,332.1035933462801 L 933.981271689972,314.2190520117014 A 245.48000000000002,245.48000000000002 0 0,1 938.4791547509744,361.6441915453784 L 844.6315035443466,361.3979145711797 A 151.63202565132852,151.63202565132852 0 0 0 841.8531789570784,332.1035933462801 Z "/><path class="wedge" fill="rgb(216,176,140)" d=" M 859.9920911144654,360.6327825916414 L 938.4794064746673,360.4601881391542 A 245.48000000000002,245.48000000000002 0 0,1 938.4791547509744,361.6441915453784 L 859.9919198745785,361.43822369780787 A 166.992494871497,166.992494871497 0 0 0 859.9920911144654,360.6327825916414 Z "/><path class="wedge" fill="rgb(219,183,149)" d=" M 856.9321483494153,329.17635971557877 L 933.981271689972,314.2190520117014 A 245.48000000000002,245.48000000000002 0 0,1 938.4176904061501,355.4693910180654 L 859.9501075709779,357.23769678975077 A 166.992494871497,166.992494871497 0 0 0 856.9321483494153,329.17635971557877 Z "/><path class="wedge" fill="rgb(219,183,149)" d=" M 871.9349335795541,356.69279850646507 L 938.4089117960734,355.0926815671526 A 245.48000000000002,245.48000000000002 0 0,1 938.4176904061501,355.4693910180654 L 871.9413343251484,356.96746856667005 A 178.9867661024841,178.9867661024841 0 0 0 871.9349335795541,356.69279850646507 Z "/><path class="wedge" fill="rgb(223,189,159)" d=" M 868.7066095447783,326.890620027562 L 933.981271689972,314.2190520117014 A 245.48000000000002,245.48000000000002 0 0,1 938.0766215946265,346.9330192377961 L 871.6926509147158,350.7433461159657 A 178.9867661024841,178.9867661024841 0 0 0 868.7066095447783,326.890620027562 Z "/><path class="wedge" fill="rgb(223,189,159)" d=" M 881.2672411912602,349.65496887440014 L 938.0355047137932,346.2340990909251 A 245.48000000000002,245.48000000000002 0 0,1 938.0766215946265,346.9330192377961 L 881.2988323752803,350.1919676575687 A 188.60875864341233,188.60875864341233 0 0 0 881.2672411912602,349.65496887440014 Z "/><path class="wedge" fill="rgb(223,189,159)" d=" M 878.1522670268719,325.0569637924269 L 933.981271689972,314.2190520117014 A 245.48000000000002,245.48000000000002 0 0,1 936.4604385208589,329.5763580208934 L 880.0570762921623,336.8563870550175 A 188.60875864341233,188.60875864341233 0 0 0 878.1522670268719,325.0569637924269 Z "/><path class="wedge" fill="url(#hiddenPattern)" d=" M 878.1522670268719,325.0569637924269 L 933.981271689972,314.2190520117014 A 245.48000000000002,245.48000000000002 0 0,1 936.4604385208589,329.5763580208934 L 880.0570762921623,336.8563870550175 A 188.60875864341233,188.60875864341233 0 0 0 878.1522670268719,325.0569637924269 Z "/><path class="wedge" fill="rgb(223,190,159)" d=" M 880.0570762921623,336.8563870550175 L 936.4604385208589,329.5763580208934 A 245.48000000000002,245.48000000000002 0 0,1 938.0355047137932,346.2340990909251 L 881.2672411912602,349.65496887440014 A 188.60875864341233,188.60875864341233 0 0 0 880.0570762921623,336.8563870550175 Z "/><path class="wedge" fill="url(#hiddenPattern)" d=" M 880.0570762921623,336.8563870550175 L 936.4604385208589,329.5763580208934 A 245.48000000000002,245.48000000000002 0 0,1 938.0355047137932,346.2340990909251 L 881.2672411912602,349.65496887440014 A 188.60875864341233,188.60875864341233 0 0 0 880.0570762921623,336.8563870550175 Z "/><path class="wedge" fill="rgb(219,184,149)" d=" M 871.6926509147158,350.7433461159657 L 938.0766215946265,346.9330192377961 A 245.48000000000002,245.48000000000002 0 0,1 938.4089117960734,355.0926815671526 L 871.9349335795541,356.69279850646507 A 178.9867661024841,178.9867661024841 0 0 0 871.6926509147158,350.7433461159657 Z "/><path class="wedge" fill="url(#hiddenPattern)" d=" M 871.6926509147158,350.7433461159657 L 938.0766215946265,346.9330192377961 A 245.48000000000002,245.48000000000002 0 0,1 938.4089117960734,355.0926815671526 L 871.9349335795541,356.69279850646507 A 178.9867661024841,178.9867661024841 0 0 0 871.6926509147158,350.7433461159657 Z "/><path class="wedge" fill="rgb(216,178,140)" d=" M 859.9501075709779,357.23769678975077 L 938.4176904061501,355.4693910180654 A 245.48000000000002,245.48000000000002 0 0,1 938.4794064746673,360.4601881391542 L 859.9920911144654,360.6327825916414 A 166.992494871497,166.992494871497 0 0 0 859.9501075709779,357.23769678975077 Z "/><path class="wedge" fill="url(#hiddenPattern)" d=" M 859.9501075709779,357.23769678975077 L 938.4176904061501,355.4693910180654 A 245.48000000000002,245.48000000000002 0 0,1 938.4794064746673,360.4601881391542 L 859.9920911144654,360.6327825916414 A 166.992494871497,166.992494871497 0 0 0 859.9501075709779,357.23769678975077 Z "/><path class="wedge" fill="rgb(213,171,130)" d=" M 844.6315035443466,361.3979145711797 L 938.4791547509744,361.6441915453784 A 245.48000000000002,245.48000000000002 0 0,1 938.4786932175616,361.8009845181111 L 844.6312184569819,361.4947649706556 A 151.63202565132852,151.63202565132852 0 0 0 844.6315035443466,361.3979145711797 Z "/><path class="wedge" fill="url(#hiddenPattern)" d=" M 844.6315035443466,361.3979145711797 L 938.4791547509744,361.6441915453784 A 245.48000000000002,245.48000000000002 0 0,1 938.4786932175616,361.8009845181111 L 844.6312184569819,361.4947649706556 A 151.63202565132852,151.63202565132852 0 0 0 844.6315035443466,361.3979145711797 Z "/><path class="wedge" fill="rgb(210,165,121)" d=" M 824.2712789644409,361.45123691293594 L 938.4785497192719,361.84381735167915 A 245.48000000000002,245.48000000000002 0 0,1 938.4773792075171,362.13432685274756 L 824.2706530255339,361.6065887911354 A 131.27205451165776,131.27205451165776 0 0 0 824.2712789644409,361.45123691293594 Z "/><path class="wedge" fill="url(#hiddenPattern)" d=" M 824.2712789644409,361.45123691293594 L 938.4785497192719,361.84381735167915 A 245.48000000000002,245.48000000000002 0 0,1 938.4773792075171,362.13432685274756 L 824.2706530255339,361.6065887911354 A 131.27205451165776,131.27205451165776 0 0 0 824.2712789644409,361.45123691293594 Z "/><path class="wedge" fill="rgb(207,159,111)" d=" M 796.0338814291134,361.5784416453969 L 938.4761315691555,362.3781254814535 A 245.48000000000002,245.48000000000002 0 0,1 938.33176221949,369.5297623811954 L 795.9732851733374,364.5802035830722 A 103.0355051285028,103.0355051285028 0 0 0 796.0338814291134,361.5784416453969 Z "/><path class="wedge" fill="url(#hiddenPattern)" d=" M 796.0338814291134,361.5784416453969 L 938.4761315691555,362.3781254814535 A 245.48000000000002,245.48000000000002 0 0,1 938.33176221949,369.5297623811954 L 795.9732851733374,364.5802035830722 A 103.0355051285028,103.0355051285028 0 0 0 796.0338814291134,361.5784416453969 Z "/><path class="wedge" fill="rgb(207,207,111)" d=" M 754.3106826155242,363.69760953780434 L 938.242730462097,371.79043815121736 A 245.48000000000002,245.48000000000002 0 0,1 695.8261375996132,606.4637312237147 L 693.7065343999033,422.36593280592865 A 61.370000000000005,61.370000000000005 0 0 0 754.3106826155242,363.69760953780434 Z "/><path class="wedge" fill="rgb(101,204,101)" d=" M 693.7065343999033,422.36593280592865 L 695.8261375996132,606.4637312237147 A 245.48000000000002,245.48000000000002 0 0,1 694.5586809884483,606.4750515094686 L 693.389670247112,422.36876287736715 A 61.370000000000005,61.370000000000005 0 0 0 693.7065343999033,422.36593280592865 Z "/><path class="wedge" fill="url(#hiddenPattern)" d=" M 693.7065343999033,422.36593280592865 L 695.8261375996132,606.4637312237147 A 245.48000000000002,245.48000000000002 0 0,1 694.5586809884483,606.4750515094686 L 693.389670247112,422.36876287736715 A 61.370000000000005,61.370000000000005 0 0 0 693.7065343999033,422.36593280592865 Z "/><path class="wedge" fill="rgb(111,207,207)" d=" M 693.389670247112,422.36876287736715 L 694.5586809884483,606.4750515094686 A 245.48000000000002,245.48000000000002 0 0,1 693.4090575312761,606.479659181644 L 693.102264382819,422.369914795411 A 61.370000000000005,61.370000000000005 0 0 0 693.389670247112,422.36876287736715 Z "/><path class="wedge" fill="rgb(111,207,207)" d=" M 693.389670247112,422.36876287736715 L 694.5586809884483,606.4750515094686 A 245.48000000000002,245.48000000000002 0 0,1 693.4090575312761,606.479659181644 L 693.102264382819,422.369914795411 A 61.370000000000005,61.370000000000005 0 0 0 693.389670247112,422.36876287736715 Z "/><path class="wedge" fill="rgb(111,207,207)" d=" M 693.389670247112,422.36876287736715 L 694.5586809884483,606.4750515094686 A 245.48000000000002,245.48000000000002 0 0,1 693.4090575312761,606.479659181644 L 693.102264382819,422.369914795411 A 61.370000000000005,61.370000000000005 0 0 0 693.389670247112,422.36876287736715 Z "/><path class="wedge" fill="rgb(111,207,207)" d=" M 693.389670247112,422.36876287736715 L 694.5586809884483,606.4750515094686 A 245.48000000000002,245.48000000000002 0 0,1 693.4090575312761,606.479659181644 L 693.102264382819,422.369914795411 A 61.370000000000005,61.370000000000005 0 0 0 693.389670247112,422.36876287736715 Z "/><path class="wedge" fill="rgb(111,207,207)" d=" M 693.389670247112,422.36876287736715 L 694.5586809884483,606.4750515094686 A 245.48000000000002,245.48000000000002 0 0,1 693.4090575312761,606.479659181644 L 693.102264382819,422.369914795411 A 61.370000000000005,61.370000000000005 0 0 0 693.389670247112,422.36876287736715 Z "/><path class="wedge" fill="rgb(111,207,207)" d=" M 693.389670247112,422.36876287736715 L 694.5586809884483,606.4750515094686 A 245.48000000000002,245.48000000000002 0 0,1 693.4090575312761,606.479659181644 L 693.102264382819,422.369914795411 A 61.370000000000005,61.370000000000005 0 0 0 693.389670247112,422.36876287736715 Z "/><path class="wedge" fill="rgb(111,207,207)" d=" M 693.389670247112,422.36876287736715 L 694.5586809884483,606.4750515094686 A 245.48000000000002,245.48000000000002 0 0,1 693.4090575312761,606.479659181644 L 693.102264382819,422.369914795411 A 61.370000000000005,61.370000000000005 0 0 0 693.389670247112,422.36876287736715 Z "/><path class="wedge" fill="rgb(111,207,207)" d=" M 693.389670247112,422.36876287736715 L 694.5586809884483,606.4750515094686 A 245.48000000000002,245.48000000000002 0 0,1 693.4090575312761,606.479659181644 L 693.102264382819,422.369914795411 A 61.370000000000005,61.370000000000005 0 0 0 693.389670247112,422.36876287736715 Z "/><path class="wedge" fill="rgb(111,207,207)" d=" M 693.389670247112,422.36876287736715 L 694.5586809884483,606.4750515094686 A 245.48000000000002,245.48000000000002 0 0,1 693.4090575312761,606.479659181644 L 693.102264382819,422.369914795411 A 61.370000000000005,61.370000000000005 0 0 0 693.389670247112,422.36876287736715 Z "/><path class="wedge" fill="rgb(111,207,207)" d=" M 693.389670247112,422.36876287736715 L 694.5586809884483,606.4750515094686 A 245.48000000000002,245.48000000000002 0 0,1 693.4090575312761,606.479659181644 L 693.102264382819,422.369914795411 A 61.370000000000005,61.370000000000005 0 0 0 693.389670247112,422.36876287736715 Z "/><path class="wedge" fill="rgb(111,207,207)" d=" M 693.389670247112,422.36876287736715 L 694.5586809884483,606.4750515094686 A 245.48000000000002,245.48000000000002 0 0,1 693.4090575312761,606.479659181644 L 693.102264382819,422.369914795411 A 61.370000000000005,61.370000000000005 0 0 0 693.389670247112,422.36876287736715 Z "/><path class="wedge" fill="rgb(111,207,207)" d=" M 693.389670247112,422.36876287736715 L 694.5586809884483,606.4750515094686 A 245.48000000000002,245.48000000000002 0 0,1 693.4090575312761,606.479659181644 L 693.102264382819,422.369914795411 A 61.370000000000005,61.370000000000005 0 0 0 693.389670247112,422.36876287736715 Z "/><path class="wedge" fill="rgb(111,207,207)" d=" M 693.389670247112,422.36876287736715 L 694.5586809884483,606.4750515094686 A 245.48000000000002,245.48000000000002 0 0,1 693.4090575312761,606.479659181644 L 693.102264382819,422.369914795411 A 61.370000000000005,61.370000000000005 0 0 0 693.389670247112,422.36876287736715 Z "/><path class="wedge" fill="rgb(111,207,207)" d=" M 693.389670247112,422.36876287736715 L 694.5586809884483,606.4750515094686 A 245.48000000000002,245.48000000000002 0 0,1 693.4090575312761,606.479659181644 L 693.102264382819,422.369914795411 A 61.370000000000005,61.370000000000005 0 0 0 693.389670247112,422.36876287736715 Z "/><path class="wedge" fill="rgb(111,207,207)" d=" M 693.389670247112,422.36876287736715 L 694.5586809884483,606.4750515094686 A 245.48000000000002,245.48000000000002 0 0,1 693.4090575312761,606.479659181644 L 693.102264382819,422.369914795411 A 61.370000000000005,61.370000000000005 0 0 0 693.389670247112,422.36876287736715 Z "/><path class="wedge" fill="rgb(111,207,207)" d=" M 693.389670247112,422.36876287736715 L 694.5586809884483,606.4750515094686 A 245.48000000000002,245.48000000000002 0 0,1 693.4090575312761,606.479659181644 L 693.102264382819,422.369914795411 A 61.370000000000005,61.370000000000005 0 0 0 693.389670247112,422.36876287736715 Z "/><path class="wedge" fill="rgb(111,207,207)" d=" M 693.389670247112,422.36876287736715 L 694.5586809884483,606.4750515094686 A 245.48000000000002,245.48000000000002 0 0,1 693.4090575312761,606.479659181644 L 693.102264382819,422.369914795411 A 61.370000000000005,61.370000000000005 0 0 0 693.389670247112,422.36876287736715 Z "/><path class="wedge" fill="rgb(111,207,207)" d=" M 693.389670247112,422.36876287736715 L 694.5586809884483,606.4750515094686 A 245.48000000000002,245.48000000000002 0 0,1 693.4090575312761,606.479659181644 L 693.102264382819,422.369914795411 A 61.370000000000005,61.370000000000005 0 0 0 693.389670247112,422.36876287736715 Z "/><path class="wedge" fill="rgb(111,207,207)" d=" M 693.389670247112,422.36876287736715 L 694.5586809884483,606.4750515094686 A 245.48000000000002,245.48000000000002 0 0,1 693.4090575312761,606.479659181644 L 693.102264382819,422.369914795411 A 61.370000000000005,61.370000000000005 0 0 0 693.389670247112,422.36876287736715 Z "/><path class="wedge" fill="rgb(111,207,207)" d=" M 693.389670247112,422.36876287736715 L 694.5586809884483,606.4750515094686 A 245.48000000000002,245.48000000000002 0 0,1 693.4090575312761,606.479659181644 L 693.102264382819,422.369914795411 A 61.370000000000005,61.370000000000005 0 0 0 693.389670247112,422.36876287736715 Z "/><path class="wedge" fill="rgb(111,207,207)" d=" M 693.389670247112,422.36876287736715 L 694.5586809884483,606.4750515094686 A 245.48000000000002,245.48000000000002 0 0,1 693.4090575312761,606.479659181644 L 693.102264382819,422.369914795411 A 61.370000000000005,61.370000000000005 0 0 0 693.389670247112,422.36876287736715 Z "/><path class="wedge" fill="rgb(111,207,207)" d=" M 693.389670247112,422.36876287736715 L 694.5586809884483,606.4750515094686 A 245.48000000000002,245.48000000000002 0 0,1 693.4090575312761,606.479659181644 L 693.102264382819,422.369914795411 A 61.370000000000005,61.370000000000005 0 0 0 693.389670247112,422.36876287736715 Z "/><path class="wedge" fill="rgb(111,207,207)" d=" M 693.389670247112,422.36876287736715 L 694.5586809884483,606.4750515094686 A 245.48000000000002,245.48000000000002 0 0,1 693.4090575312761,606.479659181644 L 693.102264382819,422.369914795411 A 61.370000000000005,61.370000000000005 0 0 0 693.389670247112,422.36876287736715 Z "/><path class="wedge" fill="rgb(111,207,207)" d=" M 693.389670247112,422.36876287736715 L 694.5586809884483,606.4750515094686 A 245.48000000000002,245.48000000000002 0 0,1 693.4090575312761,606.479659181644 L 693.102264382819,422.369914795411 A 61.370000000000005,61.370000000000005 0 0 0 693.389670247112,422.36876287736715 Z "/><path class="wedge" fill="rgb(111,207,207)" d=" M 693.389670247112,422.36876287736715 L 694.5586809884483,606.4750515094686 A 245.48000000000002,245.48000000000002 0 0,1 693.4090575312761,606.479659181644 L 693.102264382819,422.369914795411 A 61.370000000000005,61.370000000000005 0 0 0 693.389670247112,422.36876287736715 Z "/><path class="wedge" fill="rgb(111,207,207)" d=" M 693.389670247112,422.36876287736715 L 694.5586809884483,606.4750515094686 A 245.48000000000002,245.48000000000002 0 0,1 693.4090575312761,606.479659181644 L 693.102264382819,422.369914795411 A 61.370000000000005,61.370000000000005 0 0 0 693.389670247112,422.36876287736715 Z "/><path class="wedge" fill="rgb(111,207,207)" d=" M 693.389670247112,422.36876287736715 L 694.5586809884483,606.4750515094686 A 245.48000000000002,245.48000000000002 0 0,1 693.4090575312761,606.479659181644 L 693.102264382819,422.369914795411 A 61.370000000000005,61.370000000000005 0 0 0 693.389670247112,422.36876287736715 Z "/><path class="wedge" fill="rgb(111,207,207)" d=" M 693.389670247112,422.36876287736715 L 694.5586809884483,606.4750515094686 A 245.48000000000002,245.48000000000002 0 0,1 693.4090575312761,606.479659181644 L 693.102264382819,422.369914795411 A 61.370000000000005,61.370000000000005 0 0 0 693.389670247112,422.36876287736715 Z "/><path class="wedge" fill="rgb(111,207,207)" d=" M 693.389670247112,422.36876287736715 L 694.5586809884483,606.4750515094686 A 245.48000000000002,245.48000000000002 0 0,1 693.4090575312761,606.479659181644 L 693.102264382819,422.369914795411 A 61.370000000000005,61.370000000000005 0 0 0 693.389670247112,422.36876287736715 Z "/><path class="wedge" fill="rgb(111,207,207)" d=" M 693.389670247112,422.36876287736715 L 694.5586809884483,606.4750515094686 A 245.48000000000002,245.48000000000002 0 0,1 693.4090575312761,606.479659181644 L 693.102264382819,422.369914795411 A 61.370000000000005,61.370000000000005 0 0 0 693.389670247112,422.36876287736715 Z "/><path class="wedge" fill="rgb(101,101,204)" d=" M 693.102264382819,422.369914795411 L 693.4090575312761,606.479659181644 A 245.48000000000002,245.48000000000002 0 0,1 693.2618073295412,606.4798603896503 L 693.0654518323853,422.3699650974126 A 61.370000000000005,61.370000000000005 0 0 0 693.102264382819,422.369914795411 Z "/><path class="wedge" fill="url(#hiddenPattern)" d=" M 693.102264382819,422.369914795411 L 693.4090575312761,606.479659181644 A 245.48000000000002,245.48000000000002 0 0,1 693.2618073295412,606.4798603896503 L 693.0654518323853,422.3699650974126 A 61.370000000000005,61.370000000000005 0 0 0 693.102264382819,422.369914795411 Z "/><path class="wedge" fill="rgb(207,111,207)" d=" M 693.0654518323853,422.3699650974126 L 693.2618073295412,606.4798603896503 A 245.48000000000002,245.48000000000002 0 0,1 693.2613599869857,606.4798608663391 L 693.0653399967464,422.3699652165848 A 61.370000000000005,61.370000000000005 0 0 0 693.0654518323853,422.3699650974126 Z "/><path class="wedge" fill="rgb(207,111,207)" d=" M 693.0654518323853,422.3699650974126 L 693.2618073295412,606.4798603896503 A 245.48000000000002,245.48000000000002 0 0,1 693.2613599869857,606.4798608663391 L 693.0653399967464,422.3699652165848 A 61.370000000000005,61.370000000000005 0 0 0 693.0654518323853,422.3699650974126 Z "/><circle cx="693" cy="361" r="61.370000000000005"/><circle cx="693" cy="361" r="245.48000000000002"/><text x="693" y="361" text-anchor="middle" style="font-color:black;font-weight:bold" transform="rotate(360,693,361)">Root</text><path class="line" d=" M 754.3106826155242,363.69760953780434 A 61.370000000000005,61.370000000000005 0 1 0 693,422.37"/><line x1="938.242730462097" y1="371.79043815121736" x2="754.3106826155242" y2="363.69760953780434"/><text x="693" y="287.13034846144916" text-anchor="middle" style="font-color:black;font-weight:normal" transform="rotate(316.2596664324022,693,361)">Bacteria</text><path class="line" d=" M 769.5508366530514,292.03417712516176 A 103.0355051285028,103.0355051285028 0 1 0 693,464.0355051285028"/><line x1="875.3808148283898" y1="196.69032657042797" x2="769.5508366530514" y2="292.03417712516176"/><text x="693" y="249.4935300565507" text-anchor="middle" style="font-color:black;font-weight:normal" transform="rotate(293.9919127745186,693,361)">Proteobacteria</text><path class="line" d=" M 761.3362254861381,248.9173850143595 A 131.27205451165776,131.27205451165776 0 1 0 693,492.27205451165776"/><line x1="820.7893965683874" y1="151.4044358181991" x2="761.3362254861381" y2="248.9173850143595"/><text x="693" y="219.54795991850685" text-anchor="middle" style="font-color:black;font-weight:normal" transform="rotate(285.6852295071198,693,361)">Gammaproteobacteria</text><path class="line" d=" M 619.4138084928004,228.42042531901492 A 151.63202565132852,151.63202565132852 0 0 0 693,512.6320256513285"/><line x1="573.8699005794157" y1="146.36437897673716" x2="619.4138084928004" y2="228.42042531901492"/><text x="693" y="520.3122602614128" text-anchor="middle" style="font-color:black;font-weight:normal" transform="rotate(75.48411473415199,693,361)">Enterobacterales</text><path class="line" d=" M 598.0656701690134,223.61744520155258 A 166.992494871497,166.992494871497 0 0 0 693,527.992494871497"/><line x1="553.4459481556719" y1="159.0467949899517" x2="598.0656701690134" y2="223.61744520155258"/><path class="line" d=" M 584.0137461741251,219.02021652070553 A 178.9867661024841,178.9867661024841 0 0 0 693,539.9867661024841"/><line x1="543.5255658183298" y1="166.27500436238404" x2="584.0137461741251" y2="219.02021652070553"/><path class="line" d=" M 508.7944169295101,320.4837439702308 A 188.60875864341233,188.60875864341233 0 0 0 693,549.6087586434123"/><line x1="453.2508660924096" y1="308.2668681893415" x2="508.7944169295101" y2="320.4837439702308"/><text x="475.9556206782938" y="361" text-anchor="end" style="font-color:black;font-weight:normal" transform="rotate(-38.797621706812365,693,361)">Pantoea ananatis&#160;&#160;&#160;28%</text><line x1="930.98" y1="361" x2="945.98" y2="361" class="tick" transform="rotate(93.94752110712967,693,361)"/><text x="437.52" y="361" text-anchor="end" style="font-color:black;font-weight:normal" transform="rotate(-86.05247889287031,693,361)">4 more</text><path class="line" d=" M 666.0093782145117,555.6346356117392 A 196.49716294155948,196.49716294155948 0 0 0 693,557.4971629415595"/><line x1="659.281152680702" y1="604.1531816272571" x2="666.0093782145117" y2="555.6346356117392"/><line x1="502.64251050692786" y1="206.00175293283175" x2="546.743320059619" y2="241.91075863107574"/><path class="line" d=" M 546.743320059619,241.91075863107574 A 188.60875864341233,188.60875864341233 0 0 0 508.7944169295101,320.4837439702308"/><text x="475.9556206782938" y="361" text-anchor="end" style="font-color:black;font-weight:normal" transform="rotate(25.779449473716912,693,361)">Pantoea agglomerans&#160;&#160;&#160;7%</text><line x1="930.98" y1="361" x2="945.98" y2="361" class="tick" transform="rotate(222.06340745576026,693,361)"/><text x="437.52" y="361" text-anchor="end" style="font-color:black;font-weight:normal" transform="rotate(42.06340745576025,693,361)">9 more</text><path class="line" d=" M 559.5698732468336,227.697092636196 A 188.60875864341233,188.60875864341233 0 0 0 546.743320059619,241.91075863107574"/><line x1="519.3366571576164" y1="187.50223703802763" x2="559.5698732468336" y2="227.697092636196"/><line x1="930.98" y1="361" x2="945.98" y2="361" class="tick" transform="rotate(233.87252004730792,693,361)"/><text x="437.52" y="361" text-anchor="end" style="font-color:black;font-weight:normal" transform="rotate(53.87252004730792,693,361)">5 more</text><path class="line" d=" M 590.9923363847345,213.92621238446264 A 178.9867661024841,178.9867661024841 0 0 0 584.0137461741251,219.02021652070553"/><line x1="553.0966886572077" y1="159.28858764234056" x2="590.9923363847345" y2="213.92621238446264"/><path class="line" d=" M 610.1042458041105,216.0352205544339 A 166.992494871497,166.992494871497 0 0 0 598.0656701690134,223.61744520155258"/><line x1="571.1427287755298" y1="147.90087787668872" x2="610.1042458041105" y2="216.0352205544339"/><text x="486.7637525642515" y="361" text-anchor="end" style="font-color:black;font-weight:normal" transform="rotate(57.79615274794018,693,361)">Enterobacteriaceae&#160;&#160;&#160;1%</text><path class="line" d=" M 611.2571586626668,215.38200237090706 A 166.992494871497,166.992494871497 0 0 0 610.1042458041105,216.0352205544339"/><line x1="572.8375178062356" y1="146.94064310796117" x2="611.2571586626668" y2="215.38200237090706"/><path class="line" d=" M 760.5548617564007,225.24797660366625 A 151.63202565132852,151.63202565132852 0 0 0 619.4138084928004,228.42042531901492"/><line x1="802.3658637924814" y1="141.22844079152458" x2="760.5548617564007" y2="225.24797660366625"/><text x="693" y="201.68773973858723" text-anchor="middle" style="font-color:black;font-weight:normal" transform="rotate(358.71237095008513,693,361)">Pseudo...adales</text><path class="line" d=" M 767.3765511068225,211.48537867866847 A 166.992494871497,166.992494871497 0 0 0 611.9594569148899,214.98998760400931"/><line x1="802.3339900080691" y1="141.21258218697906" x2="767.3765511068225" y2="211.48537867866847"/><path class="line" d=" M 772.6528754515213,200.71375020879117 A 178.9867661024841,178.9867661024841 0 0 0 606.1387027832907,204.50278761059081"/><line x1="802.2437630536533" y1="141.16772158330056" x2="772.6528754515213" y2="200.71375020879117"/><path class="line" d=" M 726.4337480195078,175.37821159579076 A 188.60875864341233,188.60875864341233 0 0 0 601.469202506181,196.08979125853227"/><line x1="736.5150335692824" y1="119.4076320463243" x2="726.4337480195078" y2="175.37821159579076"/><path class="line" d=" M 710.242168774593,165.26077894292564 A 196.49716294155948,196.49716294155948 0 0 0 597.6410031078266,189.19255907906597"/><line x1="714.5402987372694" y1="116.46688173110539" x2="710.242168774593" y2="165.26077894292564"/><text x="472.01141852922024" y="361" text-anchor="end" style="font-color:black;font-weight:normal" transform="rotate(78.00113750173354,693,361)">Pseudomonas monteilii&#160;&#160;&#160;9%</text><path class="line" d=" M 594.4461752600398,183.43608539299348 A 203.0807724562793,203.0807724562793 0 0 0 594.4460134710542,183.4361751913091"/><line x1="573.8700961467248" y1="146.3642704303186" x2="594.4461752600398" y2="183.43608539299348"/><path class="line" d=" M 722.327713730828,166.7037821999502 A 196.49716294155948,196.49716294155948 0 0 0 710.242168774593,165.26077894292564"/><line x1="729.6385298335571" y1="118.26959701834718" x2="722.327713730828" y2="166.7037821999502"/><path class="line" d=" M 723.1264712473004,160.16624817619754 A 203.0807724562793,203.0807724562793 0 0 0 710.819865188625,158.70256416331344"/><line x1="729.4162794554046" y1="118.2361538642422" x2="723.1264712473004" y2="160.16624817619754"/><text x="917.2803862281396" y="361" text-anchor="start" style="font-color:black;font-weight:normal" transform="rotate(276.78260206276843,693,361)">1%&#160;&#160;&#160;Pseudomonas fulva 12-X</text><path class="line" d=" M 727.6531945809044,167.5825986385409 A 196.49716294155948,196.49716294155948 0 0 0 722.327713730828,166.7037821999502"/><line x1="736.2915472079889" y1="119.3674849273416" x2="727.6531945809044" y2="167.5825986385409"/><path class="line" d=" M 750.3038946466093,181.307130093208 A 188.60875864341233,188.60875864341233 0 0 0 726.4337480195078,175.37821159579076"/><line x1="767.5827508702548" y1="127.1242986699441" x2="750.3038946466093" y2="181.307130093208"/><line x1="930.98" y1="361" x2="945.98" y2="361" class="tick" transform="rotate(283.29268661116663,693,361)"/><text x="948.48" y="361" text-anchor="start" style="font-color:black;font-weight:normal" transform="rotate(283.29268661116663,693,361)">156 more</text><path class="line" d=" M 748.3966256977974,172.4732143556786 A 196.49716294155948,196.49716294155948 0 0 0 727.8320866941125,167.61473484100293"/><line x1="762.2059033968839" y1="125.47723393476122" x2="748.3966256977974" y2="172.4732143556786"/><line x1="930.98" y1="361" x2="945.98" y2="361" class="tick" transform="rotate(291.2742465344071,693,361)"/><text x="948.48" y="361" text-anchor="start" style="font-color:black;font-weight:normal" transform="rotate(291.2742465344071,693,361)">95 more</text><path class="line" d=" M 772.2947473808466,189.86962024580006 A 188.60875864341233,188.60875864341233 0 0 0 750.3038946466093,181.307130093208"/><line x1="796.2045103687453" y1="138.2686384014421" x2="772.2947473808466" y2="189.86962024580006"/><path class="line" d=" M 772.6897743772125,200.73209210969807 A 178.9867661024841,178.9867661024841 0 0 0 772.6528754515213,200.71375020879117"/><line x1="802.2943698581448" y1="141.19287746455743" x2="772.6897743772125" y2="200.73209210969807"/><path class="line" d=" M 767.3897652863322,211.4919528451684 A 166.992494871497,166.992494871497 0 0 0 767.3765511068225,211.48537867866847"/><line x1="802.3534149336538" y1="141.22224625238303" x2="767.3897652863322" y2="211.4919528451684"/><path class="line" d=" M 770.9475094085628,230.9367193242952 A 151.63202565132852,151.63202565132852 0 0 0 760.5548617564007,225.24797660366625"/><line x1="819.1907207756566" y1="150.43805569353165" x2="770.9475094085628" y2="230.9367193242952"/><text x="693" y="201.68773973858723" text-anchor="middle" style="font-color:black;font-weight:normal" transform="rotate(388.69547954239476,693,361)">X...s</text><path class="line" d=" M 778.7894539539734,217.7287086200238 A 166.992494871497,166.992494871497 0 0 0 767.398233862159,211.49616679964873"/><line x1="819.1110277610202" y1="150.3903158041891" x2="778.7894539539734" y2="217.7287086200238"/><path class="line" d=" M 783.3141192354309,206.4696718875103 A 178.9867661024841,178.9867661024841 0 0 0 772.7419027302468,200.75802238868494"/><line x1="816.8656380730367" y1="149.0619569195764" x2="783.3141192354309" y2="206.4696718875103"/><text x="905.2333830512421" y="361" text-anchor="start" style="font-color:black;font-weight:normal" transform="rotate(298.3801751990496,693,361)">1%&#160;&#160;&#160;Stenotrophomonas</text><path class="line" d=" M 784.7607288368074,207.32426644664014 A 178.9867661024841,178.9867661024841 0 0 0 783.3141192354309,206.4696718875103"/><line x1="818.8496603148966" y1="150.23403168769124" x2="784.7607288368074" y2="207.32426644664014"/><path class="line" d=" M 778.8358792352586,217.75651784699923 A 166.992494871497,166.992494871497 0 0 0 778.7894539539734,217.7287086200238"/><line x1="819.1792732115638" y1="150.43119553979145" x2="778.8358792352586" y2="217.75651784699923"/><path class="line" d=" M 771.616183722608,231.33980232924873 A 151.63202565132852,151.63202565132852 0 0 0 770.9475094085628,230.9367193242952"/><line x1="820.2732504715223" y1="151.09061451566015" x2="771.616183722608" y2="231.33980232924873"/><path class="line" d=" M 786.2700107322435,268.6254505087097 A 131.27205451165776,131.27205451165776 0 0 0 761.3362254861381,248.9173850143595"/><line x1="867.4158139348526" y1="188.25870716750185" x2="786.2700107322435" y2="268.6254505087097"/><text x="693" y="219.54795991850685" text-anchor="middle" style="font-color:black;font-weight:normal" transform="rotate(398.3234122577075,693,361)">Betapr...cteria</text><path class="line" d=" M 800.5351180875828,254.09597958441987 A 151.63202565132852,151.63202565132852 0 0 0 771.9350051263871,231.5336485073346"/><line x1="867.0906690044508" y1="187.93102714356115" x2="800.5351180875828" y2="254.09597958441987"/><text x="693" y="201.68773973858723" text-anchor="middle" style="font-color:black;font-weight:normal" transform="rotate(398.2695404424357,693,361)">B...s</text><path class="line" d=" M 809.1711582249297,241.0385256005692 A 166.992494871497,166.992494871497 0 0 0 779.9311966395557,218.41858327880925"/><line x1="863.7723208938253" y1="184.65589089358164" x2="809.1711582249297" y2="241.0385256005692"/><path class="line" d=" M 816.3059516080438,231.26216921090398 A 178.9867661024841,178.9867661024841 0 0 0 786.1750482074448,208.17764289422277"/><line x1="862.1138717116723" y1="183.06481855830745" x2="816.3059516080438" y2="231.26216921090398"/><path class="line" d=" M 808.1261087105353,211.6037385669274 A 188.60875864341233,188.60875864341233 0 0 0 791.1839638852626,199.96219986355254"/><line x1="842.8401101281481" y1="166.55625030157316" x2="808.1261087105353" y2="211.6037385669274"/><path class="line" d=" M 808.7868835359425,202.24064548784577 A 196.49716294155948,196.49716294155948 0 0 0 795.2904264286377,193.22692794989644"/><line x1="837.6502521711044" y1="162.66509397779745" x2="808.7868835359425" y2="202.24064548784577"/><text x="913.9885814707798" y="361" text-anchor="start" style="font-color:black;font-weight:normal" transform="rotate(303.73729935954856,693,361)">1%&#160;&#160;&#160;Massilia sp. NP310</text><path class="line" d=" M 812.0508002627344,204.67328443006198 A 196.49716294155948,196.49716294155948 0 0 0 808.7868835359425,202.24064548784577"/><line x1="841.72779846286" y1="165.70414145612077" x2="812.0508002627344" y2="204.67328443006198"/><path class="line" d=" M 819.5765422776908,221.17281100575286 A 188.60875864341233,188.60875864341233 0 0 0 808.1261087105353,211.6037385669274"/><line x1="857.7431955006551" y1="179.01068730215795" x2="819.5765422776908" y2="221.17281100575286"/><text x="910.0443793217062" y="361" text-anchor="start" style="font-color:black;font-weight:normal" transform="rotate(309.88534251288013,693,361)">1%&#160;&#160;&#160;Massilia oculi</text><path class="line" d=" M 821.3140761377005,222.76555529848076 A 188.60875864341233,188.60875864341233 0 0 0 819.5765422776908,221.17281100575286"/><line x1="860.0046483357356" y1="181.08369213921353" x2="821.3140761377005" y2="222.76555529848076"/><path class="line" d=" M 817.2815010669265,232.19638618277477 A 178.9867661024841,178.9867661024841 0 0 0 816.3059516080438,231.26216921090398"/><line x1="863.4518358884729" y1="184.3460953099279" x2="817.2815010669265" y2="232.19638618277477"/><path class="line" d=" M 811.2126912874498,243.0497860875825 A 166.992494871497,166.992494871497 0 0 0 809.1711582249297,241.0385256005692"/><line x1="866.7733871188258" y1="187.6124562454075" x2="811.2126912874498" y2="243.0497860875825"/><path class="line" d=" M 800.6992997098395,254.26138447058943 A 151.63202565132852,151.63202565132852 0 0 0 800.5351180875828,254.09597958441987"/><line x1="867.356465787541" y1="188.19880429210545" x2="800.6992997098395" y2="254.26138447058943"/><path class="line" d=" M 790.0006846374849,272.5510346269057 A 131.27205451165776,131.27205451165776 0 0 0 786.2700107322435,268.6254505087097"/><line x1="874.3922098910639" y1="195.59958708988592" x2="790.0006846374849" y2="272.5510346269057"/><path class="line" d=" M 796.0338814291134,361.5784416453969 A 103.0355051285028,103.0355051285028 0 0 0 769.5508366530514,292.03417712516176"/><line x1="938.4761315691555" y1="362.3781254814535" x2="796.0338814291134" y2="361.5784416453969"/><text x="693" y="238.19891030328876" text-anchor="middle" style="font-color:black;font-weight:normal" transform="rotate(429.1527429612972,693,361)">Terrabacteria group</text><path class="line" d=" M 821.8663297766605,335.9835784812328 A 131.27205451165776,131.27205451165776 0 0 0 790.5293476700054,273.13431478230626"/><line x1="933.981271689972" y1="314.2190520117014" x2="821.8663297766605" y2="335.9835784812328"/><text x="693" y="219.54795991850685" text-anchor="middle" style="font-color:black;font-weight:normal" transform="rotate(423.49890834733986,693,361)">Firm...utes</text><path class="line" d=" M 841.7984082853066,331.8228703453483 A 151.63202565132852,151.63202565132852 0 0 0 805.6559083932239,259.5065642160898"/><line x1="933.8926023969992" y1="313.76458415128246" x2="841.7984082853066" y2="331.8228703453483"/><text x="693" y="201.68773973858723" text-anchor="middle" style="font-color:black;font-weight:normal" transform="rotate(423.44487121437595,693,361)">Bacilli</text><path class="line" d=" M 856.8107203949119,328.5571082191037 A 166.992494871497,166.992494871497 0 0 0 817.0680596581772,249.22518210230913"/><line x1="933.8027718460453" y1="313.30874848296094" x2="856.8107203949119" y2="328.5571082191037"/><path class="line" d=" M 863.7056099214817,307.18683078315996 A 178.9867661024841,178.9867661024841 0 0 0 825.979274259693,241.19693218789982"/><line x1="927.1224104777194" y1="287.1953435608413" x2="863.7056099214817" y2="307.18683078315996"/><line x1="927.1212448199002" y1="287.19164597431836" x2="872.8815274463574" y2="304.29109487413507"/><path class="line" d=" M 872.8815274463574,304.29109487413507 A 188.60875864341233,188.60875864341233 0 0 0 833.1279904071886,234.7565441638584"/><line x1="896.7377798320024" y1="224.06444045052967" x2="856.0841442113432" y2="251.38842692974623"/><path class="line" d=" M 856.0841442113432,251.38842692974623 A 196.49716294155948,196.49716294155948 0 0 0 838.9887269380337,229.47651673144438"/><text x="913.9885814707798" y="361" text-anchor="start" style="font-color:black;font-weight:normal" transform="rotate(322.03905983345163,693,361)">2%&#160;&#160;&#160;Exiguobacterium sibiricum 255-15</text><path class="line" d=" M 867.528805176313,270.71804605675425 A 196.49716294155948,196.49716294155948 0 0 0 856.0841442113432,251.38842692974623"/><line x1="911.0353672964908" y1="248.21254942200198" x2="867.528805176313" y2="270.71804605675425"/><text x="913.9885814707798" y="361" text-anchor="start" style="font-color:black;font-weight:normal" transform="rotate(329.37111699798936,693,361)">2%&#160;&#160;&#160;Exiguobacterium acetylicum</text><path class="line" d=" M 875.9741979466555,289.3649671608934 A 196.49716294155948,196.49716294155948 0 0 0 867.528805176313,270.71804605675425"/><line x1="921.5860286201878" y1="271.5077773231064" x2="875.9741979466555" y2="289.3649671608934"/><text x="913.9885814707798" y="361" text-anchor="start" style="font-color:black;font-weight:normal" transform="rotate(335.6337122604966,693,361)">2%&#160;&#160;&#160;unclassified Exiguobacterium</text><path class="line" d=" M 876.6656931353974,291.15697451301384 A 196.49716294155948,196.49716294155948 0 0 0 875.9741979466555,289.3649671608934"/><line x1="922.4498998150245" y1="273.7464964893946" x2="876.6656931353974" y2="291.15697451301384"/><path class="line" d=" M 872.8824230520046,304.2939358273861 A 188.60875864341233,188.60875864341233 0 0 0 872.8815274463574,304.29109487413507"/><path class="line" d=" M 868.2154291976767,324.4511859166498 A 178.9867661024841,178.9867661024841 0 0 0 863.7056099214817,307.18683078315996"/><line x1="933.3076188036046" y1="310.8733728948227" x2="868.2154291976767" y2="324.4511859166498"/><line x1="931.7741832971144" y1="304.0147405832347" x2="876.4565028017082" y2="317.2167221787155"/><path class="line" d=" M 876.4565028017082,317.2167221787155 A 188.60875864341233,188.60875864341233 0 0 0 872.8824230520046,304.2939358273861"/><text x="910.0443793217062" y="361" text-anchor="start" style="font-color:black;font-weight:normal" transform="rotate(344.54005065198737,693,361)">1%&#160;&#160;&#160;Saccharibacillus brassicae</text><path class="line" d=" M 877.5762118993277,322.20714192143805 A 188.60875864341233,188.60875864341233 0 0 0 876.4565028017082,317.2167221787155"/><line x1="933.2315185304335" y1="310.50992271186345" x2="877.5762118993277" y2="322.20714192143805"/><path class="line" d=" M 868.5293338506392,325.9897815234435 A 178.9867661024841,178.9867661024841 0 0 0 868.2154291976767,324.4511859166498"/><line x1="933.7381384218265" y1="312.9835537633874" x2="868.5293338506392" y2="325.9897815234435"/><path class="line" d=" M 856.8629274131116,328.8218340638832 A 166.992494871497,166.992494871497 0 0 0 856.8107203949119,328.5571082191037"/><line x1="933.8795164856024" y1="313.6978971116252" x2="856.8629274131116" y2="328.8218340638832"/><path class="line" d=" M 841.8421141770494,332.04665389922394 A 151.63202565132852,151.63202565132852 0 0 0 841.7984082853066,331.8228703453483"/><line x1="933.9633587049688" y1="314.1268716467468" x2="841.8421141770494" y2="332.04665389922394"/><path class="line" d=" M 824.2712789644409,361.45123691293594 A 131.27205451165776,131.27205451165776 0 0 0 821.8663297766605,335.9835784812328"/><line x1="938.4785497192719" y1="361.84381735167915" x2="824.2712789644409" y2="361.45123691293594"/><text x="693" y="219.54795991850685" text-anchor="middle" style="font-color:black;font-weight:normal" transform="rotate(444.6054705364477,693,361)">Acti...eria</text><path class="line" d=" M 844.6315035443466,361.3979145711797 A 151.63202565132852,151.63202565132852 0 0 0 841.8531789570784,332.1035933462801"/><line x1="938.4791547509744" y1="361.6441915453784" x2="844.6315035443466" y2="361.3979145711797"/><text x="693" y="201.68773973858723" text-anchor="middle" style="font-color:black;font-weight:normal" transform="rotate(444.5821737932691,693,361)">Actinomycetia</text><path class="line" d=" M 859.9501075709779,357.23769678975077 A 166.992494871497,166.992494871497 0 0 0 856.9321483494153,329.17635971557877"/><line x1="938.4176904061501" y1="355.4693910180654" x2="859.9501075709779" y2="357.23769678975077"/><path class="line" d=" M 871.6926509147158,350.7433461159657 A 178.9867661024841,178.9867661024841 0 0 0 868.7066095447783,326.890620027562"/><line x1="938.0766215946265" y1="346.9330192377961" x2="871.6926509147158" y2="350.7433461159657"/><path class="line" d=" M 880.0570762921623,336.8563870550175 A 188.60875864341233,188.60875864341233 0 0 0 878.1522670268719,325.0569637924269"/><line x1="936.4604385208589" y1="329.5763580208934" x2="880.0570762921623" y2="336.8563870550175"/><text x="910.0443793217062" y="361" text-anchor="start" style="font-color:black;font-weight:normal" transform="rotate(350.82971886179644,693,361)">1%&#160;&#160;&#160;Curtobacterium</text><line x1="930.98" y1="361" x2="945.98" y2="361" class="tick" transform="rotate(354.5984793382613,693,361)"/><text x="948.48" y="361" text-anchor="start" style="font-color:black;font-weight:normal" transform="rotate(354.5984793382613,693,361)">30 more</text><path class="line" d=" M 881.2672411912602,349.65496887440014 A 188.60875864341233,188.60875864341233 0 0 0 880.0570762921623,336.8563870550175"/><line x1="938.0355047137932" y1="346.2340990909251" x2="881.2672411912602" y2="349.65496887440014"/><path class="line" d=" M 871.9349335795541,356.69279850646507 A 178.9867661024841,178.9867661024841 0 0 0 871.6926509147158,350.7433461159657"/><line x1="938.4089117960734" y1="355.0926815671526" x2="871.9349335795541" y2="356.69279850646507"/><path class="line" d=" M 859.9920911144654,360.6327825916414 A 166.992494871497,166.992494871497 0 0 0 859.9501075709779,357.23769678975077"/><line x1="938.4794064746673" y1="360.4601881391542" x2="859.9920911144654" y2="360.6327825916414"/><path class="line" d=" M 844.6312184569819,361.4947649706556 A 151.63202565132852,151.63202565132852 0 0 0 844.6315035443466,361.3979145711797"/><line x1="938.4786932175616" y1="361.8009845181111" x2="844.6312184569819" y2="361.4947649706556"/><path class="line" d=" M 824.2706530255339,361.6065887911354 A 131.27205451165776,131.27205451165776 0 0 0 824.2712789644409,361.45123691293594"/><line x1="938.4773792075171" y1="362.13432685274756" x2="824.2706530255339" y2="361.6065887911354"/><path class="line" d=" M 795.9732851733374,364.5802035830722 A 103.0355051285028,103.0355051285028 0 0 0 796.0338814291134,361.5784416453969"/><line x1="938.33176221949" y1="369.5297623811954" x2="795.9732851733374" y2="364.5802035830722"/><path class="line" d=" M 693.7065343999033,422.36593280592865 A 61.370000000000005,61.370000000000005 0 0 0 754.3106826155242,363.69760953780434"/><line x1="695.8261375996132" y1="606.4637312237147" x2="693.7065343999033" y2="422.36593280592865"/><text x="846.425" y="361" text-anchor="start" style="font-color:black;font-weight:normal" transform="rotate(405.9298445854178,693,361)">24%&#160;&#160;&#160;No hits</text><path class="line" d=" M 693.389670247112,422.36876287736715 A 61.370000000000005,61.370000000000005 0 0 0 693.7065343999033,422.36593280592865"/><line x1="694.5586809884483" y1="606.4750515094686" x2="693.389670247112" y2="422.36876287736715"/><line x1="693.4090575312761" y1="606.479659181644" x2="693.102264382819" y2="422.369914795411"/><path class="line" d=" M 693.102264382819,422.369914795411 A 61.370000000000005,61.370000000000005 0 0 0 693.389670247112,422.36876287736715"/><path class="line" d=" M 693.0654518323853,422.3699650974126 A 61.370000000000005,61.370000000000005 0 0 0 693.102264382819,422.369914795411"/><line x1="693.2618073295412" y1="606.4798603896503" x2="693.0654518323853" y2="422.3699650974126"/><line x1="693.2613599869857" y1="606.4798608663391" x2="693.0653399967464" y2="422.3699652165848"/><path class="line" d=" M 693.0653399967464,422.3699652165848 A 61.370000000000005,61.370000000000005 0 0 0 693.0654518323853,422.3699650974126"/></svg>