<?xml version="1.0" standalone="no"?><!DOCTYPE svg PUBLIC "-//W3C//DTD SVG 1.1//EN" 	"http://www.w3.org/Graphics/SVG/1.1/DTD/svg11.dtd"><svg width="1536" height="722" version="1.1"	xmlns="http://www.w3.org/2000/svg"><title>Krona (snapshot) - Root</title><defs>	<style type="text/css">	text {font-size: 11px; font-family: sans-serif; dominant-baseline:central}	path {stroke-width:0.27499999999999997;}	path.wedge {stroke:none}	path.line {fill:none;stroke:black;}	line {stroke:black;stroke-width:0.27499999999999997;}	line.tick {stroke-width:0.5499999999999999;}	line.pattern {stroke-width:0.18333333333333332;}	circle {fill:none;stroke:black;stroke-width:0.27499999999999997;}	rect {stroke:black;stroke-width:0.27499999999999997;}	.highlight {stroke:black;stroke-width:1.375;}	.searchHighlight {fill:rgb(255, 255, 100);stroke:none;}	</style><pattern id="hiddenPattern" patternUnits="userSpaceOnUse" x="0" y="0" width="6.6" height="6.6"><line class="pattern" x1="0" y1="0" x2="3.3" y2="3.3"/><line class="pattern" x1="3.3" y1="6.6" x2="6.6" y2="3.3"/></pattern></defs><path class="wedge" fill="rgb(220,220,220)" d=" M 693.1766240713451,416.9547212390288 L 693.7064962853807,584.8188849561152 A 223.82,223.82 0 0,1 693.0000000000001,584.8199999999999 L 693,416.955 A 55.955,55.955 0 0 0 693.1766240713451,416.9547212390288 Z "/><path class="wedge" fill="rgb(207,111,111)" d=" M 693,416.955 L 693,584.8199999999999 A 223.82,223.82 0 1,1 856.6509884671603,208.31160367034644 L 733.9127471167901,322.8279009175866 A 55.955,55.955 0 1 0 693,416.955 Z "/><path class="wedge" fill="rgb(207,111,111)" d=" M 761.4923102124844,296.7014438430613 L 856.1815391208243,207.80999480984772 A 223.82,223.82 0 0,1 856.6509884671603,208.31160367034644 L 761.6893525398918,296.91198450754894 A 93.94413702892902,93.94413702892902 0 0 0 761.4923102124844,296.7014438430613 Z "/><path class="wedge" fill="rgb(210,121,121)" d=" M 693,454.94413702892905 L 693,584.8199999999999 A 223.82,223.82 0 1,1 724.103590070003,139.35172212544214 L 706.0551332661424,267.9674015330462 A 93.94413702892902,93.94413702892902 0 1 0 693,454.94413702892905 Z "/><path class="wedge" fill="rgb(210,121,121)" d=" M 709.4615584723979,242.44820560444364 L 723.7832721049198,139.3070083234148 A 223.82,223.82 0 0,1 724.103590070003,139.35172212544214 L 709.6328506239925,242.47211660598003 A 119.68922617239382,119.68922617239382 0 0 0 709.4615584723979,242.44820560444364 Z "/><path class="wedge" fill="rgb(213,130,130)" d=" M 693,480.68922617239383 L 693,584.8199999999999 A 223.82,223.82 0 1,1 715.9968093231328,138.36455996190662 L 705.2976959714049,241.94422510629175 A 119.68922617239382,119.68922617239382 0 1 0 693,480.68922617239383 Z "/><path class="wedge" fill="rgb(213,130,130)" d=" M 706.9656496866091,223.45445198216783 L 715.6092586334764,138.3248693184518 A 223.82,223.82 0 0,1 715.9968093231328,138.36455996190662 L 707.2050382156754,223.47896873573822 A 138.25272927032893,138.25272927032893 0 0 0 706.9656496866091,223.45445198216783 Z "/><path class="wedge" fill="rgb(216,140,140)" d=" M 693,499.2527292703289 L 693,584.8199999999999 A 223.82,223.82 0 1,1 702.4049292375547,137.3776851339818 L 698.8093876136461,222.86938005550948 A 138.25272927032893,138.25272927032893 0 1 0 693,499.2527292703289 Z "/><path class="wedge" fill="rgb(216,140,140)" d=" M 698.4834912814597,208.84091167503823 L 701.0607660889705,137.32519934051825 A 223.82,223.82 0 0,1 702.4049292375547,137.3776851339818 L 699.3978841350381,208.87661614626109 A 152.25786297107078,152.25786297107078 0 0 0 698.4834912814597,208.84091167503823 Z "/><path class="wedge" fill="rgb(219,149,149)" d=" M 693,513.2578629710708 L 693,584.8199999999999 A 223.82,223.82 0 1,1 696.3007103473051,137.2043393825448 L 695.2453717441122,208.7586943623771 A 152.25786297107078,152.25786297107078 0 1 0 693,513.2578629710708 Z "/><path class="wedge" fill="rgb(219,149,149)" d=" M 694.4875954292738,197.8129640866713 L 695.0402342247417,137.18929908445355 A 223.82,223.82 0 0,1 696.3007103473051,137.2043393825448 L 695.4066460440979,197.82393041515658 A 163.1938161522649,163.1938161522649 0 0 0 694.4875954292738,197.8129640866713 Z "/><path class="wedge" fill="rgb(223,159,159)" d=" M 693,524.1938161522648 L 693,584.8199999999999 A 223.82,223.82 0 0,1 654.3924789137419,140.5349195097461 L 664.850108577225,200.25235540380314 A 163.1938161522649,163.1938161522649 0 0 0 693,524.1938161522648 Z "/><path class="wedge" fill="rgb(223,159,159)" d=" M 598.6984508883603,217.1952665812861 L 570.2636836039435,173.83379301399754 A 223.82,223.82 0 0,1 654.3924789137419,140.5349195097461 L 663.3368232590088,191.61086379547513 A 171.9668093513465,171.9668093513465 0 0 0 598.6984508883603,217.1952665812861 Z "/><path class="wedge" fill="rgb(226,168,168)" d=" M 693,532.9668093513465 L 693,584.8199999999999 A 223.82,223.82 0 0,1 495.92905427131257,254.89422848119557 L 541.5851945634226,279.4761371555188 A 171.9668093513465,171.9668093513465 0 0 0 693,532.9668093513465 Z "/><path class="wedge" fill="rgb(226,168,168)" d=" M 693,532.9668093513465 L 693,584.8199999999999 A 223.82,223.82 0 0,1 495.92905427131257,254.89422848119557 L 541.5851945634226,279.4761371555188 A 171.9668093513465,171.9668093513465 0 0 0 693,532.9668093513465 Z "/><path class="wedge" fill="rgb(226,183,168)" d=" M 541.5851945634226,279.4761371555188 L 495.92905427131257,254.89422848119557 A 223.82,223.82 0 0,1 519.5191544324981,219.5793911016342 L 559.7100907165714,252.34281615236972 A 171.9668093513465,171.9668093513465 0 0 0 541.5851945634226,279.4761371555188 Z "/><path class="wedge" fill="rgb(226,183,168)" d=" M 536.2662894565605,274.2097065774799 L 497.1956907253341,252.5746115087846 A 223.82,223.82 0 0,1 519.5191544324981,219.5793911016342 L 554.1353512354696,247.7983199038751 A 179.15917797612775,179.15917797612775 0 0 0 536.2662894565605,274.2097065774799 Z "/><path class="wedge" fill="rgb(229,191,178)" d=" M 535.2523963911638,276.06646946728694 L 495.92905427131257,254.89422848119557 A 223.82,223.82 0 0,1 497.1956907253341,252.5746115087846 L 536.2662894565605,274.2097065774799 A 179.15917797612775,179.15917797612775 0 0 0 535.2523963911638,276.06646946728694 Z "/><path class="wedge" fill="url(#hiddenPattern)" d=" M 535.2523963911638,276.06646946728694 L 495.92905427131257,254.89422848119557 A 223.82,223.82 0 0,1 497.1956907253341,252.5746115087846 L 536.2662894565605,274.2097065774799 A 179.15917797612775,179.15917797612775 0 0 0 535.2523963911638,276.06646946728694 Z "/><path class="wedge" fill="rgb(226,184,168)" d=" M 559.7100907165714,252.34281615236972 L 519.5191544324981,219.5793911016342 A 223.82,223.82 0 0,1 538.3559651845299,199.1957513042638 L 574.1829092465599,236.6815280685483 A 171.9668093513465,171.9668093513465 0 0 0 559.7100907165714,252.34281615236972 Z "/><path class="wedge" fill="rgb(226,184,168)" d=" M 554.9215994423288,246.84060988023322 L 520.5013986895167,218.38294300495846 A 223.82,223.82 0 0,1 538.3559651845299,199.1957513042638 L 569.2134833506777,231.48201148524245 A 179.15917797612775,179.15917797612775 0 0 0 554.9215994423288,246.84060988023322 Z "/><path class="wedge" fill="rgb(229,192,178)" d=" M 554.1353512354696,247.7983199038751 L 519.5191544324981,219.5793911016342 A 223.82,223.82 0 0,1 520.5013986895167,218.38294300495846 L 554.9215994423288,246.84060988023322 A 179.15917797612775,179.15917797612775 0 0 0 554.1353512354696,247.7983199038751 Z "/><path class="wedge" fill="url(#hiddenPattern)" d=" M 554.1353512354696,247.7983199038751 L 519.5191544324981,219.5793911016342 A 223.82,223.82 0 0,1 520.5013986895167,218.38294300495846 L 554.9215994423288,246.84060988023322 A 179.15917797612775,179.15917797612775 0 0 0 554.1353512354696,247.7983199038751 Z "/><path class="wedge" fill="rgb(226,185,168)" d=" M 574.1829092465599,236.6815280685483 L 538.3559651845299,199.1957513042638 A 223.82,223.82 0 0,1 553.740133614031,185.77990408014824 L 586.0029716151822,226.37377879736485 A 171.9668093513465,171.9668093513465 0 0 0 574.1829092465599,236.6815280685483 Z "/><path class="wedge" fill="rgb(226,185,168)" d=" M 586.0029716151822,226.37377879736485 L 553.740133614031,185.77990408014824 A 223.82,223.82 0 0,1 569.1577983734617,174.56367978236693 L 597.8487700975697,217.75605783651017 A 171.9668093513465,171.9668093513465 0 0 0 586.0029716151822,226.37377879736485 Z "/><path class="wedge" fill="rgb(226,185,168)" d=" M 593.8382546341563,211.78552580570002 L 569.1192024963386,174.5893232407091 A 223.82,223.82 0 0,1 569.1577983734617,174.56367978236693 L 593.8691491280292,211.76499921774072 A 179.15917797612775,179.15917797612775 0 0 0 593.8382546341563,211.78552580570002 Z "/><path class="wedge" fill="rgb(229,193,178)" d=" M 581.5279099867054,220.7431491828304 L 553.740133614031,185.77990408014824 A 223.82,223.82 0 0,1 568.5064246025854,174.9980051591697 L 593.3477498368784,212.11265973727498 A 179.15917797612775,179.15917797612775 0 0 0 581.5279099867054,220.7431491828304 Z "/><path class="wedge" fill="rgb(229,194,178)" d=" M 593.3477498368784,212.11265973727498 L 568.5064246025854,174.9980051591697 A 223.82,223.82 0 0,1 569.1192024963386,174.5893232407091 L 593.8382546341563,211.78552580570002 A 179.15917797612775,179.15917797612775 0 0 0 593.3477498368784,212.11265973727498 Z "/><path class="wedge" fill="url(#hiddenPattern)" d=" M 593.3477498368784,212.11265973727498 L 568.5064246025854,174.9980051591697 A 223.82,223.82 0 0,1 569.1192024963386,174.5893232407091 L 593.8382546341563,211.78552580570002 A 179.15917797612775,179.15917797612775 0 0 0 593.3477498368784,212.11265973727498 Z "/><path class="wedge" fill="rgb(226,186,168)" d=" M 597.8487700975697,217.75605783651017 L 569.1577983734617,174.56367978236693 A 223.82,223.82 0 0,1 570.2636836039435,173.83379301399754 L 598.6984508883603,217.1952665812861 A 171.9668093513465,171.9668093513465 0 0 0 597.8487700975697,217.75605783651017 Z "/><path class="wedge" fill="url(#hiddenPattern)" d=" M 597.8487700975697,217.75605783651017 L 569.1577983734617,174.56367978236693 A 223.82,223.82 0 0,1 570.2636836039435,173.83379301399754 L 598.6984508883603,217.1952665812861 A 171.9668093513465,171.9668093513465 0 0 0 597.8487700975697,217.75605783651017 Z "/><path class="wedge" fill="rgb(223,182,159)" d=" M 664.850108577225,200.25235540380314 L 654.3924789137419,140.5349195097461 A 223.82,223.82 0 0,1 694.9065832055362,137.1881206448586 L 694.390146497736,197.8121048513277 A 163.1938161522649,163.1938161522649 0 0 0 664.850108577225,200.25235540380314 Z "/><path class="wedge" fill="rgb(223,182,159)" d=" M 694.294093507363,189.03805990720923 L 694.6843018133005,137.18633748718176 A 223.82,223.82 0 0,1 694.9065832055362,137.1881206448586 L 694.4648781637875,189.03942995428395 A 171.9668093513465,171.9668093513465 0 0 0 694.294093507363,189.03805990720923 Z "/><path class="wedge" fill="rgb(226,189,168)" d=" M 663.3368232590088,191.61086379547513 L 654.3924789137419,140.5349195097461 A 223.82,223.82 0 0,1 692.3653191754303,137.18089987614792 L 692.512357982496,189.03388204723257 A 171.9668093513465,171.9668093513465 0 0 0 663.3368232590088,191.61086379547513 Z "/><path class="wedge" fill="rgb(226,190,168)" d=" M 692.512357982496,189.03388204723257 L 692.3653191754303,137.18089987614792 A 223.82,223.82 0 0,1 694.6843018133005,137.18633748718176 L 694.294093507363,189.03805990720923 A 171.9668093513465,171.9668093513465 0 0 0 692.512357982496,189.03388204723257 Z "/><path class="wedge" fill="url(#hiddenPattern)" d=" M 692.512357982496,189.03388204723257 L 692.3653191754303,137.18089987614792 A 223.82,223.82 0 0,1 694.6843018133005,137.18633748718176 L 694.294093507363,189.03805990720923 A 171.9668093513465,171.9668093513465 0 0 0 692.512357982496,189.03388204723257 Z "/><path class="wedge" fill="rgb(219,176,149)" d=" M 694.390146497736,197.8121048513277 L 694.9065832055362,137.1881206448586 A 223.82,223.82 0 0,1 695.0402342247417,137.18929908445355 L 694.4875954292738,197.8129640866713 A 163.1938161522649,163.1938161522649 0 0 0 694.390146497736,197.8121048513277 Z "/><path class="wedge" fill="url(#hiddenPattern)" d=" M 694.390146497736,197.8121048513277 L 694.9065832055362,137.1881206448586 A 223.82,223.82 0 0,1 695.0402342247417,137.18929908445355 L 694.4875954292738,197.8129640866713 A 163.1938161522649,163.1938161522649 0 0 0 694.390146497736,197.8121048513277 Z "/><path class="wedge" fill="rgb(216,169,140)" d=" M 695.2453717441122,208.7586943623771 L 696.3007103473051,137.2043393825448 A 223.82,223.82 0 0,1 701.0607660889705,137.32519934051825 L 698.4834912814597,208.84091167503823 A 152.25786297107078,152.25786297107078 0 0 0 695.2453717441122,208.7586943623771 Z "/><path class="wedge" fill="url(#hiddenPattern)" d=" M 695.2453717441122,208.7586943623771 L 696.3007103473051,137.2043393825448 A 223.82,223.82 0 0,1 701.0607660889705,137.32519934051825 L 698.4834912814597,208.84091167503823 A 152.25786297107078,152.25786297107078 0 0 0 695.2453717441122,208.7586943623771 Z "/><path class="wedge" fill="rgb(213,163,130)" d=" M 698.8093876136461,222.86938005550948 L 702.4049292375547,137.3776851339818 A 223.82,223.82 0 0,1 715.6092586334764,138.3248693184518 L 706.9656496866091,223.45445198216783 A 138.25272927032893,138.25272927032893 0 0 0 698.8093876136461,222.86938005550948 Z "/><path class="wedge" fill="url(#hiddenPattern)" d=" M 698.8093876136461,222.86938005550948 L 702.4049292375547,137.3776851339818 A 223.82,223.82 0 0,1 715.6092586334764,138.3248693184518 L 706.9656496866091,223.45445198216783 A 138.25272927032893,138.25272927032893 0 0 0 698.8093876136461,222.86938005550948 Z "/><path class="wedge" fill="rgb(210,157,121)" d=" M 705.2976959714049,241.94422510629175 L 715.9968093231328,138.36455996190662 A 223.82,223.82 0 0,1 723.7832721049198,139.3070083234148 L 709.4615584723979,242.44820560444364 A 119.68922617239382,119.68922617239382 0 0 0 705.2976959714049,241.94422510629175 Z "/><path class="wedge" fill="url(#hiddenPattern)" d=" M 705.2976959714049,241.94422510629175 L 715.9968093231328,138.36455996190662 A 223.82,223.82 0 0,1 723.7832721049198,139.3070083234148 L 709.4615584723979,242.44820560444364 A 119.68922617239382,119.68922617239382 0 0 0 705.2976959714049,241.94422510629175 Z "/><path class="wedge" fill="rgb(210,158,121)" d=" M 706.0551332661424,267.9674015330462 L 724.103590070003,139.35172212544214 A 223.82,223.82 0 0,1 855.60978422273,207.2032169548492 L 761.2523270988505,296.4467605173706 A 93.94413702892902,93.94413702892902 0 0 0 706.0551332661424,267.9674015330462 Z "/><path class="wedge" fill="rgb(210,158,121)" d=" M 779.9297443659544,278.72770571926264 L 855.5594550671059,207.15002122754262 A 223.82,223.82 0 0,1 855.60978422273,207.2032169548492 L 779.9566582149874,278.7561524864729 A 119.68922617239382,119.68922617239382 0 0 0 779.9297443659544,278.72770571926264 Z "/><path class="wedge" fill="rgb(213,165,130)" d=" M 709.6328506239925,242.47211660598003 L 724.103590070003,139.35172212544214 A 223.82,223.82 0 0,1 849.3857569595143,200.878522926499 L 776.6283184472716,275.3739804999194 A 119.68922617239382,119.68922617239382 0 0 0 709.6328506239925,242.47211660598003 Z "/><path class="wedge" fill="rgb(213,165,130)" d=" M 789.5757037180648,262.0709820019655 L 849.3482624918876,200.84191180034705 A 223.82,223.82 0 0,1 849.3857569595143,200.878522926499 L 789.5988639025073,262.09359654987077 A 138.25272927032893,138.25272927032893 0 0 0 789.5757037180648,262.0709820019655 Z "/><path class="wedge" fill="rgb(216,171,140)" d=" M 712.2125646380279,224.08873490203786 L 724.103590070003,139.35172212544214 A 223.82,223.82 0 0,1 849.0324392355875,200.53420829911232 L 789.3806209410541,261.8809147655624 A 138.25272927032893,138.25272927032893 0 0 0 712.2125646380279,224.08873490203786 Z "/><path class="wedge" fill="rgb(216,171,140)" d=" M 799.1324161655879,251.8287259606638 L 849.0153079955894,200.51755214029995 A 223.82,223.82 0 0,1 849.0324392355875,200.53420829911232 L 799.1440700213298,251.84005663328503 A 152.25786297107078,152.25786297107078 0 0 0 799.1324161655879,251.8287259606638 Z "/><path class="wedge" fill="rgb(219,178,149)" d=" M 714.1588158108608,210.21949280494036 L 724.103590070003,139.35172212544214 A 223.82,223.82 0 0,1 848.8692700037592,200.37570834865855 L 799.0330710107819,251.73223399126414 A 152.25786297107078,152.25786297107078 0 0 0 714.1588158108608,210.21949280494036 Z "/><path class="wedge" fill="rgb(219,178,149)" d=" M 806.591223780005,243.82809419276276 L 848.7901414764352,200.29896011925655 A 223.82,223.82 0 0,1 848.8692700037592,200.37570834865855 L 806.6489187417623,243.88405360853903 A 163.1938161522649,163.1938161522649 0 0 0 806.591223780005,243.82809419276276 Z "/><path class="wedge" fill="rgb(223,185,159)" d=" M 715.6785522275019,199.38965101453525 L 724.103590070003,139.35172212544214 A 223.82,223.82 0 0,1 847.3529418482,198.91804004514816 L 805.5433188032185,242.82122431207733 A 163.1938161522649,163.1938161522649 0 0 0 715.6785522275019,199.38965101453525 Z "/><path class="wedge" fill="rgb(226,192,168)" d=" M 716.8977086217077,190.70178203776084 L 724.103590070003,139.35172212544214 A 223.82,223.82 0 0,1 847.3517948266892,198.91694772808708 L 811.5925550621008,236.46731592740426 A 171.9668093513465,171.9668093513465 0 0 0 716.8977086217077,190.70178203776084 Z "/><path class="wedge" fill="rgb(226,192,168)" d=" M 716.8977086217077,190.70178203776084 L 724.103590070003,139.35172212544214 A 223.82,223.82 0 0,1 847.3517948266892,198.91694772808708 L 811.5925550621008,236.46731592740426 A 171.9668093513465,171.9668093513465 0 0 0 716.8977086217077,190.70178203776084 Z "/><path class="wedge" fill="rgb(226,192,168)" d=" M 809.8073799907497,225.1543264112603 L 838.9251381082647,191.29070011315267 A 223.82,223.82 0 0,1 847.3517948266892,198.91694772808708 L 816.5525899396371,231.25884009964406 A 179.15917797612775,179.15917797612775 0 0 0 809.8073799907497,225.1543264112603 Z "/><path class="wedge" fill="rgb(229,199,178)" d=" M 717.8972103880269,183.57920085859115 L 724.103590070003,139.35172212544214 A 223.82,223.82 0 0,1 777.1600978238436,153.6055200004564 L 760.3668749196243,194.98880996557637 A 179.15917797612775,179.15917797612775 0 0 0 717.8972103880269,183.57920085859115 Z "/><path class="wedge" fill="rgb(229,199,178)" d=" M 762.090189872174,189.21097894997573 L 776.5148478346104,153.34484694291385 A 223.82,223.82 0 0,1 777.1600978238436,153.6055200004564 L 762.6239924884396,189.42662863990682 A 185.16188076896051,185.16188076896051 0 0 0 762.090189872174,189.21097894997573 Z "/><path class="wedge" fill="rgb(229,199,178)" d=" M 718.7313878832477,177.63474220152662 L 724.103590070003,139.35172212544214 A 223.82,223.82 0 0,1 766.1903203689433,149.48506103754414 L 753.5489115074448,186.01785403886956 A 185.16188076896051,185.16188076896051 0 0 0 718.7313878832477,177.63474220152662 Z "/><path class="wedge" fill="rgb(229,200,178)" d=" M 753.5489115074448,186.01785403886956 L 766.1903203689433,149.48506103754414 A 223.82,223.82 0 0,1 776.5148478346104,153.34484694291385 L 762.090189872174,189.21097894997573 A 185.16188076896051,185.16188076896051 0 0 0 753.5489115074448,186.01785403886956 Z "/><path class="wedge" fill="url(#hiddenPattern)" d=" M 753.5489115074448,186.01785403886956 L 766.1903203689433,149.48506103754414 A 223.82,223.82 0 0,1 776.5148478346104,153.34484694291385 L 762.090189872174,189.21097894997573 A 185.16188076896051,185.16188076896051 0 0 0 753.5489115074448,186.01785403886956 Z "/><path class="wedge" fill="rgb(229,201,178)" d=" M 760.3668749196243,194.98880996557637 L 777.1600978238436,153.6055200004564 A 223.82,223.82 0 0,1 820.983658897717,177.38198493842486 L 795.4459258443933,214.02094254293607 A 179.15917797612775,179.15917797612775 0 0 0 760.3668749196243,194.98880996557637 Z "/><path class="wedge" fill="rgb(229,201,178)" d=" M 760.3668749196243,194.98880996557637 L 777.1600978238436,153.6055200004564 A 223.82,223.82 0 0,1 820.983658897717,177.38198493842486 L 795.4459258443933,214.02094254293607 A 179.15917797612775,179.15917797612775 0 0 0 760.3668749196243,194.98880996557637 Z "/><path class="wedge" fill="rgb(229,202,178)" d=" M 795.4459258443933,214.02094254293607 L 820.983658897717,177.38198493842486 A 223.82,223.82 0 0,1 835.6154986055473,188.50011026817688 L 807.158142689775,222.92056811131218 A 179.15917797612775,179.15917797612775 0 0 0 795.4459258443933,214.02094254293607 Z "/><path class="wedge" fill="rgb(226,196,168)" d=" M 807.158142689775,222.92056811131218 L 835.6154986055473,188.50011026817688 A 223.82,223.82 0 0,1 838.9251381082647,191.29070011315267 L 809.8073799907497,225.1543264112603 A 179.15917797612775,179.15917797612775 0 0 0 807.158142689775,222.92056811131218 Z "/><path class="wedge" fill="url(#hiddenPattern)" d=" M 807.158142689775,222.92056811131218 L 835.6154986055473,188.50011026817688 A 223.82,223.82 0 0,1 838.9251381082647,191.29070011315267 L 809.8073799907497,225.1543264112603 A 179.15917797612775,179.15917797612775 0 0 0 807.158142689775,222.92056811131218 Z "/><path class="wedge" fill="rgb(223,190,159)" d=" M 811.5925550621008,236.46731592740426 L 847.3517948266892,198.91694772808708 A 223.82,223.82 0 0,1 847.3529418482,198.91804004514816 L 811.5934363489808,236.46815518341262 A 171.9668093513465,171.9668093513465 0 0 0 811.5925550621008,236.46731592740426 Z "/><path class="wedge" fill="url(#hiddenPattern)" d=" M 811.5925550621008,236.46731592740426 L 847.3517948266892,198.91694772808708 A 223.82,223.82 0 0,1 847.3529418482,198.91804004514816 L 811.5934363489808,236.46815518341262 A 171.9668093513465,171.9668093513465 0 0 0 811.5925550621008,236.46731592740426 Z "/><path class="wedge" fill="rgb(219,184,149)" d=" M 805.5433188032185,242.82122431207733 L 847.3529418482,198.91804004514816 A 223.82,223.82 0 0,1 848.7901414764352,200.29896011925655 L 806.591223780005,243.82809419276276 A 163.1938161522649,163.1938161522649 0 0 0 805.5433188032185,242.82122431207733 Z "/><path class="wedge" fill="url(#hiddenPattern)" d=" M 805.5433188032185,242.82122431207733 L 847.3529418482,198.91804004514816 A 223.82,223.82 0 0,1 848.7901414764352,200.29896011925655 L 806.591223780005,243.82809419276276 A 163.1938161522649,163.1938161522649 0 0 0 805.5433188032185,242.82122431207733 Z "/><path class="wedge" fill="rgb(216,177,140)" d=" M 799.0330710107819,251.73223399126414 L 848.8692700037592,200.37570834865855 A 223.82,223.82 0 0,1 849.0153079955894,200.51755214029995 L 799.1324161655879,251.8287259606638 A 152.25786297107078,152.25786297107078 0 0 0 799.0330710107819,251.73223399126414 Z "/><path class="wedge" fill="url(#hiddenPattern)" d=" M 799.0330710107819,251.73223399126414 L 848.8692700037592,200.37570834865855 A 223.82,223.82 0 0,1 849.0153079955894,200.51755214029995 L 799.1324161655879,251.8287259606638 A 152.25786297107078,152.25786297107078 0 0 0 799.0330710107819,251.73223399126414 Z "/><path class="wedge" fill="rgb(213,171,130)" d=" M 789.3806209410541,261.8809147655624 L 849.0324392355875,200.53420829911232 A 223.82,223.82 0 0,1 849.3482624918876,200.84191180034705 L 789.5757037180648,262.0709820019655 A 138.25272927032893,138.25272927032893 0 0 0 789.3806209410541,261.8809147655624 Z "/><path class="wedge" fill="url(#hiddenPattern)" d=" M 789.3806209410541,261.8809147655624 L 849.0324392355875,200.53420829911232 A 223.82,223.82 0 0,1 849.3482624918876,200.84191180034705 L 789.5757037180648,262.0709820019655 A 138.25272927032893,138.25272927032893 0 0 0 789.3806209410541,261.8809147655624 Z "/><path class="wedge" fill="rgb(210,165,121)" d=" M 776.6283184472716,275.3739804999194 L 849.3857569595143,200.878522926499 A 223.82,223.82 0 0,1 855.5594550671059,207.15002122754262 L 779.9297443659544,278.72770571926264 A 119.68922617239382,119.68922617239382 0 0 0 776.6283184472716,275.3739804999194 Z "/><path class="wedge" fill="url(#hiddenPattern)" d=" M 776.6283184472716,275.3739804999194 L 849.3857569595143,200.878522926499 A 223.82,223.82 0 0,1 855.5594550671059,207.15002122754262 L 779.9297443659544,278.72770571926264 A 119.68922617239382,119.68922617239382 0 0 0 776.6283184472716,275.3739804999194 Z "/><path class="wedge" fill="rgb(207,159,111)" d=" M 761.2523270988505,296.4467605173706 L 855.60978422273,207.2032169548492 A 223.82,223.82 0 0,1 856.1815391208243,207.80999480984772 L 761.4923102124844,296.7014438430613 A 93.94413702892902,93.94413702892902 0 0 0 761.2523270988505,296.4467605173706 Z "/><path class="wedge" fill="url(#hiddenPattern)" d=" M 761.2523270988505,296.4467605173706 L 855.60978422273,207.2032169548492 A 223.82,223.82 0 0,1 856.1815391208243,207.80999480984772 L 761.4923102124844,296.7014438430613 A 93.94413702892902,93.94413702892902 0 0 0 761.2523270988505,296.4467605173706 Z "/><path class="wedge" fill="rgb(207,207,111)" d=" M 733.9127471167901,322.8279009175866 L 856.6509884671603,208.31160367034644 A 223.82,223.82 0 0,1 741.6474817909163,579.4692539361145 L 705.161870447729,415.6173134840286 A 55.955,55.955 0 0 0 733.9127471167901,322.8279009175866 Z "/><path class="wedge" fill="rgb(111,207,111)" d=" M 705.161870447729,415.6173134840286 L 741.6474817909163,579.4692539361145 A 223.82,223.82 0 0,1 695.1567991582465,584.8096079648749 L 693.5391997895616,416.9524019912187 A 55.955,55.955 0 0 0 705.161870447729,415.6173134840286 Z "/><path class="wedge" fill="rgb(111,207,111)" d=" M 693.9057558461344,454.9397705365379 L 695.157944922304,584.8095969204902 A 223.82,223.82 0 0,1 695.1567991582465,584.8096079648749 L 693.9052749337244,454.93977517220577 A 93.94413702892902,93.94413702892902 0 0 0 693.9057558461344,454.9397705365379 Z "/><path class="wedge" fill="rgb(121,210,121)" d=" M 713.4188441402831,452.69826435699326 L 741.6474817909163,579.4692539361145 A 223.82,223.82 0 0,1 695.1810286860797,584.8093731591027 L 693.915444811675,454.9396766170023 A 93.94413702892902,93.94413702892902 0 0 0 713.4188441402831,452.69826435699326 Z "/><path class="wedge" fill="rgb(121,210,121)" d=" M 713.4188441402831,452.69826435699326 L 741.6474817909163,579.4692539361145 A 223.82,223.82 0 0,1 695.1810286860797,584.8093731591027 L 693.915444811675,454.9396766170023 A 93.94413702892902,93.94413702892902 0 0 0 713.4188441402831,452.69826435699326 Z "/><path class="wedge" fill="rgb(130,213,130)" d=" M 719.0145628218676,477.82787930512796 L 741.6474817909163,579.4692539361145 A 223.82,223.82 0 0,1 695.1816015675143,584.8093675756236 L 694.1666258754011,480.6835404130964 A 119.68922617239382,119.68922617239382 0 0 0 719.0145628218676,477.82787930512796 Z "/><path class="wedge" fill="rgb(130,213,130)" d=" M 719.0145628218676,477.82787930512796 L 741.6474817909163,579.4692539361145 A 223.82,223.82 0 0,1 695.1816015675143,584.8093675756236 L 694.1666258754011,480.6835404130964 A 119.68922617239382,119.68922617239382 0 0 0 719.0145628218676,477.82787930512796 Z "/><path class="wedge" fill="rgb(130,213,130)" d=" M 719.0145628218676,477.82787930512796 L 741.6474817909163,579.4692539361145 A 223.82,223.82 0 0,1 695.1816015675143,584.8093675756236 L 694.1666258754011,480.6835404130964 A 119.68922617239382,119.68922617239382 0 0 0 719.0145628218676,477.82787930512796 Z "/><path class="wedge" fill="rgb(130,213,130)" d=" M 694.3810174258143,499.2458315522189 L 695.2357556474808,584.808833151609 A 223.82,223.82 0 0,1 695.1816015675143,584.8093675756236 L 694.3475666646827,499.24616166382015 A 138.25272927032893,138.25272927032893 0 0 0 694.3810174258143,499.2458315522189 Z "/><path class="wedge" fill="rgb(140,216,140)" d=" M 723.0493572054455,495.94759457743 L 741.6474817909163,579.4692539361145 A 223.82,223.82 0 0,1 695.3635075296038,584.8075204995523 L 694.4599292584161,499.2450207322321 A 138.25272927032893,138.25272927032893 0 0 0 723.0493572054455,495.94759457743 Z "/><path class="wedge" fill="rgb(140,216,140)" d=" M 695.855331162716,513.2310872340752 L 697.1973544641206,584.7806395010581 A 223.82,223.82 0 0,1 695.3635075296038,584.8075204995523 L 694.6078214885779,513.2493735506923 A 152.25786297107078,152.25786297107078 0 0 0 695.855331162716,513.2310872340752 Z "/><path class="wedge" fill="rgb(149,219,149)" d=" M 726.0933858297248,509.6179149727325 L 741.6474817909163,579.4692539361145 A 223.82,223.82 0 0,1 713.7797921818124,583.8532984653373 L 707.1358535903213,512.6002456455476 A 152.25786297107078,152.25786297107078 0 0 0 726.0933858297248,509.6179149727325 Z "/><path class="wedge" fill="rgb(149,219,149)" d=" M 709.8823594618982,523.3182293192558 L 716.1541230167477,583.619134369275 A 223.82,223.82 0 0,1 713.7797921818124,583.8532984653373 L 708.1511642614644,523.4889653233762 A 163.1938161522649,163.1938161522649 0 0 0 709.8823594618982,523.3182293192558 Z "/><path class="wedge" fill="rgb(159,223,159)" d=" M 728.4703252598403,520.292428119796 L 741.6474817909163,579.4692539361145 A 223.82,223.82 0 0,1 726.9880789942806,582.2243270670713 L 717.7817188578379,522.3012338476997 A 163.1938161522649,163.1938161522649 0 0 0 728.4703252598403,520.292428119796 Z "/><path class="wedge" fill="rgb(159,223,159)" d=" M 728.4703252598403,520.292428119796 L 741.6474817909163,579.4692539361145 A 223.82,223.82 0 0,1 726.9880789942806,582.2243270670713 L 717.7817188578379,522.3012338476997 A 163.1938161522649,163.1938161522649 0 0 0 728.4703252598403,520.292428119796 Z "/><path class="wedge" fill="rgb(149,219,160)" d=" M 717.7817188578379,522.3012338476997 L 726.9880789942806,582.2243270670713 A 223.82,223.82 0 0,1 716.1541230167477,583.619134369275 L 709.8823594618982,523.3182293192558 A 163.1938161522649,163.1938161522649 0 0 0 717.7817188578379,522.3012338476997 Z "/><path class="wedge" fill="url(#hiddenPattern)" d=" M 717.7817188578379,522.3012338476997 L 726.9880789942806,582.2243270670713 A 223.82,223.82 0 0,1 716.1541230167477,583.619134369275 L 709.8823594618982,523.3182293192558 A 163.1938161522649,163.1938161522649 0 0 0 717.7817188578379,522.3012338476997 Z "/><path class="wedge" fill="rgb(140,216,174)" d=" M 707.1358535903213,512.6002456455476 L 713.7797921818124,583.8532984653373 A 223.82,223.82 0 0,1 697.1973544641206,584.7806395010581 L 695.855331162716,513.2310872340752 A 152.25786297107078,152.25786297107078 0 0 0 707.1358535903213,512.6002456455476 Z "/><path class="wedge" fill="url(#hiddenPattern)" d=" M 707.1358535903213,512.6002456455476 L 713.7797921818124,583.8532984653373 A 223.82,223.82 0 0,1 697.1973544641206,584.7806395010581 L 695.855331162716,513.2310872340752 A 152.25786297107078,152.25786297107078 0 0 0 707.1358535903213,512.6002456455476 Z "/><path class="wedge" fill="rgb(130,213,170)" d=" M 694.4599292584161,499.2450207322321 L 695.3635075296038,584.8075204995523 A 223.82,223.82 0 0,1 695.2357556474808,584.808833151609 L 694.3810174258143,499.2458315522189 A 138.25272927032893,138.25272927032893 0 0 0 694.4599292584161,499.2450207322321 Z "/><path class="wedge" fill="url(#hiddenPattern)" d=" M 694.4599292584161,499.2450207322321 L 695.3635075296038,584.8075204995523 A 223.82,223.82 0 0,1 695.2357556474808,584.808833151609 L 694.3810174258143,499.2458315522189 A 138.25272927032893,138.25272927032893 0 0 0 694.4599292584161,499.2450207322321 Z "/><path class="wedge" fill="rgb(121,210,164)" d=" M 694.1666258754011,480.6835404130964 L 695.1816015675143,584.8093675756236 A 223.82,223.82 0 0,1 695.1810286860797,584.8093731591027 L 694.1663195232628,480.6835433988988 A 119.68922617239382,119.68922617239382 0 0 0 694.1666258754011,480.6835404130964 Z "/><path class="wedge" fill="url(#hiddenPattern)" d=" M 694.1666258754011,480.6835404130964 L 695.1816015675143,584.8093675756236 A 223.82,223.82 0 0,1 695.1810286860797,584.8093731591027 L 694.1663195232628,480.6835433988988 A 119.68922617239382,119.68922617239382 0 0 0 694.1666258754011,480.6835404130964 Z "/><path class="wedge" fill="rgb(111,207,159)" d=" M 693.915444811675,454.9396766170023 L 695.1810286860797,584.8093731591027 A 223.82,223.82 0 0,1 695.157944922304,584.8095969204902 L 693.9057558461344,454.9397705365379 A 93.94413702892902,93.94413702892902 0 0 0 693.915444811675,454.9396766170023 Z "/><path class="wedge" fill="url(#hiddenPattern)" d=" M 693.915444811675,454.9396766170023 L 695.1810286860797,584.8093731591027 A 223.82,223.82 0 0,1 695.157944922304,584.8095969204902 L 693.9057558461344,454.9397705365379 A 93.94413702892902,93.94413702892902 0 0 0 693.915444811675,454.9396766170023 Z "/><path class="wedge" fill="rgb(111,207,207)" d=" M 693.5391997895616,416.9524019912187 L 695.1567991582465,584.8096079648749 A 223.82,223.82 0 0,1 693.7729533247907,584.8186653144855 L 693.1932383311977,416.9546663286214 A 55.955,55.955 0 0 0 693.5391997895616,416.9524019912187 Z "/><path class="wedge" fill="rgb(111,207,207)" d=" M 693.5391997895616,416.9524019912187 L 695.1567991582465,584.8096079648749 A 223.82,223.82 0 0,1 693.7729533247907,584.8186653144855 L 693.1932383311977,416.9546663286214 A 55.955,55.955 0 0 0 693.5391997895616,416.9524019912187 Z "/><path class="wedge" fill="rgb(111,207,207)" d=" M 693.5391997895616,416.9524019912187 L 695.1567991582465,584.8096079648749 A 223.82,223.82 0 0,1 693.7729533247907,584.8186653144855 L 693.1932383311977,416.9546663286214 A 55.955,55.955 0 0 0 693.5391997895616,416.9524019912187 Z "/><path class="wedge" fill="rgb(111,207,207)" d=" M 693.5391997895616,416.9524019912187 L 695.1567991582465,584.8096079648749 A 223.82,223.82 0 0,1 693.7729533247907,584.8186653144855 L 693.1932383311977,416.9546663286214 A 55.955,55.955 0 0 0 693.5391997895616,416.9524019912187 Z "/><path class="wedge" fill="rgb(111,207,207)" d=" M 693.5391997895616,416.9524019912187 L 695.1567991582465,584.8096079648749 A 223.82,223.82 0 0,1 693.7729533247907,584.8186653144855 L 693.1932383311977,416.9546663286214 A 55.955,55.955 0 0 0 693.5391997895616,416.9524019912187 Z "/><path class="wedge" fill="rgb(111,207,207)" d=" M 693.5391997895616,416.9524019912187 L 695.1567991582465,584.8096079648749 A 223.82,223.82 0 0,1 693.7729533247907,584.8186653144855 L 693.1932383311977,416.9546663286214 A 55.955,55.955 0 0 0 693.5391997895616,416.9524019912187 Z "/><path class="wedge" fill="rgb(111,207,207)" d=" M 693.5391997895616,416.9524019912187 L 695.1567991582465,584.8096079648749 A 223.82,223.82 0 0,1 693.7729533247907,584.8186653144855 L 693.1932383311977,416.9546663286214 A 55.955,55.955 0 0 0 693.5391997895616,416.9524019912187 Z "/><path class="wedge" fill="rgb(111,207,207)" d=" M 693.5391997895616,416.9524019912187 L 695.1567991582465,584.8096079648749 A 223.82,223.82 0 0,1 693.7729533247907,584.8186653144855 L 693.1932383311977,416.9546663286214 A 55.955,55.955 0 0 0 693.5391997895616,416.9524019912187 Z "/><path class="wedge" fill="rgb(111,207,207)" d=" M 693.5391997895616,416.9524019912187 L 695.1567991582465,584.8096079648749 A 223.82,223.82 0 0,1 693.7729533247907,584.8186653144855 L 693.1932383311977,416.9546663286214 A 55.955,55.955 0 0 0 693.5391997895616,416.9524019912187 Z "/><path class="wedge" fill="rgb(111,207,207)" d=" M 693.5391997895616,416.9524019912187 L 695.1567991582465,584.8096079648749 A 223.82,223.82 0 0,1 693.7729533247907,584.8186653144855 L 693.1932383311977,416.9546663286214 A 55.955,55.955 0 0 0 693.5391997895616,416.9524019912187 Z "/><path class="wedge" fill="rgb(111,207,207)" d=" M 693.5391997895616,416.9524019912187 L 695.1567991582465,584.8096079648749 A 223.82,223.82 0 0,1 693.7729533247907,584.8186653144855 L 693.1932383311977,416.9546663286214 A 55.955,55.955 0 0 0 693.5391997895616,416.9524019912187 Z "/><path class="wedge" fill="rgb(111,207,207)" d=" M 693.5391997895616,416.9524019912187 L 695.1567991582465,584.8096079648749 A 223.82,223.82 0 0,1 693.7729533247907,584.8186653144855 L 693.1932383311977,416.9546663286214 A 55.955,55.955 0 0 0 693.5391997895616,416.9524019912187 Z "/><path class="wedge" fill="rgb(111,207,207)" d=" M 693.5391997895616,416.9524019912187 L 695.1567991582465,584.8096079648749 A 223.82,223.82 0 0,1 693.7729533247907,584.8186653144855 L 693.1932383311977,416.9546663286214 A 55.955,55.955 0 0 0 693.5391997895616,416.9524019912187 Z "/><path class="wedge" fill="rgb(111,207,207)" d=" M 693.5391997895616,416.9524019912187 L 695.1567991582465,584.8096079648749 A 223.82,223.82 0 0,1 693.7729533247907,584.8186653144855 L 693.1932383311977,416.9546663286214 A 55.955,55.955 0 0 0 693.5391997895616,416.9524019912187 Z "/><path class="wedge" fill="rgb(111,207,207)" d=" M 693.5391997895616,416.9524019912187 L 695.1567991582465,584.8096079648749 A 223.82,223.82 0 0,1 693.7729533247907,584.8186653144855 L 693.1932383311977,416.9546663286214 A 55.955,55.955 0 0 0 693.5391997895616,416.9524019912187 Z "/><path class="wedge" fill="rgb(111,207,207)" d=" M 693.5391997895616,416.9524019912187 L 695.1567991582465,584.8096079648749 A 223.82,223.82 0 0,1 693.7729533247907,584.8186653144855 L 693.1932383311977,416.9546663286214 A 55.955,55.955 0 0 0 693.5391997895616,416.9524019912187 Z "/><path class="wedge" fill="rgb(111,207,207)" d=" M 693.5391997895616,416.9524019912187 L 695.1567991582465,584.8096079648749 A 223.82,223.82 0 0,1 693.7729533247907,584.8186653144855 L 693.1932383311977,416.9546663286214 A 55.955,55.955 0 0 0 693.5391997895616,416.9524019912187 Z "/><path class="wedge" fill="rgb(111,207,207)" d=" M 693.5391997895616,416.9524019912187 L 695.1567991582465,584.8096079648749 A 223.82,223.82 0 0,1 693.7729533247907,584.8186653144855 L 693.1932383311977,416.9546663286214 A 55.955,55.955 0 0 0 693.5391997895616,416.9524019912187 Z "/><path class="wedge" fill="rgb(111,207,207)" d=" M 693.5391997895616,416.9524019912187 L 695.1567991582465,584.8096079648749 A 223.82,223.82 0 0,1 693.7729533247907,584.8186653144855 L 693.1932383311977,416.9546663286214 A 55.955,55.955 0 0 0 693.5391997895616,416.9524019912187 Z "/><path class="wedge" fill="rgb(111,207,207)" d=" M 693.5391997895616,416.9524019912187 L 695.1567991582465,584.8096079648749 A 223.82,223.82 0 0,1 693.7729533247907,584.8186653144855 L 693.1932383311977,416.9546663286214 A 55.955,55.955 0 0 0 693.5391997895616,416.9524019912187 Z "/><path class="wedge" fill="rgb(111,207,207)" d=" M 693.5391997895616,416.9524019912187 L 695.1567991582465,584.8096079648749 A 223.82,223.82 0 0,1 693.7729533247907,584.8186653144855 L 693.1932383311977,416.9546663286214 A 55.955,55.955 0 0 0 693.5391997895616,416.9524019912187 Z "/><path class="wedge" fill="rgb(111,207,207)" d=" M 693.5391997895616,416.9524019912187 L 695.1567991582465,584.8096079648749 A 223.82,223.82 0 0,1 693.7729533247907,584.8186653144855 L 693.1932383311977,416.9546663286214 A 55.955,55.955 0 0 0 693.5391997895616,416.9524019912187 Z "/><path class="wedge" fill="rgb(111,207,207)" d=" M 693.5391997895616,416.9524019912187 L 695.1567991582465,584.8096079648749 A 223.82,223.82 0 0,1 693.7729533247907,584.8186653144855 L 693.1932383311977,416.9546663286214 A 55.955,55.955 0 0 0 693.5391997895616,416.9524019912187 Z "/><path class="wedge" fill="rgb(111,207,207)" d=" M 693.5391997895616,416.9524019912187 L 695.1567991582465,584.8096079648749 A 223.82,223.82 0 0,1 693.7729533247907,584.8186653144855 L 693.1932383311977,416.9546663286214 A 55.955,55.955 0 0 0 693.5391997895616,416.9524019912187 Z "/><path class="wedge" fill="rgb(111,207,207)" d=" M 693.5391997895616,416.9524019912187 L 695.1567991582465,584.8096079648749 A 223.82,223.82 0 0,1 693.7729533247907,584.8186653144855 L 693.1932383311977,416.9546663286214 A 55.955,55.955 0 0 0 693.5391997895616,416.9524019912187 Z "/><path class="wedge" fill="rgb(111,207,207)" d=" M 693.5391997895616,416.9524019912187 L 695.1567991582465,584.8096079648749 A 223.82,223.82 0 0,1 693.7729533247907,584.8186653144855 L 693.1932383311977,416.9546663286214 A 55.955,55.955 0 0 0 693.5391997895616,416.9524019912187 Z "/><path class="wedge" fill="rgb(111,207,207)" d=" M 693.5391997895616,416.9524019912187 L 695.1567991582465,584.8096079648749 A 223.82,223.82 0 0,1 693.7729533247907,584.8186653144855 L 693.1932383311977,416.9546663286214 A 55.955,55.955 0 0 0 693.5391997895616,416.9524019912187 Z "/><path class="wedge" fill="rgb(111,207,207)" d=" M 693.5391997895616,416.9524019912187 L 695.1567991582465,584.8096079648749 A 223.82,223.82 0 0,1 693.7729533247907,584.8186653144855 L 693.1932383311977,416.9546663286214 A 55.955,55.955 0 0 0 693.5391997895616,416.9524019912187 Z "/><path class="wedge" fill="rgb(111,207,207)" d=" M 693.5391997895616,416.9524019912187 L 695.1567991582465,584.8096079648749 A 223.82,223.82 0 0,1 693.7729533247907,584.8186653144855 L 693.1932383311977,416.9546663286214 A 55.955,55.955 0 0 0 693.5391997895616,416.9524019912187 Z "/><path class="wedge" fill="rgb(111,207,207)" d=" M 693.5391997895616,416.9524019912187 L 695.1567991582465,584.8096079648749 A 223.82,223.82 0 0,1 693.7729533247907,584.8186653144855 L 693.1932383311977,416.9546663286214 A 55.955,55.955 0 0 0 693.5391997895616,416.9524019912187 Z "/><path class="wedge" fill="rgb(101,101,204)" d=" M 693.1932383311977,416.9546663286214 L 693.7729533247907,584.8186653144855 A 223.82,223.82 0 0,1 693.7068332887852,584.8188838920922 L 693.1767083221963,416.9547209730231 A 55.955,55.955 0 0 0 693.1932383311977,416.9546663286214 Z "/><path class="wedge" fill="url(#hiddenPattern)" d=" M 693.1932383311977,416.9546663286214 L 693.7729533247907,584.8186653144855 A 223.82,223.82 0 0,1 693.7068332887852,584.8188838920922 L 693.1767083221963,416.9547209730231 A 55.955,55.955 0 0 0 693.1932383311977,416.9546663286214 Z "/><path class="wedge" fill="rgb(207,111,207)" d=" M 693.1767083221963,416.9547209730231 L 693.7068332887852,584.8188838920922 A 223.82,223.82 0 0,1 693.7064962853807,584.8188849561152 L 693.1766240713451,416.9547212390288 A 55.955,55.955 0 0 0 693.1767083221963,416.9547209730231 Z "/><path class="wedge" fill="rgb(207,111,207)" d=" M 693.1767083221963,416.9547209730231 L 693.7068332887852,584.8188838920922 A 223.82,223.82 0 0,1 693.7064962853807,584.8188849561152 L 693.1766240713451,416.9547212390288 A 55.955,55.955 0 0 0 693.1767083221963,416.9547209730231 Z "/><circle cx="693" cy="361" r="55.955"/><circle cx="693" cy="361" r="223.82"/><text x="693" y="361" text-anchor="middle" style="font-color:black;font-weight:bold" transform="rotate(360,693,361)">Root</text><path class="line" d=" M 733.9127471167901,322.8279009175866 A 55.955,55.955 0 1 0 693,416.955"/><line x1="856.6509884671603" y1="208.31160367034644" x2="733.9127471167901" y2="322.8279009175866"/><text x="693" y="293.6482588913213" text-anchor="middle" style="font-color:black;font-weight:normal" transform="rotate(293.49238196863337,693,361)">Bacteria</text><path class="line" d=" M 706.0551332661424,267.9674015330462 A 93.94413702892902,93.94413702892902 0 1 0 693,454.94413702892905"/><line x1="724.103590070003" y1="139.35172212544214" x2="706.0551332661424" y2="267.9674015330462"/><text x="693" y="254.1833183993386" text-anchor="middle" style="font-color:black;font-weight:normal" transform="rotate(273.99403720387556,693,361)">Proteobacteria</text><path class="line" d=" M 705.2976959714049,241.94422510629175 A 119.68922617239382,119.68922617239382 0 1 0 693,480.68922617239383"/><line x1="715.9968093231328" y1="138.36455996190662" x2="705.2976959714049" y2="241.94422510629175"/><text x="693" y="232.02902227863862" text-anchor="middle" style="font-color:black;font-weight:normal" transform="rotate(272.9486854069561,693,361)">Gammaproteobacteria</text><path class="line" d=" M 698.8093876136461,222.86938005550948 A 138.25272927032893,138.25272927032893 0 1 0 693,499.2527292703289"/><line x1="702.4049292375547" y1="137.3776851339818" x2="698.8093876136461" y2="222.86938005550948"/><text x="693" y="215.74470387930015" text-anchor="middle" style="font-color:black;font-weight:normal" transform="rotate(271.2041405036677,693,361)">Enterobacterales</text><path class="line" d=" M 695.2453717441122,208.7586943623771 A 152.25786297107078,152.25786297107078 0 1 0 693,513.2578629710708"/><line x1="696.3007103473051" y1="137.2043393825448" x2="695.2453717441122" y2="208.7586943623771"/><path class="line" d=" M 664.850108577225,200.25235540380314 A 163.1938161522649,163.1938161522649 0 0 0 693,524.1938161522648"/><line x1="654.3924789137419" y1="140.5349195097461" x2="664.850108577225" y2="200.25235540380314"/><line x1="495.92905427131257" y1="254.89422848119557" x2="541.5851945634226" y2="279.4761371555188"/><path class="line" d=" M 541.5851945634226,279.4761371555188 A 171.9668093513465,171.9668093513465 0 0 0 693,532.9668093513465"/><text x="495.1065953243268" y="361" text-anchor="end" style="font-color:black;font-weight:normal" transform="rotate(-30.850676175290843,693,361)">Pantoea agglomerans&#160;&#160;&#160;33%</text><path class="line" d=" M 559.7100907165714,252.34281615236972 A 171.9668093513465,171.9668093513465 0 0 0 541.5851945634226,279.4761371555188"/><line x1="519.5191544324981" y1="219.5793911016342" x2="559.7100907165714" y2="252.34281615236972"/><text x="495.1065953243268" y="361" text-anchor="end" style="font-color:black;font-weight:normal" transform="rotate(33.742686454083135,693,361)">Pantoea ananatis&#160;&#160;&#160;3%</text><path class="line" d=" M 536.2662894565605,274.2097065774799 A 179.15917797612775,179.15917797612775 0 0 0 535.2523963911638,276.06646946728694"/><line x1="497.1956907253341" y1="252.5746115087846" x2="536.2662894565605" y2="274.2097065774799"/><path class="line" d=" M 574.1829092465599,236.6815280685483 A 171.9668093513465,171.9668093513465 0 0 0 559.7100907165714,252.34281615236972"/><line x1="538.3559651845299" y1="199.1957513042638" x2="574.1829092465599" y2="236.6815280685483"/><text x="495.1065953243268" y="361" text-anchor="end" style="font-color:black;font-weight:normal" transform="rotate(42.7414622816672,693,361)">Pantoea vagans&#160;&#160;&#160;2%</text><path class="line" d=" M 554.9215994423288,246.84060988023322 A 179.15917797612775,179.15917797612775 0 0 0 554.1353512354696,247.7983199038751"/><line x1="520.5013986895167" y1="218.38294300495846" x2="554.9215994423288" y2="246.84060988023322"/><path class="line" d=" M 586.0029716151822,226.37377879736485 A 171.9668093513465,171.9668093513465 0 0 0 574.1829092465599,236.6815280685483"/><line x1="553.740133614031" y1="185.77990408014824" x2="586.0029716151822" y2="226.37377879736485"/><text x="495.1065953243268" y="361" text-anchor="end" style="font-color:black;font-weight:normal" transform="rotate(48.90976859105816,693,361)">Pantoea eucalypti&#160;&#160;&#160;1%</text><path class="line" d=" M 597.8487700975697,217.75605783651017 A 171.9668093513465,171.9668093513465 0 0 0 586.0029716151822,226.37377879736485"/><line x1="569.1577983734617" y1="174.56367978236693" x2="597.8487700975697" y2="217.75605783651017"/><path class="line" d=" M 593.3477498368784,212.11265973727498 A 179.15917797612775,179.15917797612775 0 0 0 581.5279099867054,220.7431491828304"/><line x1="568.5064246025854" y1="174.9980051591697" x2="593.3477498368784" y2="212.11265973727498"/><text x="491.5104110119361" y="361" text-anchor="end" style="font-color:black;font-weight:normal" transform="rotate(53.86421175891845,693,361)">Pantoea sp. MT58&#160;&#160;&#160;1%</text><path class="line" d=" M 593.8382546341563,211.78552580570002 A 179.15917797612775,179.15917797612775 0 0 0 593.3477498368784,212.11265973727498"/><line x1="569.1192024963386" y1="174.5893232407091" x2="593.8382546341563" y2="211.78552580570002"/><path class="line" d=" M 598.6984508883603,217.1952665812861 A 171.9668093513465,171.9668093513465 0 0 0 597.8487700975697,217.75605783651017"/><line x1="570.2636836039435" y1="173.83379301399754" x2="598.6984508883603" y2="217.1952665812861"/><path class="line" d=" M 694.390146497736,197.8121048513277 A 163.1938161522649,163.1938161522649 0 0 0 664.850108577225,200.25235540380314"/><line x1="694.9065832055362" y1="137.1881206448586" x2="694.390146497736" y2="197.8121048513277"/><path class="line" d=" M 692.512357982496,189.03388204723257 A 171.9668093513465,171.9668093513465 0 0 0 663.3368232590088,191.61086379547513"/><line x1="692.3653191754303" y1="137.18089987614792" x2="692.512357982496" y2="189.03388204723257"/><text x="495.1065953243268" y="361" text-anchor="end" style="font-color:black;font-weight:normal" transform="rotate(84.95234632567112,693,361)">Erwinia persicina&#160;&#160;&#160;3%</text><path class="line" d=" M 694.294093507363,189.03805990720923 A 171.9668093513465,171.9668093513465 0 0 0 692.512357982496,189.03388204723257"/><line x1="694.6843018133005" y1="137.18633748718176" x2="694.294093507363" y2="189.03805990720923"/><path class="line" d=" M 694.4875954292738,197.8129640866713 A 163.1938161522649,163.1938161522649 0 0 0 694.390146497736,197.8121048513277"/><line x1="695.0402342247417" y1="137.18929908445355" x2="694.4875954292738" y2="197.8129640866713"/><path class="line" d=" M 698.4834912814597,208.84091167503823 A 152.25786297107078,152.25786297107078 0 0 0 695.2453717441122,208.7586943623771"/><line x1="701.0607660889705" y1="137.32519934051825" x2="698.4834912814597" y2="208.84091167503823"/><line x1="908.5699999999999" y1="361" x2="925.0699999999999" y2="361" class="tick" transform="rotate(274.1029618051688,693,361)"/><text x="927.8199999999999" y="361" text-anchor="start" style="font-color:black;font-weight:normal" transform="rotate(274.1029618051688,693,361)">22 more</text><path class="line" d=" M 706.9656496866091,223.45445198216783 A 138.25272927032893,138.25272927032893 0 0 0 698.8093876136461,222.86938005550948"/><line x1="715.6092586334764" y1="138.3248693184518" x2="706.9656496866091" y2="223.45445198216783"/><path class="line" d=" M 709.4615584723979,242.44820560444364 A 119.68922617239382,119.68922617239382 0 0 0 705.2976959714049,241.94422510629175"/><line x1="723.7832721049198" y1="139.3070083234148" x2="709.4615584723979" y2="242.44820560444364"/><path class="line" d=" M 761.2523270988505,296.4467605173706 A 93.94413702892902,93.94413702892902 0 0 0 706.0551332661424,267.9674015330462"/><line x1="855.60978422273" y1="207.2032169548492" x2="761.2523270988505" y2="296.4467605173706"/><text x="693" y="254.1833183993386" text-anchor="middle" style="font-color:black;font-weight:normal" transform="rotate(387.2917723075732,693,361)">Terrabacteria group</text><path class="line" d=" M 776.6283184472716,275.3739804999194 A 119.68922617239382,119.68922617239382 0 0 0 709.6328506239925,242.47211660598003"/><line x1="849.3857569595143" y1="200.878522926499" x2="776.6283184472716" y2="275.3739804999194"/><text x="693" y="232.02902227863862" text-anchor="middle" style="font-color:black;font-weight:normal" transform="rotate(386.1559231981583,693,361)">Firmicutes</text><path class="line" d=" M 789.3806209410541,261.8809147655624 A 138.25272927032893,138.25272927032893 0 0 0 712.2125646380279,224.08873490203786"/><line x1="849.0324392355875" y1="200.53420829911232" x2="789.3806209410541" y2="261.8809147655624"/><text x="693" y="215.74470387930015" text-anchor="middle" style="font-color:black;font-weight:normal" transform="rotate(386.0927778140964,693,361)">Bacilli</text><path class="line" d=" M 799.0330710107819,251.73223399126414 A 152.25786297107078,152.25786297107078 0 0 0 714.1588158108608,210.21949280494036"/><line x1="848.8692700037592" y1="200.37570834865855" x2="799.0330710107819" y2="251.73223399126414"/><path class="line" d=" M 805.5433188032185,242.82122431207733 A 163.1938161522649,163.1938161522649 0 0 0 715.6785522275019,199.38965101453525"/><line x1="847.3529418482" y1="198.91804004514816" x2="805.5433188032185" y2="242.82122431207733"/><line x1="847.3517948266892" y1="198.91694772808708" x2="811.5925550621008" y2="236.46731592740426"/><path class="line" d=" M 811.5925550621008,236.46731592740426 A 171.9668093513465,171.9668093513465 0 0 0 716.8977086217077,190.70178203776084"/><path class="line" d=" M 760.3668749196243,194.98880996557637 A 179.15917797612775,179.15917797612775 0 0 0 717.8972103880269,183.57920085859115"/><line x1="777.1600978238436" y1="153.6055200004564" x2="760.3668749196243" y2="194.98880996557637"/><path class="line" d=" M 753.5489115074448,186.01785403886956 A 185.16188076896051,185.16188076896051 0 0 0 718.7313878832477,177.63474220152662"/><line x1="766.1903203689433" y1="149.48506103754414" x2="753.5489115074448" y2="186.01785403886956"/><text x="897.4909403844803" y="361" text-anchor="start" style="font-color:black;font-weight:normal" transform="rotate(283.5375913240674,693,361)">3%&#160;&#160;&#160;Exiguobacterium sp. Helios</text><path class="line" d=" M 762.090189872174,189.21097894997573 A 185.16188076896051,185.16188076896051 0 0 0 753.5489115074448,186.01785403886956"/><line x1="776.5148478346104" y1="153.34484694291385" x2="762.090189872174" y2="189.21097894997573"/><line x1="820.983658897717" y1="177.38198493842486" x2="795.4459258443933" y2="214.02094254293607"/><path class="line" d=" M 795.4459258443933,214.02094254293607 A 179.15917797612775,179.15917797612775 0 0 0 760.3668749196243,194.98880996557637"/><text x="894.4895889880638" y="361" text-anchor="start" style="font-color:black;font-weight:normal" transform="rotate(298.4820362690913,693,361)">4%&#160;&#160;&#160;Exiguobacterium sibiricum 255-15</text><path class="line" d=" M 807.158142689775,222.92056811131218 A 179.15917797612775,179.15917797612775 0 0 0 795.4459258443933,214.02094254293607"/><line x1="835.6154986055473" y1="188.50011026817688" x2="807.158142689775" y2="222.92056811131218"/><text x="894.4895889880638" y="361" text-anchor="start" style="font-color:black;font-weight:normal" transform="rotate(307.22968852475674,693,361)">1%&#160;&#160;&#160;Exiguobacterium acetylicum</text><path class="line" d=" M 809.8073799907497,225.1543264112603 A 179.15917797612775,179.15917797612775 0 0 0 807.158142689775,222.92056811131218"/><line x1="838.9251381082647" y1="191.29070011315267" x2="809.8073799907497" y2="225.1543264112603"/><path class="line" d=" M 811.5934363489808,236.46815518341262 A 171.9668093513465,171.9668093513465 0 0 0 811.5925550621008,236.46731592740426"/><path class="line" d=" M 806.591223780005,243.82809419276276 A 163.1938161522649,163.1938161522649 0 0 0 805.5433188032185,242.82122431207733"/><line x1="848.7901414764352" y1="200.29896011925655" x2="806.591223780005" y2="243.82809419276276"/><path class="line" d=" M 799.1324161655879,251.8287259606638 A 152.25786297107078,152.25786297107078 0 0 0 799.0330710107819,251.73223399126414"/><line x1="849.0153079955894" y1="200.51755214029995" x2="799.1324161655879" y2="251.8287259606638"/><path class="line" d=" M 789.5757037180648,262.0709820019655 A 138.25272927032893,138.25272927032893 0 0 0 789.3806209410541,261.8809147655624"/><line x1="849.3482624918876" y1="200.84191180034705" x2="789.5757037180648" y2="262.0709820019655"/><path class="line" d=" M 779.9297443659544,278.72770571926264 A 119.68922617239382,119.68922617239382 0 0 0 776.6283184472716,275.3739804999194"/><line x1="855.5594550671059" y1="207.15002122754262" x2="779.9297443659544" y2="278.72770571926264"/><path class="line" d=" M 761.4923102124844,296.7014438430613 A 93.94413702892902,93.94413702892902 0 0 0 761.2523270988505,296.4467605173706"/><line x1="856.1815391208243" y1="207.80999480984772" x2="761.4923102124844" y2="296.7014438430613"/><path class="line" d=" M 705.161870447729,415.6173134840286 A 55.955,55.955 0 0 0 733.9127471167901,322.8279009175866"/><line x1="741.6474817909163" y1="579.4692539361145" x2="705.161870447729" y2="415.6173134840286"/><text x="832.8875" y="361" text-anchor="start" style="font-color:black;font-weight:normal" transform="rotate(377.2156384838935,693,361)">33%&#160;&#160;&#160;No hits</text><path class="line" d=" M 693.5391997895616,416.9524019912187 A 55.955,55.955 0 0 0 705.161870447729,415.6173134840286"/><line x1="695.1567991582465" y1="584.8096079648749" x2="693.5391997895616" y2="416.9524019912187"/><text x="693" y="443.5473959202503" text-anchor="middle" style="font-color:black;font-weight:normal" transform="rotate(353.4471922636061,693,361)">Viruses</text><line x1="695.1810286860797" y1="584.8093731591027" x2="693.915444811675" y2="454.9396766170023"/><path class="line" d=" M 693.915444811675,454.9396766170023 A 93.94413702892902,93.94413702892902 0 0 0 713.4188441402831,452.69826435699326"/><text x="693" y="467.8166816006614" text-anchor="middle" style="font-color:black;font-weight:normal" transform="rotate(353.4440908542789,693,361)">Heunggongvirae</text><line x1="695.1816015675143" y1="584.8093675756236" x2="694.1666258754011" y2="480.6835404130964"/><path class="line" d=" M 694.1666258754011,480.6835404130964 A 119.68922617239382,119.68922617239382 0 0 0 719.0145628218676,477.82787930512796"/><text x="693" y="489.97097772136135" text-anchor="middle" style="font-color:black;font-weight:normal" transform="rotate(353.444017524712,693,361)">Caudovirales</text><path class="line" d=" M 694.4599292584161,499.2450207322321 A 138.25272927032893,138.25272927032893 0 0 0 723.0493572054455,495.94759457743"/><line x1="695.3635075296038" y1="584.8075204995523" x2="694.4599292584161" y2="499.2450207322321"/><text x="693" y="506.2552961206999" text-anchor="middle" style="font-color:black;font-weight:normal" transform="rotate(353.4207332304867,693,361)">Myoviridae</text><path class="line" d=" M 707.1358535903213,512.6002456455476 A 152.25786297107078,152.25786297107078 0 0 0 726.0933858297248,509.6179149727325"/><line x1="713.7797921818124" y1="583.8532984653373" x2="707.1358535903213" y2="512.6002456455476"/><line x1="726.9880789942806" y1="582.2243270670713" x2="717.7817188578379" y2="522.3012338476997"/><path class="line" d=" M 717.7817188578379,522.3012338476997 A 163.1938161522649,163.1938161522649 0 0 0 728.4703252598403,520.292428119796"/><text x="886.5069080761325" y="361" text-anchor="start" style="font-color:black;font-weight:normal" transform="rotate(439.3560494592112,693,361)">1%&#160;&#160;&#160;Pectinobacterium phage vB_PcaM_CBB</text><path class="line" d=" M 709.8823594618982,523.3182293192558 A 163.1938161522649,163.1938161522649 0 0 0 717.7817188578379,522.3012338476997"/><line x1="716.1541230167477" y1="583.619134369275" x2="709.8823594618982" y2="523.3182293192558"/><line x1="908.5699999999999" y1="361" x2="925.0699999999999" y2="361" class="tick" transform="rotate(446.7991773477012,693,361)"/><text x="927.8199999999999" y="361" text-anchor="start" style="font-color:black;font-weight:normal" transform="rotate(446.7991773477012,693,361)">46 more</text><path class="line" d=" M 695.855331162716,513.2310872340752 A 152.25786297107078,152.25786297107078 0 0 0 707.1358535903213,512.6002456455476"/><line x1="697.1973544641206" y1="584.7806395010581" x2="695.855331162716" y2="513.2310872340752"/><path class="line" d=" M 694.3810174258143,499.2458315522189 A 138.25272927032893,138.25272927032893 0 0 0 694.4599292584161,499.2450207322321"/><line x1="695.2357556474808" y1="584.808833151609" x2="694.3810174258143" y2="499.2458315522189"/><path class="line" d=" M 694.1663195232628,480.6835433988988 A 119.68922617239382,119.68922617239382 0 0 0 694.1666258754011,480.6835404130964"/><path class="line" d=" M 693.9057558461344,454.9397705365379 A 93.94413702892902,93.94413702892902 0 0 0 693.915444811675,454.9396766170023"/><line x1="695.157944922304" y1="584.8095969204902" x2="693.9057558461344" y2="454.9397705365379"/><line x1="693.7729533247907" y1="584.8186653144855" x2="693.1932383311977" y2="416.9546663286214"/><path class="line" d=" M 693.1932383311977,416.9546663286214 A 55.955,55.955 0 0 0 693.5391997895616,416.9524019912187"/><path class="line" d=" M 693.1767083221963,416.9547209730231 A 55.955,55.955 0 0 0 693.1932383311977,416.9546663286214"/><line x1="693.7068332887852" y1="584.8188838920922" x2="693.1767083221963" y2="416.9547209730231"/><line x1="693.7064962853807" y1="584.8188849561152" x2="693.1766240713451" y2="416.9547212390288"/><path class="line" d=" M 693.1766240713451,416.9547212390288 A 55.955,55.955 0 0 0 693.1767083221963,416.9547209730231"/></svg>